%TF.GenerationSoftware,Altium Limited,Altium Designer,26.9.1 (10)*%
G04 Layer_Color=128*
G04 Board_Origin=13779528|11122048*
%FSLAX45Y45*%
%MOMM*%
%TF.SameCoordinates,C0C7667C-18A9-4E34-ADBB-357C6C009FE5*%
%TF.FilePolarity,Positive*%
%TF.FileFunction,Drillmap*%
%TF.Part,Single*%
G01*
G75*
%TA.AperFunction,NonConductor*%
%ADD69C,0.12700*%
D69*
X1715000Y3325000D02*
X1935000D01*
X1825000Y3215000D02*
Y3435000D01*
X4715000Y600000D02*
X4935000D01*
X4825000Y490000D02*
Y710000D01*
X165000Y4850000D02*
X385000D01*
X275000Y4740000D02*
Y4960000D01*
X1865000Y7400000D02*
X2085000D01*
X1975000Y7290000D02*
Y7510000D01*
X1715000Y600000D02*
X1935000D01*
X1825000Y490000D02*
Y710000D01*
X4715000Y3325000D02*
X4935000D01*
X4825000Y3215000D02*
Y3435000D01*
X7615000Y275000D02*
X7835000D01*
X7725000Y165000D02*
Y385000D01*
X165000Y275000D02*
X385000D01*
X275000Y165000D02*
Y385000D01*
X4185250Y7556000D02*
X4248750D01*
X4217000Y7524250D02*
Y7587750D01*
X4185250Y7810000D02*
X4248750D01*
X4217000Y7778250D02*
Y7841750D01*
X3931250Y7810000D02*
X3994750D01*
X3963000Y7778250D02*
Y7841750D01*
X3931250Y7556000D02*
X3994750D01*
X3963000Y7524250D02*
Y7587750D01*
X7535000Y1254000D02*
X7665000D01*
X7600000Y1189000D02*
Y1319000D01*
X7535000Y1000000D02*
X7665000D01*
X7600000Y935000D02*
Y1065000D01*
X165000Y7725000D02*
X385000D01*
X275000Y7615000D02*
Y7835000D01*
X7615000Y7725000D02*
X7835000D01*
X7725000Y7615000D02*
Y7835000D01*
X4439250Y7810000D02*
X4502750D01*
X4471000Y7778250D02*
Y7841750D01*
X4693250Y7810000D02*
X4756750D01*
X4725000Y7778250D02*
Y7841750D01*
X4947250Y7810000D02*
X5010750D01*
X4979000Y7778250D02*
Y7841750D01*
X5201250Y7810000D02*
X5264750D01*
X5233000Y7778250D02*
Y7841750D01*
X4439250Y7556000D02*
X4502750D01*
X4471000Y7524250D02*
Y7587750D01*
X4693250Y7556000D02*
X4756750D01*
X4725000Y7524250D02*
Y7587750D01*
X4947250Y7556000D02*
X5010750D01*
X4979000Y7524250D02*
Y7587750D01*
X5201250Y7556000D02*
X5264750D01*
X5233000Y7524250D02*
Y7587750D01*
X7535000Y1508000D02*
X7665000D01*
X7600000Y1443000D02*
Y1573000D01*
X7535000Y1762000D02*
X7665000D01*
X7600000Y1697000D02*
Y1827000D01*
X1980000Y3325000D02*
X2010000D01*
X1995000Y3310000D02*
Y3340000D01*
X1810000Y3155000D02*
X1840000D01*
X1825000Y3140000D02*
Y3170000D01*
X1640000Y3325000D02*
X1670000D01*
X1655000Y3310000D02*
Y3340000D01*
X1690000Y3445000D02*
X1720000D01*
X1705000Y3430000D02*
Y3460000D01*
X1930000Y3445000D02*
X1960000D01*
X1945000Y3430000D02*
Y3460000D01*
X1810000Y3495000D02*
X1840000D01*
X1825000Y3480000D02*
Y3510000D01*
X1690000Y3205000D02*
X1720000D01*
X1705000Y3190000D02*
Y3220000D01*
X1930000Y3205000D02*
X1960000D01*
X1945000Y3190000D02*
Y3220000D01*
X3637500Y5172500D02*
X3667500D01*
X3652500Y5157500D02*
Y5187500D01*
X3645000Y5085000D02*
X3675000D01*
X3660000Y5070000D02*
Y5100000D01*
X5925000Y1195000D02*
X5975000D01*
X5950000Y1170000D02*
Y1220000D01*
X6186500Y242760D02*
X6236500D01*
X6211500Y217760D02*
Y267760D01*
X5986500Y246260D02*
X6036500D01*
X6011500Y221260D02*
Y271260D01*
X5786500Y242760D02*
X5836500D01*
X5811500Y217760D02*
Y267760D01*
X7450000Y2350000D02*
X7500000D01*
X7475000Y2325000D02*
Y2375000D01*
X7450000Y2150000D02*
X7500000D01*
X7475000Y2125000D02*
Y2175000D01*
X7650000Y2150000D02*
X7700000D01*
X7675000Y2125000D02*
Y2175000D01*
X7850000Y2150000D02*
X7900000D01*
X7875000Y2125000D02*
Y2175000D01*
X7850000Y2350000D02*
X7900000D01*
X7875000Y2325000D02*
Y2375000D01*
X7850000Y2550000D02*
X7900000D01*
X7875000Y2525000D02*
Y2575000D01*
X7850000Y2750000D02*
X7900000D01*
X7875000Y2725000D02*
Y2775000D01*
X7850000Y2950000D02*
X7900000D01*
X7875000Y2925000D02*
Y2975000D01*
X7850000Y3150000D02*
X7900000D01*
X7875000Y3125000D02*
Y3175000D01*
X7275000Y125000D02*
X7325000D01*
X7300000Y100000D02*
Y150000D01*
X7075000Y125000D02*
X7125000D01*
X7100000Y100000D02*
Y150000D01*
X6875000Y125000D02*
X6925000D01*
X6900000Y100000D02*
Y150000D01*
X6675000Y125000D02*
X6725000D01*
X6700000Y100000D02*
Y150000D01*
X6475000Y125000D02*
X6525000D01*
X6500000Y100000D02*
Y150000D01*
X6275000Y125000D02*
X6325000D01*
X6300000Y100000D02*
Y150000D01*
X6075000Y125000D02*
X6125000D01*
X6100000Y100000D02*
Y150000D01*
X5875000Y125000D02*
X5925000D01*
X5900000Y100000D02*
Y150000D01*
X5675000Y125000D02*
X5725000D01*
X5700000Y100000D02*
Y150000D01*
X5475000Y125000D02*
X5525000D01*
X5500000Y100000D02*
Y150000D01*
X5875000Y1400000D02*
X5925000D01*
X5900000Y1375000D02*
Y1425000D01*
X5875000Y1550000D02*
X5925000D01*
X5900000Y1525000D02*
Y1575000D01*
X4485000Y455000D02*
X4515000D01*
X4500000Y440000D02*
Y470000D01*
X4980000Y600000D02*
X5010000D01*
X4995000Y585000D02*
Y615000D01*
X4810000Y430000D02*
X4840000D01*
X4825000Y415000D02*
Y445000D01*
X4640000Y600000D02*
X4670000D01*
X4655000Y585000D02*
Y615000D01*
X4690000Y720000D02*
X4720000D01*
X4705000Y705000D02*
Y735000D01*
X4930000Y720000D02*
X4960000D01*
X4945000Y705000D02*
Y735000D01*
X4810000Y770000D02*
X4840000D01*
X4825000Y755000D02*
Y785000D01*
X4690000Y480000D02*
X4720000D01*
X4705000Y465000D02*
Y495000D01*
X4930000Y480000D02*
X4960000D01*
X4945000Y465000D02*
Y495000D01*
X385000Y7400000D02*
X415000D01*
X400000Y7385000D02*
Y7415000D01*
X260000Y7400000D02*
X290000D01*
X275000Y7385000D02*
Y7415000D01*
X260016Y7250020D02*
X290016D01*
X275016Y7235020D02*
Y7265020D01*
X430000Y4850000D02*
X460000D01*
X445000Y4835000D02*
Y4865000D01*
X260000Y4680000D02*
X290000D01*
X275000Y4665000D02*
Y4695000D01*
X90000Y4850000D02*
X120000D01*
X105000Y4835000D02*
Y4865000D01*
X140000Y4970000D02*
X170000D01*
X155000Y4955000D02*
Y4985000D01*
X380000Y4970000D02*
X410000D01*
X395000Y4955000D02*
Y4985000D01*
X260000Y5020000D02*
X290000D01*
X275000Y5005000D02*
Y5035000D01*
X140000Y4730000D02*
X170000D01*
X155000Y4715000D02*
Y4745000D01*
X380000Y4730000D02*
X410000D01*
X395000Y4715000D02*
Y4745000D01*
X2130000Y7400000D02*
X2160000D01*
X2145000Y7385000D02*
Y7415000D01*
X1960000Y7230000D02*
X1990000D01*
X1975000Y7215000D02*
Y7245000D01*
X1790000Y7400000D02*
X1820000D01*
X1805000Y7385000D02*
Y7415000D01*
X1840000Y7520000D02*
X1870000D01*
X1855000Y7505000D02*
Y7535000D01*
X2080000Y7520000D02*
X2110000D01*
X2095000Y7505000D02*
Y7535000D01*
X1960000Y7570000D02*
X1990000D01*
X1975000Y7555000D02*
Y7585000D01*
X1840000Y7280000D02*
X1870000D01*
X1855000Y7265000D02*
Y7295000D01*
X2080000Y7280000D02*
X2110000D01*
X2095000Y7265000D02*
Y7295000D01*
X1809999Y925001D02*
X1839999D01*
X1824999Y910001D02*
Y940001D01*
X1980000Y600000D02*
X2010000D01*
X1995000Y585000D02*
Y615000D01*
X1810000Y430000D02*
X1840000D01*
X1825000Y415000D02*
Y445000D01*
X1640000Y600000D02*
X1670000D01*
X1655000Y585000D02*
Y615000D01*
X1690000Y720000D02*
X1720000D01*
X1705000Y705000D02*
Y735000D01*
X1930000Y720000D02*
X1960000D01*
X1945000Y705000D02*
Y735000D01*
X1810000Y770000D02*
X1840000D01*
X1825000Y755000D02*
Y785000D01*
X1690000Y480000D02*
X1720000D01*
X1705000Y465000D02*
Y495000D01*
X1930000Y480000D02*
X1960000D01*
X1945000Y465000D02*
Y495000D01*
X4980000Y3325000D02*
X5010000D01*
X4995000Y3310000D02*
Y3340000D01*
X4810000Y3155000D02*
X4840000D01*
X4825000Y3140000D02*
Y3170000D01*
X4640000Y3325000D02*
X4670000D01*
X4655000Y3310000D02*
Y3340000D01*
X4690000Y3445000D02*
X4720000D01*
X4705000Y3430000D02*
Y3460000D01*
X4930000Y3445000D02*
X4960000D01*
X4945000Y3430000D02*
Y3460000D01*
X4810000Y3495000D02*
X4840000D01*
X4825000Y3480000D02*
Y3510000D01*
X4690000Y3205000D02*
X4720000D01*
X4705000Y3190000D02*
Y3220000D01*
X4930000Y3205000D02*
X4960000D01*
X4945000Y3190000D02*
Y3220000D01*
X5250000Y3399998D02*
X5300000D01*
X5275000Y3374998D02*
Y3424997D01*
X7525500Y6025000D02*
X7555500D01*
X7540500Y6010000D02*
Y6040000D01*
X7825500Y6025000D02*
X7855500D01*
X7840500Y6010000D02*
Y6040000D01*
X7675500Y6025000D02*
X7705500D01*
X7690500Y6010000D02*
Y6040000D01*
X7675500Y5925000D02*
X7705500D01*
X7690500Y5910000D02*
Y5940000D01*
X7825500Y5925000D02*
X7855500D01*
X7840500Y5910000D02*
Y5940000D01*
X7525500Y5925000D02*
X7555500D01*
X7540500Y5910000D02*
Y5940000D01*
X7525500Y5575000D02*
X7555500D01*
X7540500Y5560000D02*
Y5589999D01*
X7825500Y5575000D02*
X7855500D01*
X7840500Y5560000D02*
Y5589999D01*
X7675500Y5575000D02*
X7705500D01*
X7690500Y5560000D02*
Y5589999D01*
X7675500Y5475000D02*
X7705500D01*
X7690500Y5460000D02*
Y5490000D01*
X7825500Y5475000D02*
X7855500D01*
X7840500Y5460000D02*
Y5490000D01*
X7525500Y5475000D02*
X7555500D01*
X7540500Y5460000D02*
Y5490000D01*
X6815000Y2137500D02*
X6845000D01*
X6830000Y2122500D02*
Y2152500D01*
X5870000Y3935000D02*
X5920000D01*
X5895000Y3910000D02*
Y3960000D01*
X5870000Y4117500D02*
X5920000D01*
X5895000Y4092500D02*
Y4142500D01*
X3210000Y6300000D02*
X3240000D01*
X3225000Y6285000D02*
Y6315000D01*
X3737500Y5175000D02*
X3767500D01*
X3752500Y5160000D02*
Y5190000D01*
X5390000Y7000000D02*
X5440000D01*
X5415000Y6975000D02*
Y7025000D01*
X3310000Y6300000D02*
X3340000D01*
X3325000Y6285000D02*
Y6315000D01*
X5675000Y6675000D02*
X5725000D01*
X5700000Y6650000D02*
Y6700000D01*
X2685000Y5125000D02*
X2715000D01*
X2700000Y5110000D02*
Y5140000D01*
X5425000Y3950000D02*
X5475000D01*
X5450000Y3925000D02*
Y3975000D01*
X6350000Y3850000D02*
X6400000D01*
X6375000Y3825000D02*
Y3875000D01*
X5925000Y3499998D02*
X5974999D01*
X5950000Y3474998D02*
Y3524998D01*
X5725000Y3499998D02*
X5775000D01*
X5750000Y3474998D02*
Y3524998D01*
X5525000Y3499998D02*
X5575000D01*
X5550000Y3474998D02*
Y3524998D01*
X5325000Y3499998D02*
X5375000D01*
X5350000Y3474998D02*
Y3524998D01*
X5200000Y3500000D02*
X5250000D01*
X5225000Y3475000D02*
Y3525000D01*
X5825000Y3399998D02*
X5874999D01*
X5849999Y3374998D02*
Y3424997D01*
X5625000Y3399998D02*
X5675000D01*
X5650000Y3374998D02*
Y3424997D01*
X5425000Y3399998D02*
X5475000D01*
X5450000Y3374998D02*
Y3424997D01*
X5100000Y3399998D02*
X5150000D01*
X5125000Y3374998D02*
Y3424997D01*
X5200000Y3299998D02*
X5250000D01*
X5225000Y3274998D02*
Y3324998D01*
X5100000Y3199998D02*
X5150000D01*
X5125000Y3174998D02*
Y3224998D01*
X5200000Y3099998D02*
X5250000D01*
X5225000Y3074998D02*
Y3124998D01*
X5100000Y2999998D02*
X5150000D01*
X5125000Y2974998D02*
Y3024998D01*
X5200000Y2899998D02*
X5250000D01*
X5225000Y2874998D02*
Y2924998D01*
X5100000Y2799998D02*
X5150000D01*
X5125000Y2774998D02*
Y2824998D01*
X5200000Y2699998D02*
X5250000D01*
X5225000Y2674998D02*
Y2724998D01*
X5100000Y2599998D02*
X5150000D01*
X5125000Y2574998D02*
Y2624998D01*
X5200000Y2499998D02*
X5250000D01*
X5225000Y2474998D02*
Y2524998D01*
X5100000Y2399998D02*
X5150000D01*
X5125000Y2374998D02*
Y2424998D01*
X5200000Y2299998D02*
X5250000D01*
X5225000Y2274998D02*
Y2324998D01*
X5100000Y2199998D02*
X5150000D01*
X5125000Y2174998D02*
Y2224998D01*
X5200000Y2099999D02*
X5250000D01*
X5225000Y2074999D02*
Y2124999D01*
X5100000Y1999999D02*
X5150000D01*
X5125000Y1974999D02*
Y2024998D01*
X5200000Y1899999D02*
X5250000D01*
X5225000Y1874999D02*
Y1924999D01*
X5100000Y1799999D02*
X5150000D01*
X5125000Y1774999D02*
Y1824999D01*
X5200000Y1699999D02*
X5250000D01*
X5225000Y1674999D02*
Y1724999D01*
X5100000Y1599999D02*
X5150000D01*
X5125000Y1574999D02*
Y1624999D01*
X5200000Y1499999D02*
X5250000D01*
X5225000Y1474999D02*
Y1524999D01*
X5100000Y1399999D02*
X5150000D01*
X5125000Y1374999D02*
Y1424999D01*
X5200000Y1299999D02*
X5250000D01*
X5225000Y1274999D02*
Y1324999D01*
X5100000Y1199999D02*
X5150000D01*
X5125000Y1174999D02*
Y1224999D01*
X5200000Y1099999D02*
X5250000D01*
X5225000Y1074999D02*
Y1124999D01*
X5100000Y999999D02*
X5150000D01*
X5125000Y974999D02*
Y1024999D01*
X5200000Y899999D02*
X5250000D01*
X5225000Y875000D02*
Y924999D01*
X5100000Y799999D02*
X5150000D01*
X5125000Y774999D02*
Y824999D01*
X5200000Y700000D02*
X5250000D01*
X5225000Y675000D02*
Y725000D01*
X5100000Y600000D02*
X5150000D01*
X5125000Y575000D02*
Y625000D01*
X5200000Y500000D02*
X5250000D01*
X5225000Y475000D02*
Y525000D01*
X5100000Y400000D02*
X5150000D01*
X5125000Y375000D02*
Y425000D01*
X5200000Y300000D02*
X5250000D01*
X5225000Y275000D02*
Y325000D01*
X5100000Y200000D02*
X5150000D01*
X5125000Y175000D02*
Y225000D01*
X5197500Y110000D02*
X5247500D01*
X5222500Y85000D02*
Y135000D01*
X2934996Y605000D02*
X2964996D01*
X2949996Y590000D02*
Y620000D01*
X3059996Y605000D02*
X3089996D01*
X3074996Y590000D02*
Y620000D01*
X3184997Y605000D02*
X3214997D01*
X3199997Y590000D02*
Y620000D01*
X3309997Y605000D02*
X3339997D01*
X3324997Y590000D02*
Y620000D01*
X3434998Y605000D02*
X3464998D01*
X3449998Y590000D02*
Y620000D01*
X3559998Y605000D02*
X3589998D01*
X3574998Y590000D02*
Y620000D01*
X3684999Y605000D02*
X3714999D01*
X3699999Y590000D02*
Y620000D01*
X3809999Y605000D02*
X3839999D01*
X3824999Y590000D02*
Y620000D01*
X1809999Y3050010D02*
X1839999D01*
X1824999Y3035010D02*
Y3065010D01*
X1809999Y2925009D02*
X1839999D01*
X1824999Y2910009D02*
Y2940009D01*
X1809999Y2800009D02*
X1839999D01*
X1824999Y2785009D02*
Y2815009D01*
X1809999Y2675008D02*
X1839999D01*
X1824999Y2660008D02*
Y2690008D01*
X1809999Y2550008D02*
X1839999D01*
X1824999Y2535008D02*
Y2565008D01*
X1809999Y2425007D02*
X1839999D01*
X1824999Y2410007D02*
Y2440007D01*
X1809999Y2300007D02*
X1839999D01*
X1824999Y2285007D02*
Y2315007D01*
X1809999Y2175006D02*
X1839999D01*
X1824999Y2160006D02*
Y2190006D01*
X1809999Y2050006D02*
X1839999D01*
X1824999Y2035006D02*
Y2065006D01*
X1809999Y1925005D02*
X1839999D01*
X1824999Y1910005D02*
Y1940005D01*
X1809999Y1800005D02*
X1839999D01*
X1824999Y1785005D02*
Y1815004D01*
X1809999Y1675004D02*
X1839999D01*
X1824999Y1660004D02*
Y1690004D01*
X1809999Y1550004D02*
X1839999D01*
X1824999Y1535004D02*
Y1565003D01*
X1809999Y1425003D02*
X1839999D01*
X1824999Y1410003D02*
Y1440003D01*
X1809999Y1300002D02*
X1839999D01*
X1824999Y1285003D02*
Y1315002D01*
X1809999Y1175002D02*
X1839999D01*
X1824999Y1160002D02*
Y1190002D01*
X1809999Y1050001D02*
X1839999D01*
X1824999Y1035001D02*
Y1065001D01*
X2110000Y600000D02*
X2140000D01*
X2125000Y585000D02*
Y615000D01*
X2734994Y3325000D02*
X2764994D01*
X2749994Y3310000D02*
Y3340000D01*
X2859995Y3325000D02*
X2889994D01*
X2874995Y3310000D02*
Y3340000D01*
X2984995Y3325000D02*
X3014995D01*
X2999995Y3310000D02*
Y3340000D01*
X3109996Y3325000D02*
X3139995D01*
X3124996Y3310000D02*
Y3340000D01*
X3234996Y3325000D02*
X3264996D01*
X3249996Y3310000D02*
Y3340000D01*
X3359997Y3325000D02*
X3389997D01*
X3374997Y3310000D02*
Y3340000D01*
X3484997Y3325000D02*
X3514997D01*
X3499997Y3310000D02*
Y3340000D01*
X3609998Y3325000D02*
X3639998D01*
X3624998Y3310000D02*
Y3340000D01*
X3734998Y3325000D02*
X3764998D01*
X3749998Y3310000D02*
Y3340000D01*
X4813119Y3076928D02*
X4843119D01*
X4828119Y3061928D02*
Y3091928D01*
X4813119Y2951927D02*
X4843119D01*
X4828119Y2936927D02*
Y2966927D01*
X4813119Y2826927D02*
X4843119D01*
X4828119Y2811927D02*
Y2841926D01*
X4813119Y2701926D02*
X4843119D01*
X4828119Y2686926D02*
Y2716926D01*
X4813119Y2576926D02*
X4843119D01*
X4828119Y2561926D02*
Y2591925D01*
X4813119Y2451925D02*
X4843119D01*
X4828119Y2436925D02*
Y2466925D01*
X4813119Y2326924D02*
X4843119D01*
X4828119Y2311925D02*
Y2341924D01*
X4813119Y2201924D02*
X4843119D01*
X4828119Y2186924D02*
Y2216924D01*
X4813119Y2076923D02*
X4843119D01*
X4828119Y2061923D02*
Y2091923D01*
X4813119Y1951923D02*
X4843119D01*
X4828119Y1936923D02*
Y1966923D01*
X4813119Y1826922D02*
X4843119D01*
X4828119Y1811922D02*
Y1841922D01*
X4810001Y1700004D02*
X4840000D01*
X4825001Y1685004D02*
Y1715004D01*
X4810001Y1575004D02*
X4840000D01*
X4825001Y1560004D02*
Y1590004D01*
X4810001Y1450003D02*
X4840000D01*
X4825001Y1435003D02*
Y1465003D01*
X4810001Y1325003D02*
X4840000D01*
X4825001Y1310003D02*
Y1340003D01*
X4810001Y1200002D02*
X4840000D01*
X4825001Y1185002D02*
Y1215002D01*
X4810001Y1075002D02*
X4840000D01*
X4825001Y1060002D02*
Y1090002D01*
X4810001Y950001D02*
X4840000D01*
X4825001Y935001D02*
Y965001D01*
X4560001Y3325000D02*
X4590001D01*
X4575001Y3310000D02*
Y3340000D01*
X4435001Y3325000D02*
X4465000D01*
X4450000Y3310000D02*
Y3340000D01*
X3985000Y4550000D02*
X4015000D01*
X4000000Y4535000D02*
Y4565000D01*
X3835000Y4550000D02*
X3865000D01*
X3850000Y4535000D02*
Y4565000D01*
X3685000Y4550000D02*
X3715000D01*
X3700000Y4535000D02*
Y4565000D01*
X3535000Y4550000D02*
X3565000D01*
X3550000Y4535000D02*
Y4565000D01*
X3385000Y4550000D02*
X3415000D01*
X3400000Y4535000D02*
Y4565000D01*
X3235000Y4625000D02*
X3265000D01*
X3250000Y4610000D02*
Y4640000D01*
X3085000Y4550000D02*
X3115000D01*
X3100000Y4535000D02*
Y4565000D01*
X2935000Y4550000D02*
X2965000D01*
X2950000Y4535000D02*
Y4565000D01*
X2785000Y4550000D02*
X2815000D01*
X2800000Y4535000D02*
Y4565000D01*
X2635000Y4550000D02*
X2665000D01*
X2650000Y4535000D02*
Y4565000D01*
X3387500Y4742500D02*
X3417500D01*
X3402500Y4727500D02*
Y4757500D01*
X3535000Y4735000D02*
X3565000D01*
X3550000Y4720000D02*
Y4750000D01*
X3685000Y4735000D02*
X3715000D01*
X3700000Y4720000D02*
Y4750000D01*
X3835000Y4735000D02*
X3865000D01*
X3850000Y4720000D02*
Y4750000D01*
X3985000Y4735000D02*
X4015000D01*
X4000000Y4720000D02*
Y4750000D01*
X3090000Y5000000D02*
X3120000D01*
X3105000Y4985000D02*
Y5015000D01*
X3090000Y5150000D02*
X3120000D01*
X3105000Y5135000D02*
Y5165000D01*
X3085000Y4740000D02*
X3115000D01*
X3100000Y4725000D02*
Y4755000D01*
X2990000Y4735000D02*
X3020000D01*
X3005000Y4720000D02*
Y4750000D01*
X2865000Y4735000D02*
X2895000D01*
X2880000Y4720000D02*
Y4750000D01*
X2740000Y4735000D02*
X2770000D01*
X2755000Y4720000D02*
Y4750000D01*
X2615000Y4735000D02*
X2645000D01*
X2630000Y4720000D02*
Y4750000D01*
X2490000Y4735000D02*
X2520000D01*
X2505000Y4720000D02*
Y4750000D01*
X2365000Y4735000D02*
X2395000D01*
X2380000Y4720000D02*
Y4750000D01*
X2285000Y4675000D02*
X2315000D01*
X2300000Y4660000D02*
Y4690000D01*
X785022Y7400017D02*
X815022D01*
X800022Y7385017D02*
Y7415017D01*
X1235011Y7400026D02*
X1265011D01*
X1250011Y7385026D02*
Y7415026D01*
X1385012Y7400025D02*
X1415012D01*
X1400012Y7385025D02*
Y7415025D01*
X1535014Y7400024D02*
X1565014D01*
X1550014Y7385024D02*
Y7415024D01*
X1685015Y7400023D02*
X1715015D01*
X1700015Y7385023D02*
Y7415023D01*
X1960011Y7100013D02*
X1990011D01*
X1975011Y7085014D02*
Y7115013D01*
X1960010Y6950012D02*
X1990010D01*
X1975010Y6935012D02*
Y6965012D01*
X1960009Y6800011D02*
X1990009D01*
X1975009Y6785011D02*
Y6815011D01*
X1960008Y6650010D02*
X1990008D01*
X1975008Y6635010D02*
Y6665010D01*
X1960007Y6500009D02*
X1990007D01*
X1975007Y6485009D02*
Y6515009D01*
X1960006Y6350007D02*
X1990006D01*
X1975006Y6335007D02*
Y6365007D01*
X1960005Y6200006D02*
X1990005D01*
X1975005Y6185006D02*
Y6215006D01*
X1960004Y6050005D02*
X1990004D01*
X1975004Y6035005D02*
Y6065005D01*
X1960003Y5900004D02*
X1990003D01*
X1975003Y5885004D02*
Y5915004D01*
X1960002Y5750002D02*
X1990002D01*
X1975002Y5735003D02*
Y5765002D01*
X1960001Y5600001D02*
X1990001D01*
X1975001Y5585001D02*
Y5615001D01*
X1960000Y5450000D02*
X1990000D01*
X1975000Y5435000D02*
Y5465000D01*
X1960001Y5150001D02*
X1990001D01*
X1975001Y5135001D02*
Y5165001D01*
X1960000Y5000000D02*
X1990000D01*
X1975000Y4985000D02*
Y5015000D01*
X635021Y7400018D02*
X665021D01*
X650021Y7385018D02*
Y7415018D01*
X485020Y7400019D02*
X515020D01*
X500020Y7385019D02*
Y7415019D01*
X260015Y7100018D02*
X290015D01*
X275015Y7085018D02*
Y7115018D01*
X260014Y6950017D02*
X290014D01*
X275014Y6935017D02*
Y6965017D01*
X260013Y6800016D02*
X290013D01*
X275013Y6785016D02*
Y6815016D01*
X260012Y6650015D02*
X290012D01*
X275012Y6635015D02*
Y6665015D01*
X260011Y6500013D02*
X290011D01*
X275011Y6485013D02*
Y6515013D01*
X260010Y6350012D02*
X290010D01*
X275010Y6335012D02*
Y6365012D01*
X260009Y6200011D02*
X290009D01*
X275009Y6185011D02*
Y6215011D01*
X260008Y6050010D02*
X290008D01*
X275008Y6035010D02*
Y6065010D01*
X260007Y5900009D02*
X290007D01*
X275007Y5885009D02*
Y5915008D01*
X260006Y5750007D02*
X290006D01*
X275006Y5735007D02*
Y5765007D01*
X260005Y5600006D02*
X290005D01*
X275005Y5585006D02*
Y5615006D01*
X260004Y5450005D02*
X290004D01*
X275004Y5435005D02*
Y5465005D01*
X260003Y5300004D02*
X290003D01*
X275003Y5285004D02*
Y5315004D01*
X260002Y5150002D02*
X290002D01*
X275002Y5135002D02*
Y5165002D01*
X545000Y4850000D02*
X575000D01*
X560000Y4835000D02*
Y4865000D01*
X1004996Y4850004D02*
X1034996D01*
X1019996Y4835004D02*
Y4865004D01*
X1154997Y4850003D02*
X1184997D01*
X1169997Y4835003D02*
Y4865003D01*
X1304998Y4850002D02*
X1334998D01*
X1319998Y4835002D02*
Y4865002D01*
X4375000Y4650000D02*
X4425000D01*
X4400000Y4625000D02*
Y4675000D01*
X5025000Y5100000D02*
X5075000D01*
X5050000Y5075000D02*
Y5125000D01*
X5025000Y5325000D02*
X5075000D01*
X5050000Y5300000D02*
Y5350000D01*
X6850000Y5950000D02*
X6900000D01*
X6875000Y5925000D02*
Y5975000D01*
X7075000Y5950000D02*
X7125000D01*
X7100000Y5925000D02*
Y5975000D01*
X6450000Y5275000D02*
X6500000D01*
X6475000Y5250000D02*
Y5300000D01*
X6450000Y5450000D02*
X6500000D01*
X6475000Y5425000D02*
Y5475000D01*
X6075000Y4925000D02*
X6125000D01*
X6100000Y4900000D02*
Y4950000D01*
X6250000Y4925000D02*
X6300000D01*
X6275000Y4900000D02*
Y4950000D01*
X6425000Y4925000D02*
X6475000D01*
X6450000Y4900000D02*
Y4950000D01*
X2775000Y6625000D02*
X2825000D01*
X2800000Y6600000D02*
Y6650000D01*
X350000Y5650000D02*
X400000D01*
X375000Y5625000D02*
Y5675000D01*
X925000Y3650000D02*
X975000D01*
X950000Y3625000D02*
Y3675000D01*
X675000Y3650000D02*
X725000D01*
X700000Y3625000D02*
Y3675000D01*
X6305000Y1510000D02*
X6355000D01*
X6330000Y1485000D02*
Y1535000D01*
X6115000Y1510000D02*
X6165000D01*
X6140000Y1485000D02*
Y1535000D01*
X6885000Y3300000D02*
X6915000D01*
X6900000Y3285000D02*
Y3315000D01*
X5500000Y1225000D02*
X5550000D01*
X5525000Y1200000D02*
Y1250000D01*
X5700000Y2825000D02*
X5750000D01*
X5725000Y2800000D02*
Y2850000D01*
X5500000Y2825000D02*
X5550000D01*
X5525000Y2800000D02*
Y2850000D01*
X5500000Y1000000D02*
X5550000D01*
X5525000Y975000D02*
Y1025000D01*
X6435000Y300000D02*
X6465000D01*
X6450000Y285000D02*
Y315000D01*
X6785000Y1700000D02*
X6815000D01*
X6800000Y1685000D02*
Y1715000D01*
X6785000Y1825000D02*
X6815000D01*
X6800000Y1810000D02*
Y1840000D01*
X6785000Y1950000D02*
X6815000D01*
X6800000Y1935000D02*
Y1965000D01*
X7020000Y1514000D02*
X7050000D01*
X7035000Y1499000D02*
Y1529000D01*
X5250000Y3950000D02*
X5300000D01*
X5275000Y3925000D02*
Y3975000D01*
X7050000Y3300000D02*
X7100000D01*
X7075000Y3275000D02*
Y3325000D01*
X7250000Y3300000D02*
X7300000D01*
X7275000Y3275000D02*
Y3325000D01*
X3200000Y5550000D02*
X3250000D01*
X3225000Y5525000D02*
Y5575000D01*
X3500000Y5550000D02*
X3550000D01*
X3525000Y5525000D02*
Y5575000D01*
X3350000Y5550000D02*
X3400000D01*
X3375000Y5525000D02*
Y5575000D01*
X3650000Y5550000D02*
X3700000D01*
X3675000Y5525000D02*
Y5575000D01*
X3500000Y5725000D02*
X3550000D01*
X3525000Y5700000D02*
Y5750000D01*
X3350000Y5725000D02*
X3400000D01*
X3375000Y5700000D02*
Y5750000D01*
X3200000Y5725000D02*
X3250000D01*
X3225000Y5700000D02*
Y5750000D01*
X3650000Y5725000D02*
X3700000D01*
X3675000Y5700000D02*
Y5750000D01*
X3350000Y5875000D02*
X3400000D01*
X3375000Y5850000D02*
Y5900000D01*
X3200000Y5875000D02*
X3250000D01*
X3225000Y5850000D02*
Y5900000D01*
X3500000Y5875000D02*
X3550000D01*
X3525000Y5850000D02*
Y5900000D01*
X3650000Y5875000D02*
X3700000D01*
X3675000Y5850000D02*
Y5900000D01*
X3200000Y6025000D02*
X3250000D01*
X3225000Y6000000D02*
Y6050000D01*
X3350000Y6025000D02*
X3400000D01*
X3375000Y6000000D02*
Y6050000D01*
X3500000Y6025000D02*
X3550000D01*
X3525000Y6000000D02*
Y6050000D01*
X3985000Y4375000D02*
X4015000D01*
X4000000Y4360000D02*
Y4390000D01*
X4185000Y4375000D02*
X4215000D01*
X4200000Y4360000D02*
Y4390000D01*
X3985000Y4250000D02*
X4015000D01*
X4000000Y4235000D02*
Y4265000D01*
X4185000Y4250000D02*
X4215000D01*
X4200000Y4235000D02*
Y4265000D01*
X3985000Y4125000D02*
X4015000D01*
X4000000Y4110000D02*
Y4140000D01*
X4185000Y4125000D02*
X4215000D01*
X4200000Y4110000D02*
Y4140000D01*
X3985000Y4000000D02*
X4015000D01*
X4000000Y3985000D02*
Y4015000D01*
X4185000Y4000000D02*
X4215000D01*
X4200000Y3985000D02*
Y4015000D01*
X3985000Y3875000D02*
X4015000D01*
X4000000Y3860000D02*
Y3890000D01*
X4185000Y3875000D02*
X4215000D01*
X4200000Y3860000D02*
Y3890000D01*
X2285000Y4300000D02*
X2315000D01*
X2300000Y4285000D02*
Y4315000D01*
X2285000Y4175000D02*
X2315000D01*
X2300000Y4160000D02*
Y4190000D01*
X2285000Y4050000D02*
X2315000D01*
X2300000Y4035000D02*
Y4065000D01*
X2285000Y3925000D02*
X2315000D01*
X2300000Y3910000D02*
Y3940000D01*
X2485000Y3925000D02*
X2515000D01*
X2500000Y3910000D02*
Y3940000D01*
X2485000Y4050000D02*
X2515000D01*
X2500000Y4035000D02*
Y4065000D01*
X2485000Y4175000D02*
X2515000D01*
X2500000Y4160000D02*
Y4190000D01*
X2485000Y4300000D02*
X2515000D01*
X2500000Y4285000D02*
Y4315000D01*
X7710000Y105000D02*
X7740000D01*
X7725000Y90000D02*
Y120000D01*
X7880000Y275000D02*
X7910000D01*
X7895000Y260000D02*
Y290000D01*
X7710000Y445000D02*
X7740000D01*
X7725000Y430000D02*
Y460000D01*
X7590000Y395000D02*
X7620000D01*
X7605000Y380000D02*
Y410000D01*
X7590000Y155000D02*
X7620000D01*
X7605000Y140000D02*
Y170000D01*
X7540000Y275000D02*
X7570000D01*
X7555000Y260000D02*
Y290000D01*
X7830000Y395000D02*
X7860000D01*
X7845000Y380000D02*
Y410000D01*
X7830000Y155000D02*
X7860000D01*
X7845000Y140000D02*
Y170000D01*
X260000Y105000D02*
X290000D01*
X275000Y90000D02*
Y120000D01*
X430000Y275000D02*
X460000D01*
X445000Y260000D02*
Y290000D01*
X260000Y445000D02*
X290000D01*
X275000Y430000D02*
Y460000D01*
X140000Y395000D02*
X170000D01*
X155000Y380000D02*
Y410000D01*
X140000Y155000D02*
X170000D01*
X155000Y140000D02*
Y170000D01*
X90000Y275000D02*
X120000D01*
X105000Y260000D02*
Y290000D01*
X380000Y395000D02*
X410000D01*
X395000Y380000D02*
Y410000D01*
X380000Y155000D02*
X410000D01*
X395000Y140000D02*
Y170000D01*
X2235000Y650000D02*
X2265000D01*
X2250000Y635000D02*
Y665000D01*
X2360000Y1875000D02*
X2390000D01*
X2375000Y1860000D02*
Y1890000D01*
X2360001Y1725000D02*
X2390001D01*
X2375001Y1710000D02*
Y1740000D01*
X2260001Y1625000D02*
X2290001D01*
X2275001Y1610000D02*
Y1640000D01*
X2257500Y1495000D02*
X2287500D01*
X2272500Y1480000D02*
Y1510000D01*
X2360001Y1275000D02*
X2390001D01*
X2375001Y1260000D02*
Y1290000D01*
X2285000Y1375000D02*
X2315000D01*
X2300000Y1360000D02*
Y1390000D01*
X2360001Y1125000D02*
X2390001D01*
X2375001Y1110000D02*
Y1140000D01*
X2310000Y1025000D02*
X2340000D01*
X2325000Y1010000D02*
Y1040000D01*
X2235001Y925000D02*
X2265001D01*
X2250001Y910000D02*
Y940000D01*
X2235001Y775000D02*
X2265001D01*
X2250001Y760000D02*
Y790000D01*
X4484999Y775000D02*
X4514999D01*
X4499999Y760000D02*
Y790000D01*
X4484999Y925000D02*
X4514999D01*
X4499999Y910000D02*
Y940000D01*
X4410000Y1025000D02*
X4440000D01*
X4425000Y1010000D02*
Y1040000D01*
X4359999Y1125000D02*
X4389999D01*
X4374999Y1110000D02*
Y1140000D01*
X4410000Y1375000D02*
X4440000D01*
X4425000Y1360000D02*
Y1390000D01*
X4359999Y1275000D02*
X4389999D01*
X4374999Y1260000D02*
Y1290000D01*
X4459999Y1475000D02*
X4489999D01*
X4474999Y1460000D02*
Y1490000D01*
X4459999Y1625000D02*
X4489999D01*
X4474999Y1610000D02*
Y1640000D01*
X4359999Y1725000D02*
X4389999D01*
X4374999Y1710000D02*
Y1740000D01*
X4360000Y1875000D02*
X4390000D01*
X4375000Y1860000D02*
Y1890000D01*
X2650000Y675000D02*
X2680000D01*
X2665000Y660000D02*
Y690000D01*
X2650001Y825000D02*
X2680000D01*
X2665001Y810000D02*
Y840000D01*
X2650001Y975000D02*
X2680001D01*
X2665001Y960000D02*
Y990000D01*
X2650002Y1125001D02*
X2680001D01*
X2665002Y1110001D02*
Y1140001D01*
X2650002Y1275001D02*
X2680002D01*
X2665002Y1260001D02*
Y1290001D01*
X2650003Y1425001D02*
X2680003D01*
X2665003Y1410001D02*
Y1440001D01*
X2650003Y1575001D02*
X2680003D01*
X2665003Y1560001D02*
Y1590001D01*
X2650004Y1725001D02*
X2680004D01*
X2665004Y1710001D02*
Y1740001D01*
X2650004Y1875002D02*
X2680004D01*
X2665004Y1860002D02*
Y1890002D01*
X2370000Y2320000D02*
X2400000D01*
X2385000Y2305000D02*
Y2335000D01*
X2635001Y2325000D02*
X2665001D01*
X2650001Y2310000D02*
Y2340000D01*
X2635001Y2175000D02*
X2665001D01*
X2650001Y2160000D02*
Y2190000D01*
X2650005Y2025002D02*
X2680005D01*
X2665005Y2010002D02*
Y2040002D01*
X2210000Y2320000D02*
X2240000D01*
X2225000Y2305000D02*
Y2335000D01*
X2210000Y2175000D02*
X2240000D01*
X2225000Y2160000D02*
Y2190000D01*
X2210000Y2025000D02*
X2240000D01*
X2225000Y2010000D02*
Y2040000D01*
X2360000Y2025000D02*
X2390000D01*
X2375000Y2010000D02*
Y2040000D01*
X2610000Y2475000D02*
X2640000D01*
X2625000Y2460000D02*
Y2490000D01*
X2459999Y2625000D02*
X2489999D01*
X2474999Y2610000D02*
Y2640000D01*
X2309999Y2625000D02*
X2339999D01*
X2324999Y2610000D02*
Y2640000D01*
X2160000Y2625000D02*
X2190000D01*
X2175000Y2610000D02*
Y2640000D01*
X2610000Y2625000D02*
X2640000D01*
X2625000Y2610000D02*
Y2640000D01*
X2385000Y2475000D02*
X2415000D01*
X2400000Y2460000D02*
Y2490000D01*
X2485000Y3400000D02*
X2515000D01*
X2500000Y3385000D02*
Y3415000D01*
X2485000Y4425000D02*
X2515000D01*
X2500000Y4410000D02*
Y4440000D01*
X2485000Y4550000D02*
X2515000D01*
X2500000Y4535000D02*
Y4565000D01*
X4125000Y4720000D02*
X4155000D01*
X4140000Y4705000D02*
Y4735000D01*
X4310001Y3225000D02*
X4340001D01*
X4325001Y3210000D02*
Y3240000D01*
X4310000Y3400000D02*
X4340000D01*
X4325000Y3385000D02*
Y3415000D01*
X4185000Y4500000D02*
X4215000D01*
X4200000Y4485000D02*
Y4515000D01*
X4185000Y4625000D02*
X4215000D01*
X4200000Y4610000D02*
Y4640000D01*
X4185000Y3400000D02*
X4214999D01*
X4199999Y3385000D02*
Y3415000D01*
X3984999Y3400000D02*
X4014999D01*
X3999999Y3385000D02*
Y3415000D01*
X4360000Y2025000D02*
X4390000D01*
X4375000Y2010000D02*
Y2040000D01*
X4510000Y2025000D02*
X4540000D01*
X4525000Y2010000D02*
Y2040000D01*
X4510000Y2175000D02*
X4540000D01*
X4525000Y2160000D02*
Y2190000D01*
X4510000Y2325000D02*
X4540000D01*
X4525000Y2310000D02*
Y2340000D01*
X4084999Y525004D02*
X4114999D01*
X4099999Y510004D02*
Y540003D01*
X4084999Y675003D02*
X4114999D01*
X4099999Y660003D02*
Y690003D01*
X4084999Y825003D02*
X4114999D01*
X4099999Y810003D02*
Y840003D01*
X4084999Y975003D02*
X4114999D01*
X4099999Y960003D02*
Y990003D01*
X4084999Y1125002D02*
X4114999D01*
X4099999Y1110002D02*
Y1140002D01*
X4084999Y1275002D02*
X4114999D01*
X4099999Y1260002D02*
Y1290002D01*
X4084999Y1425002D02*
X4114999D01*
X4099999Y1410002D02*
Y1440002D01*
X4084999Y1575001D02*
X4114999D01*
X4099999Y1560001D02*
Y1590001D01*
X4084999Y1725001D02*
X4114999D01*
X4099999Y1710001D02*
Y1740001D01*
X4084999Y1875001D02*
X4114999D01*
X4099999Y1860001D02*
Y1890001D01*
X4084999Y2025001D02*
X4114999D01*
X4099999Y2010001D02*
Y2040000D01*
X4084999Y2175000D02*
X4114999D01*
X4099999Y2160000D02*
Y2190000D01*
X740000Y4192500D02*
X770000D01*
X755000Y4177500D02*
Y4207500D01*
X830000Y4192500D02*
X860000D01*
X845000Y4177500D02*
Y4207500D01*
X4155000Y6923000D02*
X4205000D01*
X4180000Y6898000D02*
Y6948000D01*
X4005000Y6923000D02*
X4055000D01*
X4030000Y6898000D02*
Y6948000D01*
X3855000Y6928000D02*
X3905000D01*
X3880000Y6903000D02*
Y6953000D01*
X3705000Y6928000D02*
X3755000D01*
X3730000Y6903000D02*
Y6953000D01*
X3555000Y6928000D02*
X3605000D01*
X3580000Y6903000D02*
Y6953000D01*
X3405000Y6923000D02*
X3455000D01*
X3430000Y6898000D02*
Y6948000D01*
X3255000Y6923000D02*
X3305000D01*
X3280000Y6898000D02*
Y6948000D01*
X3105000Y6923000D02*
X3155000D01*
X3130000Y6898000D02*
Y6948000D01*
X2955000Y6923000D02*
X3005000D01*
X2980000Y6898000D02*
Y6948000D01*
X3385000Y5300000D02*
X3415000D01*
X3400000Y5285000D02*
Y5315000D01*
X3385000Y5150000D02*
X3415000D01*
X3400000Y5135000D02*
Y5165000D01*
X3385000Y5000000D02*
X3415000D01*
X3400000Y4985000D02*
Y5015000D01*
X7239000Y7454500D02*
X7269000D01*
X7254000Y7439500D02*
Y7469500D01*
X6789000Y7454500D02*
X6819000D01*
X6804000Y7439500D02*
Y7469500D01*
X6889000Y7454500D02*
X6919000D01*
X6904000Y7439500D02*
Y7469500D01*
X6789000Y7604500D02*
X6819000D01*
X6804000Y7589500D02*
Y7619500D01*
X6789000Y7904500D02*
X6819000D01*
X6804000Y7889500D02*
Y7919500D01*
X6789000Y7754500D02*
X6819000D01*
X6804000Y7739500D02*
Y7769500D01*
X6889000Y7754500D02*
X6919000D01*
X6904000Y7739500D02*
Y7769500D01*
X6889000Y7904500D02*
X6919000D01*
X6904000Y7889500D02*
Y7919500D01*
X6889000Y7604500D02*
X6919000D01*
X6904000Y7589500D02*
Y7619500D01*
X7239000Y7604500D02*
X7269000D01*
X7254000Y7589500D02*
Y7619500D01*
X7239000Y7904500D02*
X7269000D01*
X7254000Y7889500D02*
Y7919500D01*
X7239000Y7754500D02*
X7269000D01*
X7254000Y7739500D02*
Y7769500D01*
X7339000Y7754500D02*
X7369000D01*
X7354000Y7739500D02*
Y7769500D01*
X7339000Y7904500D02*
X7369000D01*
X7354000Y7889500D02*
Y7919500D01*
X7339000Y7604500D02*
X7369000D01*
X7354000Y7589500D02*
Y7619500D01*
X7339000Y7454500D02*
X7369000D01*
X7354000Y7439500D02*
Y7469500D01*
X4084999Y2475000D02*
X4114999D01*
X4099999Y2460000D02*
Y2490000D01*
X4310000Y2750000D02*
X4339999D01*
X4324999Y2735000D02*
Y2765000D01*
X4310000Y2900000D02*
X4339999D01*
X4324999Y2885000D02*
Y2915000D01*
X4310000Y2625000D02*
X4339999D01*
X4324999Y2610000D02*
Y2640000D01*
X4310000Y3050000D02*
X4339999D01*
X4324999Y3035000D02*
Y3065000D01*
X3860000Y2625000D02*
X3890000D01*
X3875000Y2610000D02*
Y2640000D01*
X4009999Y2625000D02*
X4039999D01*
X4024999Y2610000D02*
Y2640000D01*
X4159999Y2625000D02*
X4189999D01*
X4174999Y2610000D02*
Y2640000D01*
X3859999Y2775000D02*
X3889999D01*
X3874999Y2760000D02*
Y2790000D01*
X3859999Y3325000D02*
X3889999D01*
X3874999Y3310000D02*
Y3340000D01*
X3859999Y2925000D02*
X3889999D01*
X3874999Y2910000D02*
Y2940000D01*
X3859999Y3075000D02*
X3889999D01*
X3874999Y3060000D02*
Y3090000D01*
X3859999Y3225000D02*
X3889999D01*
X3874999Y3210000D02*
Y3240000D01*
X2160000Y3225000D02*
X2190000D01*
X2175000Y3210000D02*
Y3240000D01*
X2160000Y3075000D02*
X2190000D01*
X2175000Y3060000D02*
Y3090000D01*
X2160000Y2925000D02*
X2190000D01*
X2175000Y2910000D02*
Y2940000D01*
X2160000Y3325000D02*
X2190000D01*
X2175000Y3310000D02*
Y3340000D01*
X2160000Y2775000D02*
X2190000D01*
X2175000Y2760000D02*
Y2790000D01*
X4084999Y2325000D02*
X4114999D01*
X4099999Y2310000D02*
Y2340000D01*
X2685000Y120500D02*
X2715000D01*
X2700000Y105500D02*
Y135500D01*
X2785000Y420500D02*
X2815000D01*
X2800000Y405500D02*
Y435500D01*
X2335000Y120500D02*
X2365000D01*
X2350000Y105500D02*
Y135500D01*
X2785000Y570500D02*
X2814999D01*
X2799999Y555500D02*
Y585500D01*
X2235000Y270500D02*
X2265000D01*
X2250000Y255500D02*
Y285500D01*
X2685000Y270500D02*
X2715000D01*
X2700000Y255500D02*
Y285500D01*
X2685000Y570500D02*
X2715000D01*
X2700000Y555500D02*
Y585500D01*
X2335000Y420500D02*
X2365000D01*
X2350000Y405500D02*
Y435500D01*
X2785000Y270500D02*
X2815000D01*
X2800000Y255500D02*
Y285500D01*
X2235000Y120500D02*
X2265000D01*
X2250000Y105500D02*
Y135500D01*
X2335000Y270500D02*
X2365000D01*
X2350000Y255500D02*
Y285500D01*
X2685000Y420500D02*
X2715000D01*
X2700000Y405500D02*
Y435500D01*
X2785000Y120500D02*
X2815000D01*
X2800000Y105500D02*
Y135500D01*
X2235000Y420500D02*
X2265000D01*
X2250000Y405500D02*
Y435500D01*
X2285000Y5975001D02*
X2315000D01*
X2300000Y5960001D02*
Y5990001D01*
X2435000Y5975001D02*
X2465000D01*
X2450000Y5960001D02*
Y5990001D01*
X2285000Y5825001D02*
X2315000D01*
X2300000Y5810001D02*
Y5840001D01*
X2435000Y5825001D02*
X2465000D01*
X2450000Y5810001D02*
Y5840001D01*
X2435000Y5675000D02*
X2465000D01*
X2450000Y5660000D02*
Y5690000D01*
X2285000Y5675000D02*
X2315000D01*
X2300000Y5660000D02*
Y5690000D01*
X2280000Y5525000D02*
X2310000D01*
X2295000Y5510000D02*
Y5540000D01*
X2435000Y5500000D02*
X2465000D01*
X2450000Y5485000D02*
Y5515000D01*
X2435000Y5300000D02*
X2465000D01*
X2450000Y5285000D02*
Y5315000D01*
X2280000Y5225000D02*
X2310000D01*
X2295000Y5210000D02*
Y5240000D01*
X2282500Y5377500D02*
X2312500D01*
X2297500Y5362500D02*
Y5392500D01*
X2610000Y3225000D02*
X2640000D01*
X2625000Y3210000D02*
Y3240000D01*
X2610000Y3075000D02*
X2640000D01*
X2625000Y3060000D02*
Y3090000D01*
X2610000Y2925000D02*
X2640000D01*
X2625000Y2910000D02*
Y2940000D01*
X2610000Y2775000D02*
X2640000D01*
X2625000Y2760000D02*
Y2790000D01*
X2285000Y4425000D02*
X2315000D01*
X2300000Y4410000D02*
Y4440000D01*
X2285000Y4550000D02*
X2315000D01*
X2300000Y4535000D02*
Y4565000D01*
X710220Y5980000D02*
X740220D01*
X725220Y5965000D02*
Y5995000D01*
X560220Y5980000D02*
X590220D01*
X575220Y5965000D02*
Y5995000D01*
X710000Y7100000D02*
X740000D01*
X725000Y7085000D02*
Y7115000D01*
X785220Y6315000D02*
X815220D01*
X800220Y6300000D02*
Y6330000D01*
X635220Y6215000D02*
X665220D01*
X650220Y6200000D02*
Y6230000D01*
X785220Y6215000D02*
X815220D01*
X800220Y6200000D02*
Y6230000D01*
X410220Y6140000D02*
X440220D01*
X425220Y6125000D02*
Y6155000D01*
X410220Y6290000D02*
X440220D01*
X425220Y6275000D02*
Y6305000D01*
X647500Y6315000D02*
X677500D01*
X662500Y6300000D02*
Y6330000D01*
X860000Y6950000D02*
X890000D01*
X875000Y6935000D02*
Y6965000D01*
X860000Y7100000D02*
X890000D01*
X875000Y7085000D02*
Y7115000D01*
X860000Y6800000D02*
X890000D01*
X875000Y6785000D02*
Y6815000D01*
X860220Y5980000D02*
X890220D01*
X875220Y5965000D02*
Y5995000D01*
X875000Y5600000D02*
X905000D01*
X890000Y5585000D02*
Y5615000D01*
X1110000Y6800000D02*
X1140000D01*
X1125000Y6785000D02*
Y6815000D01*
X1110000Y6950000D02*
X1140000D01*
X1125000Y6935000D02*
Y6965000D01*
X1110000Y7100000D02*
X1140000D01*
X1125000Y7085000D02*
Y7115000D01*
X4310000Y2475000D02*
X4339999D01*
X4324999Y2460000D02*
Y2490000D01*
X4360000Y2325000D02*
X4390000D01*
X4375000Y2310000D02*
Y2340000D01*
X3935000Y605000D02*
X3965000D01*
X3950000Y590000D02*
Y620000D01*
X3935000Y455000D02*
X3965000D01*
X3950000Y440000D02*
Y470000D01*
X3935000Y154999D02*
X3965000D01*
X3950000Y139999D02*
Y169999D01*
X3935000Y305000D02*
X3965000D01*
X3950000Y290000D02*
Y320000D01*
X4035000Y305000D02*
X4065000D01*
X4050000Y290000D02*
Y320000D01*
X4035000Y154999D02*
X4065000D01*
X4050000Y139999D02*
Y169999D01*
X4035000Y455000D02*
X4065000D01*
X4050000Y440000D02*
Y470000D01*
X4385000Y455000D02*
X4415000D01*
X4400000Y440000D02*
Y470000D01*
X4385000Y154999D02*
X4415000D01*
X4400000Y139999D02*
Y169999D01*
X4385000Y305000D02*
X4415000D01*
X4400000Y290000D02*
Y320000D01*
X4485000Y305000D02*
X4515000D01*
X4500000Y290000D02*
Y320000D01*
X4485000Y154999D02*
X4515000D01*
X4500000Y139999D02*
Y169999D01*
X4385000Y575000D02*
X4415000D01*
X4400000Y560000D02*
Y590000D01*
X4485000Y650000D02*
X4515000D01*
X4500000Y635000D02*
Y665000D01*
X875000Y5750000D02*
X905000D01*
X890000Y5735000D02*
Y5765000D01*
X875000Y5900000D02*
X905000D01*
X890000Y5885000D02*
Y5915000D01*
X410220Y5980000D02*
X440220D01*
X425220Y5965000D02*
Y5995000D01*
X410220Y6440000D02*
X440220D01*
X425220Y6425000D02*
Y6455000D01*
X710000Y7250000D02*
X740000D01*
X725000Y7235000D02*
Y7265000D01*
X710000Y7850000D02*
X740000D01*
X725000Y7835000D02*
Y7865000D01*
X710000Y7700000D02*
X740000D01*
X725000Y7685000D02*
Y7715000D01*
X710000Y7550000D02*
X740000D01*
X725000Y7535000D02*
Y7565000D01*
X785000Y7850000D02*
X815000D01*
X800000Y7835000D02*
Y7865000D01*
X785000Y7700000D02*
X815000D01*
X800000Y7685000D02*
Y7715000D01*
X785000Y7550000D02*
X815000D01*
X800000Y7535000D02*
Y7565000D01*
X860000Y7550000D02*
X890000D01*
X875000Y7535000D02*
Y7565000D01*
X860000Y7700000D02*
X890000D01*
X875000Y7685000D02*
Y7715000D01*
X860000Y7850000D02*
X890000D01*
X875000Y7835000D02*
Y7865000D01*
X1260000Y7850000D02*
X1290000D01*
X1275000Y7835000D02*
Y7865000D01*
X1260000Y7700000D02*
X1290000D01*
X1275000Y7685000D02*
Y7715000D01*
X1260000Y7550000D02*
X1290000D01*
X1275000Y7535000D02*
Y7565000D01*
X1185000Y7850000D02*
X1215000D01*
X1200000Y7835000D02*
Y7865000D01*
X1185000Y7700000D02*
X1215000D01*
X1200000Y7685000D02*
Y7715000D01*
X1110000Y7550000D02*
X1140000D01*
X1125000Y7535000D02*
Y7565000D01*
X1110000Y7700000D02*
X1140000D01*
X1125000Y7685000D02*
Y7715000D01*
X1110000Y7850000D02*
X1140000D01*
X1125000Y7835000D02*
Y7865000D01*
X1110000Y7400000D02*
X1140000D01*
X1125000Y7385000D02*
Y7415000D01*
X1110000Y7250000D02*
X1140000D01*
X1125000Y7235000D02*
Y7265000D01*
X1110220Y6590000D02*
X1140220D01*
X1125220Y6575000D02*
Y6605000D01*
X1110220Y5965000D02*
X1140220D01*
X1125220Y5950000D02*
Y5980000D01*
X1110000Y5875000D02*
X1140000D01*
X1125000Y5860000D02*
Y5890000D01*
X2739000Y7404500D02*
X2769000D01*
X2754000Y7389500D02*
Y7419500D01*
X2289000Y7704500D02*
X2319000D01*
X2304000Y7689500D02*
Y7719500D01*
X2289000Y7554500D02*
X2319000D01*
X2304000Y7539500D02*
Y7569500D01*
X2289000Y7854500D02*
X2319000D01*
X2304000Y7839500D02*
Y7869500D01*
X2389000Y7854500D02*
X2418999D01*
X2404000Y7839500D02*
Y7869500D01*
X2389000Y7554500D02*
X2418999D01*
X2404000Y7539500D02*
Y7569500D01*
X2389000Y7704500D02*
X2418999D01*
X2404000Y7689500D02*
Y7719500D01*
X2739000Y7704500D02*
X2769000D01*
X2754000Y7689500D02*
Y7719500D01*
X2739000Y7554500D02*
X2769000D01*
X2754000Y7539500D02*
Y7569500D01*
X2739000Y7854500D02*
X2769000D01*
X2754000Y7839500D02*
Y7869500D01*
X2839000Y7854500D02*
X2869000D01*
X2854000Y7839500D02*
Y7869500D01*
X2839000Y7554500D02*
X2869000D01*
X2854000Y7539500D02*
Y7569500D01*
X2839000Y7704500D02*
X2869000D01*
X2854000Y7689500D02*
Y7719500D01*
X2385000Y7400000D02*
X2415000D01*
X2400000Y7385000D02*
Y7415000D01*
X2285000Y7250000D02*
X2315000D01*
X2300000Y7235000D02*
Y7265000D01*
X260000Y7555000D02*
X290000D01*
X275000Y7540000D02*
Y7570000D01*
X430000Y7725000D02*
X460000D01*
X445000Y7710000D02*
Y7740000D01*
X260000Y7895000D02*
X290000D01*
X275000Y7880000D02*
Y7910000D01*
X140000Y7845000D02*
X170000D01*
X155000Y7830000D02*
Y7860000D01*
X140000Y7605000D02*
X170000D01*
X155000Y7590000D02*
Y7620000D01*
X90000Y7725000D02*
X120000D01*
X105000Y7710000D02*
Y7740000D01*
X380000Y7845000D02*
X410000D01*
X395000Y7830000D02*
Y7860000D01*
X380000Y7605000D02*
X410000D01*
X395000Y7590000D02*
Y7620000D01*
X7830000Y7605000D02*
X7860000D01*
X7845000Y7590000D02*
Y7620000D01*
X7830000Y7845000D02*
X7860000D01*
X7845000Y7830000D02*
Y7860000D01*
X7540000Y7725000D02*
X7570000D01*
X7555000Y7710000D02*
Y7740000D01*
X7590000Y7605000D02*
X7620000D01*
X7605000Y7590000D02*
Y7620000D01*
X7590000Y7845000D02*
X7620000D01*
X7605000Y7830000D02*
Y7860000D01*
X7710000Y7895000D02*
X7740000D01*
X7725000Y7880000D02*
Y7910000D01*
X7880000Y7725000D02*
X7910000D01*
X7895000Y7710000D02*
Y7740000D01*
X7710000Y7555000D02*
X7740000D01*
X7725000Y7540000D02*
Y7570000D01*
X990220Y6350000D02*
X1020220D01*
X1005220Y6335000D02*
Y6365000D01*
X1080220Y6350000D02*
X1110220D01*
X1095220Y6335000D02*
Y6365000D01*
X1080220Y6260000D02*
X1110220D01*
X1095220Y6245000D02*
Y6275000D01*
X785220Y6415000D02*
X815220D01*
X800220Y6400000D02*
Y6430000D01*
X647500Y6415000D02*
X677500D01*
X662500Y6400000D02*
Y6430000D01*
X860220Y6600000D02*
X890220D01*
X875220Y6585000D02*
Y6615000D01*
X720220Y6600000D02*
X750220D01*
X735220Y6585000D02*
Y6615000D01*
X560000Y6607500D02*
X590000D01*
X575000Y6592500D02*
Y6622500D01*
X410220Y6600000D02*
X440220D01*
X425220Y6585000D02*
Y6615000D01*
X990220Y6260000D02*
X1020220D01*
X1005220Y6245000D02*
Y6275000D01*
X2285000Y7025000D02*
X2315000D01*
X2300000Y7010000D02*
Y7040000D01*
X2290000Y6830000D02*
X2320000D01*
X2305000Y6815000D02*
Y6845000D01*
X1754999Y4850001D02*
X1784999D01*
X1769999Y4835001D02*
Y4865001D01*
X1604999Y4850001D02*
X1634999D01*
X1619999Y4835001D02*
Y4865001D01*
X1454999Y4850001D02*
X1484999D01*
X1469999Y4835001D02*
Y4865001D01*
X1235000Y4950000D02*
X1265000D01*
X1250000Y4935000D02*
Y4965000D01*
X1235000Y5075001D02*
X1265000D01*
X1250000Y5060001D02*
Y5090000D01*
X1834999Y5825000D02*
X1864999D01*
X1849999Y5810000D02*
Y5839999D01*
X1684999Y5825000D02*
X1714999D01*
X1699999Y5810000D02*
Y5839999D01*
X1534999Y5825000D02*
X1564999D01*
X1549999Y5810000D02*
Y5839999D01*
X1385000Y5825000D02*
X1414999D01*
X1399999Y5810000D02*
Y5839999D01*
X1235000Y5675000D02*
X1265000D01*
X1250000Y5660000D02*
Y5690000D01*
X1585000Y5700000D02*
X1615000D01*
X1600000Y5685000D02*
Y5715000D01*
X1585000Y5550000D02*
X1615000D01*
X1600000Y5535000D02*
Y5565000D01*
X1585000Y5400000D02*
X1615000D01*
X1600000Y5385000D02*
Y5415000D01*
X1585000Y5250000D02*
X1615000D01*
X1600000Y5235000D02*
Y5265000D01*
X1660000Y5175000D02*
X1690000D01*
X1675000Y5160000D02*
Y5190000D01*
X1660000Y5325000D02*
X1690000D01*
X1675000Y5310000D02*
Y5340000D01*
X1660000Y5475000D02*
X1690000D01*
X1675000Y5460000D02*
Y5490000D01*
X1510000Y5175000D02*
X1540000D01*
X1525000Y5160000D02*
Y5190000D01*
X1510000Y5325000D02*
X1540000D01*
X1525000Y5310000D02*
Y5340000D01*
X1510000Y5475000D02*
X1540000D01*
X1525000Y5460000D02*
Y5490000D01*
X1585000Y5100000D02*
X1615000D01*
X1600000Y5085000D02*
Y5115000D01*
X1585000Y4950000D02*
X1615000D01*
X1600000Y4935000D02*
Y4965000D01*
X935000Y5225000D02*
X965000D01*
X950000Y5210000D02*
Y5240000D01*
X1085000Y5225000D02*
X1115000D01*
X1100000Y5210000D02*
Y5240000D01*
X1235000Y5225000D02*
X1265000D01*
X1250000Y5210000D02*
Y5240000D01*
X1905000Y4850000D02*
X1935000D01*
X1920000Y4835000D02*
Y4865000D01*
X2135000Y5225000D02*
X2165000D01*
X2150000Y5210000D02*
Y5240000D01*
X2060000Y5450000D02*
X2090000D01*
X2075000Y5435000D02*
Y5465000D01*
X1235000Y5825000D02*
X1265000D01*
X1250000Y5810000D02*
Y5840000D01*
X1235000Y5525000D02*
X1265000D01*
X1250000Y5510000D02*
Y5540000D01*
X1160000Y5450000D02*
X1190000D01*
X1175000Y5435000D02*
Y5465000D01*
X1110000Y5725000D02*
X1140000D01*
X1125000Y5710000D02*
Y5740000D01*
X1110000Y5575000D02*
X1140000D01*
X1125000Y5560000D02*
Y5590000D01*
X1185220Y6040000D02*
X1215220D01*
X1200220Y6025000D02*
Y6055000D01*
X1335220Y6040000D02*
X1365220D01*
X1350220Y6025000D02*
Y6055000D01*
X1335220Y6190000D02*
X1365220D01*
X1350220Y6175000D02*
Y6205000D01*
X1335220Y6340000D02*
X1365220D01*
X1350220Y6325000D02*
Y6355000D01*
X1335220Y6490000D02*
X1365220D01*
X1350220Y6475000D02*
Y6505000D01*
X1185220Y6490000D02*
X1215220D01*
X1200220Y6475000D02*
Y6505000D01*
X1185000Y7550000D02*
X1215000D01*
X1200000Y7535000D02*
Y7565000D01*
X2235000Y570500D02*
X2265000D01*
X2250000Y555500D02*
Y585500D01*
X2285000Y7125000D02*
X2315000D01*
X2300000Y7110000D02*
Y7140000D01*
X360000Y4500000D02*
X410000D01*
X385000Y4475000D02*
Y4525000D01*
X7125000Y4250000D02*
X7175000D01*
X7150000Y4225000D02*
Y4275000D01*
X4969540Y4325000D02*
X5019540D01*
X4994540Y4300000D02*
Y4350000D01*
X1117500Y4005000D02*
X1167500D01*
X1142500Y3980000D02*
Y4030000D01*
X2285000Y3400000D02*
X2315000D01*
X2300000Y3385000D02*
Y3415000D01*
X2610000Y3325000D02*
X2640000D01*
X2625000Y3310000D02*
Y3340000D01*
X2775000Y6275000D02*
X2825000D01*
X2800000Y6250000D02*
Y6300000D01*
X6625000Y7305000D02*
X6675000D01*
X6650000Y7280000D02*
Y7330000D01*
X4287500Y6630000D02*
X4317500D01*
X4302500Y6615000D02*
Y6645000D01*
%TF.MD5,c66d01af032b0364f482cc016fd14375*%
M02*
