%TF.GenerationSoftware,Altium Limited,Altium Designer,26.9.1 (10)*%
G04 Layer_Color=16711935*
G04 Board_Origin=13779528|11122048*
%FSLAX45Y45*%
%MOMM*%
%TF.SameCoordinates,C0C7667C-18A9-4E34-ADBB-357C6C009FE5*%
%TF.FilePolarity,Negative*%
%TF.FileFunction,Soldermask,Bot*%
%TF.Part,Single*%
G01*
G75*
%TA.AperFunction,ConnectorPad*%
%ADD37R,4.80060X1.34620*%
%ADD38R,1.34620X4.80060*%
%TA.AperFunction,SMDPad,CuDef*%
%ADD88R,1.22000X1.24000*%
%ADD89R,0.98000X1.18000*%
%ADD96R,1.18000X0.98000*%
%ADD101R,1.24000X1.22000*%
%TA.AperFunction,ComponentPad*%
%ADD112C,4.20000*%
%ADD113C,1.40000*%
%ADD114R,1.40000X1.40000*%
%ADD115C,2.15000*%
%TA.AperFunction,ViaPad*%
%ADD116C,0.80000*%
D37*
X7700495Y5467500D02*
D03*
Y6032500D02*
D03*
D38*
X3942500Y295004D02*
D03*
X4507500D02*
D03*
X2242500D02*
D03*
X2807500D02*
D03*
X7357500Y7700495D02*
D03*
X6792500D02*
D03*
X2857499Y7704995D02*
D03*
X2292500D02*
D03*
X1282500Y7704996D02*
D03*
X717500D02*
D03*
D88*
X3800000Y6173500D02*
D03*
Y6026500D02*
D03*
X3975000D02*
D03*
Y6173500D02*
D03*
Y5551500D02*
D03*
Y5698500D02*
D03*
D89*
X4290000Y5875000D02*
D03*
X4115000Y6400000D02*
D03*
X3975000D02*
D03*
X4150000Y5875000D02*
D03*
D96*
X4411480Y5683300D02*
D03*
X4150000Y5695000D02*
D03*
X4411480Y5543300D02*
D03*
X4150000Y5555000D02*
D03*
D101*
Y5175000D02*
D03*
Y5375000D02*
D03*
X4297000D02*
D03*
Y5175000D02*
D03*
D112*
X1825000Y3325000D02*
D03*
X4825000Y600000D02*
D03*
X275000Y4850000D02*
D03*
X1975000Y7400000D02*
D03*
X1825000Y600000D02*
D03*
X4825000Y3325000D02*
D03*
X7725000Y275000D02*
D03*
X275000D02*
D03*
Y7725000D02*
D03*
X7725000D02*
D03*
D113*
X4217000Y7556000D02*
D03*
Y7810000D02*
D03*
X3963000Y7556000D02*
D03*
X4471000Y7810000D02*
D03*
X4725000D02*
D03*
X4979000D02*
D03*
X5233000D02*
D03*
X4471000Y7556000D02*
D03*
X4725000D02*
D03*
X4979000D02*
D03*
X5233000D02*
D03*
D114*
X3963000Y7810000D02*
D03*
D115*
X7600000Y1254000D02*
D03*
Y1000000D02*
D03*
Y1508000D02*
D03*
Y1762000D02*
D03*
D116*
X1995000Y3325000D02*
D03*
X1825000Y3155000D02*
D03*
X1655000Y3325000D02*
D03*
X1705000Y3445000D02*
D03*
X1945000D02*
D03*
X1825000Y3495000D02*
D03*
X1705000Y3205000D02*
D03*
X1945000D02*
D03*
X4995000Y600000D02*
D03*
X4825000Y430000D02*
D03*
X4655000Y600000D02*
D03*
X4705000Y720000D02*
D03*
X4945000D02*
D03*
X4825000Y770000D02*
D03*
X4705000Y480000D02*
D03*
X4945000D02*
D03*
X445000Y4850000D02*
D03*
X275000Y4680000D02*
D03*
X105000Y4850000D02*
D03*
X155000Y4970000D02*
D03*
X395000D02*
D03*
X275000Y5020000D02*
D03*
X155000Y4730000D02*
D03*
X395000D02*
D03*
X2145000Y7400000D02*
D03*
X1975000Y7230000D02*
D03*
X1805000Y7400000D02*
D03*
X1855000Y7520000D02*
D03*
X2095000D02*
D03*
X1975000Y7570000D02*
D03*
X1855000Y7280000D02*
D03*
X2095000D02*
D03*
X1995000Y600000D02*
D03*
X1825000Y430000D02*
D03*
X1655000Y600000D02*
D03*
X1705000Y720000D02*
D03*
X1945000D02*
D03*
X1825000Y770000D02*
D03*
X1705000Y480000D02*
D03*
X1945000D02*
D03*
X4995000Y3325000D02*
D03*
X4825000Y3155000D02*
D03*
X4655000Y3325000D02*
D03*
X4705000Y3445000D02*
D03*
X4945000D02*
D03*
X4825000Y3495000D02*
D03*
X4705000Y3205000D02*
D03*
X4945000D02*
D03*
%TF.MD5,039f57b304971f0c7eab4c1577b4744c*%
M02*
