%TF.GenerationSoftware,Altium Limited,Altium Designer,26.9.1 (10)*%
G04 Layer_Color=65535*
G04 Board_Origin=13779528|11122048*
%FSLAX45Y45*%
%MOMM*%
%TF.SameCoordinates,C0C7667C-18A9-4E34-ADBB-357C6C009FE5*%
%TF.FilePolarity,Positive*%
%TF.FileFunction,Legend,Top*%
%TF.Part,Single*%
G01*
G75*
%TA.AperFunction,NonConductor*%
%ADD64C,0.20000*%
%ADD65C,0.50000*%
%ADD66C,0.25000*%
%ADD67C,0.15240*%
%ADD68C,0.40000*%
%ADD69C,0.12700*%
%ADD70C,0.30000*%
%ADD71C,0.25400*%
%ADD72C,0.20320*%
G36*
X1260960Y6230950D02*
Y6269050D01*
X1286360D01*
Y6230950D01*
X1260960D01*
D02*
G37*
G36*
X6228550Y4076550D02*
X6253950D01*
Y4038450D01*
X6228550D01*
Y4076550D01*
D02*
G37*
D64*
X6050000Y7575000D02*
G03*
X6050000Y7575000I-250000J0D01*
G01*
X5585000D02*
G03*
X5585000Y7575000I-5000J0D01*
G01*
X3781000Y7810000D02*
G03*
X3781000Y7810000I-10000J0D01*
G01*
X1115220Y6540000D02*
G03*
X1115220Y6540000I-10000J0D01*
G01*
X885000Y4362500D02*
G03*
X885000Y4362500I-10000J0D01*
G01*
X4850000Y4200000D02*
G03*
X4850000Y4200000I-5000J0D01*
G01*
X1510000D02*
G03*
X1510000Y4200000I-5000J0D01*
G01*
X4875000D02*
G03*
X4875000Y4200000I-250000J0D01*
G01*
X1975000D02*
G03*
X1975000Y4200000I-250000J0D01*
G01*
X3810600Y7429000D02*
Y7937000D01*
X5385400Y7429000D02*
Y7937000D01*
X3810600D02*
X5385400D01*
X3810600Y7429000D02*
X5385400D01*
X920000Y4207500D02*
Y4292500D01*
Y4082500D02*
Y4107500D01*
X680000Y4082500D02*
Y4107500D01*
Y4267500D02*
Y4292500D01*
X6950000Y5525000D02*
Y5835000D01*
X7265000Y843000D02*
Y1919000D01*
X7935000D01*
Y843000D02*
Y1919000D01*
X7265000Y843000D02*
X7935000D01*
D65*
X5685940Y4329800D02*
G03*
X5685940Y4329800I-20000J0D01*
G01*
D66*
X6227500Y964000D02*
G03*
X6227500Y964000I-12500J0D01*
G01*
X3062500Y5339500D02*
G03*
X3062500Y5339500I-12500J0D01*
G01*
X6410000Y2775000D02*
G03*
X6410000Y2775000I-12500J0D01*
G01*
D67*
X2285700Y3009810D02*
G03*
X2285700Y3009810I-12700J0D01*
G01*
X1825160Y5856000D02*
G03*
X1825160Y5856000I-10160J0D01*
G01*
X3985699Y3009810D02*
G03*
X3985699Y3009810I-12700J0D01*
G01*
X6667620Y5119120D02*
G03*
X6667620Y5119120I-7620J0D01*
G01*
X6123940Y4575000D02*
G03*
X6123940Y4575000I-7620J0D01*
G01*
X5769318Y3810370D02*
X6019761D01*
X5769319Y4239630D02*
X6019762D01*
X2196800Y2421800D02*
Y2828200D01*
X2603200Y2421800D02*
Y2828200D01*
X2343084Y448700D02*
X2428226D01*
X2621774Y67700D02*
X2706916D01*
X2343084D02*
X2428226D01*
X2621774Y448700D02*
X2706916D01*
X2742100Y5924834D02*
Y6008400D01*
Y5670834D02*
Y5787166D01*
Y5416834D02*
Y5533166D01*
X2157900Y5195600D02*
Y5279166D01*
Y5416834D02*
Y5533166D01*
Y5670834D02*
Y5787166D01*
Y5924834D02*
Y6008400D01*
X2742100D01*
Y5195600D02*
Y5279166D01*
X2157900Y5195600D02*
X2742100D01*
X4043084Y448700D02*
X4128226D01*
X4321774Y67700D02*
X4406916D01*
X4043084D02*
X4128226D01*
X4321774Y448700D02*
X4406916D01*
X3896799Y2421800D02*
Y2828200D01*
X4303199Y2421800D02*
Y2828200D01*
X1096774Y7551300D02*
X1181916D01*
X818084Y7932300D02*
X903226D01*
X1096774D02*
X1181916D01*
X818084Y7551300D02*
X903226D01*
X2671774Y7551300D02*
X2756915D01*
X2393084Y7932300D02*
X2478226D01*
X2671774D02*
X2756915D01*
X2393084Y7551300D02*
X2478226D01*
X892660Y6392164D02*
Y6462560D01*
Y6137440D02*
X963056D01*
X1217780D02*
Y6207836D01*
X1147384Y6462560D02*
X1217780D01*
X892660D02*
X963056D01*
X892660Y6137440D02*
Y6207836D01*
X1147384Y6137440D02*
X1217780D01*
Y6392164D02*
Y6462560D01*
X6723234Y5229560D02*
X6761766D01*
X6604800Y5328942D02*
Y5355578D01*
X6723234Y5454960D02*
X6761766D01*
X6880200Y5328942D02*
Y5355578D01*
X6893084Y7546800D02*
X6978226D01*
X7171774Y7927800D02*
X7256916D01*
X6893084D02*
X6978226D01*
X7171774Y7546800D02*
X7256916D01*
X7546800Y5846774D02*
Y5931916D01*
X7927800Y5568084D02*
Y5653226D01*
Y5846774D02*
Y5931916D01*
X7546800Y5568084D02*
Y5653226D01*
X6230620Y4392120D02*
X6875780D01*
Y4421076D01*
X6230620Y4757880D02*
X6875780D01*
X6230620Y4728924D02*
Y4757880D01*
Y4392120D02*
Y4421076D01*
X6875780Y4728924D02*
Y4757880D01*
D68*
X7440000Y907000D02*
G03*
X7440000Y907000I-10000J0D01*
G01*
D69*
X1350000Y5000000D02*
Y5130000D01*
X1560000Y5000000D02*
X1640000D01*
X1820000Y5000000D02*
X1850000D01*
X1350000D02*
X1390000D01*
X1850000D02*
Y5140000D01*
Y5570000D02*
Y5700000D01*
X1820000D02*
X1850000D01*
X1560000Y5700000D02*
X1640000D01*
X1350000Y5700000D02*
X1380000D01*
X1350000Y5560000D02*
Y5700000D01*
X725000Y5907000D02*
X1045000D01*
X725000Y5643000D02*
X1045000D01*
D70*
X5525089Y7274976D02*
Y7125024D01*
X5625057D01*
X5750016Y7274976D02*
X5700033D01*
X5675041Y7249984D01*
Y7150016D01*
X5700033Y7125024D01*
X5750016D01*
X5775008Y7150016D01*
Y7249984D01*
X5750016Y7274976D01*
X5924960Y7249984D02*
X5899968Y7274976D01*
X5849984D01*
X5824992Y7249984D01*
Y7150016D01*
X5849984Y7125024D01*
X5899968D01*
X5924960Y7150016D01*
X5974944Y7274976D02*
Y7125024D01*
Y7175008D01*
X6074911Y7274976D01*
X5999935Y7200000D01*
X6074911Y7125024D01*
X1437609Y287472D02*
X1487593D01*
X1462601D01*
Y137520D01*
X1437609D01*
X1487593D01*
X1562569Y112529D02*
X1662536D01*
X1787496Y287472D02*
X1737512D01*
X1712520Y262480D01*
Y162512D01*
X1737512Y137520D01*
X1787496D01*
X1812488Y162512D01*
Y262480D01*
X1787496Y287472D01*
X1862472D02*
Y162512D01*
X1887464Y137520D01*
X1937447D01*
X1962439Y162512D01*
Y287472D01*
X2012423D02*
X2112391D01*
X2062407D01*
Y137520D01*
X3150081Y162512D02*
Y262480D01*
X3125089Y287472D01*
X3075105D01*
X3050114Y262480D01*
Y162512D01*
X3075105Y137520D01*
X3125089D01*
X3100097Y187504D02*
X3150081Y137520D01*
X3125089D02*
X3150081Y162512D01*
X3200065Y112529D02*
X3300033D01*
X3424992Y287472D02*
X3375008D01*
X3350016Y262480D01*
Y162512D01*
X3375008Y137520D01*
X3424992D01*
X3449984Y162512D01*
Y262480D01*
X3424992Y287472D01*
X3499968D02*
Y162512D01*
X3524960Y137520D01*
X3574944D01*
X3599935Y162512D01*
Y287472D01*
X3649919D02*
X3749887D01*
X3699903D01*
Y137520D01*
X7587537Y4999976D02*
X7637520D01*
X7612528D01*
Y4850024D01*
X7587537D01*
X7637520D01*
X7712496D02*
Y4999976D01*
X7812464Y4850024D01*
Y4999976D01*
X7500065Y5200024D02*
Y5349975D01*
X7575041D01*
X7600033Y5324984D01*
Y5275000D01*
X7575041Y5250008D01*
X7500065D01*
X7550049D02*
X7600033Y5200024D01*
X7749984Y5349975D02*
X7650016D01*
Y5200024D01*
X7749984D01*
X7650016Y5275000D02*
X7700000D01*
X7899935Y5349975D02*
X7799968D01*
Y5275000D01*
X7849952D01*
X7799968D01*
Y5200024D01*
X6275065Y7550024D02*
Y7699976D01*
X6325049Y7649992D01*
X6375032Y7699976D01*
Y7550024D01*
X6499992Y7699976D02*
X6450008D01*
X6425016Y7674984D01*
Y7575016D01*
X6450008Y7550024D01*
X6499992D01*
X6524984Y7575016D01*
Y7674984D01*
X6499992Y7699976D01*
X6574968Y7550024D02*
Y7699976D01*
X6674935Y7550024D01*
Y7699976D01*
X6400041Y7924976D02*
Y7775024D01*
X6500008D01*
X6624968Y7924976D02*
X6574984D01*
X6549992Y7899984D01*
Y7800016D01*
X6574984Y7775024D01*
X6624968D01*
X6649960Y7800016D01*
Y7899984D01*
X6624968Y7924976D01*
X1437609Y7762520D02*
Y7912472D01*
X1512585D01*
X1537577Y7887480D01*
Y7837496D01*
X1512585Y7812504D01*
X1437609D01*
X1487593D02*
X1537577Y7762520D01*
X1687528Y7912472D02*
X1587561D01*
Y7837496D01*
X1637545D01*
X1587561D01*
Y7762520D01*
X1737512Y7737529D02*
X1837480D01*
X1887464Y7912472D02*
X1937447D01*
X1912455D01*
Y7762520D01*
X1887464D01*
X1937447D01*
X2012423D02*
Y7912472D01*
X2112391Y7762520D01*
Y7912472D01*
X2987609Y7899976D02*
Y7800008D01*
X3037593Y7750024D01*
X3087577Y7800008D01*
Y7899976D01*
X3237528Y7874984D02*
X3212536Y7899976D01*
X3162552D01*
X3137561Y7874984D01*
Y7775016D01*
X3162552Y7750024D01*
X3212536D01*
X3237528Y7775016D01*
Y7825000D01*
X3187545D01*
X3287512Y7750024D02*
Y7849992D01*
X3337496Y7899976D01*
X3387480Y7849992D01*
Y7750024D01*
Y7825000D01*
X3287512D01*
X3437464Y7899976D02*
X3487447D01*
X3462455D01*
Y7750024D01*
X3437464D01*
X3487447D01*
X3562423D02*
Y7899976D01*
X3662391Y7750024D01*
Y7899976D01*
X4287609Y3825000D02*
X4387577D01*
X4337593Y3874984D02*
Y3775016D01*
X4437561Y3874984D02*
X4462552Y3899976D01*
X4512536D01*
X4537528Y3874984D01*
Y3849992D01*
X4512536Y3825000D01*
X4487544D01*
X4512536D01*
X4537528Y3800008D01*
Y3775016D01*
X4512536Y3750024D01*
X4462552D01*
X4437561Y3775016D01*
X4587512Y3750024D02*
Y3775016D01*
X4612504D01*
Y3750024D01*
X4587512D01*
X4712472Y3874984D02*
X4737463Y3899976D01*
X4787447D01*
X4812439Y3874984D01*
Y3849992D01*
X4787447Y3825000D01*
X4762456D01*
X4787447D01*
X4812439Y3800008D01*
Y3775016D01*
X4787447Y3750024D01*
X4737463D01*
X4712472Y3775016D01*
X4862423Y3899976D02*
Y3800008D01*
X4912407Y3750024D01*
X4962391Y3800008D01*
Y3899976D01*
X1500065Y3775000D02*
X1600032D01*
X1550049Y3824984D02*
Y3725016D01*
X1749984Y3849976D02*
X1650016D01*
Y3775000D01*
X1700000Y3799992D01*
X1724992D01*
X1749984Y3775000D01*
Y3725016D01*
X1724992Y3700024D01*
X1675008D01*
X1650016Y3725016D01*
X1799968Y3849976D02*
Y3750008D01*
X1849952Y3700024D01*
X1899935Y3750008D01*
Y3849976D01*
D71*
X1423653Y6391175D02*
Y6264217D01*
X1449045Y6238825D01*
X1499829D01*
X1525220Y6264217D01*
Y6391175D01*
X1576004Y6238825D02*
X1626787D01*
X1601396D01*
Y6391175D01*
X1576004Y6365784D01*
X921866Y4598825D02*
Y4751175D01*
X998041D01*
X1023433Y4725784D01*
Y4675000D01*
X998041Y4649608D01*
X921866D01*
X972649D02*
X1023433Y4598825D01*
X1074217Y4725784D02*
X1099608Y4751175D01*
X1150392D01*
X1175784Y4725784D01*
Y4700392D01*
X1150392Y4675000D01*
X1125000D01*
X1150392D01*
X1175784Y4649608D01*
Y4624217D01*
X1150392Y4598825D01*
X1099608D01*
X1074217Y4624217D01*
X1226567Y4725784D02*
X1251959Y4751175D01*
X1302743D01*
X1328135Y4725784D01*
Y4624217D01*
X1302743Y4598825D01*
X1251959D01*
X1226567Y4624217D01*
Y4725784D01*
D72*
X7138479Y5505721D02*
X7011521D01*
Y5569201D01*
X7032680Y5590361D01*
X7075000D01*
X7096160Y5569201D01*
Y5505721D01*
Y5548041D02*
X7138479Y5590361D01*
Y5717320D02*
Y5632680D01*
X7053840Y5717320D01*
X7032680D01*
X7011521Y5696160D01*
Y5653840D01*
X7032680Y5632680D01*
Y5759639D02*
X7011521Y5780799D01*
Y5823118D01*
X7032680Y5844278D01*
X7053840D01*
X7075000Y5823118D01*
X7096160Y5844278D01*
X7117320D01*
X7138479Y5823118D01*
Y5780799D01*
X7117320Y5759639D01*
X7096160D01*
X7075000Y5780799D01*
X7053840Y5759639D01*
X7032680D01*
X7075000Y5780799D02*
Y5823118D01*
X3790361Y942320D02*
X3769201Y963479D01*
X3726881D01*
X3705722Y942320D01*
Y857680D01*
X3726881Y836521D01*
X3769201D01*
X3790361Y857680D01*
X3896160Y836521D02*
Y963479D01*
X3832680Y900000D01*
X3917320D01*
X3959639Y857680D02*
X3980799Y836521D01*
X4023119D01*
X4044279Y857680D01*
Y942320D01*
X4023119Y963479D01*
X3980799D01*
X3959639Y942320D01*
Y921160D01*
X3980799Y900000D01*
X4044279D01*
X344201Y4263479D02*
Y4157680D01*
X365361Y4136521D01*
X407680D01*
X428840Y4157680D01*
Y4263479D01*
X471160D02*
X555799D01*
Y4242320D01*
X471160Y4157680D01*
Y4136521D01*
X2190361Y6188479D02*
X2275000D01*
X2232681D01*
Y6061521D01*
X2317320D02*
X2359639D01*
X2338479D01*
Y6188479D01*
X2317320Y6167320D01*
X6116201Y3118779D02*
Y3012980D01*
X6137361Y2991821D01*
X6179680D01*
X6200840Y3012980D01*
Y3118779D01*
X6243160Y3097620D02*
X6264319Y3118779D01*
X6306639D01*
X6327799Y3097620D01*
Y3076460D01*
X6306639Y3055300D01*
X6327799Y3034140D01*
Y3012980D01*
X6306639Y2991821D01*
X6264319D01*
X6243160Y3012980D01*
Y3034140D01*
X6264319Y3055300D01*
X6243160Y3076460D01*
Y3097620D01*
X6264319Y3055300D02*
X6306639D01*
X5966580Y1312619D02*
Y1206820D01*
X5987740Y1185660D01*
X6030059D01*
X6051219Y1206820D01*
Y1312619D01*
X6178178D02*
X6135858Y1291459D01*
X6093539Y1249139D01*
Y1206820D01*
X6114698Y1185660D01*
X6157018D01*
X6178178Y1206820D01*
Y1227980D01*
X6157018Y1249139D01*
X6093539D01*
X5769201Y3763479D02*
Y3657680D01*
X5790361Y3636521D01*
X5832680D01*
X5853840Y3657680D01*
Y3763479D01*
X5980799D02*
X5896160D01*
Y3700000D01*
X5938479Y3721160D01*
X5959639D01*
X5980799Y3700000D01*
Y3657680D01*
X5959639Y3636521D01*
X5917319D01*
X5896160Y3657680D01*
X2815361Y1542320D02*
X2794201Y1563479D01*
X2751881D01*
X2730721Y1542320D01*
Y1457680D01*
X2751881Y1436521D01*
X2794201D01*
X2815361Y1457680D01*
X2942320Y1436521D02*
X2857680D01*
X2942320Y1521160D01*
Y1542320D01*
X2921160Y1563479D01*
X2878840D01*
X2857680Y1542320D01*
X3069279Y1436521D02*
X2984639D01*
X3069279Y1521160D01*
Y1542320D01*
X3048119Y1563479D01*
X3005799D01*
X2984639Y1542320D01*
X2800941Y2192320D02*
X2779781Y2213479D01*
X2737461D01*
X2716301Y2192320D01*
Y2107680D01*
X2737461Y2086521D01*
X2779781D01*
X2800941Y2107680D01*
X2843260Y2086521D02*
X2885580D01*
X2864420D01*
Y2213479D01*
X2843260Y2192320D01*
X3033699Y2213479D02*
X2949059D01*
Y2150000D01*
X2991379Y2171160D01*
X3012539D01*
X3033699Y2150000D01*
Y2107680D01*
X3012539Y2086521D01*
X2970219D01*
X2949059Y2107680D01*
X7011520Y5219201D02*
X7117320D01*
X7138479Y5240361D01*
Y5282681D01*
X7117320Y5303841D01*
X7011520D01*
X7138479Y5430799D02*
Y5346160D01*
X7053840Y5430799D01*
X7032680D01*
X7011520Y5409639D01*
Y5367320D01*
X7032680Y5346160D01*
X3569201Y2688480D02*
X3653840D01*
X3611521D01*
Y2561521D01*
X3696160Y2667320D02*
X3717319Y2688480D01*
X3759639D01*
X3780799Y2667320D01*
Y2646160D01*
X3759639Y2625000D01*
X3738479D01*
X3759639D01*
X3780799Y2603840D01*
Y2582680D01*
X3759639Y2561521D01*
X3717319D01*
X3696160Y2582680D01*
X2694201Y2663479D02*
X2778840D01*
X2736520D01*
Y2536520D01*
X2905799D02*
X2821159D01*
X2905799Y2621160D01*
Y2642320D01*
X2884639Y2663479D01*
X2842319D01*
X2821159Y2642320D01*
X6438479Y1805722D02*
X6311521D01*
Y1869201D01*
X6332680Y1890361D01*
X6375000D01*
X6396160Y1869201D01*
Y1805722D01*
Y1848041D02*
X6438479Y1890361D01*
Y2017320D02*
Y1932680D01*
X6353840Y2017320D01*
X6332680D01*
X6311521Y1996160D01*
Y1953840D01*
X6332680Y1932680D01*
X6311521Y2059639D02*
Y2144279D01*
X6332680D01*
X6417320Y2059639D01*
X6438479D01*
X6013479Y1805722D02*
X5886521D01*
Y1869201D01*
X5907680Y1890361D01*
X5950000D01*
X5971160Y1869201D01*
Y1805722D01*
Y1848041D02*
X6013479Y1890361D01*
Y2017320D02*
Y1932680D01*
X5928840Y2017320D01*
X5907680D01*
X5886521Y1996160D01*
Y1953840D01*
X5907680Y1932680D01*
X5886521Y2144279D02*
X5907680Y2101959D01*
X5950000Y2059639D01*
X5992320D01*
X6013479Y2080799D01*
Y2123119D01*
X5992320Y2144279D01*
X5971160D01*
X5950000Y2123119D01*
Y2059639D01*
X6638479Y1805722D02*
X6511521D01*
Y1869201D01*
X6532680Y1890361D01*
X6575000D01*
X6596160Y1869201D01*
Y1805722D01*
Y1848041D02*
X6638479Y1890361D01*
Y2017320D02*
Y1932680D01*
X6553840Y2017320D01*
X6532680D01*
X6511521Y1996160D01*
Y1953840D01*
X6532680Y1932680D01*
X6511521Y2144279D02*
Y2059639D01*
X6575000D01*
X6553840Y2101959D01*
Y2123119D01*
X6575000Y2144279D01*
X6617320D01*
X6638479Y2123119D01*
Y2080799D01*
X6617320Y2059639D01*
X6536521Y669278D02*
X6663479D01*
Y605799D01*
X6642320Y584639D01*
X6600000D01*
X6578840Y605799D01*
Y669278D01*
Y626958D02*
X6536521Y584639D01*
Y457680D02*
Y542319D01*
X6621160Y457680D01*
X6642320D01*
X6663479Y478840D01*
Y521159D01*
X6642320Y542319D01*
X6536521Y351881D02*
X6663479D01*
X6600000Y415360D01*
Y330721D01*
X5411521Y694278D02*
X5538480D01*
Y630799D01*
X5517320Y609639D01*
X5475000D01*
X5453841Y630799D01*
Y694278D01*
Y651959D02*
X5411521Y609639D01*
Y482680D02*
Y567319D01*
X5496160Y482680D01*
X5517320D01*
X5538480Y503840D01*
Y546160D01*
X5517320Y567319D01*
Y440361D02*
X5538480Y419201D01*
Y376881D01*
X5517320Y355721D01*
X5496160D01*
X5475000Y376881D01*
Y398041D01*
Y376881D01*
X5453841Y355721D01*
X5432681D01*
X5411521Y376881D01*
Y419201D01*
X5432681Y440361D01*
X6613479Y3330722D02*
X6486520D01*
Y3394201D01*
X6507680Y3415361D01*
X6550000D01*
X6571159Y3394201D01*
Y3330722D01*
Y3373041D02*
X6613479Y3415361D01*
Y3542320D02*
Y3457680D01*
X6528840Y3542320D01*
X6507680D01*
X6486520Y3521160D01*
Y3478840D01*
X6507680Y3457680D01*
X6613479Y3669279D02*
Y3584639D01*
X6528840Y3669279D01*
X6507680D01*
X6486520Y3648119D01*
Y3605799D01*
X6507680Y3584639D01*
X6736521Y648119D02*
X6863480D01*
Y584639D01*
X6842320Y563479D01*
X6800000D01*
X6778840Y584639D01*
Y648119D01*
Y605799D02*
X6736521Y563479D01*
Y436520D02*
Y521160D01*
X6821160Y436520D01*
X6842320D01*
X6863480Y457680D01*
Y500000D01*
X6842320Y521160D01*
X6736521Y394201D02*
Y351881D01*
Y373041D01*
X6863480D01*
X6842320Y394201D01*
X3705722Y661521D02*
Y788479D01*
X3769201D01*
X3790361Y767320D01*
Y725000D01*
X3769201Y703840D01*
X3705722D01*
X3748041D02*
X3790361Y661521D01*
X3917320D02*
X3832680D01*
X3917320Y746160D01*
Y767320D01*
X3896160Y788479D01*
X3853840D01*
X3832680Y767320D01*
X3959639D02*
X3980799Y788479D01*
X4023119D01*
X4044279Y767320D01*
Y682680D01*
X4023119Y661521D01*
X3980799D01*
X3959639Y682680D01*
Y767320D01*
X2741301Y711521D02*
Y838479D01*
X2804781D01*
X2825941Y817320D01*
Y775000D01*
X2804781Y753840D01*
X2741301D01*
X2783621D02*
X2825941Y711521D01*
X2868260D02*
X2910580D01*
X2889420D01*
Y838479D01*
X2868260Y817320D01*
X2974059Y732680D02*
X2995219Y711521D01*
X3037539D01*
X3058699Y732680D01*
Y817320D01*
X3037539Y838479D01*
X2995219D01*
X2974059Y817320D01*
Y796160D01*
X2995219Y775000D01*
X3058699D01*
X6213479Y5491301D02*
X6086520D01*
Y5554780D01*
X6107680Y5575940D01*
X6150000D01*
X6171159Y5554780D01*
Y5491301D01*
Y5533621D02*
X6213479Y5575940D01*
Y5618260D02*
Y5660579D01*
Y5639420D01*
X6086520D01*
X6107680Y5618260D01*
Y5724059D02*
X6086520Y5745219D01*
Y5787538D01*
X6107680Y5808698D01*
X6128840D01*
X6150000Y5787538D01*
X6171159Y5808698D01*
X6192319D01*
X6213479Y5787538D01*
Y5745219D01*
X6192319Y5724059D01*
X6171159D01*
X6150000Y5745219D01*
X6128840Y5724059D01*
X6107680D01*
X6150000Y5745219D02*
Y5787538D01*
X7307801Y6136521D02*
Y6263479D01*
X7371281D01*
X7392441Y6242320D01*
Y6200000D01*
X7371281Y6178840D01*
X7307801D01*
X7350121D02*
X7392441Y6136521D01*
X7434760D02*
X7477080D01*
X7455920D01*
Y6263479D01*
X7434760Y6242320D01*
X7540559Y6263479D02*
X7625199D01*
Y6242320D01*
X7540559Y6157680D01*
Y6136521D01*
X6995979Y6916302D02*
X6869020D01*
Y6979781D01*
X6890180Y7000941D01*
X6932500D01*
X6953659Y6979781D01*
Y6916302D01*
Y6958621D02*
X6995979Y7000941D01*
Y7043260D02*
Y7085580D01*
Y7064420D01*
X6869020D01*
X6890180Y7043260D01*
X6869020Y7233699D02*
X6890180Y7191379D01*
X6932500Y7149060D01*
X6974819D01*
X6995979Y7170219D01*
Y7212539D01*
X6974819Y7233699D01*
X6953659D01*
X6932500Y7212539D01*
Y7149060D01*
X7463479Y6916301D02*
X7336520D01*
Y6979781D01*
X7357680Y7000941D01*
X7399999D01*
X7421159Y6979781D01*
Y6916301D01*
Y6958621D02*
X7463479Y7000941D01*
Y7043260D02*
Y7085580D01*
Y7064420D01*
X7336520D01*
X7357680Y7043260D01*
X7336520Y7233699D02*
Y7149059D01*
X7399999D01*
X7378839Y7191379D01*
Y7212539D01*
X7399999Y7233699D01*
X7442319D01*
X7463479Y7212539D01*
Y7170219D01*
X7442319Y7149059D01*
X5916301Y5986520D02*
Y6113479D01*
X5979781D01*
X6000941Y6092320D01*
Y6050000D01*
X5979781Y6028840D01*
X5916301D01*
X5958621D02*
X6000941Y5986520D01*
X6043260D02*
X6085580D01*
X6064420D01*
Y6113479D01*
X6043260Y6092320D01*
X6212539Y5986520D02*
Y6113479D01*
X6149059Y6050000D01*
X6233699D01*
X4791301Y6736521D02*
Y6863480D01*
X4854781D01*
X4875941Y6842320D01*
Y6800000D01*
X4854781Y6778840D01*
X4791301D01*
X4833621D02*
X4875941Y6736521D01*
X4918260D02*
X4960580D01*
X4939420D01*
Y6863480D01*
X4918260Y6842320D01*
X5024059D02*
X5045219Y6863480D01*
X5087539D01*
X5108699Y6842320D01*
Y6757680D01*
X5087539Y6736521D01*
X5045219D01*
X5024059Y6757680D01*
Y6842320D01*
X3830701Y4771521D02*
Y4898479D01*
X3894180D01*
X3915340Y4877320D01*
Y4835000D01*
X3894180Y4813840D01*
X3830701D01*
X3873021D02*
X3915340Y4771521D01*
X4042299Y4898479D02*
X3999980Y4877320D01*
X3957660Y4835000D01*
Y4792680D01*
X3978820Y4771521D01*
X4021139D01*
X4042299Y4792680D01*
Y4813840D01*
X4021139Y4835000D01*
X3957660D01*
X390361Y5861521D02*
Y5988480D01*
X453840D01*
X475000Y5967320D01*
Y5925000D01*
X453840Y5903840D01*
X390361D01*
X432681D02*
X475000Y5861521D01*
X517320D02*
X559639D01*
X538479D01*
Y5988480D01*
X517320Y5967320D01*
X7441301Y2813480D02*
Y2686521D01*
X7525941D01*
X7568260D02*
X7610580D01*
X7589420D01*
Y2813480D01*
X7568260Y2792320D01*
X7758699Y2686521D02*
X7674059D01*
X7758699Y2771160D01*
Y2792320D01*
X7737539Y2813480D01*
X7695219D01*
X7674059Y2792320D01*
X6962461Y788479D02*
Y661520D01*
X7047101D01*
X7089420D02*
X7131740D01*
X7110580D01*
Y788479D01*
X7089420Y767320D01*
X7195219Y661520D02*
X7237539D01*
X7216379D01*
Y788479D01*
X7195219Y767320D01*
X3836520Y1041301D02*
X3963479D01*
Y1125941D01*
Y1168260D02*
Y1210580D01*
Y1189420D01*
X3836520D01*
X3857680Y1168260D01*
Y1274059D02*
X3836520Y1295219D01*
Y1337539D01*
X3857680Y1358699D01*
X3942320D01*
X3963479Y1337539D01*
Y1295219D01*
X3942320Y1274059D01*
X3857680D01*
X3811520Y1694201D02*
X3938479D01*
Y1778840D01*
X3917320Y1821159D02*
X3938479Y1842319D01*
Y1884639D01*
X3917320Y1905799D01*
X3832680D01*
X3811520Y1884639D01*
Y1842319D01*
X3832680Y1821159D01*
X3853840D01*
X3875000Y1842319D01*
Y1905799D01*
X2811520Y1094201D02*
X2938479D01*
Y1178840D01*
X2832680Y1221160D02*
X2811520Y1242319D01*
Y1284639D01*
X2832680Y1305799D01*
X2853840D01*
X2875000Y1284639D01*
X2896159Y1305799D01*
X2917319D01*
X2938479Y1284639D01*
Y1242319D01*
X2917319Y1221160D01*
X2896159D01*
X2875000Y1242319D01*
X2853840Y1221160D01*
X2832680D01*
X2875000Y1242319D02*
Y1284639D01*
X2786520Y1719201D02*
X2913479D01*
Y1803840D01*
X2786520Y1846160D02*
Y1930799D01*
X2807680D01*
X2892319Y1846160D01*
X2913479D01*
X6969201Y6538479D02*
Y6411520D01*
X7053840D01*
X7180799Y6538479D02*
X7138479Y6517319D01*
X7096160Y6475000D01*
Y6432680D01*
X7117320Y6411520D01*
X7159639D01*
X7180799Y6432680D01*
Y6453840D01*
X7159639Y6475000D01*
X7096160D01*
X6419201Y6813479D02*
Y6686521D01*
X6503840D01*
X6630799Y6813479D02*
X6546160D01*
Y6750000D01*
X6588479Y6771160D01*
X6609639D01*
X6630799Y6750000D01*
Y6707680D01*
X6609639Y6686521D01*
X6567319D01*
X6546160Y6707680D01*
X5969201Y6338479D02*
Y6211520D01*
X6053840D01*
X6159639D02*
Y6338479D01*
X6096160Y6275000D01*
X6180799D01*
X7136521Y6994201D02*
X7263480D01*
Y7078840D01*
X7157680Y7121160D02*
X7136521Y7142319D01*
Y7184639D01*
X7157680Y7205799D01*
X7178840D01*
X7200000Y7184639D01*
Y7163479D01*
Y7184639D01*
X7221160Y7205799D01*
X7242320D01*
X7263480Y7184639D01*
Y7142319D01*
X7242320Y7121160D01*
X1186520Y6894201D02*
X1313479D01*
Y6978840D01*
Y7105799D02*
Y7021160D01*
X1228840Y7105799D01*
X1207680D01*
X1186520Y7084639D01*
Y7042319D01*
X1207680Y7021160D01*
X1115361Y5838479D02*
Y5711520D01*
X1200000D01*
X1242320D02*
X1284639D01*
X1263479D01*
Y5838479D01*
X1242320Y5817320D01*
X7578840Y2167480D02*
X7536521D01*
X7557680D01*
Y2061680D01*
X7536521Y2040521D01*
X7515361D01*
X7494201Y2061680D01*
X7621160Y2167480D02*
X7705799D01*
Y2146320D01*
X7621160Y2061680D01*
Y2040521D01*
X3628840Y478980D02*
X3586521D01*
X3607680D01*
Y373181D01*
X3586521Y352021D01*
X3565361D01*
X3544201Y373181D01*
X3755799Y478980D02*
X3713479Y457820D01*
X3671160Y415500D01*
Y373181D01*
X3692320Y352021D01*
X3734639D01*
X3755799Y373181D01*
Y394341D01*
X3734639Y415500D01*
X3671160D01*
X3003840Y488479D02*
X2961521D01*
X2982680D01*
Y382680D01*
X2961521Y361520D01*
X2940361D01*
X2919201Y382680D01*
X3130799Y488479D02*
X3046160D01*
Y425000D01*
X3088479Y446160D01*
X3109639D01*
X3130799Y425000D01*
Y382680D01*
X3109639Y361520D01*
X3067319D01*
X3046160Y382680D01*
X7578840Y7463479D02*
X7536521D01*
X7557680D01*
Y7357680D01*
X7536521Y7336521D01*
X7515361D01*
X7494201Y7357680D01*
X7684639Y7336521D02*
Y7463479D01*
X7621160Y7400000D01*
X7705799D01*
X5203840Y7338479D02*
X5161521D01*
X5182680D01*
Y7232680D01*
X5161521Y7211521D01*
X5140361D01*
X5119201Y7232680D01*
X5246160Y7317320D02*
X5267319Y7338479D01*
X5309639D01*
X5330799Y7317320D01*
Y7296160D01*
X5309639Y7275000D01*
X5288479D01*
X5309639D01*
X5330799Y7253840D01*
Y7232680D01*
X5309639Y7211521D01*
X5267319D01*
X5246160Y7232680D01*
X3078840Y7663479D02*
X3036520D01*
X3057680D01*
Y7557680D01*
X3036520Y7536521D01*
X3015360D01*
X2994201Y7557680D01*
X3205799Y7536521D02*
X3121160D01*
X3205799Y7621160D01*
Y7642320D01*
X3184639Y7663479D01*
X3142319D01*
X3121160Y7642320D01*
X1525000Y7663479D02*
X1482681D01*
X1503840D01*
Y7557680D01*
X1482681Y7536521D01*
X1461521D01*
X1440361Y7557680D01*
X1567320Y7536521D02*
X1609639D01*
X1588479D01*
Y7663479D01*
X1567320Y7642320D01*
X1524021Y5988479D02*
X1439381D01*
Y5925000D01*
X1481701D01*
X1439381D01*
Y5861520D01*
X1566340Y5988479D02*
Y5861520D01*
X1629819D01*
X1650979Y5882680D01*
Y5903840D01*
X1629819Y5925000D01*
X1566340D01*
X1629819D01*
X1650979Y5946160D01*
Y5967320D01*
X1629819Y5988479D01*
X1566340D01*
X1693299Y5861520D02*
X1735619D01*
X1714459D01*
Y5988479D01*
X1693299Y5967320D01*
X7075000Y2088479D02*
X6990361D01*
Y2025000D01*
X7032681D01*
X6990361D01*
Y1961521D01*
X7117320D02*
X7159639D01*
X7138479D01*
Y2088479D01*
X7117320Y2067320D01*
X6132680Y1915361D02*
X6111520Y1894201D01*
Y1851881D01*
X6132680Y1830722D01*
X6217319D01*
X6238479Y1851881D01*
Y1894201D01*
X6217319Y1915361D01*
X6111520Y2042320D02*
X6132680Y2000000D01*
X6175000Y1957680D01*
X6217319D01*
X6238479Y1978840D01*
Y2021160D01*
X6217319Y2042320D01*
X6196159D01*
X6175000Y2021160D01*
Y1957680D01*
X6132680Y2084639D02*
X6111520Y2105799D01*
Y2148119D01*
X6132680Y2169279D01*
X6217319D01*
X6238479Y2148119D01*
Y2105799D01*
X6217319Y2084639D01*
X6132680D01*
X165361Y4542320D02*
X144201Y4563479D01*
X101881D01*
X80721Y4542320D01*
Y4457680D01*
X101881Y4436520D01*
X144201D01*
X165361Y4457680D01*
X292320Y4563479D02*
X207680D01*
Y4500000D01*
X250000Y4521160D01*
X271160D01*
X292320Y4500000D01*
Y4457680D01*
X271160Y4436520D01*
X228840D01*
X207680Y4457680D01*
X334639D02*
X355799Y4436520D01*
X398119D01*
X419279Y4457680D01*
Y4542320D01*
X398119Y4563479D01*
X355799D01*
X334639Y4542320D01*
Y4521160D01*
X355799Y4500000D01*
X419279D01*
X515361Y3542320D02*
X494201Y3563479D01*
X451881D01*
X430722Y3542320D01*
Y3457680D01*
X451881Y3436520D01*
X494201D01*
X515361Y3457680D01*
X642320Y3563479D02*
X557680D01*
Y3500000D01*
X600000Y3521160D01*
X621160D01*
X642320Y3500000D01*
Y3457680D01*
X621160Y3436520D01*
X578840D01*
X557680Y3457680D01*
X684639Y3542320D02*
X705799Y3563479D01*
X748119D01*
X769279Y3542320D01*
Y3521160D01*
X748119Y3500000D01*
X769279Y3478840D01*
Y3457680D01*
X748119Y3436520D01*
X705799D01*
X684639Y3457680D01*
Y3478840D01*
X705799Y3500000D01*
X684639Y3521160D01*
Y3542320D01*
X705799Y3500000D02*
X748119D01*
X5192320Y4684639D02*
X5213479Y4705799D01*
Y4748118D01*
X5192320Y4769278D01*
X5107680D01*
X5086520Y4748118D01*
Y4705799D01*
X5107680Y4684639D01*
X5213479Y4557680D02*
Y4642319D01*
X5150000D01*
X5171160Y4599999D01*
Y4578840D01*
X5150000Y4557680D01*
X5107680D01*
X5086520Y4578840D01*
Y4621159D01*
X5107680Y4642319D01*
X5213479Y4515360D02*
Y4430721D01*
X5192320D01*
X5107680Y4515360D01*
X5086520D01*
X5682680Y2840361D02*
X5661520Y2819201D01*
Y2776881D01*
X5682680Y2755721D01*
X5767319D01*
X5788479Y2776881D01*
Y2819201D01*
X5767319Y2840361D01*
X5661520Y2967320D02*
Y2882680D01*
X5724999D01*
X5703839Y2925000D01*
Y2946160D01*
X5724999Y2967320D01*
X5767319D01*
X5788479Y2946160D01*
Y2903840D01*
X5767319Y2882680D01*
X5661520Y3094279D02*
X5682680Y3051959D01*
X5724999Y3009639D01*
X5767319D01*
X5788479Y3030799D01*
Y3073119D01*
X5767319Y3094279D01*
X5746159D01*
X5724999Y3073119D01*
Y3009639D01*
X6920361Y4292320D02*
X6899201Y4313479D01*
X6856881D01*
X6835721Y4292320D01*
Y4207680D01*
X6856881Y4186520D01*
X6899201D01*
X6920361Y4207680D01*
X7047320Y4313479D02*
X6962680D01*
Y4250000D01*
X7005000Y4271160D01*
X7026160D01*
X7047320Y4250000D01*
Y4207680D01*
X7026160Y4186520D01*
X6983840D01*
X6962680Y4207680D01*
X7174279Y4313479D02*
X7089639D01*
Y4250000D01*
X7131959Y4271160D01*
X7153119D01*
X7174279Y4250000D01*
Y4207680D01*
X7153119Y4186520D01*
X7110799D01*
X7089639Y4207680D01*
X5692320Y609639D02*
X5713480Y630799D01*
Y673119D01*
X5692320Y694278D01*
X5607680D01*
X5586521Y673119D01*
Y630799D01*
X5607680Y609639D01*
X5713480Y482680D02*
Y567319D01*
X5650000D01*
X5671160Y525000D01*
Y503840D01*
X5650000Y482680D01*
X5607680D01*
X5586521Y503840D01*
Y546160D01*
X5607680Y567319D01*
X5586521Y376881D02*
X5713480D01*
X5650000Y440361D01*
Y355721D01*
X7132680Y3765361D02*
X7111520Y3744201D01*
Y3701881D01*
X7132680Y3680721D01*
X7217320D01*
X7238479Y3701881D01*
Y3744201D01*
X7217320Y3765361D01*
X7111520Y3892319D02*
Y3807680D01*
X7175000D01*
X7153840Y3850000D01*
Y3871159D01*
X7175000Y3892319D01*
X7217320D01*
X7238479Y3871159D01*
Y3828840D01*
X7217320Y3807680D01*
X7132680Y3934639D02*
X7111520Y3955799D01*
Y3998118D01*
X7132680Y4019278D01*
X7153840D01*
X7175000Y3998118D01*
Y3976959D01*
Y3998118D01*
X7196160Y4019278D01*
X7217320D01*
X7238479Y3998118D01*
Y3955799D01*
X7217320Y3934639D01*
X5442320Y4684639D02*
X5463479Y4705799D01*
Y4748118D01*
X5442320Y4769278D01*
X5357680D01*
X5336520Y4748118D01*
Y4705799D01*
X5357680Y4684639D01*
X5463479Y4557680D02*
Y4642319D01*
X5400000D01*
X5421160Y4599999D01*
Y4578840D01*
X5400000Y4557680D01*
X5357680D01*
X5336520Y4578840D01*
Y4621159D01*
X5357680Y4642319D01*
X5336520Y4430721D02*
Y4515360D01*
X5421160Y4430721D01*
X5442320D01*
X5463479Y4451881D01*
Y4494201D01*
X5442320Y4515360D01*
X5721180Y1445261D02*
X5700020Y1424101D01*
Y1381781D01*
X5721180Y1360622D01*
X5805819D01*
X5826979Y1381781D01*
Y1424101D01*
X5805819Y1445261D01*
X5700020Y1572220D02*
Y1487580D01*
X5763500D01*
X5742340Y1529900D01*
Y1551060D01*
X5763500Y1572220D01*
X5805819D01*
X5826979Y1551060D01*
Y1508740D01*
X5805819Y1487580D01*
X5826979Y1614539D02*
Y1656859D01*
Y1635699D01*
X5700020D01*
X5721180Y1614539D01*
X965361Y3542320D02*
X944201Y3563479D01*
X901881D01*
X880721Y3542320D01*
Y3457680D01*
X901881Y3436520D01*
X944201D01*
X965361Y3457680D01*
X1092320Y3563479D02*
X1007680D01*
Y3500000D01*
X1050000Y3521160D01*
X1071160D01*
X1092320Y3500000D01*
Y3457680D01*
X1071160Y3436520D01*
X1028840D01*
X1007680Y3457680D01*
X1134639Y3542320D02*
X1155799Y3563479D01*
X1198119D01*
X1219278Y3542320D01*
Y3457680D01*
X1198119Y3436520D01*
X1155799D01*
X1134639Y3457680D01*
Y3542320D01*
X3790361Y1542320D02*
X3769201Y1563479D01*
X3726881D01*
X3705722Y1542320D01*
Y1457680D01*
X3726881Y1436521D01*
X3769201D01*
X3790361Y1457680D01*
X3896160Y1436521D02*
Y1563479D01*
X3832680Y1500000D01*
X3917320D01*
X3959639Y1542320D02*
X3980799Y1563479D01*
X4023119D01*
X4044279Y1542320D01*
Y1521160D01*
X4023119Y1500000D01*
X4044279Y1478840D01*
Y1457680D01*
X4023119Y1436521D01*
X3980799D01*
X3959639Y1457680D01*
Y1478840D01*
X3980799Y1500000D01*
X3959639Y1521160D01*
Y1542320D01*
X3980799Y1500000D02*
X4023119D01*
X3790361Y2192320D02*
X3769201Y2213479D01*
X3726881D01*
X3705722Y2192320D01*
Y2107680D01*
X3726881Y2086521D01*
X3769201D01*
X3790361Y2107680D01*
X3896160Y2086521D02*
Y2213479D01*
X3832680Y2150000D01*
X3917320D01*
X3959639Y2213479D02*
X4044279D01*
Y2192320D01*
X3959639Y2107680D01*
Y2086521D01*
X2815361Y992320D02*
X2794201Y1013479D01*
X2751881D01*
X2730721Y992320D01*
Y907680D01*
X2751881Y886520D01*
X2794201D01*
X2815361Y907680D01*
X2921160Y886520D02*
Y1013479D01*
X2857680Y950000D01*
X2942320D01*
X3069279Y1013479D02*
X3026959Y992320D01*
X2984639Y950000D01*
Y907680D01*
X3005799Y886520D01*
X3048119D01*
X3069279Y907680D01*
Y928840D01*
X3048119Y950000D01*
X2984639D01*
X5057680Y5390361D02*
X5036520Y5369201D01*
Y5326881D01*
X5057680Y5305721D01*
X5142319D01*
X5163479Y5326881D01*
Y5369201D01*
X5142319Y5390361D01*
X5163479Y5496160D02*
X5036520D01*
X5099999Y5432680D01*
Y5517320D01*
X5036520Y5644279D02*
Y5559639D01*
X5099999D01*
X5078839Y5601959D01*
Y5623119D01*
X5099999Y5644279D01*
X5142319D01*
X5163479Y5623119D01*
Y5580799D01*
X5142319Y5559639D01*
X5457680Y5390361D02*
X5436520Y5369201D01*
Y5326881D01*
X5457680Y5305722D01*
X5542319D01*
X5563479Y5326881D01*
Y5369201D01*
X5542319Y5390361D01*
X5563479Y5496160D02*
X5436520D01*
X5500000Y5432681D01*
Y5517320D01*
X5563479Y5623119D02*
X5436520D01*
X5500000Y5559639D01*
Y5644279D01*
X6390361Y6567320D02*
X6369201Y6588479D01*
X6326881D01*
X6305721Y6567320D01*
Y6482680D01*
X6326881Y6461520D01*
X6369201D01*
X6390361Y6482680D01*
X6496160Y6461520D02*
Y6588479D01*
X6432680Y6525000D01*
X6517320D01*
X6559639Y6567320D02*
X6580799Y6588479D01*
X6623119D01*
X6644279Y6567320D01*
Y6546160D01*
X6623119Y6525000D01*
X6601959D01*
X6623119D01*
X6644279Y6503840D01*
Y6482680D01*
X6623119Y6461520D01*
X6580799D01*
X6559639Y6482680D01*
X4485361Y5952320D02*
X4464201Y5973480D01*
X4421881D01*
X4400721Y5952320D01*
Y5867680D01*
X4421881Y5846521D01*
X4464201D01*
X4485361Y5867680D01*
X4591160Y5846521D02*
Y5973480D01*
X4527680Y5910000D01*
X4612320D01*
X4739279Y5846521D02*
X4654639D01*
X4739279Y5931160D01*
Y5952320D01*
X4718119Y5973480D01*
X4675799D01*
X4654639Y5952320D01*
X6361521Y5617320D02*
X6340361Y5638480D01*
X6298041D01*
X6276882Y5617320D01*
Y5532681D01*
X6298041Y5511521D01*
X6340361D01*
X6361521Y5532681D01*
X6467320Y5511521D02*
Y5638480D01*
X6403840Y5575000D01*
X6488480D01*
X6530799Y5511521D02*
X6573119D01*
X6551959D01*
Y5638480D01*
X6530799Y5617320D01*
X5257680Y5390361D02*
X5236520Y5369201D01*
Y5326881D01*
X5257680Y5305721D01*
X5342319D01*
X5363479Y5326881D01*
Y5369201D01*
X5342319Y5390361D01*
X5363479Y5496160D02*
X5236520D01*
X5300000Y5432680D01*
Y5517320D01*
X5257680Y5559639D02*
X5236520Y5580799D01*
Y5623119D01*
X5257680Y5644279D01*
X5342319D01*
X5363479Y5623119D01*
Y5580799D01*
X5342319Y5559639D01*
X5257680D01*
X5682680Y5390361D02*
X5661520Y5369201D01*
Y5326881D01*
X5682680Y5305721D01*
X5767319D01*
X5788479Y5326881D01*
Y5369201D01*
X5767319Y5390361D01*
X5682680Y5432680D02*
X5661520Y5453840D01*
Y5496160D01*
X5682680Y5517320D01*
X5703839D01*
X5724999Y5496160D01*
Y5475000D01*
Y5496160D01*
X5746159Y5517320D01*
X5767319D01*
X5788479Y5496160D01*
Y5453840D01*
X5767319Y5432680D01*
Y5559639D02*
X5788479Y5580799D01*
Y5623119D01*
X5767319Y5644279D01*
X5682680D01*
X5661520Y5623119D01*
Y5580799D01*
X5682680Y5559639D01*
X5703839D01*
X5724999Y5580799D01*
Y5644279D01*
X5682680Y4965361D02*
X5661520Y4944201D01*
Y4901881D01*
X5682680Y4880722D01*
X5767319D01*
X5788479Y4901881D01*
Y4944201D01*
X5767319Y4965361D01*
X5682680Y5007680D02*
X5661520Y5028840D01*
Y5071160D01*
X5682680Y5092320D01*
X5703839D01*
X5724999Y5071160D01*
Y5050000D01*
Y5071160D01*
X5746159Y5092320D01*
X5767319D01*
X5788479Y5071160D01*
Y5028840D01*
X5767319Y5007680D01*
X5682680Y5134639D02*
X5661520Y5155799D01*
Y5198119D01*
X5682680Y5219279D01*
X5703839D01*
X5724999Y5198119D01*
X5746159Y5219279D01*
X5767319D01*
X5788479Y5198119D01*
Y5155799D01*
X5767319Y5134639D01*
X5746159D01*
X5724999Y5155799D01*
X5703839Y5134639D01*
X5682680D01*
X5724999Y5155799D02*
Y5198119D01*
X5482680Y4965361D02*
X5461520Y4944201D01*
Y4901881D01*
X5482680Y4880722D01*
X5567320D01*
X5588479Y4901881D01*
Y4944201D01*
X5567320Y4965361D01*
X5482680Y5007681D02*
X5461520Y5028840D01*
Y5071160D01*
X5482680Y5092320D01*
X5503840D01*
X5525000Y5071160D01*
Y5050000D01*
Y5071160D01*
X5546160Y5092320D01*
X5567320D01*
X5588479Y5071160D01*
Y5028840D01*
X5567320Y5007681D01*
X5461520Y5134639D02*
Y5219279D01*
X5482680D01*
X5567320Y5134639D01*
X5588479D01*
X4082680Y6990361D02*
X4061520Y6969201D01*
Y6926881D01*
X4082680Y6905722D01*
X4167319D01*
X4188479Y6926881D01*
Y6969201D01*
X4167319Y6990361D01*
X4082680Y7032680D02*
X4061520Y7053840D01*
Y7096160D01*
X4082680Y7117320D01*
X4103840D01*
X4125000Y7096160D01*
Y7075000D01*
Y7096160D01*
X4146159Y7117320D01*
X4167319D01*
X4188479Y7096160D01*
Y7053840D01*
X4167319Y7032680D01*
X4061520Y7244279D02*
X4082680Y7201959D01*
X4125000Y7159639D01*
X4167319D01*
X4188479Y7180799D01*
Y7223119D01*
X4167319Y7244279D01*
X4146159D01*
X4125000Y7223119D01*
Y7159639D01*
X4357680Y6615361D02*
X4336520Y6594201D01*
Y6551881D01*
X4357680Y6530722D01*
X4442320D01*
X4463479Y6551881D01*
Y6594201D01*
X4442320Y6615361D01*
X4357680Y6657680D02*
X4336520Y6678840D01*
Y6721160D01*
X4357680Y6742320D01*
X4378840D01*
X4400000Y6721160D01*
Y6700000D01*
Y6721160D01*
X4421160Y6742320D01*
X4442320D01*
X4463479Y6721160D01*
Y6678840D01*
X4442320Y6657680D01*
X4336520Y6869279D02*
Y6784639D01*
X4400000D01*
X4378840Y6826959D01*
Y6848119D01*
X4400000Y6869279D01*
X4442320D01*
X4463479Y6848119D01*
Y6805799D01*
X4442320Y6784639D01*
X5057680Y4965361D02*
X5036520Y4944201D01*
Y4901881D01*
X5057680Y4880722D01*
X5142319D01*
X5163479Y4901881D01*
Y4944201D01*
X5142319Y4965361D01*
X5057680Y5007680D02*
X5036520Y5028840D01*
Y5071160D01*
X5057680Y5092320D01*
X5078839D01*
X5099999Y5071160D01*
Y5050000D01*
Y5071160D01*
X5121159Y5092320D01*
X5142319D01*
X5163479Y5071160D01*
Y5028840D01*
X5142319Y5007680D01*
X5057680Y5134639D02*
X5036520Y5155799D01*
Y5198119D01*
X5057680Y5219279D01*
X5078839D01*
X5099999Y5198119D01*
Y5176959D01*
Y5198119D01*
X5121159Y5219279D01*
X5142319D01*
X5163479Y5198119D01*
Y5155799D01*
X5142319Y5134639D01*
X5257680Y4965361D02*
X5236520Y4944201D01*
Y4901881D01*
X5257680Y4880722D01*
X5342319D01*
X5363479Y4901881D01*
Y4944201D01*
X5342319Y4965361D01*
X5257680Y5007680D02*
X5236520Y5028840D01*
Y5071160D01*
X5257680Y5092320D01*
X5278840D01*
X5300000Y5071160D01*
Y5050000D01*
Y5071160D01*
X5321159Y5092320D01*
X5342319D01*
X5363479Y5071160D01*
Y5028840D01*
X5342319Y5007680D01*
X5363479Y5219279D02*
Y5134639D01*
X5278840Y5219279D01*
X5257680D01*
X5236520Y5198119D01*
Y5155799D01*
X5257680Y5134639D01*
X3882680Y6990361D02*
X3861520Y6969201D01*
Y6926881D01*
X3882680Y6905722D01*
X3967319D01*
X3988479Y6926881D01*
Y6969201D01*
X3967319Y6990361D01*
X3988479Y7117320D02*
Y7032680D01*
X3903840Y7117320D01*
X3882680D01*
X3861520Y7096160D01*
Y7053840D01*
X3882680Y7032680D01*
Y7159639D02*
X3861520Y7180799D01*
Y7223119D01*
X3882680Y7244279D01*
X3903840D01*
X3925000Y7223119D01*
X3946159Y7244279D01*
X3967319D01*
X3988479Y7223119D01*
Y7180799D01*
X3967319Y7159639D01*
X3946159D01*
X3925000Y7180799D01*
X3903840Y7159639D01*
X3882680D01*
X3925000Y7180799D02*
Y7223119D01*
X3682680Y6990361D02*
X3661520Y6969201D01*
Y6926881D01*
X3682680Y6905722D01*
X3767319D01*
X3788479Y6926881D01*
Y6969201D01*
X3767319Y6990361D01*
X3788479Y7117320D02*
Y7032680D01*
X3703839Y7117320D01*
X3682680D01*
X3661520Y7096160D01*
Y7053840D01*
X3682680Y7032680D01*
X3661520Y7159639D02*
Y7244279D01*
X3682680D01*
X3767319Y7159639D01*
X3788479D01*
X3488720Y6991701D02*
X3467560Y6970541D01*
Y6928221D01*
X3488720Y6907062D01*
X3573359D01*
X3594519Y6928221D01*
Y6970541D01*
X3573359Y6991701D01*
X3594519Y7118660D02*
Y7034020D01*
X3509879Y7118660D01*
X3488720D01*
X3467560Y7097500D01*
Y7055180D01*
X3488720Y7034020D01*
X3467560Y7245619D02*
X3488720Y7203299D01*
X3531039Y7160979D01*
X3573359D01*
X3594519Y7182139D01*
Y7224459D01*
X3573359Y7245619D01*
X3552199D01*
X3531039Y7224459D01*
Y7160979D01*
X3282679Y6990361D02*
X3261520Y6969201D01*
Y6926881D01*
X3282679Y6905721D01*
X3367319D01*
X3388479Y6926881D01*
Y6969201D01*
X3367319Y6990361D01*
X3388479Y7117320D02*
Y7032680D01*
X3303839Y7117320D01*
X3282679D01*
X3261520Y7096160D01*
Y7053840D01*
X3282679Y7032680D01*
X3261520Y7244278D02*
Y7159639D01*
X3324999D01*
X3303839Y7201959D01*
Y7223118D01*
X3324999Y7244278D01*
X3367319D01*
X3388479Y7223118D01*
Y7180799D01*
X3367319Y7159639D01*
X3082679Y6990361D02*
X3061520Y6969201D01*
Y6926881D01*
X3082679Y6905721D01*
X3167319D01*
X3188479Y6926881D01*
Y6969201D01*
X3167319Y6990361D01*
X3188479Y7117320D02*
Y7032680D01*
X3103839Y7117320D01*
X3082679D01*
X3061520Y7096160D01*
Y7053840D01*
X3082679Y7032680D01*
X3188479Y7223118D02*
X3061520D01*
X3124999Y7159639D01*
Y7244278D01*
X4407680Y2965361D02*
X4386520Y2944201D01*
Y2901881D01*
X4407680Y2880722D01*
X4492319D01*
X4513479Y2901881D01*
Y2944201D01*
X4492319Y2965361D01*
X4513479Y3092320D02*
Y3007681D01*
X4428840Y3092320D01*
X4407680D01*
X4386520Y3071160D01*
Y3028840D01*
X4407680Y3007681D01*
Y3134639D02*
X4386520Y3155799D01*
Y3198119D01*
X4407680Y3219279D01*
X4428840D01*
X4450000Y3198119D01*
Y3176959D01*
Y3198119D01*
X4471159Y3219279D01*
X4492319D01*
X4513479Y3198119D01*
Y3155799D01*
X4492319Y3134639D01*
X3657680Y3011521D02*
X3636520Y2990361D01*
Y2948041D01*
X3657680Y2926881D01*
X3742319D01*
X3763479Y2948041D01*
Y2990361D01*
X3742319Y3011521D01*
X3763479Y3138479D02*
Y3053840D01*
X3678840Y3138479D01*
X3657680D01*
X3636520Y3117319D01*
Y3075000D01*
X3657680Y3053840D01*
X3763479Y3180799D02*
Y3223119D01*
Y3201959D01*
X3636520D01*
X3657680Y3180799D01*
X2882680Y6990361D02*
X2861520Y6969201D01*
Y6926881D01*
X2882680Y6905722D01*
X2967319D01*
X2988479Y6926881D01*
Y6969201D01*
X2967319Y6990361D01*
X2988479Y7117320D02*
Y7032680D01*
X2903840Y7117320D01*
X2882680D01*
X2861520Y7096160D01*
Y7053840D01*
X2882680Y7032680D01*
Y7159639D02*
X2861520Y7180799D01*
Y7223119D01*
X2882680Y7244279D01*
X2967319D01*
X2988479Y7223119D01*
Y7180799D01*
X2967319Y7159639D01*
X2882680D01*
X2682680Y7000941D02*
X2661520Y6979781D01*
Y6937461D01*
X2682680Y6916301D01*
X2767319D01*
X2788479Y6937461D01*
Y6979781D01*
X2767319Y7000941D01*
X2788479Y7043260D02*
Y7085580D01*
Y7064420D01*
X2661520D01*
X2682680Y7043260D01*
X2767319Y7149059D02*
X2788479Y7170219D01*
Y7212539D01*
X2767319Y7233699D01*
X2682680D01*
X2661520Y7212539D01*
Y7170219D01*
X2682680Y7149059D01*
X2703840D01*
X2725000Y7170219D01*
Y7233699D01*
X2732680Y3000941D02*
X2711520Y2979781D01*
Y2937461D01*
X2732680Y2916302D01*
X2817319D01*
X2838479Y2937461D01*
Y2979781D01*
X2817319Y3000941D01*
X2838479Y3043260D02*
Y3085580D01*
Y3064420D01*
X2711520D01*
X2732680Y3043260D01*
Y3149059D02*
X2711520Y3170219D01*
Y3212539D01*
X2732680Y3233699D01*
X2753840D01*
X2775000Y3212539D01*
X2796160Y3233699D01*
X2817319D01*
X2838479Y3212539D01*
Y3170219D01*
X2817319Y3149059D01*
X2796160D01*
X2775000Y3170219D01*
X2753840Y3149059D01*
X2732680D01*
X2775000Y3170219D02*
Y3212539D01*
X2607680Y4900941D02*
X2586521Y4879781D01*
Y4837461D01*
X2607680Y4816301D01*
X2692320D01*
X2713479Y4837461D01*
Y4879781D01*
X2692320Y4900941D01*
X2713479Y4943260D02*
Y4985580D01*
Y4964420D01*
X2586521D01*
X2607680Y4943260D01*
X2586521Y5049059D02*
Y5133699D01*
X2607680D01*
X2692320Y5049059D01*
X2713479D01*
X2432680Y4900940D02*
X2411520Y4879780D01*
Y4837461D01*
X2432680Y4816301D01*
X2517319D01*
X2538479Y4837461D01*
Y4879780D01*
X2517319Y4900940D01*
X2538479Y4943260D02*
Y4985580D01*
Y4964420D01*
X2411520D01*
X2432680Y4943260D01*
X2411520Y5133698D02*
X2432680Y5091379D01*
X2475000Y5049059D01*
X2517319D01*
X2538479Y5070219D01*
Y5112538D01*
X2517319Y5133698D01*
X2496159D01*
X2475000Y5112538D01*
Y5049059D01*
X2425941Y7367320D02*
X2404781Y7388480D01*
X2362461D01*
X2341301Y7367320D01*
Y7282680D01*
X2362461Y7261521D01*
X2404781D01*
X2425941Y7282680D01*
X2468260Y7261521D02*
X2510580D01*
X2489420D01*
Y7388480D01*
X2468260Y7367320D01*
X2637539Y7261521D02*
Y7388480D01*
X2574059Y7325000D01*
X2658699D01*
X2057680Y2975941D02*
X2036521Y2954781D01*
Y2912461D01*
X2057680Y2891301D01*
X2142320D01*
X2163480Y2912461D01*
Y2954781D01*
X2142320Y2975941D01*
X2163480Y3018260D02*
Y3060580D01*
Y3039420D01*
X2036521D01*
X2057680Y3018260D01*
Y3124059D02*
X2036521Y3145219D01*
Y3187539D01*
X2057680Y3208699D01*
X2078840D01*
X2100000Y3187539D01*
Y3166379D01*
Y3187539D01*
X2121160Y3208699D01*
X2142320D01*
X2163480Y3187539D01*
Y3145219D01*
X2142320Y3124059D01*
X2447101Y6742320D02*
X2425941Y6763479D01*
X2383621D01*
X2362461Y6742320D01*
Y6657680D01*
X2383621Y6636521D01*
X2425941D01*
X2447101Y6657680D01*
X2489420Y6636521D02*
X2531740D01*
X2510580D01*
Y6763479D01*
X2489420Y6742320D01*
X2595219Y6636521D02*
X2637539D01*
X2616379D01*
Y6763479D01*
X2595219Y6742320D01*
X2200941Y6342320D02*
X2179781Y6363480D01*
X2137461D01*
X2116301Y6342320D01*
Y6257680D01*
X2137461Y6236521D01*
X2179781D01*
X2200941Y6257680D01*
X2243260Y6236521D02*
X2285580D01*
X2264420D01*
Y6363480D01*
X2243260Y6342320D01*
X2349059D02*
X2370219Y6363480D01*
X2412539D01*
X2433699Y6342320D01*
Y6257680D01*
X2412539Y6236521D01*
X2370219D01*
X2349059Y6257680D01*
Y6342320D01*
X7078841Y4617320D02*
X7057681Y4638479D01*
X7015361D01*
X6994201Y4617320D01*
Y4532680D01*
X7015361Y4511521D01*
X7057681D01*
X7078841Y4532680D01*
X7121160D02*
X7142320Y4511521D01*
X7184640D01*
X7205800Y4532680D01*
Y4617320D01*
X7184640Y4638479D01*
X7142320D01*
X7121160Y4617320D01*
Y4596160D01*
X7142320Y4575000D01*
X7205800D01*
X2253840Y6542320D02*
X2232680Y6563479D01*
X2190361D01*
X2169201Y6542320D01*
Y6457680D01*
X2190361Y6436521D01*
X2232680D01*
X2253840Y6457680D01*
X2296160Y6542320D02*
X2317319Y6563479D01*
X2359639D01*
X2380799Y6542320D01*
Y6521160D01*
X2359639Y6500000D01*
X2380799Y6478840D01*
Y6457680D01*
X2359639Y6436521D01*
X2317319D01*
X2296160Y6457680D01*
Y6478840D01*
X2317319Y6500000D01*
X2296160Y6521160D01*
Y6542320D01*
X2317319Y6500000D02*
X2359639D01*
X2203840Y4892320D02*
X2182680Y4913479D01*
X2140361D01*
X2119201Y4892320D01*
Y4807680D01*
X2140361Y4786521D01*
X2182680D01*
X2203840Y4807680D01*
X2246160Y4913479D02*
X2330799D01*
Y4892320D01*
X2246160Y4807680D01*
Y4786521D01*
X1253840Y7267320D02*
X1232680Y7288479D01*
X1190361D01*
X1169201Y7267320D01*
Y7182680D01*
X1190361Y7161521D01*
X1232680D01*
X1253840Y7182680D01*
X1380799Y7288479D02*
X1338479Y7267320D01*
X1296160Y7225000D01*
Y7182680D01*
X1317319Y7161521D01*
X1359639D01*
X1380799Y7182680D01*
Y7203840D01*
X1359639Y7225000D01*
X1296160D01*
X957680Y5103840D02*
X936520Y5082680D01*
Y5040361D01*
X957680Y5019201D01*
X1042319D01*
X1063479Y5040361D01*
Y5082680D01*
X1042319Y5103840D01*
X936520Y5230799D02*
Y5146160D01*
X1000000D01*
X978840Y5188480D01*
Y5209639D01*
X1000000Y5230799D01*
X1042319D01*
X1063479Y5209639D01*
Y5167320D01*
X1042319Y5146160D01*
X1207680Y6678840D02*
X1186520Y6657680D01*
Y6615361D01*
X1207680Y6594201D01*
X1292319D01*
X1313479Y6615361D01*
Y6657680D01*
X1292319Y6678840D01*
X1313479Y6784639D02*
X1186520D01*
X1250000Y6721160D01*
Y6805799D01*
X507680Y6753840D02*
X486520Y6732680D01*
Y6690360D01*
X507680Y6669201D01*
X592319D01*
X613479Y6690360D01*
Y6732680D01*
X592319Y6753840D01*
X507680Y6796159D02*
X486520Y6817319D01*
Y6859639D01*
X507680Y6880799D01*
X528840D01*
X550000Y6859639D01*
Y6838479D01*
Y6859639D01*
X571159Y6880799D01*
X592319D01*
X613479Y6859639D01*
Y6817319D01*
X592319Y6796159D01*
X528840Y5117320D02*
X507680Y5138479D01*
X465361D01*
X444201Y5117320D01*
Y5032680D01*
X465361Y5011521D01*
X507680D01*
X528840Y5032680D01*
X655799Y5011521D02*
X571160D01*
X655799Y5096160D01*
Y5117320D01*
X634639Y5138479D01*
X592319D01*
X571160Y5117320D01*
X525000Y5692320D02*
X503840Y5713479D01*
X461521D01*
X440361Y5692320D01*
Y5607680D01*
X461521Y5586520D01*
X503840D01*
X525000Y5607680D01*
X567320Y5586520D02*
X609639D01*
X588479D01*
Y5713479D01*
X567320Y5692320D01*
X3319200Y6463479D02*
Y6357680D01*
X3340360Y6336520D01*
X3382680D01*
X3403840Y6357680D01*
Y6463479D01*
X3446159Y6357680D02*
X3467319Y6336520D01*
X3509639D01*
X3530799Y6357680D01*
Y6442320D01*
X3509639Y6463479D01*
X3467319D01*
X3446159Y6442320D01*
Y6421160D01*
X3467319Y6400000D01*
X3530799D01*
%TF.MD5,7cd0f0e9d8f1dea44745de927656d17d*%
M02*
