%TF.GenerationSoftware,Altium Limited,Altium Designer,26.9.1 (10)*%
G04 Layer_Color=8388736*
G04 Board_Origin=13779528|11122048*
%FSLAX45Y45*%
%MOMM*%
%TF.SameCoordinates,C0C7667C-18A9-4E34-ADBB-357C6C009FE5*%
%TF.FilePolarity,Negative*%
%TF.FileFunction,Soldermask,Top*%
%TF.Part,Single*%
G01*
G75*
%TA.AperFunction,SMDPad,CuDef*%
%ADD14R,1.06680X1.01600*%
%ADD16R,1.70180X0.43180*%
%ADD17R,1.65100X2.84480*%
%ADD28R,1.60000X1.00000*%
%ADD29R,0.30000X0.45000*%
%ADD30R,0.76200X1.39700*%
%ADD31R,1.30000X1.50000*%
%ADD34R,2.64160X2.41300*%
%TA.AperFunction,ConnectorPad*%
%ADD37R,4.80060X1.34620*%
%ADD38R,1.34620X4.80060*%
%TA.AperFunction,SMDPad,CuDef*%
%ADD41R,0.59920X0.95480*%
%TA.AperFunction,ConnectorPad*%
%ADD47R,1.27000X4.19100*%
%ADD49R,4.19100X1.27000*%
%TA.AperFunction,NonConductor*%
%ADD73R,11.50000X1.00000*%
%ADD74R,1.00000X28.25000*%
%ADD75R,3.50000X1.00000*%
%ADD76R,5.00000X1.00000*%
%ADD77R,10.25000X1.00000*%
%ADD78R,13.50000X1.00000*%
%ADD79R,4.00000X1.00000*%
%ADD80R,1.00000X27.75000*%
%ADD81R,4.00000X1.00000*%
%ADD82R,6.25000X1.00000*%
%ADD83R,3.25000X1.00000*%
%ADD84R,1.00000X20.50000*%
%ADD85R,8.25000X1.00000*%
%ADD86R,1.00000X26.50000*%
%ADD87R,1.00000X5.00000*%
%TA.AperFunction,SMDPad,CuDef*%
%ADD88R,1.22000X1.24000*%
%ADD89R,0.98000X1.18000*%
%ADD90R,1.09000X1.31000*%
%ADD91R,1.31000X1.09000*%
%ADD92R,0.71000X0.93000*%
%ADD93R,0.50000X1.05000*%
%ADD94R,1.70000X1.50000*%
%ADD95R,3.60000X2.60000*%
%ADD96R,1.18000X0.98000*%
G04:AMPARAMS|DCode=97|XSize=0.8024mm|YSize=0.3524mm|CornerRadius=0.1262mm|HoleSize=0mm|Usage=FLASHONLY|Rotation=180.000|XOffset=0mm|YOffset=0mm|HoleType=Round|Shape=RoundedRectangle|*
%AMROUNDEDRECTD97*
21,1,0.80240,0.10000,0,0,180.0*
21,1,0.55000,0.35240,0,0,180.0*
1,1,0.25240,-0.27500,0.05000*
1,1,0.25240,0.27500,0.05000*
1,1,0.25240,0.27500,-0.05000*
1,1,0.25240,-0.27500,-0.05000*
%
%ADD97ROUNDEDRECTD97*%
G04:AMPARAMS|DCode=98|XSize=0.4024mm|YSize=0.7024mm|CornerRadius=0.1262mm|HoleSize=0mm|Usage=FLASHONLY|Rotation=180.000|XOffset=0mm|YOffset=0mm|HoleType=Round|Shape=RoundedRectangle|*
%AMROUNDEDRECTD98*
21,1,0.40240,0.45000,0,0,180.0*
21,1,0.15000,0.70240,0,0,180.0*
1,1,0.25240,-0.07500,0.22500*
1,1,0.25240,0.07500,0.22500*
1,1,0.25240,0.07500,-0.22500*
1,1,0.25240,-0.07500,-0.22500*
%
%ADD98ROUNDEDRECTD98*%
G04:AMPARAMS|DCode=99|XSize=1.1524mm|YSize=0.3524mm|CornerRadius=0.1262mm|HoleSize=0mm|Usage=FLASHONLY|Rotation=180.000|XOffset=0mm|YOffset=0mm|HoleType=Round|Shape=RoundedRectangle|*
%AMROUNDEDRECTD99*
21,1,1.15240,0.10000,0,0,180.0*
21,1,0.90000,0.35240,0,0,180.0*
1,1,0.25240,-0.45000,0.05000*
1,1,0.25240,0.45000,0.05000*
1,1,0.25240,0.45000,-0.05000*
1,1,0.25240,-0.45000,-0.05000*
%
%ADD99ROUNDEDRECTD99*%
%ADD100R,1.50000X1.70000*%
%ADD101R,1.24000X1.22000*%
%ADD102R,1.70000X1.55000*%
%ADD103R,5.45000X5.45000*%
%ADD104R,1.05000X0.50000*%
%ADD105R,1.00000X1.60000*%
%ADD106R,1.16520X0.91120*%
%ADD107R,0.37780X0.91120*%
%ADD108R,0.91120X0.37780*%
%ADD109R,1.64780X1.64780*%
%ADD110R,1.55000X1.70000*%
%ADD111R,1.20000X2.20000*%
%TA.AperFunction,ComponentPad*%
%ADD112C,4.20000*%
%ADD113C,1.40000*%
%ADD114R,1.40000X1.40000*%
%ADD115C,2.15000*%
%TA.AperFunction,ViaPad*%
%ADD116C,0.80000*%
D14*
X6984830Y1825000D02*
D03*
X7165170D02*
D03*
D16*
X5671020Y4187500D02*
D03*
Y4122500D02*
D03*
Y4057500D02*
D03*
Y3992500D02*
D03*
Y3927500D02*
D03*
Y3862500D02*
D03*
X6118060Y3862500D02*
D03*
Y3927500D02*
D03*
Y3992500D02*
D03*
Y4057500D02*
D03*
Y4122500D02*
D03*
Y4187500D02*
D03*
D17*
X5894540Y4025000D02*
D03*
D28*
X800000Y4187500D02*
D03*
X1380000Y5223000D02*
D03*
Y5477000D02*
D03*
X1820000D02*
D03*
Y5223000D02*
D03*
X1380000Y5350000D02*
D03*
X1820000D02*
D03*
D29*
X800000Y4090000D02*
D03*
X735000Y4285000D02*
D03*
X800000D02*
D03*
X865000Y4090000D02*
D03*
X735000D02*
D03*
X865000Y4285000D02*
D03*
D30*
X4099999Y2796450D02*
D03*
X2400000D02*
D03*
X3972999Y2453550D02*
D03*
X2273000D02*
D03*
X2527000Y2796450D02*
D03*
X2273000D02*
D03*
X2527000Y2453550D02*
D03*
X4226999Y2796450D02*
D03*
X3972999D02*
D03*
X4226999Y2453550D02*
D03*
D31*
X5695000Y7575000D02*
D03*
X5905000D02*
D03*
X1830000Y4200000D02*
D03*
X4520000D02*
D03*
X4730000D02*
D03*
X1620000D02*
D03*
D34*
X6756400Y4575000D02*
D03*
X6350000D02*
D03*
D37*
X7700495Y6032500D02*
D03*
Y5467500D02*
D03*
D38*
X4507500Y295004D02*
D03*
X3942500D02*
D03*
X2807500D02*
D03*
X2242500D02*
D03*
X6792500Y7700495D02*
D03*
X7357500D02*
D03*
X2292500Y7704995D02*
D03*
X2857499D02*
D03*
X717500Y7704996D02*
D03*
X1282500D02*
D03*
D41*
X6825000Y5259520D02*
D03*
X6660000Y5425000D02*
D03*
X6825000D02*
D03*
X6660000Y5259520D02*
D03*
D47*
X2525000Y275000D02*
D03*
X4225000D02*
D03*
X1000000Y7725000D02*
D03*
X2575000Y7725000D02*
D03*
X7075000Y7720500D02*
D03*
D49*
X7720500Y5750000D02*
D03*
D73*
X1450000Y4850000D02*
D03*
D74*
X4825000Y1962500D02*
D03*
D75*
X4700000Y600000D02*
D03*
D76*
X4625000Y3325000D02*
D03*
D77*
X3387500Y600000D02*
D03*
D78*
X3250000Y3325000D02*
D03*
D79*
X2025000D02*
D03*
D80*
X1825000Y1937500D02*
D03*
D81*
X1975000Y600000D02*
D03*
D82*
X537500Y7400000D02*
D03*
D83*
X437500Y4850000D02*
D03*
D84*
X1975000Y6425000D02*
D03*
D85*
X1612500Y7400000D02*
D03*
D86*
X275000Y6125000D02*
D03*
D87*
X1975000Y5050000D02*
D03*
D88*
X5695000Y6851500D02*
D03*
Y6998500D02*
D03*
X6411500Y442760D02*
D03*
Y589760D02*
D03*
X6211500D02*
D03*
Y442760D02*
D03*
X5811500Y589760D02*
D03*
Y442760D02*
D03*
X5970001Y2398500D02*
D03*
Y2251500D02*
D03*
X6370000D02*
D03*
X6550000Y3801500D02*
D03*
X6775000Y7148500D02*
D03*
Y7001500D02*
D03*
X6550000Y3948500D02*
D03*
X6570001Y2251500D02*
D03*
Y2398500D02*
D03*
X6370000D02*
D03*
X6826500Y5748500D02*
D03*
Y5601500D02*
D03*
D89*
X6195000Y6525000D02*
D03*
X6055000D02*
D03*
X4365000Y900000D02*
D03*
X530000Y3825000D02*
D03*
X4365000Y1500000D02*
D03*
Y2150000D02*
D03*
X2385000Y900000D02*
D03*
X2435000Y7150000D02*
D03*
X2430000Y6900000D02*
D03*
X2530000Y6125000D02*
D03*
Y6275000D02*
D03*
X2155000Y5000000D02*
D03*
X860000Y7225000D02*
D03*
X455000Y5225000D02*
D03*
X2385000Y2150000D02*
D03*
Y1500000D02*
D03*
X2525000D02*
D03*
Y2150000D02*
D03*
Y900000D02*
D03*
X4225000Y2150000D02*
D03*
X4505000Y5750000D02*
D03*
X4645000D02*
D03*
X2295000Y5000000D02*
D03*
X2570000Y6900000D02*
D03*
X2575000Y7150000D02*
D03*
X4225000Y900000D02*
D03*
X2670000Y6275000D02*
D03*
Y6125000D02*
D03*
X4225000Y1500000D02*
D03*
X1000000Y7225000D02*
D03*
X6330000Y5750000D02*
D03*
X6470000D02*
D03*
X595000Y5225000D02*
D03*
X670000Y3825000D02*
D03*
D90*
X7156400Y6275000D02*
D03*
X6993600D02*
D03*
D91*
X6525000Y7156400D02*
D03*
Y6993600D02*
D03*
X1000000Y7081400D02*
D03*
Y6918600D02*
D03*
D92*
X6317000Y6750000D02*
D03*
X6225000D02*
D03*
X6546000Y6275000D02*
D03*
X6454000D02*
D03*
D93*
X3675000Y5382000D02*
D03*
X3174999Y6172000D02*
D03*
X3374999D02*
D03*
X3624999D02*
D03*
X3474999Y5382000D02*
D03*
X3424999D02*
D03*
X3374999D02*
D03*
X3775000Y6172000D02*
D03*
X3724999D02*
D03*
X3124999D02*
D03*
X3224999D02*
D03*
X3275000D02*
D03*
X3324999D02*
D03*
X3424999D02*
D03*
X3474999D02*
D03*
X3525000D02*
D03*
X3574999D02*
D03*
X3675000D02*
D03*
X3775000Y5382000D02*
D03*
X3724999D02*
D03*
X3624999D02*
D03*
X3574999D02*
D03*
X3525000D02*
D03*
X3324999D02*
D03*
X3275000D02*
D03*
X3224999D02*
D03*
X3174999D02*
D03*
X3124999D02*
D03*
D94*
X6950000Y3945000D02*
D03*
Y3755000D02*
D03*
X5750000Y1005000D02*
D03*
Y1195000D02*
D03*
X5144540Y4320000D02*
D03*
X5950000Y3015000D02*
D03*
X5394540Y4320000D02*
D03*
X2525000Y1105000D02*
D03*
Y1295000D02*
D03*
Y1705000D02*
D03*
Y1895000D02*
D03*
X4225000Y1105000D02*
D03*
Y1295000D02*
D03*
Y1705000D02*
D03*
Y1895000D02*
D03*
X5394540Y4130000D02*
D03*
X5950000Y2825000D02*
D03*
X5144540Y4130000D02*
D03*
D95*
X6661500Y901260D02*
D03*
Y1481260D02*
D03*
X7020000Y3040000D02*
D03*
Y2460000D02*
D03*
D96*
X6011500Y586260D02*
D03*
Y446260D02*
D03*
X6170001Y2255000D02*
D03*
X4375000Y5470000D02*
D03*
X4725000D02*
D03*
X4550000D02*
D03*
X4900000D02*
D03*
X4900000Y4985000D02*
D03*
X4725000D02*
D03*
X4025000Y6770000D02*
D03*
X4175000D02*
D03*
X4375000Y4985000D02*
D03*
X4550000D02*
D03*
X3875000Y6775000D02*
D03*
X3725000D02*
D03*
X3575000D02*
D03*
X3425000Y6770000D02*
D03*
X3275000D02*
D03*
X3125000D02*
D03*
X2975000D02*
D03*
X2975000Y4980000D02*
D03*
X2800000D02*
D03*
X6170001Y2395000D02*
D03*
X2325000Y3130000D02*
D03*
Y3270000D02*
D03*
X2475000D02*
D03*
Y3130000D02*
D03*
X4900000Y5125000D02*
D03*
X2800000Y5120000D02*
D03*
X3125000Y6630000D02*
D03*
X3275000D02*
D03*
X3575000Y6635000D02*
D03*
X3875000D02*
D03*
X4025000Y6630000D02*
D03*
X4550000Y5330000D02*
D03*
X4725000D02*
D03*
X1000000Y5350000D02*
D03*
Y5490000D02*
D03*
X555220Y6510000D02*
D03*
Y6370000D02*
D03*
X4375000Y5125000D02*
D03*
X4550000D02*
D03*
X4725000D02*
D03*
X4175000Y3130000D02*
D03*
Y3270000D02*
D03*
X4375000Y5330000D02*
D03*
X2975000Y5120000D02*
D03*
X2975000Y6630000D02*
D03*
X3425000D02*
D03*
X3725000Y6635000D02*
D03*
X4175000Y6630000D02*
D03*
X4900000Y5330000D02*
D03*
X4025000Y3130000D02*
D03*
Y3270000D02*
D03*
X1000000Y6630000D02*
D03*
Y6770000D02*
D03*
D97*
X6125000Y964000D02*
D03*
Y1014000D02*
D03*
X6000000D02*
D03*
X6125000Y1064000D02*
D03*
X6307500Y2875000D02*
D03*
X6182500Y2825000D02*
D03*
X6307500D02*
D03*
Y2775000D02*
D03*
D98*
X6012500Y896500D02*
D03*
X6062500D02*
D03*
X6112500D02*
D03*
X6295000Y2707500D02*
D03*
X6245000D02*
D03*
X6195000D02*
D03*
D99*
X6017500Y964000D02*
D03*
Y1064000D02*
D03*
X6200000Y2875000D02*
D03*
Y2775000D02*
D03*
D100*
X6670000Y4250000D02*
D03*
X1145000Y3825000D02*
D03*
X430000Y5450000D02*
D03*
X555000Y4500000D02*
D03*
X745000D02*
D03*
X620000Y5450000D02*
D03*
X955000Y3825000D02*
D03*
X6480000Y4250000D02*
D03*
D101*
X4372000Y725000D02*
D03*
X2378000D02*
D03*
X3998500Y5000000D02*
D03*
X2525000Y725000D02*
D03*
X4225000D02*
D03*
X3851500Y5000000D02*
D03*
X698720Y6090000D02*
D03*
X551720D02*
D03*
X1173500Y4500000D02*
D03*
X1026500D02*
D03*
X7148500Y6075000D02*
D03*
X7001500D02*
D03*
X4576500Y4650000D02*
D03*
X4723500D02*
D03*
D102*
X5950000Y5555000D02*
D03*
X6225000Y6980000D02*
D03*
Y7170000D02*
D03*
X5950000Y5745000D02*
D03*
D103*
X3449999Y5777000D02*
D03*
D104*
X3054999Y5452000D02*
D03*
Y5552000D02*
D03*
Y5652000D02*
D03*
Y5752000D02*
D03*
Y5852000D02*
D03*
Y5902000D02*
D03*
Y5952000D02*
D03*
Y6002000D02*
D03*
Y6052000D02*
D03*
X3844999Y5902000D02*
D03*
Y5852000D02*
D03*
Y5802000D02*
D03*
Y5752000D02*
D03*
Y5702000D02*
D03*
Y5652000D02*
D03*
Y5602000D02*
D03*
Y6102000D02*
D03*
Y6052000D02*
D03*
X3054999Y5502000D02*
D03*
Y5602000D02*
D03*
Y5702000D02*
D03*
Y5802000D02*
D03*
Y6102000D02*
D03*
X3844999Y6002000D02*
D03*
Y5952000D02*
D03*
Y5552000D02*
D03*
Y5502000D02*
D03*
Y5452000D02*
D03*
D105*
X1725000Y5670000D02*
D03*
Y5030000D02*
D03*
X1475000D02*
D03*
Y5670000D02*
D03*
D106*
X2122340Y5856000D02*
D03*
Y5602000D02*
D03*
X2777660Y5856000D02*
D03*
Y5602000D02*
D03*
Y5348000D02*
D03*
X2122340D02*
D03*
D107*
X1105220Y6444780D02*
D03*
X1055220D02*
D03*
Y6155220D02*
D03*
X1105220D02*
D03*
X1005220Y6444780D02*
D03*
Y6155220D02*
D03*
D108*
X910440Y6350000D02*
D03*
Y6300000D02*
D03*
Y6250000D02*
D03*
X1200000D02*
D03*
Y6300000D02*
D03*
Y6350000D02*
D03*
D109*
X1055220Y6300000D02*
D03*
D110*
X5225000Y6800000D02*
D03*
X5415000D02*
D03*
X6405000Y6050000D02*
D03*
X6595000D02*
D03*
D111*
X770000Y5775000D02*
D03*
X1000000D02*
D03*
D112*
X1825000Y3325000D02*
D03*
X4825000Y600000D02*
D03*
X275000Y4850000D02*
D03*
X1975000Y7400000D02*
D03*
X1825000Y600000D02*
D03*
X4825000Y3325000D02*
D03*
X7725000Y275000D02*
D03*
X275000D02*
D03*
Y7725000D02*
D03*
X7725000D02*
D03*
D113*
X4217000Y7556000D02*
D03*
Y7810000D02*
D03*
X3963000Y7556000D02*
D03*
X4471000Y7810000D02*
D03*
X4725000D02*
D03*
X4979000D02*
D03*
X5233000D02*
D03*
X4471000Y7556000D02*
D03*
X4725000D02*
D03*
X4979000D02*
D03*
X5233000D02*
D03*
D114*
X3963000Y7810000D02*
D03*
D115*
X7600000Y1254000D02*
D03*
Y1000000D02*
D03*
Y1508000D02*
D03*
Y1762000D02*
D03*
D116*
X1995000Y3325000D02*
D03*
X1825000Y3155000D02*
D03*
X1655000Y3325000D02*
D03*
X1705000Y3445000D02*
D03*
X1945000D02*
D03*
X1825000Y3495000D02*
D03*
X1705000Y3205000D02*
D03*
X1945000D02*
D03*
X4995000Y600000D02*
D03*
X4825000Y430000D02*
D03*
X4655000Y600000D02*
D03*
X4705000Y720000D02*
D03*
X4945000D02*
D03*
X4825000Y770000D02*
D03*
X4705000Y480000D02*
D03*
X4945000D02*
D03*
X445000Y4850000D02*
D03*
X275000Y4680000D02*
D03*
X105000Y4850000D02*
D03*
X155000Y4970000D02*
D03*
X395000D02*
D03*
X275000Y5020000D02*
D03*
X155000Y4730000D02*
D03*
X395000D02*
D03*
X2145000Y7400000D02*
D03*
X1975000Y7230000D02*
D03*
X1805000Y7400000D02*
D03*
X1855000Y7520000D02*
D03*
X2095000D02*
D03*
X1975000Y7570000D02*
D03*
X1855000Y7280000D02*
D03*
X2095000D02*
D03*
X1995000Y600000D02*
D03*
X1825000Y430000D02*
D03*
X1655000Y600000D02*
D03*
X1705000Y720000D02*
D03*
X1945000D02*
D03*
X1825000Y770000D02*
D03*
X1705000Y480000D02*
D03*
X1945000D02*
D03*
X4995000Y3325000D02*
D03*
X4825000Y3155000D02*
D03*
X4655000Y3325000D02*
D03*
X4705000Y3445000D02*
D03*
X4945000D02*
D03*
X4825000Y3495000D02*
D03*
X4705000Y3205000D02*
D03*
X4945000D02*
D03*
%TF.MD5,05c865200727c6c904775ad0cbe037bb*%
M02*
