%TF.GenerationSoftware,Altium Limited,Altium Designer,26.9.1 (10)*%
G04 Layer_Physical_Order=1*
G04 Layer_Color=255*
G04 Board_Origin=13779528|11122048*
%FSLAX45Y45*%
%MOMM*%
%TF.SameCoordinates,C0C7667C-18A9-4E34-ADBB-357C6C009FE5*%
%TF.FilePolarity,Positive*%
%TF.FileFunction,Copper,L1,Top,Signal*%
%TF.Part,Single*%
G01*
G75*
%TA.AperFunction,Conductor*%
%ADD10C,0.30500*%
%ADD11C,0.25400*%
%TA.AperFunction,SMDPad,CuDef*%
%ADD12R,1.02000X1.04000*%
%ADD13R,1.10000X1.30000*%
%ADD14R,1.06680X1.01600*%
%ADD15R,0.78000X0.98000*%
%ADD16R,1.70180X0.43180*%
%ADD17R,1.65100X2.84480*%
%ADD18R,0.89000X1.11000*%
%ADD19R,1.11000X0.89000*%
%ADD20R,0.51000X0.73000*%
%ADD21R,0.30000X0.85000*%
%ADD22R,1.50000X1.30000*%
%ADD23R,3.40000X2.40000*%
%ADD24R,0.98000X0.78000*%
G04:AMPARAMS|DCode=25|XSize=0.65mm|YSize=0.2mm|CornerRadius=0.05mm|HoleSize=0mm|Usage=FLASHONLY|Rotation=180.000|XOffset=0mm|YOffset=0mm|HoleType=Round|Shape=RoundedRectangle|*
%AMROUNDEDRECTD25*
21,1,0.65000,0.10000,0,0,180.0*
21,1,0.55000,0.20000,0,0,180.0*
1,1,0.10000,-0.27500,0.05000*
1,1,0.10000,0.27500,0.05000*
1,1,0.10000,0.27500,-0.05000*
1,1,0.10000,-0.27500,-0.05000*
%
%ADD25ROUNDEDRECTD25*%
G04:AMPARAMS|DCode=26|XSize=0.25mm|YSize=0.55mm|CornerRadius=0.05mm|HoleSize=0mm|Usage=FLASHONLY|Rotation=180.000|XOffset=0mm|YOffset=0mm|HoleType=Round|Shape=RoundedRectangle|*
%AMROUNDEDRECTD26*
21,1,0.25000,0.45000,0,0,180.0*
21,1,0.15000,0.55000,0,0,180.0*
1,1,0.10000,-0.07500,0.22500*
1,1,0.10000,0.07500,0.22500*
1,1,0.10000,0.07500,-0.22500*
1,1,0.10000,-0.07500,-0.22500*
%
%ADD26ROUNDEDRECTD26*%
G04:AMPARAMS|DCode=27|XSize=1mm|YSize=0.2mm|CornerRadius=0.05mm|HoleSize=0mm|Usage=FLASHONLY|Rotation=180.000|XOffset=0mm|YOffset=0mm|HoleType=Round|Shape=RoundedRectangle|*
%AMROUNDEDRECTD27*
21,1,1.00000,0.10000,0,0,180.0*
21,1,0.90000,0.20000,0,0,180.0*
1,1,0.10000,-0.45000,0.05000*
1,1,0.10000,0.45000,0.05000*
1,1,0.10000,0.45000,-0.05000*
1,1,0.10000,-0.45000,-0.05000*
%
%ADD27ROUNDEDRECTD27*%
%ADD28R,1.60000X1.00000*%
%ADD29R,0.30000X0.45000*%
%ADD30R,0.76200X1.39700*%
%ADD31R,1.30000X1.50000*%
%ADD32R,1.04000X1.02000*%
%ADD33R,1.50000X1.35000*%
%ADD34R,2.64160X2.41300*%
%ADD35R,5.25000X5.25000*%
%ADD36R,0.85000X0.30000*%
%TA.AperFunction,ConnectorPad*%
%ADD37R,4.80060X1.34620*%
%ADD38R,1.34620X4.80060*%
%TA.AperFunction,SMDPad,CuDef*%
%ADD39R,0.80000X1.40000*%
%ADD40R,1.40000X0.80000*%
%ADD41R,0.59920X0.95480*%
%ADD42R,0.96520X0.71120*%
%ADD43R,0.17780X0.71120*%
%ADD44R,0.71120X0.17780*%
%ADD45R,1.44780X1.44780*%
%ADD46R,1.35000X1.50000*%
%TA.AperFunction,ConnectorPad*%
%ADD47R,1.27000X4.19100*%
%TA.AperFunction,SMDPad,CuDef*%
%ADD48R,1.00000X2.00000*%
%TA.AperFunction,ConnectorPad*%
%ADD49R,4.19100X1.27000*%
%TA.AperFunction,Conductor*%
%ADD50C,0.50200*%
%ADD51C,0.20320*%
%ADD52C,0.50800*%
%ADD53C,0.50000*%
%ADD54C,0.23103*%
%ADD55C,0.30465*%
%ADD56C,0.30000*%
%ADD57C,0.15240*%
%TA.AperFunction,ComponentPad*%
%ADD58C,4.00000*%
%ADD59C,1.20000*%
%ADD60R,1.20000X1.20000*%
%ADD61C,1.95000*%
%TA.AperFunction,ViaPad*%
%ADD62C,0.60000*%
%ADD63C,1.00000*%
G36*
X2486100Y7490050D02*
X2536153D01*
Y7246818D01*
X2510753Y7227678D01*
X2504000Y7229000D01*
X2487105Y7229000D01*
X2459999D01*
Y7150000D01*
Y7071000D01*
X2487105D01*
X2504000Y7071000D01*
X2510753Y7072322D01*
X2536153Y7053182D01*
Y6993499D01*
X2510753Y6976699D01*
X2499000Y6979000D01*
X2482105Y6979000D01*
X2455000D01*
Y6899999D01*
Y6821000D01*
X2482105D01*
X2499000Y6821000D01*
X2510753Y6823301D01*
X2536153Y6806501D01*
Y6442500D01*
X2539110Y6427634D01*
X2547531Y6415032D01*
X2580031Y6382531D01*
X2584718Y6379400D01*
X2577013Y6354000D01*
X2554999D01*
Y6275000D01*
X2530000D01*
Y6250000D01*
X2461000D01*
Y6196000D01*
Y6149999D01*
X2530000D01*
Y6124999D01*
X2554999D01*
Y6046000D01*
X2582105D01*
X2599000Y6046000D01*
X2622494Y6050600D01*
X2734400D01*
Y6086153D01*
X2763654D01*
Y6022379D01*
X2766611Y6007513D01*
X2775032Y5994911D01*
X2789911Y5980031D01*
X2802513Y5971611D01*
X2817379Y5968654D01*
X2931153D01*
Y5825000D01*
X2934110Y5810134D01*
X2942531Y5797532D01*
X2965532Y5774531D01*
X2967483Y5773228D01*
X2973928Y5747158D01*
X2945658Y5744666D01*
X2851320Y5839004D01*
Y5916960D01*
X2704000D01*
Y5795040D01*
X2807355D01*
X2922378Y5680018D01*
X2932463Y5673279D01*
X2944360Y5670912D01*
X2956256Y5673279D01*
X2967426Y5663482D01*
X2954569Y5640846D01*
X2851320D01*
Y5662960D01*
X2704000D01*
Y5643446D01*
X2398000D01*
X2382139Y5640291D01*
X2368693Y5631307D01*
X2340693Y5603307D01*
X2331709Y5589861D01*
X2328554Y5574000D01*
Y5074400D01*
X2247494D01*
X2224000Y5079000D01*
X2207106Y5079000D01*
X2180000D01*
Y5000000D01*
Y4921000D01*
X2207105D01*
X2224000Y4921000D01*
X2247494Y4925600D01*
X2359400D01*
Y4969330D01*
X2361440Y4970693D01*
X2399307Y5008559D01*
X2408291Y5022005D01*
X2411446Y5037866D01*
Y5556833D01*
X2415167Y5560554D01*
X2704000D01*
Y5541040D01*
X2851320D01*
Y5563153D01*
X2954569D01*
X2967426Y5540518D01*
X2956256Y5530721D01*
X2944360Y5533088D01*
X2932463Y5530721D01*
X2922378Y5523982D01*
X2807355Y5408960D01*
X2704000D01*
Y5287040D01*
X2851320D01*
Y5364996D01*
X2959836Y5473513D01*
X2987099D01*
Y5461600D01*
X3064045D01*
X3084599Y5449900D01*
X3084599Y5436200D01*
Y5314537D01*
X3076409Y5306347D01*
X2995000D01*
X2980134Y5303389D01*
X2967532Y5294969D01*
X2922531Y5249968D01*
X2914111Y5237366D01*
X2911153Y5222500D01*
Y5184400D01*
X2900600D01*
Y5171387D01*
X2874400D01*
Y5184400D01*
X2725600D01*
Y5184400D01*
X2716325Y5178202D01*
X2711020Y5180400D01*
X2688980D01*
X2668618Y5171966D01*
X2653034Y5156381D01*
X2644600Y5136020D01*
Y5113980D01*
X2653034Y5093618D01*
X2668618Y5078034D01*
X2688980Y5069600D01*
X2702744D01*
X2707249Y5068704D01*
X2711063Y5063239D01*
X2721000Y5047331D01*
X2721000Y5032106D01*
Y5005000D01*
X2800000D01*
Y4980000D01*
X2825000D01*
Y4911000D01*
X2870600D01*
X2896000Y4911000D01*
X2904400Y4911000D01*
X2950000D01*
Y4980000D01*
X2975000D01*
Y5005000D01*
X3054000D01*
Y5032105D01*
X3054000Y5049000D01*
X3049400Y5072494D01*
Y5184400D01*
X2997033D01*
X2992238Y5209800D01*
X3011091Y5228654D01*
X3092500D01*
X3107366Y5231611D01*
X3119968Y5240031D01*
X3127665Y5247728D01*
X3151131Y5238008D01*
Y4730720D01*
X3110831Y4690420D01*
X2427146D01*
X2416693Y4688340D01*
X2407831Y4682419D01*
X2359132Y4633721D01*
X2353211Y4624859D01*
X2351132Y4614405D01*
Y3334400D01*
X2250600D01*
Y3219800D01*
X2250600Y3205600D01*
X2250600Y3180200D01*
Y3065600D01*
X2351132D01*
Y3038491D01*
X2351132Y3038489D01*
Y2957154D01*
X2351132Y2957152D01*
Y2944963D01*
X2297868Y2891700D01*
X2209500D01*
Y2701200D01*
X2331900D01*
Y2696600D01*
X2375000D01*
Y2796450D01*
X2425000D01*
Y2696600D01*
X2468100D01*
Y2701200D01*
X2590500D01*
Y2891700D01*
X2502131D01*
X2448868Y2944963D01*
Y3056344D01*
X2470907Y3065600D01*
X2549400D01*
Y3180200D01*
X2549400Y3194400D01*
X2549400Y3219800D01*
Y3334400D01*
X2448868D01*
Y4585236D01*
X2456315Y4592683D01*
X3140000D01*
X3150454Y4594763D01*
X3159316Y4600684D01*
X3233504Y4674873D01*
X3250000Y4679611D01*
X3266496Y4674873D01*
X3340684Y4600684D01*
X3349546Y4594763D01*
X3360000Y4592683D01*
X4043685D01*
X4051132Y4585236D01*
Y3334400D01*
X3950600D01*
Y3219800D01*
X3950600Y3205600D01*
X3950600Y3180200D01*
Y3065600D01*
X4051132D01*
Y3038491D01*
X4051132Y3038489D01*
Y2957154D01*
X4051132Y2957152D01*
Y2944963D01*
X3997869Y2891700D01*
X3909499D01*
Y2701200D01*
X4031899D01*
Y2696600D01*
X4074999D01*
Y2796450D01*
X4124999D01*
Y2696600D01*
X4168099D01*
Y2701200D01*
X4290499D01*
Y2891700D01*
X4202131D01*
X4148868Y2944963D01*
Y3056344D01*
X4170908Y3065600D01*
X4249400D01*
Y3180200D01*
X4249400Y3194400D01*
X4249400Y3219800D01*
Y3334400D01*
X4148868D01*
Y4614405D01*
X4146789Y4624859D01*
X4140868Y4633721D01*
X4092169Y4682419D01*
X4083307Y4688340D01*
X4072854Y4690420D01*
X3389169D01*
X3348869Y4730720D01*
Y5314100D01*
X3365399D01*
Y5449900D01*
X3143453D01*
X3122900Y5461600D01*
X3122900Y5475300D01*
Y5536200D01*
X3122900Y5542400D01*
Y5561600D01*
X3122900Y5567800D01*
Y5636200D01*
X3122900Y5642400D01*
Y5661600D01*
X3122900Y5667800D01*
Y5736200D01*
X3122900Y5742400D01*
Y5761600D01*
X3122900Y5767800D01*
Y5842400D01*
X3008846D01*
Y5992621D01*
X3005889Y6007487D01*
X2997468Y6020090D01*
X2982589Y6034969D01*
X2986884Y6059997D01*
X2988452Y6061600D01*
X3122900D01*
Y6104100D01*
X3159199D01*
X3165399Y6104100D01*
Y6104099D01*
X3184600D01*
Y6104100D01*
X3365399D01*
X3365399Y6104099D01*
X3384600D01*
Y6104100D01*
X3390799Y6104100D01*
X3615399D01*
Y6104099D01*
X3634600D01*
Y6104100D01*
X3777099D01*
Y6011600D01*
Y5911600D01*
X3912899D01*
Y5913153D01*
X6222000D01*
X6236866Y5916110D01*
X6249468Y5924531D01*
X6277469Y5952531D01*
X6285889Y5965134D01*
X6286700Y5969209D01*
X6312100Y5966707D01*
Y5949600D01*
X6470327D01*
X6474102Y5945000D01*
Y5860000D01*
X6476074Y5850089D01*
X6476267Y5849800D01*
X6465569Y5824973D01*
X6465016Y5824400D01*
X6405600Y5824400D01*
X6380200Y5824400D01*
X6265600D01*
Y5783846D01*
X6050400D01*
Y5837900D01*
X5849600D01*
Y5788846D01*
X4709400D01*
Y5824400D01*
X4580601D01*
Y5824400D01*
X4569399D01*
Y5824400D01*
X4440600D01*
Y5788846D01*
X4350000D01*
Y5789076D01*
X4320475Y5785189D01*
X4292962Y5773793D01*
X4269336Y5755664D01*
X4251207Y5732038D01*
X4239811Y5704525D01*
X4235924Y5675000D01*
X4236154D01*
Y5625000D01*
X4236221Y5624660D01*
X4233679Y5611878D01*
X4226246Y5600754D01*
X4215122Y5593321D01*
X4202340Y5590779D01*
X4202000Y5590846D01*
X3912899D01*
Y5592400D01*
X3777099D01*
Y5511600D01*
Y5449900D01*
X3484600D01*
Y5314100D01*
X3486153D01*
Y5014879D01*
X3489110Y5000013D01*
X3497531Y4987410D01*
X3512410Y4972531D01*
X3525013Y4964110D01*
X3539879Y4961153D01*
X3774100D01*
Y4923600D01*
X3916500D01*
Y4919000D01*
X3973500D01*
Y5000000D01*
Y5081000D01*
X3916500D01*
Y5076400D01*
X3774100D01*
Y5038846D01*
X3725381D01*
X3711368Y5064247D01*
X3715400Y5073980D01*
Y5096020D01*
X3711955Y5104337D01*
X3731395Y5123777D01*
X3741480Y5119600D01*
X3763520D01*
X3783881Y5128034D01*
X3799466Y5143619D01*
X3807900Y5163980D01*
Y5174102D01*
X4104103D01*
Y5085339D01*
X4080500Y5081000D01*
Y5081000D01*
X4023500D01*
Y5000000D01*
Y4919000D01*
X4080500D01*
Y5013462D01*
X4105900Y5015964D01*
X4106074Y5015090D01*
X4111688Y5006688D01*
X4120090Y5001074D01*
X4130000Y4999103D01*
X4277416D01*
X4288811Y4988947D01*
X4293848Y4982531D01*
X4295533Y4979490D01*
X4296000Y4977951D01*
Y4916000D01*
X4350000D01*
Y4985000D01*
X4400000D01*
Y4916000D01*
X4445600D01*
X4471000Y4916000D01*
X4479400Y4916000D01*
X4525000D01*
Y4985000D01*
X4575000D01*
Y4916000D01*
X4620600D01*
X4646000Y4916000D01*
X4654400Y4916000D01*
X4700000D01*
Y4985000D01*
X4750000D01*
Y4916000D01*
X4795600D01*
X4821000Y4916000D01*
X4829400Y4916000D01*
X4875000D01*
Y4985000D01*
X4925000D01*
Y4916000D01*
X4979000D01*
Y4977951D01*
X4979468Y4979490D01*
X4981153Y4982531D01*
X4986190Y4988947D01*
X4997585Y4999103D01*
X5125000D01*
X5134910Y5001074D01*
X5143312Y5006688D01*
X5148926Y5015090D01*
X5150897Y5025000D01*
Y5220000D01*
X5149903Y5225000D01*
X5150897Y5230000D01*
Y5400000D01*
X5148926Y5409911D01*
X5143312Y5418313D01*
X5134910Y5423926D01*
X5125000Y5425898D01*
X5003985D01*
X5003469Y5425795D01*
X5002949Y5425877D01*
X4997316Y5425651D01*
X4979000Y5443249D01*
Y5445000D01*
X4900000D01*
Y5469999D01*
X4875000D01*
Y5539000D01*
X4829400D01*
X4804000Y5539000D01*
X4795600Y5539000D01*
X4749999D01*
Y5469999D01*
X4699999D01*
Y5539000D01*
X4654400D01*
X4629000Y5539000D01*
X4620600Y5539000D01*
X4574999D01*
Y5469999D01*
X4524999D01*
Y5539000D01*
X4479400D01*
X4454000Y5539000D01*
X4445600Y5539000D01*
X4399999D01*
Y5469999D01*
X4349999D01*
Y5539000D01*
X4308065D01*
X4297116Y5560334D01*
X4299046Y5568971D01*
X4310240Y5595997D01*
X4314059Y5625000D01*
X4313847D01*
Y5675000D01*
X4313759Y5675439D01*
X4316437Y5688902D01*
X4324312Y5700688D01*
X4336098Y5708563D01*
X4349561Y5711241D01*
X4350000Y5711153D01*
X4440600D01*
Y5675600D01*
X4569399D01*
Y5675600D01*
X4580601D01*
Y5675600D01*
X4709400D01*
Y5711153D01*
X5849600D01*
Y5652500D01*
X5845000D01*
Y5580000D01*
X6055000D01*
Y5652500D01*
X6050400D01*
Y5706153D01*
X6265600D01*
Y5675600D01*
X6380200D01*
X6394400Y5675600D01*
X6419800Y5675600D01*
X6534400D01*
Y5708808D01*
X6750100D01*
Y5565140D01*
X6710792D01*
X6708672Y5568312D01*
X6700270Y5573926D01*
X6690360Y5575898D01*
X6325000D01*
X6315089Y5573926D01*
X6306688Y5568312D01*
X6301074Y5559911D01*
X6299102Y5550000D01*
Y5150000D01*
X6301074Y5140090D01*
X6306688Y5131688D01*
X6315089Y5126074D01*
X6325000Y5124103D01*
X6690360D01*
X6700270Y5126074D01*
X6708672Y5131688D01*
X6709776Y5133340D01*
X6794500D01*
Y5181780D01*
X6800001D01*
Y5259520D01*
X6825001D01*
Y5284520D01*
X6884960D01*
Y5328365D01*
X6884960Y5337259D01*
X6884961D01*
X6880360Y5351861D01*
X6880360Y5351861D01*
Y5498140D01*
X6865346D01*
Y5524100D01*
X6902900D01*
Y5671100D01*
Y5707308D01*
X7190236D01*
X7197776Y5708808D01*
X7485550D01*
Y5661100D01*
X7942628D01*
Y3350000D01*
X7400898D01*
Y3375000D01*
X7398926Y3384911D01*
X7393312Y3393312D01*
X7384911Y3398926D01*
X7375000Y3400898D01*
X6750000D01*
X6740089Y3398926D01*
X6731688Y3393312D01*
X6726074Y3384911D01*
X6724102Y3375000D01*
Y3055898D01*
X6270000D01*
X6260090Y3053926D01*
X6251688Y3048312D01*
X6246074Y3039911D01*
X6244103Y3030000D01*
Y2934744D01*
X6244102Y2919202D01*
X6222144Y2911478D01*
X6220089Y2910996D01*
X6212700D01*
Y2875000D01*
X6187300D01*
Y2910996D01*
X6155000D01*
X6143139Y2908636D01*
X6133083Y2901917D01*
X6124800Y2891398D01*
X6109570Y2886880D01*
X6109085Y2886802D01*
X6108603Y2886898D01*
X6075800Y2886897D01*
X6065308Y2896175D01*
X6055000Y2920001D01*
X6055000Y2920001D01*
X6055000D01*
Y2990000D01*
X5950000D01*
X5845000D01*
Y2968154D01*
X5832381Y2957277D01*
X5821671Y2950898D01*
X5450000D01*
X5428277Y2964947D01*
X5425000Y2969392D01*
Y3200000D01*
X6075000D01*
Y3350000D01*
X5275000D01*
Y57372D01*
X4313900D01*
Y509950D01*
X4256069D01*
Y648600D01*
X4290000D01*
Y644000D01*
X4347000D01*
Y725000D01*
X4372000D01*
Y750000D01*
X4454000D01*
Y806000D01*
X4453187D01*
X4434000Y821000D01*
X4434000Y831400D01*
Y875000D01*
X4365000D01*
Y900000D01*
X4340000D01*
Y979000D01*
X4312895D01*
X4296000Y979000D01*
X4281469Y976155D01*
X4260093Y989200D01*
X4261229Y1014600D01*
X4325400D01*
Y1179200D01*
X4325400Y1195400D01*
X4325400Y1220800D01*
Y1385400D01*
X4261319D01*
X4260128Y1410800D01*
X4281488Y1423841D01*
X4296000Y1421000D01*
X4312895Y1421000D01*
X4340000D01*
Y1500000D01*
Y1579000D01*
X4312895D01*
X4296000Y1579000D01*
X4281488Y1576159D01*
X4260128Y1589200D01*
X4261321Y1614600D01*
X4325400D01*
Y1779200D01*
X4325400Y1795400D01*
X4325400Y1820800D01*
Y1985400D01*
X4256069D01*
Y2058345D01*
X4281469Y2073845D01*
X4296000Y2071000D01*
X4312895Y2071000D01*
X4340000D01*
Y2150000D01*
Y2229000D01*
X4312895D01*
X4296000Y2229000D01*
X4281469Y2226155D01*
X4256069Y2241655D01*
Y2358300D01*
X4290499D01*
Y2548800D01*
X4163499D01*
Y2358300D01*
X4193930D01*
Y2224400D01*
X4160600D01*
Y2075600D01*
X4193930D01*
Y1985400D01*
X4124600D01*
Y1820800D01*
X4124600Y1804600D01*
X4124600Y1779200D01*
Y1614600D01*
X4193913D01*
Y1574400D01*
X4160600D01*
Y1425600D01*
X4193913D01*
Y1385400D01*
X4124600D01*
Y1220800D01*
X4124600Y1204600D01*
X4124600Y1179200D01*
Y1014600D01*
X4193931D01*
Y974400D01*
X4160600D01*
Y825600D01*
X4160600D01*
X4157703Y801400D01*
X4147600D01*
Y648600D01*
X4193931D01*
Y509950D01*
X4136100D01*
Y57372D01*
X2613900Y57372D01*
Y509950D01*
X2552087D01*
Y648600D01*
X2602400D01*
Y801400D01*
X2592297D01*
X2589400Y825600D01*
X2589400D01*
Y974400D01*
X2556087D01*
Y1014600D01*
X2625400D01*
Y1179200D01*
X2625400Y1195400D01*
X2625400Y1220800D01*
Y1385400D01*
X2556087D01*
Y1425600D01*
X2589400D01*
Y1574400D01*
X2556087D01*
Y1614600D01*
X2625400D01*
Y1779200D01*
X2625400Y1795400D01*
X2625400Y1820800D01*
Y1985400D01*
X2556069D01*
Y2075600D01*
X2589400D01*
Y2224400D01*
X2556069D01*
Y2358300D01*
X2590500D01*
Y2548800D01*
X2463500D01*
Y2358300D01*
X2493930D01*
Y2241655D01*
X2468530Y2226155D01*
X2454000Y2229000D01*
X2437105Y2229000D01*
X2410000D01*
Y2150000D01*
Y2071000D01*
X2437105D01*
X2454000Y2071000D01*
X2468530Y2073845D01*
X2493931Y2058345D01*
Y1985400D01*
X2424600D01*
Y1820800D01*
X2424600Y1804600D01*
X2424600Y1779200D01*
Y1614600D01*
X2488679D01*
X2489872Y1589200D01*
X2468512Y1576159D01*
X2454000Y1579000D01*
X2437105Y1579000D01*
X2410000D01*
Y1500000D01*
Y1421000D01*
X2437105D01*
X2454000Y1421000D01*
X2468512Y1423841D01*
X2489872Y1410800D01*
X2488681Y1385400D01*
X2424600D01*
Y1220800D01*
X2424600Y1204600D01*
X2424600Y1179200D01*
Y1014600D01*
X2488679D01*
X2489872Y989200D01*
X2468512Y976159D01*
X2454000Y979000D01*
X2437105Y979000D01*
X2410000D01*
Y900000D01*
X2385000D01*
Y875000D01*
X2316000D01*
Y831400D01*
X2316000Y821000D01*
X2296813Y806000D01*
X2296000D01*
Y750000D01*
X2378000D01*
Y725000D01*
X2403000D01*
Y644000D01*
X2460000D01*
Y648600D01*
X2489913D01*
Y509950D01*
X2436100D01*
Y57372D01*
X57372Y57371D01*
Y7942627D01*
X911100D01*
Y7490050D01*
X968930D01*
Y7316656D01*
X943530Y7301155D01*
X928999Y7304000D01*
X928999Y7304000D01*
X928999Y7304000D01*
X884999D01*
Y7225000D01*
Y7146000D01*
X905795D01*
X919100Y7146000D01*
X919100Y7130000D01*
Y7013900D01*
X919100Y7011500D01*
Y6988500D01*
X919100Y6986100D01*
Y6848700D01*
X919100D01*
X925600Y6834400D01*
Y6719800D01*
X925600Y6705600D01*
X925600Y6680200D01*
Y6565600D01*
X925600D01*
X923502Y6541069D01*
X629620D01*
Y6574400D01*
X480820D01*
Y6459800D01*
X480820Y6445600D01*
X480820Y6420200D01*
Y6305600D01*
X526732D01*
Y6166400D01*
X474320D01*
Y6013600D01*
X776120D01*
Y6058931D01*
X973930D01*
Y5900400D01*
X924600D01*
Y5649600D01*
X968930D01*
Y5554400D01*
X925600D01*
Y5439800D01*
X925600Y5425600D01*
X925600Y5400200D01*
Y5285600D01*
X1074400D01*
Y5318931D01*
X1284600D01*
Y5293000D01*
X1280000D01*
Y5248000D01*
X1380000D01*
X1480000D01*
Y5293000D01*
X1475400D01*
Y5407000D01*
X1480000D01*
Y5452000D01*
X1380000D01*
X1280000D01*
Y5407000D01*
X1284600D01*
Y5381070D01*
X1092360D01*
X1074400Y5399030D01*
Y5414400D01*
X1074400Y5439800D01*
Y5554400D01*
X1031069D01*
Y5649600D01*
X1075400D01*
Y5900400D01*
X1036069D01*
Y6069997D01*
X1039510Y6094260D01*
X1039510Y6094260D01*
X1039510Y6094261D01*
Y6216180D01*
X970930D01*
Y6121069D01*
X776120D01*
Y6166400D01*
X583707D01*
Y6305600D01*
X629620D01*
Y6420200D01*
X629620Y6434400D01*
X629620Y6460970D01*
X647580Y6478931D01*
X970930D01*
Y6383820D01*
X1039510D01*
Y6505740D01*
X1039510D01*
X1036236Y6509730D01*
X1036289Y6510000D01*
Y6565600D01*
X1074400D01*
Y6680200D01*
X1074400Y6694400D01*
X1074400Y6719800D01*
Y6834400D01*
X1080900Y6848700D01*
X1080900D01*
Y6986100D01*
X1080900Y6988500D01*
Y7011500D01*
X1080900Y7013900D01*
Y7151300D01*
X1064400D01*
Y7299400D01*
X1031069D01*
Y7490050D01*
X1088900D01*
Y7942627D01*
X2486100Y7942627D01*
Y7490050D01*
D02*
G37*
G36*
X6925000Y7055000D02*
X6876636D01*
X6856000Y7066500D01*
Y7123500D01*
X6775000D01*
X6694000D01*
Y7066500D01*
X6673364Y7055000D01*
X6631116D01*
X6610206Y7080400D01*
X6610500Y7081900D01*
X6610500Y7086995D01*
Y7131400D01*
X6525000D01*
X6439500D01*
Y7086995D01*
X6439500Y7081900D01*
X6439793Y7080400D01*
X6418884Y7055000D01*
X6348151D01*
X6330000Y7072500D01*
Y7144999D01*
X6224999D01*
X6120000D01*
Y7072500D01*
X6101849Y7055000D01*
X5925000D01*
Y7392500D01*
X6925000D01*
Y7055000D01*
D02*
G37*
G36*
X6986100Y7485550D02*
X7033554D01*
Y6775000D01*
X7033910Y6773207D01*
X7030070Y6734209D01*
X7018171Y6694986D01*
X6998850Y6658837D01*
X6972847Y6627153D01*
X6941163Y6601150D01*
X6905014Y6581829D01*
X6865791Y6569930D01*
X6826793Y6566089D01*
X6825000Y6566446D01*
X6259400D01*
Y6599400D01*
X6130600D01*
Y6599400D01*
X6121845D01*
X6096446Y6605306D01*
Y6705000D01*
X6096666D01*
X6097643Y6707357D01*
X6100000Y6708334D01*
Y6708554D01*
X6174100D01*
Y6688100D01*
X6367900D01*
Y6711153D01*
X6510121D01*
X6524987Y6714111D01*
X6537589Y6722531D01*
X6552468Y6737410D01*
X6560889Y6750013D01*
X6563846Y6764879D01*
Y6923700D01*
X6605900D01*
Y6962654D01*
X6698600D01*
Y6924100D01*
X6851400D01*
Y7010766D01*
X6857105Y7018325D01*
X6859669Y7020678D01*
X6873239Y7029025D01*
X6876636Y7029102D01*
X6925000D01*
X6934910Y7031074D01*
X6943312Y7036687D01*
X6948926Y7045089D01*
X6950897Y7055000D01*
Y7392500D01*
X6948926Y7402411D01*
X6943312Y7410812D01*
X6934910Y7416426D01*
X6925000Y7418398D01*
X5925000D01*
X5915090Y7416426D01*
X5906688Y7410812D01*
X5901074Y7402411D01*
X5899103Y7392500D01*
Y7055000D01*
X5901074Y7045089D01*
X5906688Y7036687D01*
X5915090Y7031074D01*
X5925000Y7029102D01*
X6101849D01*
X6118077Y7018233D01*
X6121047Y7015183D01*
X6124600Y7009443D01*
Y6887100D01*
X6183554D01*
Y6811900D01*
X6174100D01*
Y6791446D01*
X6100000D01*
X6099150Y6791277D01*
X6077641Y6788445D01*
X6056805Y6779815D01*
X6038913Y6766086D01*
X6025185Y6748194D01*
X6016554Y6727359D01*
X6013723Y6705849D01*
X6013554Y6705000D01*
Y6599400D01*
X5990600D01*
Y6566446D01*
X5775000D01*
Y6566451D01*
X5742527Y6563253D01*
X5711302Y6553781D01*
X5682524Y6538399D01*
X5657301Y6517699D01*
X5636601Y6492475D01*
X5621219Y6463698D01*
X5611747Y6432473D01*
X5608548Y6400000D01*
X5608554D01*
Y6100000D01*
X5608866Y6098429D01*
X5604826Y6078119D01*
X5592431Y6059569D01*
X5573881Y6047174D01*
X5553571Y6043134D01*
X5552000Y6043446D01*
X5283388D01*
X5264321Y6066310D01*
X5263846Y6068846D01*
Y6699600D01*
X5317900Y6699600D01*
X5343300Y6699600D01*
X5507900D01*
Y6900400D01*
X5466387D01*
Y6944755D01*
X5475335Y6953703D01*
X5485262Y6970897D01*
X5490400Y6990073D01*
Y7009927D01*
X5485262Y7029103D01*
X5475335Y7046297D01*
X5461297Y7060335D01*
X5444103Y7070262D01*
X5424927Y7075400D01*
X5405074D01*
X5385897Y7070262D01*
X5368704Y7060335D01*
X5354665Y7046297D01*
X5344738Y7029103D01*
X5339600Y7009927D01*
Y6990073D01*
X5344738Y6970897D01*
X5354665Y6953703D01*
X5363613Y6944756D01*
Y6918361D01*
X5345652Y6900400D01*
X5322100Y6900400D01*
X5302755Y6900400D01*
X5284795Y6918361D01*
Y7487293D01*
X5285436Y7487663D01*
X5301337Y7503563D01*
X5312580Y7523037D01*
X5318400Y7544757D01*
Y7567243D01*
X5312580Y7588963D01*
X5301337Y7608437D01*
X5285436Y7624337D01*
X5284795Y7624707D01*
Y7741293D01*
X5285436Y7741663D01*
X5301337Y7757563D01*
X5312580Y7777037D01*
X5318400Y7798757D01*
Y7821243D01*
X5312580Y7842963D01*
X5301337Y7862437D01*
X5285436Y7878337D01*
X5265963Y7889580D01*
X5244243Y7895400D01*
X5221757D01*
X5200037Y7889580D01*
X5180563Y7878337D01*
X5164663Y7862437D01*
X5153420Y7842963D01*
X5147600Y7821243D01*
Y7798757D01*
X5153420Y7777037D01*
X5164663Y7757563D01*
X5180563Y7741663D01*
X5181205Y7741293D01*
Y7624707D01*
X5180563Y7624337D01*
X5164663Y7608437D01*
X5153420Y7588963D01*
X5147600Y7567243D01*
Y7544757D01*
X5153420Y7523037D01*
X5164663Y7503563D01*
X5180563Y7487663D01*
X5181205Y7487293D01*
Y6900400D01*
X5132100D01*
Y6699600D01*
X5186153D01*
Y6090846D01*
X5029877D01*
X5015676Y6112912D01*
X5015309Y6116246D01*
X5017846Y6129000D01*
Y7100000D01*
Y7370700D01*
X5026852Y7384179D01*
X5030795Y7404000D01*
Y7487293D01*
X5031436Y7487663D01*
X5047337Y7503563D01*
X5058580Y7523037D01*
X5064400Y7544757D01*
Y7567243D01*
X5058580Y7588963D01*
X5047337Y7608437D01*
X5031436Y7624337D01*
X5026795Y7627016D01*
Y7738983D01*
X5031436Y7741663D01*
X5047337Y7757563D01*
X5058580Y7777037D01*
X5064400Y7798757D01*
Y7821243D01*
X5058580Y7842963D01*
X5047337Y7862437D01*
X5031436Y7878337D01*
X5011963Y7889580D01*
X4990243Y7895400D01*
X4967757D01*
X4946037Y7889580D01*
X4926563Y7878337D01*
X4910663Y7862437D01*
X4899420Y7842963D01*
X4893600Y7821243D01*
Y7798757D01*
X4899420Y7777037D01*
X4910663Y7757563D01*
X4923205Y7745021D01*
Y7620979D01*
X4910663Y7608437D01*
X4899420Y7588963D01*
X4893600Y7567243D01*
Y7544757D01*
X4899420Y7523037D01*
X4910663Y7503563D01*
X4926563Y7487663D01*
X4927205Y7487293D01*
Y7404000D01*
X4931147Y7384179D01*
X4940153Y7370700D01*
Y7100000D01*
Y6145090D01*
X4935909Y6140846D01*
X3912899D01*
Y6142400D01*
X3815400D01*
Y6220462D01*
X3849046Y6254109D01*
X4700000D01*
X4714866Y6257066D01*
X4727469Y6265487D01*
X4752469Y6290487D01*
X4760889Y6303089D01*
X4763846Y6317955D01*
Y7377885D01*
X4772852Y7391364D01*
X4776795Y7411185D01*
Y7487293D01*
X4777436Y7487663D01*
X4793337Y7503563D01*
X4804580Y7523037D01*
X4810400Y7544757D01*
Y7567243D01*
X4804580Y7588963D01*
X4793337Y7608437D01*
X4777436Y7624337D01*
X4776795Y7624707D01*
Y7741293D01*
X4777436Y7741663D01*
X4793337Y7757563D01*
X4804580Y7777037D01*
X4810400Y7798757D01*
Y7821243D01*
X4804580Y7842963D01*
X4793337Y7862437D01*
X4777436Y7878337D01*
X4757963Y7889580D01*
X4736243Y7895400D01*
X4713757D01*
X4692037Y7889580D01*
X4672563Y7878337D01*
X4656663Y7862437D01*
X4645420Y7842963D01*
X4639600Y7821243D01*
Y7798757D01*
X4645420Y7777037D01*
X4656663Y7757563D01*
X4672563Y7741663D01*
X4673205Y7741293D01*
Y7624707D01*
X4672563Y7624337D01*
X4656663Y7608437D01*
X4645420Y7588963D01*
X4639600Y7567243D01*
Y7544757D01*
X4645420Y7523037D01*
X4656663Y7503563D01*
X4672563Y7487663D01*
X4673205Y7487293D01*
Y7411185D01*
X4677147Y7391364D01*
X4686153Y7377885D01*
Y6334046D01*
X4683909Y6331802D01*
X3894926D01*
X3885206Y6355268D01*
X3951730Y6421793D01*
X4430121D01*
X4444987Y6424750D01*
X4457590Y6433171D01*
X4498469Y6474050D01*
X4506889Y6486653D01*
X4509846Y6501519D01*
Y7362700D01*
X4518852Y7376179D01*
X4522795Y7396000D01*
Y7487293D01*
X4523436Y7487663D01*
X4539337Y7503563D01*
X4550580Y7523037D01*
X4556400Y7544757D01*
Y7567243D01*
X4550580Y7588963D01*
X4539337Y7608437D01*
X4523436Y7624337D01*
X4522795Y7624707D01*
Y7741293D01*
X4523436Y7741663D01*
X4539337Y7757563D01*
X4550580Y7777037D01*
X4556400Y7798757D01*
Y7821243D01*
X4550580Y7842963D01*
X4539337Y7862437D01*
X4523436Y7878337D01*
X4503963Y7889580D01*
X4482243Y7895400D01*
X4459757D01*
X4438037Y7889580D01*
X4418563Y7878337D01*
X4402663Y7862437D01*
X4391420Y7842963D01*
X4385600Y7821243D01*
Y7798757D01*
X4391420Y7777037D01*
X4402663Y7757563D01*
X4418563Y7741663D01*
X4419205Y7741293D01*
Y7624707D01*
X4418563Y7624337D01*
X4402663Y7608437D01*
X4391420Y7588963D01*
X4385600Y7567243D01*
Y7544757D01*
X4391420Y7523037D01*
X4402663Y7503563D01*
X4418563Y7487663D01*
X4419205Y7487293D01*
Y7396000D01*
X4423147Y7376179D01*
X4432153Y7362700D01*
Y6517610D01*
X4414030Y6499486D01*
X4082200D01*
X4079009Y6501455D01*
X4063326Y6524887D01*
X4063846Y6527500D01*
Y6565600D01*
X4099399D01*
Y6565599D01*
X4100600D01*
Y6565600D01*
X4249400D01*
Y6568832D01*
X4259818Y6575644D01*
X4274800Y6581509D01*
X4291480Y6574600D01*
X4313520D01*
X4333881Y6583034D01*
X4349466Y6598619D01*
X4357900Y6618980D01*
Y6641020D01*
X4349466Y6661381D01*
X4333881Y6676966D01*
X4313520Y6685400D01*
X4291480D01*
X4274800Y6678491D01*
X4270457Y6680191D01*
X4254000Y6701000D01*
D01*
X4254000Y6701001D01*
Y6745000D01*
X4175000D01*
Y6770000D01*
X4150000D01*
Y6839000D01*
X4050000D01*
Y6770000D01*
X4000000D01*
Y6839000D01*
X3953999D01*
Y6844000D01*
X3900000D01*
Y6775000D01*
X3850000D01*
Y6844000D01*
X3749999D01*
Y6775000D01*
X3699999D01*
Y6844000D01*
X3600000D01*
Y6775000D01*
X3550000D01*
Y6844000D01*
X3496000D01*
Y6839000D01*
X3450000D01*
Y6770000D01*
X3400000D01*
Y6839000D01*
X3300000D01*
Y6770000D01*
X3250000D01*
Y6839000D01*
X3150000D01*
Y6770000D01*
X3100000D01*
Y6839000D01*
X2999999D01*
Y6770000D01*
X2974999D01*
Y6745000D01*
X2896000D01*
Y6743249D01*
X2877683Y6725651D01*
X2872050Y6725877D01*
X2871530Y6725795D01*
X2871014Y6725897D01*
X2725000D01*
X2715089Y6723926D01*
X2706687Y6718312D01*
X2701074Y6709910D01*
X2699102Y6700000D01*
Y6448846D01*
X2623591D01*
X2613846Y6458591D01*
Y6825600D01*
X2634400D01*
Y6974400D01*
X2613846D01*
Y7075600D01*
X2639400D01*
Y7224400D01*
X2613846D01*
Y7490050D01*
X2663900D01*
Y7942627D01*
X6986100Y7942628D01*
Y7485550D01*
D02*
G37*
G36*
X7942628Y5838900D02*
X7485550D01*
Y5791191D01*
X7191736D01*
X7184196Y5789691D01*
X6902900D01*
Y5825899D01*
X6924902Y5834102D01*
X7330440D01*
X7340351Y5836074D01*
X7348752Y5841688D01*
X7354366Y5850089D01*
X7356338Y5860000D01*
Y6375000D01*
X7354366Y6384911D01*
X7348752Y6393312D01*
X7340351Y6398926D01*
X7330440Y6400898D01*
X7250294D01*
X7247128Y6400268D01*
X7243904Y6400097D01*
X7242217Y6399291D01*
X7240383Y6398926D01*
X7237699Y6397132D01*
X7234786Y6395741D01*
X7215392Y6381241D01*
X7214142Y6379851D01*
X7212588Y6378812D01*
X7210794Y6376128D01*
X7208635Y6373727D01*
X7208012Y6371965D01*
X7206974Y6370410D01*
X7206344Y6367245D01*
X7205268Y6364201D01*
X7182433Y6355900D01*
X7096760D01*
Y6365205D01*
X7038340D01*
Y6355900D01*
X6923700D01*
Y6313846D01*
X6596900D01*
Y6336900D01*
X6403100D01*
Y6318846D01*
X6280000D01*
X6265134Y6315889D01*
X6252531Y6307468D01*
X6222531Y6277469D01*
X6214111Y6264866D01*
X6211153Y6250000D01*
Y6050000D01*
Y5996091D01*
X6205909Y5990846D01*
X5675024D01*
X5662498Y6016246D01*
X5673110Y6030077D01*
X5687081Y6063805D01*
X5691846Y6100000D01*
X5691446D01*
Y6400000D01*
X5691300Y6400735D01*
X5694058Y6421688D01*
X5702430Y6441898D01*
X5715747Y6459253D01*
X5733102Y6472570D01*
X5753312Y6480942D01*
X5774265Y6483700D01*
X5775000Y6483554D01*
X5990600D01*
Y6450600D01*
X6119399D01*
Y6450599D01*
X6130601D01*
Y6450600D01*
X6259400D01*
Y6483554D01*
X6825000D01*
Y6483451D01*
X6870608Y6487041D01*
X6915094Y6497721D01*
X6957360Y6515228D01*
X6996368Y6539132D01*
X7031156Y6568844D01*
X7060868Y6603632D01*
X7084772Y6642640D01*
X7102279Y6684906D01*
X7112959Y6729392D01*
X7116549Y6775000D01*
X7116446D01*
Y7485550D01*
X7163900D01*
Y7942628D01*
X7942628D01*
Y5838900D01*
D02*
G37*
G36*
X2896000Y6698999D02*
Y6654999D01*
X2974999D01*
Y6629999D01*
X2999999D01*
Y6561000D01*
X3100000D01*
Y6629999D01*
X3150000D01*
Y6561000D01*
X3250000D01*
Y6629999D01*
X3300000D01*
Y6561000D01*
X3400000D01*
Y6629999D01*
X3450000D01*
Y6561000D01*
X3475000D01*
Y6451275D01*
X3449362Y6425637D01*
X3441503Y6413874D01*
X3438742Y6399999D01*
X3438743Y6399998D01*
Y6244865D01*
X3415399Y6239900D01*
X3415399Y6239900D01*
X3415399Y6239900D01*
X3375437D01*
X3368647Y6265300D01*
X3371966Y6268619D01*
X3380400Y6288980D01*
Y6311020D01*
X3371966Y6331382D01*
X3356381Y6346966D01*
X3336020Y6355400D01*
X3313980D01*
X3293619Y6346966D01*
X3291593Y6344941D01*
X3275000Y6333478D01*
X3258406Y6344941D01*
X3256381Y6346966D01*
X3236020Y6355400D01*
X3213980D01*
X3193618Y6346966D01*
X3178034Y6331382D01*
X3169600Y6311020D01*
Y6288980D01*
X3178034Y6268619D01*
X3181353Y6265300D01*
X3174564Y6239900D01*
X3134600D01*
Y6234820D01*
X3134595D01*
Y6172000D01*
X3125000D01*
Y6161840D01*
X3089679D01*
Y6145160D01*
X2956346D01*
Y6392500D01*
X2953389Y6407366D01*
X2944968Y6419969D01*
X2927469Y6437468D01*
X2914866Y6445889D01*
X2900000Y6448846D01*
X2725000D01*
Y6700000D01*
X2871014D01*
X2896000Y6698999D01*
D02*
G37*
G36*
X7330440Y5860000D02*
X6500000D01*
Y5945000D01*
X6570000D01*
Y6049999D01*
X6595000D01*
Y6074999D01*
X6692500D01*
Y6154999D01*
X6711687Y6170000D01*
X6771153D01*
Y6130000D01*
X6774110Y6115134D01*
X6782531Y6102531D01*
X6812531Y6072531D01*
X6825134Y6064111D01*
X6840000Y6061153D01*
X6924100D01*
Y5998600D01*
X7066500D01*
Y5994000D01*
X7123500D01*
Y6075000D01*
Y6156000D01*
X7096760D01*
Y6189500D01*
X7131400D01*
Y6275000D01*
X7156400D01*
Y6300000D01*
X7230900D01*
Y6360500D01*
X7250294Y6375000D01*
X7330440D01*
Y5860000D01*
D02*
G37*
G36*
X4275000Y5409623D02*
X4275000Y5409623D01*
X4274999Y5400000D01*
X4296000Y5389377D01*
X4296000Y5374600D01*
Y5355000D01*
X4374999D01*
Y5330000D01*
X4399999D01*
Y5261000D01*
X4445600D01*
X4471000Y5261000D01*
X4479400Y5261000D01*
X4524999D01*
Y5330000D01*
X4574999D01*
Y5261000D01*
X4620600D01*
X4646000Y5261000D01*
X4654400Y5261000D01*
X4699999D01*
Y5330000D01*
X4749999D01*
Y5261000D01*
X4795600D01*
X4821000Y5261000D01*
X4829400Y5261000D01*
X4875000D01*
Y5330000D01*
X4900000D01*
Y5355000D01*
X4979000D01*
X4979000Y5398999D01*
X5003985Y5400000D01*
X5125000D01*
Y5230000D01*
X4261818D01*
X3902972Y5394471D01*
X3907820Y5416680D01*
X3907819D01*
Y5441840D01*
X3844999D01*
Y5462160D01*
X3907819D01*
Y5491839D01*
X3844999D01*
Y5511594D01*
X3907819D01*
Y5511600D01*
X3912899D01*
Y5513153D01*
X4202000D01*
Y5512941D01*
X4231003Y5516760D01*
X4250898Y5525000D01*
X4275000D01*
Y5409623D01*
D02*
G37*
G36*
X4224545Y5220000D02*
X5125000D01*
Y5025000D01*
X4997584D01*
X4977904Y5050400D01*
X4979000Y5056000D01*
X4979000Y5072894D01*
Y5100000D01*
X4900000D01*
Y5125000D01*
X4875000D01*
Y5194000D01*
X4829400D01*
X4804000Y5194000D01*
X4795600Y5194000D01*
X4750000D01*
Y5125000D01*
X4700000D01*
Y5194000D01*
X4654400D01*
X4629000Y5194000D01*
X4620600Y5194000D01*
X4575000D01*
Y5125000D01*
X4525000D01*
Y5194000D01*
X4479400D01*
X4454000Y5194000D01*
X4445600Y5194000D01*
X4400000D01*
Y5125000D01*
X4375000D01*
Y5100000D01*
X4296000D01*
Y5072895D01*
X4296000Y5056000D01*
X4297097Y5050400D01*
X4277416Y5025000D01*
X4130000D01*
Y5200000D01*
X3802109D01*
X3799466Y5206382D01*
X3783881Y5221966D01*
X3763520Y5230400D01*
X3752037D01*
X3713846Y5268591D01*
Y5314100D01*
X3715399D01*
Y5319180D01*
X3715405D01*
Y5382000D01*
X3735159D01*
Y5319180D01*
X3764840D01*
Y5382000D01*
X3775000D01*
Y5392160D01*
X3819393D01*
X3831697Y5400055D01*
X4224545Y5220000D01*
D02*
G37*
G36*
X6690360Y5502740D02*
X6685000D01*
Y5425000D01*
X6660000D01*
Y5400000D01*
X6600040D01*
Y5347261D01*
X6600040D01*
Y5337259D01*
X6600040D01*
Y5284520D01*
X6660000D01*
Y5259520D01*
X6685000D01*
Y5181780D01*
X6690360D01*
Y5150000D01*
X6325000D01*
Y5550000D01*
X6690360D01*
Y5502740D01*
D02*
G37*
G36*
X7375000Y3200000D02*
Y2860000D01*
X7270898D01*
X7268927Y2869911D01*
X7263313Y2878313D01*
X7254911Y2883926D01*
X7245000Y2885898D01*
X6382065D01*
X6377208Y2884932D01*
X6377207Y2884931D01*
X6372343Y2884004D01*
X6363636Y2891862D01*
X6356917Y2901917D01*
X6346862Y2908636D01*
X6335000Y2910996D01*
X6320199D01*
Y2875000D01*
X6294799D01*
Y2910996D01*
X6280000D01*
X6270000Y2919202D01*
Y3030000D01*
X6750000D01*
Y3375000D01*
X7375000D01*
Y3200000D01*
D02*
G37*
G36*
X5845000Y2919999D02*
X5845000Y2901105D01*
Y2850000D01*
X5950000D01*
X6056371D01*
X6057500Y2861000D01*
X6108603Y2861000D01*
X6114446Y2854704D01*
X6123945Y2837700D01*
X6182500D01*
Y2812300D01*
X6125536D01*
X6126364Y2808138D01*
X6131802Y2800000D01*
X6126364Y2791862D01*
X6125536Y2787700D01*
X6200000D01*
Y2762300D01*
X6125536D01*
X6126364Y2758139D01*
X6133083Y2748083D01*
X6143139Y2741364D01*
X6155000Y2739004D01*
X6156505Y2730000D01*
Y2686000D01*
X5450000D01*
X5450000Y2925000D01*
X5821671D01*
X5845000Y2919999D01*
D02*
G37*
G36*
X7245000Y2250000D02*
X6720000D01*
Y2549600D01*
X6720001Y2549999D01*
X6720921D01*
X6720921Y2575000D01*
X6719034Y2575000D01*
X6719034Y2575000D01*
X6476539D01*
Y2754997D01*
X6380146Y2787128D01*
X6363636Y2808139D01*
X6364464Y2812300D01*
X6307499D01*
Y2837700D01*
X6366870D01*
X6376682Y2854701D01*
X6382065Y2860000D01*
X7245000D01*
Y2250000D01*
D02*
G37*
G36*
X7942628Y57372D02*
X5425000Y57372D01*
Y780607D01*
X5428277Y785052D01*
X5450000Y799102D01*
X5760128D01*
X5765887Y792991D01*
X5776724Y773702D01*
X5775243Y766260D01*
X5775243Y766259D01*
Y667160D01*
X5735100D01*
Y524760D01*
X5730500D01*
Y467760D01*
X5811500D01*
X5892500D01*
Y524760D01*
X5887900D01*
Y667160D01*
X5847757D01*
Y751242D01*
X5851518Y755003D01*
X5997620D01*
X5997621Y755003D01*
X6011151Y734308D01*
X6013246Y719280D01*
X5985863Y691897D01*
X5978003Y680135D01*
X5975243Y666260D01*
X5957443Y650660D01*
X5937100D01*
Y538754D01*
X5932500Y515260D01*
X5932500Y498365D01*
Y471260D01*
X6011501D01*
X6090500D01*
Y498365D01*
X6090500Y515260D01*
X6085900Y538754D01*
Y628164D01*
X6111300Y638685D01*
X6135100Y614885D01*
Y524760D01*
X6130500D01*
Y467760D01*
X6211500D01*
X6292500D01*
Y524760D01*
X6287900D01*
Y553503D01*
X6335100D01*
Y512360D01*
Y365360D01*
X6359705D01*
Y338500D01*
X6363647Y318679D01*
X6374875Y301875D01*
X6399429Y277321D01*
X6403034Y268618D01*
X6418619Y253034D01*
X6438980Y244600D01*
X6461020D01*
X6481382Y253034D01*
X6496966Y268618D01*
X6505400Y288980D01*
Y311020D01*
X6496966Y331381D01*
X6488245Y340103D01*
X6487900Y365360D01*
X6487900Y365360D01*
Y512360D01*
Y667160D01*
X6335100D01*
Y626017D01*
X6287900D01*
Y667160D01*
X6185375D01*
X6148757Y703778D01*
Y862745D01*
X6150995Y874000D01*
Y918999D01*
X6164362Y930364D01*
X6174417Y937083D01*
X6181136Y947138D01*
X6208097Y955605D01*
X6292141Y927590D01*
Y756257D01*
X6294112Y746346D01*
X6299726Y737944D01*
X6308128Y732330D01*
X6318039Y730359D01*
X6948039D01*
X6957949Y732330D01*
X6966351Y737944D01*
X6971965Y746346D01*
X6973936Y756257D01*
Y1024102D01*
X7100000D01*
X7109911Y1026074D01*
X7118312Y1031688D01*
X7123926Y1040089D01*
X7125898Y1050000D01*
Y1353102D01*
X7482869D01*
X7489902Y1343411D01*
X7495328Y1327702D01*
X7481189Y1303213D01*
X7474701Y1279000D01*
X7600000D01*
X7725299D01*
X7718811Y1303213D01*
X7704672Y1327702D01*
X7710098Y1343411D01*
X7717131Y1353102D01*
X7825000D01*
X7834911Y1355074D01*
X7843312Y1360688D01*
X7848926Y1369089D01*
X7850898Y1379000D01*
Y2029000D01*
X7848926Y2038911D01*
X7843312Y2047312D01*
X7834911Y2052926D01*
X7825000Y2054898D01*
X7141720D01*
X7141266Y2054807D01*
X7140810Y2054882D01*
X7136328Y2053825D01*
X7131809Y2052926D01*
X7131425Y2052670D01*
X7130975Y2052564D01*
X7127238Y2049872D01*
X7123407Y2047312D01*
X7123151Y2046928D01*
X7122776Y2046658D01*
X7116958Y2040416D01*
X7115321Y2037770D01*
X7113301Y2035404D01*
X7107183Y2024469D01*
X7100000Y2025898D01*
X6725000D01*
X6715089Y2023926D01*
X6706688Y2018312D01*
X6701074Y2009911D01*
X6699102Y2000000D01*
Y1655898D01*
X6075000D01*
X6065089Y1653926D01*
X6056687Y1648312D01*
X6051073Y1639911D01*
X6049102Y1630000D01*
X6049102Y1175000D01*
Y1119447D01*
X6042619Y1111360D01*
X6034980Y1103756D01*
X6030400Y1100764D01*
X6030200Y1100686D01*
Y1064000D01*
X6004800D01*
Y1099996D01*
X5972500D01*
X5960639Y1097636D01*
X5950583Y1090917D01*
X5943864Y1080862D01*
X5938564Y1079771D01*
X5934758Y1080152D01*
X5931008Y1080898D01*
X5870203D01*
X5855000Y1100001D01*
Y1170000D01*
X5750000D01*
Y1195000D01*
X5725000D01*
Y1290000D01*
X5675897D01*
Y1325000D01*
X5673926Y1334910D01*
X5668312Y1343312D01*
X5659910Y1348926D01*
X5650000Y1350897D01*
X5450000D01*
X5428277Y1364947D01*
X5425000Y1369392D01*
Y2641608D01*
X5428277Y2646053D01*
X5450000Y2660103D01*
X5984686D01*
X5987188Y2634703D01*
X5981126Y2633497D01*
X5969363Y2625637D01*
X5944363Y2600637D01*
X5936504Y2588875D01*
X5933744Y2575000D01*
X5933744Y2574999D01*
Y2475900D01*
X5893601D01*
Y2333500D01*
X5889001D01*
Y2276499D01*
X5970001D01*
X6051000D01*
Y2333500D01*
X6046400D01*
Y2475900D01*
X6006257D01*
Y2559982D01*
X6010019Y2563743D01*
X6144999D01*
X6145001Y2563743D01*
X6158875Y2566503D01*
X6170638Y2574362D01*
X6171095Y2574819D01*
X6198071Y2565874D01*
X6199540Y2555814D01*
X6144363Y2500637D01*
X6136504Y2488875D01*
X6133744Y2475000D01*
X6115944Y2459400D01*
X6095601D01*
Y2347494D01*
X6091001Y2324000D01*
X6091001Y2307105D01*
Y2280000D01*
X6170000D01*
X6249000D01*
Y2307105D01*
X6249001Y2324000D01*
X6244401Y2347494D01*
Y2439502D01*
X6267917Y2447379D01*
X6269801Y2447425D01*
X6293601Y2423625D01*
Y2333500D01*
X6289001D01*
Y2276499D01*
X6370001D01*
X6451000D01*
Y2333500D01*
X6446400D01*
Y2362243D01*
X6493601D01*
Y2321100D01*
Y2174100D01*
X6518205D01*
X6522148Y2154279D01*
X6533376Y2137475D01*
X6569976Y2100875D01*
X6586779Y2089647D01*
X6606600Y2085704D01*
X6606602Y2085705D01*
X6810277D01*
X6818980Y2082100D01*
X6841020D01*
X6861382Y2090534D01*
X6876966Y2106118D01*
X6885400Y2126480D01*
Y2148520D01*
X6876966Y2168881D01*
X6861382Y2184466D01*
X6841020Y2192900D01*
X6818980D01*
X6810277Y2189295D01*
X6646400D01*
Y2321100D01*
Y2475900D01*
X6493601D01*
Y2434757D01*
X6446400D01*
Y2475900D01*
X6343876D01*
X6331257Y2488519D01*
Y2673745D01*
X6333495Y2685000D01*
Y2730000D01*
X6346862Y2741364D01*
X6356917Y2748083D01*
X6363636Y2758138D01*
X6389266Y2756789D01*
X6450642Y2736331D01*
Y2575000D01*
X6452613Y2565089D01*
X6458227Y2556687D01*
X6466629Y2551073D01*
X6476539Y2549102D01*
X6694103D01*
Y2250000D01*
X6696074Y2240089D01*
X6701688Y2231687D01*
X6710090Y2226074D01*
X6720000Y2224102D01*
X7245000D01*
X7254911Y2226074D01*
X7263313Y2231687D01*
X7268927Y2240089D01*
X7270898Y2250000D01*
Y2834102D01*
X7375000D01*
X7384911Y2836073D01*
X7393312Y2841687D01*
X7398926Y2850089D01*
X7400898Y2860000D01*
Y3200000D01*
X7942628D01*
Y57372D01*
D02*
G37*
G36*
X7100000Y1923833D02*
X7074600Y1904541D01*
X7068170Y1905800D01*
X7062935Y1905800D01*
X7009831D01*
Y1825000D01*
Y1744200D01*
X7062935D01*
X7068170Y1744200D01*
X7074600Y1745459D01*
X7100000Y1726167D01*
Y1650000D01*
X6725000D01*
Y2000000D01*
X7100000D01*
Y1923833D01*
D02*
G37*
G36*
X7825000Y1379000D02*
X7682365D01*
X7675559Y1404400D01*
X7678287Y1405975D01*
X7702025Y1429713D01*
X7718811Y1458787D01*
X7725299Y1483000D01*
X7600000D01*
X7474701D01*
X7481189Y1458787D01*
X7497975Y1429713D01*
X7521713Y1405975D01*
X7524441Y1404400D01*
X7517635Y1379000D01*
X7125898D01*
Y1624102D01*
X7123926Y1634013D01*
X7121896Y1637051D01*
X7123926Y1640089D01*
X7125898Y1650000D01*
Y1726166D01*
X7136664Y1737595D01*
X7140171Y1740119D01*
Y1825000D01*
Y1909881D01*
X7136664Y1912405D01*
X7125898Y1923833D01*
Y2000000D01*
X7125182Y2003600D01*
X7135902Y2022758D01*
X7141720Y2029000D01*
X7825000D01*
Y1379000D01*
D02*
G37*
G36*
X6715089Y1626074D02*
X6725000Y1624102D01*
X7100000D01*
Y1050000D01*
X6969404D01*
X6966351Y1054569D01*
X6957949Y1060183D01*
X6948039Y1062154D01*
X6900000D01*
Y1362140D01*
X6425000D01*
Y1062154D01*
X6205755D01*
X6194437Y1065635D01*
X6186296Y1073606D01*
X6181136Y1080861D01*
X6174417Y1090917D01*
X6164362Y1097636D01*
X6152500Y1099996D01*
X6137699D01*
Y1064000D01*
X6112299D01*
Y1099996D01*
X6097500D01*
X6075572Y1118274D01*
X6075000Y1119446D01*
Y1175000D01*
X6075000Y1630000D01*
X6709213D01*
X6715089Y1626074D01*
D02*
G37*
G36*
X6948039Y756257D02*
X6318039D01*
Y946256D01*
X6183165Y991215D01*
X6181136Y997138D01*
X6181964Y1001300D01*
X6124999D01*
Y1026700D01*
X6193428D01*
X6205754Y1036256D01*
X6425000D01*
Y1021780D01*
X6900000D01*
Y1036256D01*
X6948039D01*
Y756257D01*
D02*
G37*
G36*
X5650000Y1285400D02*
X5649600D01*
Y1123495D01*
X5645000Y1100000D01*
X5645000Y1099999D01*
Y1030000D01*
X5750000D01*
X5855000D01*
Y1055000D01*
X5931008D01*
X5943864Y1030861D01*
X5943036Y1026700D01*
X6000000D01*
Y1001300D01*
X5943036D01*
X5943864Y997138D01*
X5949302Y989000D01*
X5943864Y980861D01*
X5943036Y976700D01*
X6017500D01*
Y951300D01*
X5943036D01*
X5943864Y947138D01*
X5950583Y937083D01*
X5960639Y930364D01*
X5972500Y928004D01*
X5974005Y918999D01*
Y874000D01*
X5975000Y868996D01*
Y827517D01*
X5836501D01*
X5836500Y827517D01*
X5823848Y825000D01*
X5450000D01*
X5450000Y1100000D01*
Y1325000D01*
X5650000D01*
Y1285400D01*
D02*
G37*
%LPC*%
G36*
X834999Y7304000D02*
X791000D01*
Y7249999D01*
X834999D01*
Y7304000D01*
D02*
G37*
G36*
X2409999Y7229000D02*
X2366000D01*
Y7175000D01*
X2409999D01*
Y7229000D01*
D02*
G37*
G36*
X834999Y7200000D02*
X791000D01*
Y7146000D01*
X834999D01*
Y7200000D01*
D02*
G37*
G36*
X2409999Y7125000D02*
X2366000D01*
Y7071000D01*
X2409999D01*
Y7125000D01*
D02*
G37*
G36*
X2405000Y6979000D02*
X2361000D01*
Y6924999D01*
X2405000D01*
Y6979000D01*
D02*
G37*
G36*
Y6874999D02*
X2361000D01*
Y6821000D01*
X2405000D01*
Y6874999D01*
D02*
G37*
G36*
X2505000Y6354000D02*
X2461000D01*
Y6300000D01*
X2505000D01*
Y6354000D01*
D02*
G37*
G36*
Y6099999D02*
X2461000D01*
Y6046000D01*
X2505000D01*
Y6099999D01*
D02*
G37*
G36*
X2200600Y5921560D02*
X2147340D01*
Y5881000D01*
X2200600D01*
Y5921560D01*
D02*
G37*
G36*
X2097340D02*
X2044080D01*
Y5881000D01*
X2097340D01*
Y5921560D01*
D02*
G37*
G36*
X2200600Y5831000D02*
X2147340D01*
Y5790440D01*
X2200600D01*
Y5831000D01*
D02*
G37*
G36*
X2097340D02*
X2044080D01*
Y5790440D01*
X2097340D01*
Y5831000D01*
D02*
G37*
G36*
X1795000Y5770000D02*
X1750000D01*
Y5695000D01*
X1795000D01*
Y5770000D01*
D02*
G37*
G36*
X1545000D02*
X1500000D01*
Y5695000D01*
X1545000D01*
Y5770000D01*
D02*
G37*
G36*
X1700000D02*
X1655000D01*
Y5695000D01*
X1700000D01*
Y5770000D01*
D02*
G37*
G36*
X1450000D02*
X1405000D01*
Y5695000D01*
X1450000D01*
Y5770000D01*
D02*
G37*
G36*
X2200600Y5667560D02*
X2147340D01*
Y5627000D01*
X2200600D01*
Y5667560D01*
D02*
G37*
G36*
X2097340D02*
X2044080D01*
Y5627000D01*
X2097340D01*
Y5667560D01*
D02*
G37*
G36*
X2200600Y5577000D02*
X2147340D01*
Y5536440D01*
X2200600D01*
Y5577000D01*
D02*
G37*
G36*
X2097340D02*
X2044080D01*
Y5536440D01*
X2097340D01*
Y5577000D01*
D02*
G37*
G36*
X1795000Y5645000D02*
X1725000D01*
X1655000D01*
Y5570001D01*
X1714207D01*
X1720000Y5547000D01*
X1720000Y5544600D01*
Y5502000D01*
X1819999D01*
X1919999D01*
Y5547000D01*
X1800793D01*
X1795000Y5570001D01*
X1795000Y5572400D01*
Y5645000D01*
D02*
G37*
G36*
X1545000D02*
X1475000D01*
X1405000D01*
Y5572400D01*
Y5571999D01*
D01*
Y5502000D01*
X1480000D01*
Y5544600D01*
X1480000Y5547000D01*
X1485793Y5570001D01*
X1545000D01*
Y5645000D01*
D02*
G37*
G36*
X1355000Y5547000D02*
X1280000D01*
Y5502000D01*
X1355000D01*
Y5547000D01*
D02*
G37*
G36*
X4925000Y5539000D02*
Y5494999D01*
X4979000D01*
Y5539000D01*
X4925000D01*
D02*
G37*
G36*
X405000Y5555000D02*
X335000D01*
Y5475000D01*
X405000D01*
Y5555000D01*
D02*
G37*
G36*
X6055000Y5530000D02*
X5975000D01*
Y5457500D01*
X6055000D01*
Y5530000D01*
D02*
G37*
G36*
X5925000D02*
X5845000D01*
Y5457500D01*
X5925000D01*
Y5530000D01*
D02*
G37*
G36*
X405000Y5425000D02*
X335000D01*
Y5345000D01*
X405000D01*
Y5425000D01*
D02*
G37*
G36*
X1919999Y5452000D02*
X1819999D01*
X1720000D01*
Y5407000D01*
X1724600D01*
Y5293000D01*
X1720000D01*
Y5248000D01*
X1819999D01*
X1919999D01*
Y5293000D01*
X1915400D01*
Y5318931D01*
X2048680D01*
Y5287040D01*
X2196000D01*
Y5408960D01*
X2048680D01*
Y5381070D01*
X1915400D01*
Y5407000D01*
X1919999D01*
Y5452000D01*
D02*
G37*
G36*
X430000Y5304000D02*
X386000D01*
Y5250000D01*
X430000D01*
Y5304000D01*
D02*
G37*
G36*
X6884960Y5234520D02*
X6850001D01*
Y5181780D01*
X6884960D01*
Y5234520D01*
D02*
G37*
G36*
X1355000Y5198000D02*
X1280000D01*
Y5153000D01*
X1355000D01*
Y5198000D01*
D02*
G37*
G36*
X430000Y5200000D02*
X386000D01*
Y5146000D01*
X430000D01*
Y5200000D01*
D02*
G37*
G36*
X1919999Y5198000D02*
X1819999D01*
X1720000D01*
Y5155400D01*
X1720000Y5153000D01*
X1714207Y5130000D01*
X1655000D01*
Y5055000D01*
X1795000D01*
Y5127600D01*
X1795000Y5130000D01*
X1800793Y5153000D01*
X1919999D01*
Y5198000D01*
D02*
G37*
G36*
X1480000Y5198000D02*
X1405000D01*
Y5128001D01*
D01*
Y5127600D01*
Y5055000D01*
X1545000D01*
Y5130000D01*
X1485793D01*
X1480000Y5153000D01*
X1480000Y5155400D01*
Y5198000D01*
D02*
G37*
G36*
X2130000Y5079000D02*
X2086000D01*
Y5025000D01*
X2130000D01*
Y5079000D01*
D02*
G37*
G36*
X1795000Y5005000D02*
X1750000D01*
Y4930000D01*
X1795000D01*
Y5005000D01*
D02*
G37*
G36*
X1700000D02*
X1655000D01*
Y4930000D01*
X1700000D01*
Y5005000D01*
D02*
G37*
G36*
X1545000D02*
X1500000D01*
Y4930000D01*
X1545000D01*
Y5005000D01*
D02*
G37*
G36*
X1450000D02*
X1405000D01*
Y4930000D01*
X1450000D01*
Y5005000D01*
D02*
G37*
G36*
X2130000Y4975000D02*
X2086000D01*
Y4921000D01*
X2130000D01*
Y4975000D01*
D02*
G37*
G36*
X3054000Y4955000D02*
X3000000D01*
Y4911000D01*
X3054000D01*
Y4955000D01*
D02*
G37*
G36*
X2775000D02*
X2721000D01*
Y4911000D01*
X2775000D01*
Y4955000D01*
D02*
G37*
G36*
X4800900Y4726400D02*
X4499100D01*
Y4701387D01*
X4455244D01*
X4446296Y4710335D01*
X4429103Y4720262D01*
X4409926Y4725400D01*
X4390073D01*
X4370897Y4720262D01*
X4353703Y4710335D01*
X4339665Y4696297D01*
X4329738Y4679103D01*
X4324600Y4659927D01*
Y4640074D01*
X4329738Y4620897D01*
X4339665Y4603704D01*
X4353703Y4589665D01*
X4370897Y4579738D01*
X4390073Y4574600D01*
X4409926D01*
X4429103Y4579738D01*
X4446296Y4589665D01*
X4455244Y4598613D01*
X4499100D01*
Y4573600D01*
X4672113D01*
Y4290400D01*
X4649600D01*
Y4109600D01*
X4810400D01*
Y4290400D01*
X4774887D01*
Y4573600D01*
X4800900D01*
Y4726400D01*
D02*
G37*
G36*
X6781400Y4725650D02*
Y4600000D01*
X6918480D01*
Y4725650D01*
X6781400D01*
D02*
G37*
G36*
X530000Y4605000D02*
X460000D01*
Y4525000D01*
X530000D01*
Y4605000D01*
D02*
G37*
G36*
X6918480Y4550000D02*
X6781400D01*
Y4424350D01*
X6918480D01*
Y4550000D01*
D02*
G37*
G36*
X530000Y4475000D02*
X460000D01*
Y4395000D01*
X530000D01*
Y4475000D01*
D02*
G37*
G36*
X5369539Y4415000D02*
X5289540D01*
Y4380000D01*
X5250000D01*
X5249539Y4405209D01*
Y4415000D01*
X5169539D01*
Y4320000D01*
X5144539D01*
Y4295000D01*
X5039540D01*
Y4268858D01*
X5021579Y4250897D01*
X5014140Y4250898D01*
X4950000D01*
X4940089Y4248926D01*
X4931688Y4243312D01*
X4926074Y4234911D01*
X4924102Y4225000D01*
Y3850000D01*
X4926074Y3840089D01*
X4931688Y3831688D01*
X4940089Y3826074D01*
X4950000Y3824102D01*
X5555930D01*
Y3810910D01*
X5646020D01*
Y3862500D01*
X5696020D01*
Y3810910D01*
X5786110D01*
Y3852760D01*
X5869540D01*
Y4025000D01*
Y4197240D01*
X5781990D01*
X5781510Y4222441D01*
Y4234490D01*
X5683829D01*
X5680931Y4236426D01*
X5671020Y4238398D01*
X5577527D01*
X5574243Y4243312D01*
X5565841Y4248926D01*
X5555930Y4250898D01*
X5517500Y4250897D01*
X5499539Y4268858D01*
Y4295000D01*
X5394539D01*
Y4320000D01*
X5369539D01*
Y4415000D01*
D02*
G37*
G36*
X5499539D02*
X5419539D01*
Y4345000D01*
X5499539D01*
Y4415000D01*
D02*
G37*
G36*
X5119539D02*
X5039540D01*
Y4345000D01*
X5119539D01*
Y4415000D01*
D02*
G37*
G36*
X710000Y4337499D02*
X690000D01*
Y4310000D01*
X710000D01*
Y4337499D01*
D02*
G37*
G36*
X690000Y5925897D02*
X525000D01*
X515089Y5923926D01*
X506688Y5918312D01*
X501074Y5909910D01*
X499102Y5900000D01*
Y5580400D01*
X499103Y5572961D01*
X481142Y5555000D01*
X455000D01*
Y5450000D01*
Y5345000D01*
X483920D01*
X489497Y5342643D01*
X491778Y5341193D01*
X501017Y5324956D01*
X486459Y5304000D01*
X480000D01*
Y5225000D01*
Y5146000D01*
X481751D01*
X499349Y5127684D01*
X499123Y5122051D01*
X499205Y5121531D01*
X499102Y5121014D01*
Y4975000D01*
X501074Y4965089D01*
X506688Y4956688D01*
X515089Y4951074D01*
X525000Y4949102D01*
X624102D01*
Y4630400D01*
X624103Y4622961D01*
X606142Y4605000D01*
X580000D01*
Y4500000D01*
Y4395000D01*
X650000D01*
Y4395000D01*
X654600Y4399600D01*
X792025D01*
X814544Y4390238D01*
X815548Y4387734D01*
X816074Y4385089D01*
X817410Y4383090D01*
X818304Y4380859D01*
X829102Y4364292D01*
Y4337499D01*
X825000D01*
Y4332904D01*
X824595D01*
Y4285000D01*
X775000D01*
Y4337499D01*
X760000D01*
Y4285000D01*
X735000D01*
Y4260000D01*
X690000D01*
Y4232500D01*
Y4212500D01*
X800000D01*
X910000D01*
Y4224102D01*
X910000Y4224102D01*
X1100000D01*
X1109910Y4226074D01*
X1124430Y4215796D01*
X1135592Y4199092D01*
X1171091Y4163592D01*
X1187796Y4152430D01*
X1207500Y4148511D01*
X1539600D01*
Y4109600D01*
X1700400D01*
Y4290400D01*
X1539600D01*
Y4251489D01*
X1228828D01*
X1223489Y4256827D01*
Y4423600D01*
X1250900D01*
Y4576400D01*
X1129673D01*
X1125898Y4581000D01*
Y4775000D01*
X1123926Y4784911D01*
X1118312Y4793312D01*
X1109911Y4798926D01*
X1100000Y4800898D01*
X860698D01*
Y5588497D01*
X860497Y5589506D01*
Y5610494D01*
X860698Y5611503D01*
Y5645000D01*
X858727Y5654910D01*
X853113Y5663312D01*
X845400Y5668466D01*
Y5900400D01*
X715818D01*
X713926Y5909910D01*
X708313Y5918312D01*
X699911Y5923926D01*
X690000Y5925897D01*
D02*
G37*
G36*
X6765000Y4355000D02*
X6695001D01*
Y4275000D01*
X6765000D01*
Y4355000D01*
D02*
G37*
G36*
X1915000Y4295000D02*
X1855000D01*
Y4225000D01*
X1915000D01*
Y4295000D01*
D02*
G37*
G36*
X1805000D02*
X1745000D01*
Y4225000D01*
X1805000D01*
Y4295000D01*
D02*
G37*
G36*
X4605000D02*
X4545000D01*
Y4224999D01*
X4605000D01*
Y4295000D01*
D02*
G37*
G36*
X4495000D02*
X4435000D01*
Y4224999D01*
X4495000D01*
Y4295000D01*
D02*
G37*
G36*
X6560000Y5075898D02*
X5990000D01*
X5980089Y5073926D01*
X5971688Y5068312D01*
X5966074Y5059911D01*
X5964102Y5050000D01*
Y4259117D01*
X5964564Y4256796D01*
X5964530Y4254430D01*
X5965540Y4251889D01*
X5966074Y4249207D01*
X5967389Y4247239D01*
X5968263Y4245040D01*
X5981233Y4225012D01*
X5983139Y4223051D01*
X5983413Y4222640D01*
X5978878Y4202669D01*
X5975499Y4197240D01*
X5919540D01*
Y4025000D01*
Y3852760D01*
X6007090D01*
X6007570Y3827559D01*
Y3815510D01*
X6228550D01*
Y3823654D01*
X6304000D01*
X6304738Y3820897D01*
X6314665Y3803703D01*
X6328703Y3789665D01*
X6345897Y3779738D01*
X6365073Y3774600D01*
X6384927D01*
X6404103Y3779738D01*
X6421297Y3789665D01*
X6435335Y3803703D01*
X6465308Y3804817D01*
X6469000Y3802282D01*
Y3719500D01*
X6525000D01*
Y3801501D01*
X6550000D01*
Y3826501D01*
X6631000D01*
Y3859103D01*
X6823371D01*
X6845000Y3849999D01*
X6845000Y3831105D01*
Y3780000D01*
X6950000D01*
X7055000D01*
Y3831105D01*
X7055000Y3849999D01*
X7076629Y3859103D01*
X7125000D01*
X7134911Y3861074D01*
X7143312Y3866688D01*
X7148926Y3875090D01*
X7150898Y3885000D01*
Y4090000D01*
X7148926Y4099911D01*
X7143312Y4108312D01*
X7134911Y4113926D01*
X7125000Y4115898D01*
X6585898D01*
Y4145000D01*
X6645001D01*
Y4250000D01*
Y4355000D01*
X6585898D01*
Y4402438D01*
X6594320Y4424350D01*
X6611298Y4424350D01*
X6731400D01*
Y4575000D01*
Y4725650D01*
X6611298D01*
X6594320Y4725650D01*
X6585898Y4747561D01*
Y5050000D01*
X6583926Y5059911D01*
X6578312Y5068312D01*
X6569911Y5073926D01*
X6560000Y5075898D01*
D02*
G37*
G36*
X6765000Y4225000D02*
X6695001D01*
Y4145000D01*
X6765000D01*
Y4225000D01*
D02*
G37*
G36*
X4605000Y4175000D02*
X4545000D01*
Y4105000D01*
X4605000D01*
Y4175000D01*
D02*
G37*
G36*
X4495000D02*
X4435000D01*
Y4105000D01*
X4495000D01*
Y4175000D01*
D02*
G37*
G36*
X1915000Y4175000D02*
X1855000D01*
Y4105000D01*
X1915000D01*
Y4175000D01*
D02*
G37*
G36*
X1805000D02*
X1745000D01*
Y4105000D01*
X1805000D01*
Y4175000D01*
D02*
G37*
G36*
X1240000Y3930000D02*
X1170000D01*
Y3850000D01*
X1240000D01*
Y3930000D01*
D02*
G37*
G36*
X505000Y3904000D02*
X461000D01*
Y3850000D01*
X505000D01*
Y3904000D01*
D02*
G37*
G36*
Y3800000D02*
X461000D01*
Y3746000D01*
X505000D01*
Y3800000D01*
D02*
G37*
G36*
X1240000Y3800001D02*
X1170000D01*
Y3720000D01*
X1240000D01*
Y3800001D01*
D02*
G37*
G36*
X6631000Y3776501D02*
X6575000D01*
Y3719500D01*
X6631000D01*
Y3776501D01*
D02*
G37*
G36*
X7055000Y3730000D02*
X6975000D01*
Y3660000D01*
X7055000D01*
Y3730000D01*
D02*
G37*
G36*
X6925000D02*
X6845000D01*
Y3660000D01*
X6925000D01*
Y3730000D01*
D02*
G37*
G36*
X910000Y4162500D02*
X800000D01*
X690000D01*
Y4150897D01*
X625000D01*
X615089Y4148926D01*
X606688Y4143312D01*
X601074Y4134910D01*
X599102Y4125000D01*
Y4075000D01*
Y3929357D01*
X599000Y3904000D01*
X579473Y3904000D01*
X555000D01*
Y3825000D01*
Y3746000D01*
X573702D01*
X599000Y3746000D01*
X599102Y3720643D01*
Y3500000D01*
X601074Y3490089D01*
X606688Y3481687D01*
X615089Y3476074D01*
X625000Y3474102D01*
X1050000D01*
X1059911Y3476074D01*
X1068312Y3481687D01*
X1073926Y3490089D01*
X1075898Y3500000D01*
Y3694600D01*
X1075897Y3702039D01*
X1093858Y3720000D01*
X1120000D01*
Y3825000D01*
Y3930000D01*
X1093858D01*
X1075897Y3947961D01*
X1075898Y3955399D01*
Y4125000D01*
X1073926Y4134910D01*
X1068312Y4143312D01*
X1059911Y4148926D01*
X1050000Y4150897D01*
X910000D01*
X910000Y4150898D01*
Y4162500D01*
D02*
G37*
G36*
X6055000Y3110000D02*
X5974999D01*
Y3040000D01*
X6055000D01*
Y3110000D01*
D02*
G37*
G36*
X5925000D02*
X5845000D01*
Y3040000D01*
X5925000D01*
Y3110000D01*
D02*
G37*
G36*
X4041099Y2553400D02*
X3997999D01*
Y2478550D01*
X4041099D01*
Y2553400D01*
D02*
G37*
G36*
X2341100D02*
X2298000D01*
Y2478550D01*
X2341100D01*
Y2553400D01*
D02*
G37*
G36*
X3947999D02*
X3904899D01*
Y2478550D01*
X3947999D01*
Y2553400D01*
D02*
G37*
G36*
X2248000D02*
X2204900D01*
Y2478550D01*
X2248000D01*
Y2553400D01*
D02*
G37*
G36*
X4041099Y2428550D02*
X3997999D01*
Y2353700D01*
X4041099D01*
Y2428550D01*
D02*
G37*
G36*
X3947999D02*
X3904899D01*
Y2353700D01*
X3947999D01*
Y2428550D01*
D02*
G37*
G36*
X2341100D02*
X2298000D01*
Y2353700D01*
X2341100D01*
Y2428550D01*
D02*
G37*
G36*
X2248000D02*
X2204900D01*
Y2353700D01*
X2248000D01*
Y2428550D01*
D02*
G37*
G36*
X4390000Y2229000D02*
Y2175000D01*
X4434000D01*
Y2229000D01*
X4390000D01*
D02*
G37*
G36*
X2360000D02*
X2316000D01*
Y2175000D01*
X2360000D01*
Y2229000D01*
D02*
G37*
G36*
X4434000Y2125000D02*
X4390000D01*
Y2071000D01*
X4434000D01*
Y2125000D01*
D02*
G37*
G36*
X2360000Y2125000D02*
X2316000D01*
Y2071000D01*
X2360000D01*
Y2125000D01*
D02*
G37*
G36*
X4390000Y1579000D02*
Y1525000D01*
X4434000D01*
Y1579000D01*
X4390000D01*
D02*
G37*
G36*
X2360000D02*
X2316000D01*
Y1525000D01*
X2360000D01*
Y1579000D01*
D02*
G37*
G36*
X4434000Y1475000D02*
X4390000D01*
Y1421000D01*
X4434000D01*
Y1475000D01*
D02*
G37*
G36*
X2360000Y1475000D02*
X2316000D01*
Y1421000D01*
X2360000D01*
Y1475000D01*
D02*
G37*
G36*
X4390000Y979000D02*
Y925000D01*
X4434000D01*
Y979000D01*
X4390000D01*
D02*
G37*
G36*
X2360000D02*
X2316000D01*
Y925000D01*
X2360000D01*
Y979000D01*
D02*
G37*
G36*
X4454000Y700000D02*
X4397000D01*
Y644000D01*
X4454000D01*
Y700000D01*
D02*
G37*
G36*
X2353000D02*
X2296000D01*
Y644000D01*
X2353000D01*
Y700000D01*
D02*
G37*
%LPD*%
G36*
X5555930Y4212500D02*
X5671020D01*
Y4162500D01*
X5555930D01*
Y4147500D01*
X5671020D01*
Y4097500D01*
X5555930D01*
Y4082500D01*
X5671020D01*
Y4032500D01*
X5555930D01*
Y4017500D01*
X5671020D01*
Y3974495D01*
X5560525D01*
Y3967500D01*
X5555930D01*
Y3940910D01*
X5560530D01*
Y3850000D01*
X4950000D01*
Y4225000D01*
X5014140D01*
X5039540Y4224999D01*
X5039540Y4199600D01*
Y4155000D01*
X5144539D01*
Y4130000D01*
X5169539D01*
Y4035000D01*
X5249539D01*
Y4044790D01*
X5250000Y4070000D01*
X5289540Y4070000D01*
Y4035000D01*
X5369539D01*
Y4130000D01*
X5394539D01*
Y4155000D01*
X5499539D01*
Y4224999D01*
X5524939Y4225000D01*
X5555930D01*
Y4212500D01*
D02*
G37*
%LPC*%
G36*
X5499539Y4105000D02*
X5419539D01*
Y4035000D01*
X5499539D01*
Y4105000D01*
D02*
G37*
G36*
X5119539D02*
X5039540D01*
Y4035000D01*
X5119539D01*
Y4105000D01*
D02*
G37*
%LPD*%
G36*
X690000Y5800000D02*
X770000D01*
Y5775000D01*
X795000D01*
Y5645000D01*
X834800D01*
Y5611504D01*
X834600Y5611020D01*
Y5588980D01*
X834800Y5588496D01*
Y4775000D01*
X1100000D01*
Y4581000D01*
X1051501D01*
Y4500000D01*
Y4419000D01*
X1100000D01*
Y4250000D01*
X910000D01*
Y4260000D01*
X905405D01*
Y4262905D01*
X865000D01*
Y4310000D01*
X910000D01*
Y4337499D01*
X855000D01*
Y4375000D01*
X853036D01*
X840000Y4395000D01*
X840000Y4400400D01*
Y4475000D01*
X745000D01*
Y4500000D01*
X720000D01*
Y4605000D01*
X675400D01*
X650000Y4605000D01*
X650000Y4630400D01*
Y4975000D01*
X525000D01*
Y5121014D01*
X526000Y5146000D01*
X550400Y5146000D01*
X570000D01*
Y5225000D01*
Y5304000D01*
X544672Y5304000D01*
X532349Y5329400D01*
X543450Y5345000D01*
X595000D01*
Y5450000D01*
Y5555000D01*
X550400D01*
X525000Y5555000D01*
X525000Y5580400D01*
Y5900000D01*
X690000D01*
Y5800000D01*
D02*
G37*
%LPC*%
G36*
X745000Y5750000D02*
X690000D01*
Y5645000D01*
X745000D01*
Y5750000D01*
D02*
G37*
G36*
X645000Y5555000D02*
Y5475000D01*
X715000D01*
Y5555000D01*
X645000D01*
D02*
G37*
G36*
X715000Y5425000D02*
X645000D01*
Y5345000D01*
X715000D01*
Y5425000D01*
D02*
G37*
G36*
X620000Y5304000D02*
Y5250000D01*
X664000D01*
Y5304000D01*
X620000D01*
D02*
G37*
G36*
X664000Y5200000D02*
X620000D01*
Y5146000D01*
X664000D01*
Y5200000D01*
D02*
G37*
G36*
X1001501Y4581000D02*
X944500D01*
Y4525000D01*
X1001501D01*
Y4581000D01*
D02*
G37*
G36*
X770000Y4605000D02*
Y4525000D01*
X840000D01*
Y4605000D01*
X770000D01*
D02*
G37*
G36*
X1001501Y4475000D02*
X944500D01*
Y4419000D01*
X1001501D01*
Y4475000D01*
D02*
G37*
%LPD*%
G36*
X6560000Y4355000D02*
X6505000D01*
Y4250000D01*
Y4145000D01*
X6560000D01*
Y4110000D01*
X6400000D01*
Y4000000D01*
X6256102D01*
X6233150Y4005910D01*
Y4032500D01*
X6228555D01*
Y4039495D01*
X6118060D01*
Y4082500D01*
X6233150D01*
Y4097500D01*
X6118060D01*
Y4147500D01*
X6233150D01*
Y4162500D01*
X6118060D01*
Y4187500D01*
X6093060D01*
Y4239090D01*
X6002970D01*
X5990000Y4259117D01*
Y5050000D01*
X6560000D01*
Y4355000D01*
D02*
G37*
G36*
X7125000Y3885000D02*
X7055000D01*
Y3920000D01*
X6950000D01*
X6845000D01*
Y3885000D01*
X6631000D01*
Y3923501D01*
X6550000D01*
X6469000D01*
Y3885000D01*
X6441857D01*
X6435335Y3896296D01*
X6421297Y3910335D01*
X6404103Y3920262D01*
X6384927Y3925400D01*
X6365073D01*
X6345897Y3920262D01*
X6328703Y3910335D01*
X6319715Y3901347D01*
X6233150D01*
Y3902500D01*
X6228555D01*
Y3909495D01*
X6118060D01*
Y3945505D01*
X6228555D01*
Y3952500D01*
X6233150D01*
Y3956814D01*
X6243484Y3966191D01*
X6256103Y3974102D01*
X6400000D01*
X6404513Y3975000D01*
X6425000D01*
Y3995488D01*
X6425897Y4000000D01*
Y4084102D01*
X6560000D01*
X6569911Y4086074D01*
X6575787Y4090000D01*
X7125000D01*
Y3885000D01*
D02*
G37*
%LPC*%
G36*
X6512080Y4725650D02*
X6375000D01*
Y4600000D01*
X6512080D01*
Y4725650D01*
D02*
G37*
G36*
X6325000D02*
X6187920D01*
Y4600000D01*
X6325000D01*
Y4725650D01*
D02*
G37*
G36*
X6512080Y4550000D02*
X6375000D01*
Y4424350D01*
X6512080D01*
Y4550000D01*
D02*
G37*
G36*
X6325000D02*
X6187920D01*
Y4424350D01*
X6325000D01*
Y4550000D01*
D02*
G37*
G36*
X6455001Y4355000D02*
X6385000D01*
Y4275000D01*
X6455001D01*
Y4355000D01*
D02*
G37*
G36*
X6143060Y4239090D02*
Y4212500D01*
X6233150D01*
Y4239090D01*
X6143060D01*
D02*
G37*
G36*
X6455001Y4225000D02*
X6385000D01*
Y4145000D01*
X6455001D01*
Y4225000D01*
D02*
G37*
G36*
X6631000Y4030500D02*
X6575000D01*
Y3973501D01*
X6631000D01*
Y4030500D01*
D02*
G37*
G36*
X6525000D02*
X6469000D01*
Y3973501D01*
X6525000D01*
Y4030500D01*
D02*
G37*
G36*
X7055000Y4040000D02*
X6975000D01*
Y3970000D01*
X7055000D01*
Y4040000D01*
D02*
G37*
G36*
X6925000D02*
X6845000D01*
Y3970000D01*
X6925000D01*
Y4040000D01*
D02*
G37*
%LPD*%
G36*
X1050000Y3955400D02*
X1049999Y3930000D01*
X1024600Y3930000D01*
X980000D01*
Y3825000D01*
Y3720000D01*
X1024600D01*
X1049999Y3720000D01*
X1050000Y3694600D01*
Y3500000D01*
X625000D01*
Y3746000D01*
X645000D01*
Y3825000D01*
Y3904000D01*
X625000D01*
Y4075000D01*
Y4125000D01*
X690000D01*
Y4115000D01*
X694595D01*
Y4112095D01*
X735000D01*
Y4090000D01*
X759595D01*
Y4042095D01*
X760000D01*
Y4037500D01*
X780000D01*
Y4042100D01*
X820000D01*
Y4037500D01*
X840000D01*
Y4042095D01*
X840405D01*
Y4090000D01*
X865000D01*
Y4112095D01*
X905405D01*
Y4115000D01*
X910000D01*
Y4125000D01*
X1050000D01*
Y3955400D01*
D02*
G37*
%LPC*%
G36*
X910000Y4065000D02*
X890000D01*
Y4037500D01*
X910000D01*
Y4065000D01*
D02*
G37*
G36*
X710000D02*
X690000D01*
Y4037500D01*
X710000D01*
Y4065000D01*
D02*
G37*
G36*
X930000Y3930000D02*
X860000D01*
Y3850000D01*
X930000D01*
Y3930000D01*
D02*
G37*
G36*
X739000Y3904000D02*
X695000D01*
Y3850000D01*
X739000D01*
Y3904000D01*
D02*
G37*
G36*
Y3800000D02*
X695000D01*
Y3746000D01*
X739000D01*
Y3800000D01*
D02*
G37*
G36*
X930000Y3800001D02*
X860000D01*
Y3720000D01*
X930000D01*
Y3800001D01*
D02*
G37*
G36*
X6330000Y7267500D02*
X6249999D01*
Y7194999D01*
X6330000D01*
Y7267500D01*
D02*
G37*
G36*
X6199999D02*
X6120000D01*
Y7194999D01*
X6199999D01*
Y7267500D01*
D02*
G37*
G36*
X6610500Y7230900D02*
X6550000D01*
Y7181400D01*
X6610500D01*
Y7230900D01*
D02*
G37*
G36*
X6500000D02*
X6439500D01*
Y7181400D01*
X6500000D01*
Y7230900D01*
D02*
G37*
G36*
X6856000Y7230500D02*
X6800000D01*
Y7173500D01*
X6856000D01*
Y7230500D01*
D02*
G37*
G36*
X6750000D02*
X6694000D01*
Y7173500D01*
X6750000D01*
Y7230500D01*
D02*
G37*
G36*
X4242000Y7896476D02*
Y7835000D01*
X4303476D01*
X4300866Y7844738D01*
X4289017Y7865261D01*
X4272261Y7882018D01*
X4251738Y7893866D01*
X4242000Y7896476D01*
D02*
G37*
G36*
X4192000D02*
X4182261Y7893866D01*
X4161739Y7882018D01*
X4144982Y7865261D01*
X4133133Y7844738D01*
X4130524Y7835000D01*
X4192000D01*
Y7896476D01*
D02*
G37*
G36*
X4048400Y7895400D02*
X3877600D01*
Y7724600D01*
X4048400D01*
Y7895400D01*
D02*
G37*
G36*
X4303476Y7785000D02*
X4242000D01*
Y7723524D01*
X4251738Y7726133D01*
X4272261Y7737982D01*
X4289017Y7754739D01*
X4300866Y7775261D01*
X4303476Y7785000D01*
D02*
G37*
G36*
X4192000D02*
X4130524D01*
X4133133Y7775261D01*
X4144982Y7754739D01*
X4161739Y7737982D01*
X4182261Y7726133D01*
X4192000Y7723524D01*
Y7785000D01*
D02*
G37*
G36*
X5990000Y7670000D02*
X5930000D01*
Y7600000D01*
X5990000D01*
Y7670000D01*
D02*
G37*
G36*
X5880000D02*
X5820000D01*
Y7600000D01*
X5880000D01*
Y7670000D01*
D02*
G37*
G36*
X4242000Y7642476D02*
Y7581000D01*
X4303476D01*
X4300866Y7590738D01*
X4289017Y7611261D01*
X4272261Y7628018D01*
X4251738Y7639866D01*
X4242000Y7642476D01*
D02*
G37*
G36*
X4192000D02*
X4182261Y7639866D01*
X4161739Y7628018D01*
X4144982Y7611261D01*
X4133133Y7590738D01*
X4130524Y7581000D01*
X4192000D01*
Y7642476D01*
D02*
G37*
G36*
X5990000Y7550000D02*
X5930000D01*
Y7480000D01*
X5990000D01*
Y7550000D01*
D02*
G37*
G36*
X5880000D02*
X5820000D01*
Y7480000D01*
X5880000D01*
Y7550000D01*
D02*
G37*
G36*
X3974243Y7641400D02*
X3951757D01*
X3930037Y7635580D01*
X3910563Y7624337D01*
X3894663Y7608437D01*
X3883420Y7588963D01*
X3877600Y7567243D01*
Y7544757D01*
X3883420Y7523037D01*
X3894663Y7503563D01*
X3910563Y7487663D01*
X3930037Y7476420D01*
X3951757Y7470600D01*
X3974243D01*
X3995963Y7476420D01*
X4015436Y7487663D01*
X4031337Y7503563D01*
X4042580Y7523037D01*
X4048400Y7544757D01*
Y7567243D01*
X4042580Y7588963D01*
X4031337Y7608437D01*
X4015436Y7624337D01*
X3995963Y7635580D01*
X3974243Y7641400D01*
D02*
G37*
G36*
X4303476Y7531000D02*
X4242000D01*
Y7469524D01*
X4251738Y7472133D01*
X4272261Y7483982D01*
X4289017Y7500739D01*
X4300866Y7521261D01*
X4303476Y7531000D01*
D02*
G37*
G36*
X4192000D02*
X4130524D01*
X4133133Y7521261D01*
X4144982Y7500739D01*
X4161739Y7483982D01*
X4182261Y7472133D01*
X4192000Y7469524D01*
Y7531000D01*
D02*
G37*
G36*
X4254000Y6839000D02*
X4200000D01*
Y6795000D01*
X4254000D01*
Y6839000D01*
D02*
G37*
G36*
X2949999D02*
X2896000D01*
Y6795000D01*
X2949999D01*
Y6839000D01*
D02*
G37*
G36*
X5775400Y7665400D02*
X5614600D01*
Y7484600D01*
X5643205D01*
Y7075900D01*
X5618600D01*
Y6921100D01*
Y6774100D01*
X5648205D01*
Y6729837D01*
X5639665Y6721297D01*
X5629738Y6704103D01*
X5624600Y6684927D01*
Y6665074D01*
X5629738Y6645897D01*
X5639665Y6628704D01*
X5653703Y6614665D01*
X5670897Y6604738D01*
X5690073Y6599600D01*
X5709927D01*
X5729103Y6604738D01*
X5746297Y6614665D01*
X5760335Y6628704D01*
X5770262Y6645897D01*
X5775400Y6665074D01*
Y6684927D01*
X5770262Y6704103D01*
X5760335Y6721297D01*
X5751795Y6729837D01*
Y6774100D01*
X5771400D01*
Y6921100D01*
Y7075900D01*
X5746795D01*
Y7484600D01*
X5775400D01*
Y7665400D01*
D02*
G37*
G36*
X2949999Y6604999D02*
X2896000D01*
Y6561000D01*
X2949999D01*
Y6604999D01*
D02*
G37*
G36*
X3114840Y6234820D02*
X3089679D01*
Y6182160D01*
X3114840D01*
Y6234820D01*
D02*
G37*
G36*
X7230900Y6250000D02*
X7181400D01*
Y6189500D01*
X7230900D01*
Y6250000D01*
D02*
G37*
G36*
X7230500Y6156000D02*
X7173500D01*
Y6100000D01*
X7230500D01*
Y6156000D01*
D02*
G37*
G36*
Y6050000D02*
X7173500D01*
Y5994000D01*
X7230500D01*
Y6050000D01*
D02*
G37*
G36*
X6692500Y6024999D02*
X6620000D01*
Y5945000D01*
X6692500D01*
Y6024999D01*
D02*
G37*
G36*
X4979000Y5305000D02*
X4925000D01*
Y5261000D01*
X4979000D01*
Y5305000D01*
D02*
G37*
G36*
X4349999D02*
X4296000D01*
Y5261000D01*
X4349999D01*
Y5305000D01*
D02*
G37*
G36*
X3810320Y5371840D02*
X3785160D01*
Y5319180D01*
X3810320D01*
Y5371840D01*
D02*
G37*
G36*
X4925000Y5194000D02*
Y5150000D01*
X4979000D01*
Y5194000D01*
X4925000D01*
D02*
G37*
G36*
X4350000D02*
X4296000D01*
Y5150000D01*
X4350000D01*
Y5194000D01*
D02*
G37*
G36*
X6635000Y5502740D02*
X6600040D01*
Y5450000D01*
X6635000D01*
Y5502740D01*
D02*
G37*
G36*
Y5234520D02*
X6600040D01*
Y5181780D01*
X6635000D01*
Y5234520D01*
D02*
G37*
G36*
X6055000Y2800000D02*
X5974999D01*
Y2730000D01*
X6055000D01*
Y2800000D01*
D02*
G37*
G36*
X5925000D02*
X5845000D01*
Y2730000D01*
X5925000D01*
Y2800000D01*
D02*
G37*
G36*
X6249000Y2230000D02*
X6195000D01*
Y2186000D01*
X6249000D01*
Y2230000D01*
D02*
G37*
G36*
X6145000D02*
X6091001D01*
Y2186000D01*
X6145000D01*
Y2230000D01*
D02*
G37*
G36*
X6451000Y2226499D02*
X6395001D01*
Y2169500D01*
X6451000D01*
Y2226499D01*
D02*
G37*
G36*
X6345001D02*
X6289001D01*
Y2169500D01*
X6345001D01*
Y2226499D01*
D02*
G37*
G36*
X6051000Y2226499D02*
X5995000D01*
Y2169500D01*
X6051000D01*
Y2226499D01*
D02*
G37*
G36*
X5945001D02*
X5889001D01*
Y2169500D01*
X5945001D01*
Y2226499D01*
D02*
G37*
G36*
X5855000Y1290000D02*
X5775000D01*
Y1220000D01*
X5855000D01*
Y1290000D01*
D02*
G37*
G36*
X7725299Y1229000D02*
X7600000D01*
X7474701D01*
X7481189Y1204787D01*
X7497975Y1175713D01*
X7521713Y1151975D01*
X7540504Y1141126D01*
Y1112874D01*
X7521713Y1102025D01*
X7497975Y1078287D01*
X7481189Y1049213D01*
X7474701Y1025000D01*
X7600000D01*
X7725299D01*
X7718811Y1049213D01*
X7702025Y1078287D01*
X7678287Y1102025D01*
X7659496Y1112874D01*
Y1141126D01*
X7678287Y1151975D01*
X7702025Y1175713D01*
X7718811Y1204787D01*
X7725299Y1229000D01*
D02*
G37*
G36*
Y975000D02*
X7625000D01*
Y874701D01*
X7649213Y881189D01*
X7678287Y897975D01*
X7702025Y921713D01*
X7718811Y950787D01*
X7725299Y975000D01*
D02*
G37*
G36*
X7575000D02*
X7474701D01*
X7481189Y950787D01*
X7497975Y921713D01*
X7521713Y897975D01*
X7550787Y881189D01*
X7575000Y874701D01*
Y975000D01*
D02*
G37*
G36*
X6090500Y421260D02*
X6036500D01*
Y377260D01*
X6090500D01*
Y421260D01*
D02*
G37*
G36*
X5986501D02*
X5932500D01*
Y377260D01*
X5986501D01*
Y421260D01*
D02*
G37*
G36*
X6292500Y417760D02*
X6236500D01*
Y360760D01*
X6292500D01*
Y417760D01*
D02*
G37*
G36*
X6186500D02*
X6130500D01*
Y360760D01*
X6186500D01*
Y417760D01*
D02*
G37*
G36*
X5892500Y417760D02*
X5836500D01*
Y360760D01*
X5892500D01*
Y417760D01*
D02*
G37*
G36*
X5786500D02*
X5730500D01*
Y360760D01*
X5786500D01*
Y417760D01*
D02*
G37*
G36*
X6959831Y1905800D02*
X6901490D01*
Y1850000D01*
X6959831D01*
Y1905800D01*
D02*
G37*
G36*
Y1800000D02*
X6901490D01*
Y1744200D01*
X6959831D01*
Y1800000D01*
D02*
G37*
G36*
X7248510Y1905800D02*
X7190171D01*
Y1850000D01*
X7248510D01*
Y1905800D01*
D02*
G37*
G36*
X7625000Y1887299D02*
Y1787000D01*
X7725299D01*
X7718811Y1811213D01*
X7702025Y1840287D01*
X7678287Y1864025D01*
X7649213Y1880811D01*
X7625000Y1887299D01*
D02*
G37*
G36*
X7575000D02*
X7550787Y1880811D01*
X7521713Y1864025D01*
X7497975Y1840287D01*
X7481189Y1811213D01*
X7474701Y1787000D01*
X7575000D01*
Y1887299D01*
D02*
G37*
G36*
X7248510Y1800000D02*
X7190171D01*
Y1744200D01*
X7248510D01*
Y1800000D01*
D02*
G37*
G36*
X7725299Y1737000D02*
X7600000D01*
X7474701D01*
X7481189Y1712787D01*
X7497975Y1683713D01*
X7521713Y1659975D01*
X7540504Y1649126D01*
Y1620874D01*
X7521713Y1610025D01*
X7497975Y1586287D01*
X7481189Y1557213D01*
X7474701Y1533000D01*
X7600000D01*
X7725299D01*
X7718811Y1557213D01*
X7702025Y1586287D01*
X7678287Y1610025D01*
X7659496Y1620874D01*
Y1649126D01*
X7678287Y1659975D01*
X7702025Y1683713D01*
X7718811Y1712787D01*
X7725299Y1737000D01*
D02*
G37*
G36*
X5855000Y980000D02*
X5775000D01*
Y910000D01*
X5855000D01*
Y980000D01*
D02*
G37*
G36*
X5725000D02*
X5645000D01*
Y910000D01*
X5725000D01*
Y980000D01*
D02*
G37*
%LPD*%
D10*
X6100000Y6750000D02*
G03*
X6055000Y6705000I0J-45000D01*
G01*
X5775000Y6525000D02*
G03*
X5650000Y6400000I0J-125000D01*
G01*
X5552000Y6002000D02*
G03*
X5650000Y6100000I0J98000D01*
G01*
X6825000Y6525000D02*
G03*
X7075000Y6775000I0J250000D01*
G01*
X6225000Y6750000D02*
X6230000D01*
X6100000D02*
X6225000D01*
X6055000Y6525000D02*
Y6705000D01*
X5775000Y6525000D02*
X6055000D01*
X5650000Y6100000D02*
Y6400000D01*
X3950000Y6002000D02*
X5552000Y6002000D01*
X2521000Y279000D02*
Y721000D01*
Y279000D02*
X2525000Y275000D01*
X2521000Y721000D02*
X2525000Y725000D01*
X7075000Y6775000D02*
Y7720500D01*
X2370000Y5037866D02*
Y5574000D01*
X2332134Y5000000D02*
X2370000Y5037866D01*
X2295000Y5000000D02*
X2332134D01*
X2398000Y5602000D02*
X2777660D01*
X2370000Y5574000D02*
X2398000Y5602000D01*
X6195000Y6525000D02*
X6825000D01*
X6225000Y6750000D02*
Y6980000D01*
X2521000Y729000D02*
Y832171D01*
Y729000D02*
X2525000Y725000D01*
X2521000Y896000D02*
X2525000Y900000D01*
X2521000Y832172D02*
Y896000D01*
Y832172D02*
X2521000Y832171D01*
X2525000Y900000D02*
Y1105000D01*
X4225000Y1500000D02*
Y1705000D01*
Y1295000D02*
Y1500000D01*
X2806447Y5364088D02*
X2944360Y5502000D01*
X2777660Y5348000D02*
X2790360D01*
X2806447Y5364087D01*
Y5839912D02*
X2944360Y5702000D01*
X2790360Y5856000D02*
X2806447Y5839913D01*
X2777660Y5856000D02*
X2790360D01*
X2525000Y1295000D02*
Y1705000D01*
X1000000Y5350000D02*
X1000000Y5350000D01*
D11*
X4350000Y5750000D02*
G03*
X4275000Y5675000I0J-75000D01*
G01*
X4202000Y5552000D02*
G03*
X4275000Y5625000I0J73000D01*
G01*
X3844999Y6102000D02*
X4952000D01*
X4979000Y6129000D01*
Y7100000D01*
X3844999Y6052000D02*
X5210121D01*
X5225000Y6066879D01*
Y6800000D01*
X3950000Y6002000D02*
Y6002000D01*
X3844999D02*
X3950000D01*
X800000Y4090000D02*
Y4285000D01*
X3574999Y5099879D02*
X3589879Y5085000D01*
X3660000D01*
X3574999Y5099879D02*
Y5382000D01*
X3624999Y5204679D02*
X3652500Y5177178D01*
Y5172500D02*
Y5177178D01*
X3624999Y5204679D02*
Y5382000D01*
X3675000Y5252501D02*
X3752500Y5175000D01*
X3675000Y5252501D02*
Y5382000D01*
X3054999Y5452000D02*
X3057299Y5454300D01*
X3117520Y5457520D02*
X3152500Y5492500D01*
X3096322Y5457520D02*
X3117520D01*
X3057299Y5454300D02*
X3093102D01*
X3096322Y5457520D01*
X3525000Y6172000D02*
Y6374999D01*
X3725000Y6575000D01*
Y6635000D01*
X3574999Y6324999D02*
X3775000Y6525000D01*
X3860121D01*
X3875000Y6539879D02*
Y6635000D01*
X3860121Y6525000D02*
X3875000Y6539879D01*
X3574999Y6172000D02*
Y6324999D01*
X3201999Y6025000D02*
X3225000D01*
X3200199Y6026800D02*
X3201999Y6025000D01*
X3200199Y6026800D02*
Y6049800D01*
X3174999Y6075000D02*
X3200199Y6049800D01*
X3174999Y6075000D02*
Y6172000D01*
X3374999Y6025001D02*
X3375000Y6025000D01*
X3374999Y6025001D02*
Y6172000D01*
X3624999Y6075001D02*
X3625000Y6075000D01*
X3624999Y6075001D02*
Y6172000D01*
X3149500Y5552000D02*
X3152500Y5555000D01*
X3054999Y5552000D02*
X3149500D01*
X3153000Y5652000D02*
X3155000Y5650000D01*
X3054999Y5652000D02*
X3153000D01*
X2900000Y6410000D02*
X2917500Y6392500D01*
X2575000Y6442500D02*
X2607500Y6410000D01*
X2900000D01*
X3154500Y5752000D02*
X3155000Y5752500D01*
X3054999Y5752000D02*
X3154500D01*
X6118060Y3862500D02*
X6362500D01*
X6375000Y3850000D01*
X5894540Y3935460D02*
X5895000Y3935000D01*
X5894540Y3935460D02*
Y4025000D01*
X5923707Y3995834D01*
X5977090Y3992500D02*
X6118060D01*
X5923707Y3995834D02*
X5973757D01*
X5977090Y3992500D01*
X3225000Y6172000D02*
Y6300000D01*
X3324999Y6172000D02*
Y6300000D01*
X3325000Y6300000D01*
X3224999Y6172000D02*
X3225000Y6172000D01*
X2950000Y5145000D02*
Y5222500D01*
Y5145000D02*
X2975000Y5120000D01*
X3124999Y5300000D02*
Y5382000D01*
X3092500Y5267500D02*
X3124999Y5300000D01*
X2995000Y5267500D02*
X3092500D01*
X2950000Y5222500D02*
X2995000Y5267500D01*
X3525000Y5014879D02*
X3539879Y5000000D01*
X3525000Y5014879D02*
Y5382000D01*
X3539879Y5000000D02*
X3851500D01*
X4979000Y7404000D02*
Y7556000D01*
Y7100000D02*
Y7380000D01*
Y7404000D01*
X4700000Y6292955D02*
X4725000Y6317955D01*
Y7556000D01*
X4430121Y6460640D02*
X4471000Y6501519D01*
Y7556000D01*
X6317000Y6750000D02*
X6510121D01*
X6525000Y6764879D02*
Y6993600D01*
X6510121Y6750000D02*
X6525000Y6764879D01*
Y6993600D02*
X6550000D01*
Y7001500D02*
X6775000D01*
X6810000Y6275000D02*
X6993600D01*
X6840000Y6100000D02*
X6976500D01*
X7001500Y6075000D01*
X6810000Y6130000D02*
Y6275000D01*
Y6130000D02*
X6840000Y6100000D01*
X6546000Y6275000D02*
X6810000D01*
X6449000Y6280000D02*
X6454000Y6275000D01*
X6280000Y6280000D02*
X6449000D01*
X4645000Y5750000D02*
X5945000D01*
X5950000Y5745000D01*
X6295888D01*
X2575000Y6900000D02*
Y7150000D01*
X2575000Y7150000D01*
X2575000Y7150000D02*
Y7725000D01*
Y7150000D02*
X2575000Y7150000D01*
X2575000Y6442500D02*
Y6900000D01*
X2675000Y6275000D02*
X2800000D01*
X2802500Y6022379D02*
Y6110121D01*
X2670000Y6125000D02*
X2787621D01*
X2802500Y6110121D01*
X2670000Y6125000D02*
Y6275000D01*
X2993000Y5802000D02*
X3054999D01*
X2970000Y5825000D02*
X2993000Y5802000D01*
X2970000Y5825000D02*
Y5992621D01*
X2955121Y6007500D02*
X2970000Y5992621D01*
X2817379Y6007500D02*
X2955121D01*
X2802500Y6022379D02*
X2817379Y6007500D01*
X6250000Y6050000D02*
X6250000Y6050000D01*
X6405000D01*
X6250000Y6050000D02*
Y6250000D01*
X6280000Y6280000D01*
X6250000Y5980000D02*
Y6050000D01*
X6222000Y5952000D02*
X6250000Y5980000D01*
X3844999Y5952000D02*
X6222000D01*
X6826500Y5425000D02*
Y5601500D01*
X6300888Y5750000D02*
X6330000D01*
X6295888Y5745000D02*
X6300888Y5750000D01*
X2944360Y5502000D02*
X3054999D01*
X2944360Y5702000D02*
X3054999D01*
X2917500Y6120000D02*
Y6392500D01*
Y6120000D02*
X2935500Y6102000D01*
X3054999D01*
X4175000Y6630000D02*
X4175000Y6630000D01*
X4302500D01*
X3907500Y6507500D02*
X4004999D01*
X4025000Y6527500D01*
Y6630000D01*
X3675000Y6274999D02*
X3907500Y6507500D01*
X4025000Y6630000D02*
X4175000D01*
X3675000Y6172000D02*
Y6274999D01*
X3775000Y6172000D02*
Y6234999D01*
X3832956Y6292955D02*
X4700000D01*
X3775000Y6234999D02*
X3832956Y6292955D01*
X3724999Y6172000D02*
Y6249999D01*
X3935640Y6460640D02*
X4430121D01*
X3724999Y6249999D02*
X3935640Y6460640D01*
X4350000Y5750000D02*
X4505000D01*
X4275000Y5625000D02*
Y5675000D01*
X3844999Y5552000D02*
X4202000D01*
X2777660Y5602000D02*
X3054999D01*
X551720Y6090000D02*
X555220Y6093500D01*
Y6370000D01*
D12*
X5695000Y6851500D02*
D03*
Y6998500D02*
D03*
X6411500Y442760D02*
D03*
Y589760D02*
D03*
X6211500D02*
D03*
Y442760D02*
D03*
X5811500Y589760D02*
D03*
Y442760D02*
D03*
X5970001Y2398500D02*
D03*
Y2251500D02*
D03*
X6370000D02*
D03*
X6550000Y3801500D02*
D03*
X6775000Y7148500D02*
D03*
Y7001500D02*
D03*
X6550000Y3948500D02*
D03*
X6570001Y2251500D02*
D03*
Y2398500D02*
D03*
X6370000D02*
D03*
X6826500Y5748500D02*
D03*
Y5601500D02*
D03*
D13*
X5695000Y7575000D02*
D03*
X5905000D02*
D03*
X1830000Y4200000D02*
D03*
X4520000D02*
D03*
X4730000D02*
D03*
X1620000D02*
D03*
D14*
X6984830Y1825000D02*
D03*
X7165170D02*
D03*
D15*
X6195000Y6525000D02*
D03*
X6055000D02*
D03*
X4365000Y900000D02*
D03*
X530000Y3825000D02*
D03*
X4365000Y1500000D02*
D03*
Y2150000D02*
D03*
X2385000Y900000D02*
D03*
X2435000Y7150000D02*
D03*
X2430000Y6900000D02*
D03*
X2530000Y6125000D02*
D03*
Y6275000D02*
D03*
X2155000Y5000000D02*
D03*
X860000Y7225000D02*
D03*
X455000Y5225000D02*
D03*
X2385000Y2150000D02*
D03*
Y1500000D02*
D03*
X2525000D02*
D03*
Y2150000D02*
D03*
Y900000D02*
D03*
X4225000Y2150000D02*
D03*
X4505000Y5750000D02*
D03*
X4645000D02*
D03*
X2295000Y5000000D02*
D03*
X2570000Y6900000D02*
D03*
X2575000Y7150000D02*
D03*
X4225000Y900000D02*
D03*
X2670000Y6275000D02*
D03*
Y6125000D02*
D03*
X4225000Y1500000D02*
D03*
X1000000Y7225000D02*
D03*
X6330000Y5750000D02*
D03*
X6470000D02*
D03*
X595000Y5225000D02*
D03*
X670000Y3825000D02*
D03*
D16*
X5671020Y4187500D02*
D03*
Y4122500D02*
D03*
Y4057500D02*
D03*
Y3992500D02*
D03*
Y3927500D02*
D03*
Y3862500D02*
D03*
X6118060Y3862500D02*
D03*
Y3927500D02*
D03*
Y3992500D02*
D03*
Y4057500D02*
D03*
Y4122500D02*
D03*
Y4187500D02*
D03*
D17*
X5894540Y4025000D02*
D03*
D18*
X7156400Y6275000D02*
D03*
X6993600D02*
D03*
D19*
X6525000Y7156400D02*
D03*
Y6993600D02*
D03*
X1000000Y7081400D02*
D03*
Y6918600D02*
D03*
D20*
X6317000Y6750000D02*
D03*
X6225000D02*
D03*
X6546000Y6275000D02*
D03*
X6454000D02*
D03*
D21*
X3675000Y5382000D02*
D03*
X3174999Y6172000D02*
D03*
X3374999D02*
D03*
X3624999D02*
D03*
X3474999Y5382000D02*
D03*
X3424999D02*
D03*
X3374999D02*
D03*
X3775000Y6172000D02*
D03*
X3724999D02*
D03*
X3124999D02*
D03*
X3224999D02*
D03*
X3275000D02*
D03*
X3324999D02*
D03*
X3424999D02*
D03*
X3474999D02*
D03*
X3525000D02*
D03*
X3574999D02*
D03*
X3675000D02*
D03*
X3775000Y5382000D02*
D03*
X3724999D02*
D03*
X3624999D02*
D03*
X3574999D02*
D03*
X3525000D02*
D03*
X3324999D02*
D03*
X3275000D02*
D03*
X3224999D02*
D03*
X3174999D02*
D03*
X3124999D02*
D03*
D22*
X6950000Y3945000D02*
D03*
Y3755000D02*
D03*
X5750000Y1005000D02*
D03*
Y1195000D02*
D03*
X5144540Y4320000D02*
D03*
X5950000Y3015000D02*
D03*
X5394540Y4320000D02*
D03*
X2525000Y1105000D02*
D03*
Y1295000D02*
D03*
Y1705000D02*
D03*
Y1895000D02*
D03*
X4225000Y1105000D02*
D03*
Y1295000D02*
D03*
Y1705000D02*
D03*
Y1895000D02*
D03*
X5394540Y4130000D02*
D03*
X5950000Y2825000D02*
D03*
X5144540Y4130000D02*
D03*
D23*
X6661500Y901260D02*
D03*
Y1481260D02*
D03*
X7020000Y3040000D02*
D03*
Y2460000D02*
D03*
D24*
X6011500Y586260D02*
D03*
Y446260D02*
D03*
X6170001Y2255000D02*
D03*
X4375000Y5470000D02*
D03*
X4725000D02*
D03*
X4550000D02*
D03*
X4900000D02*
D03*
X4900000Y4985000D02*
D03*
X4725000D02*
D03*
X4025000Y6770000D02*
D03*
X4175000D02*
D03*
X4375000Y4985000D02*
D03*
X4550000D02*
D03*
X3875000Y6775000D02*
D03*
X3725000D02*
D03*
X3575000D02*
D03*
X3425000Y6770000D02*
D03*
X3275000D02*
D03*
X3125000D02*
D03*
X2975000D02*
D03*
X2975000Y4980000D02*
D03*
X2800000D02*
D03*
X6170001Y2395000D02*
D03*
X2325000Y3130000D02*
D03*
Y3270000D02*
D03*
X2475000D02*
D03*
Y3130000D02*
D03*
X4900000Y5125000D02*
D03*
X2800000Y5120000D02*
D03*
X3125000Y6630000D02*
D03*
X3275000D02*
D03*
X3575000Y6635000D02*
D03*
X3875000D02*
D03*
X4025000Y6630000D02*
D03*
X4550000Y5330000D02*
D03*
X4725000D02*
D03*
X1000000Y5350000D02*
D03*
Y5490000D02*
D03*
X555220Y6510000D02*
D03*
Y6370000D02*
D03*
X4375000Y5125000D02*
D03*
X4550000D02*
D03*
X4725000D02*
D03*
X4175000Y3130000D02*
D03*
Y3270000D02*
D03*
X4375000Y5330000D02*
D03*
X2975000Y5120000D02*
D03*
X2975000Y6630000D02*
D03*
X3425000D02*
D03*
X3725000Y6635000D02*
D03*
X4175000Y6630000D02*
D03*
X4900000Y5330000D02*
D03*
X4025000Y3130000D02*
D03*
Y3270000D02*
D03*
X1000000Y6630000D02*
D03*
Y6770000D02*
D03*
D25*
X6125000Y964000D02*
D03*
Y1014000D02*
D03*
X6000000D02*
D03*
X6125000Y1064000D02*
D03*
X6307500Y2875000D02*
D03*
X6182500Y2825000D02*
D03*
X6307500D02*
D03*
Y2775000D02*
D03*
D26*
X6012500Y896500D02*
D03*
X6062500D02*
D03*
X6112500D02*
D03*
X6295000Y2707500D02*
D03*
X6245000D02*
D03*
X6195000D02*
D03*
D27*
X6017500Y964000D02*
D03*
Y1064000D02*
D03*
X6200000Y2875000D02*
D03*
Y2775000D02*
D03*
D28*
X800000Y4187500D02*
D03*
D29*
Y4090000D02*
D03*
X735000Y4285000D02*
D03*
X800000D02*
D03*
X865000Y4090000D02*
D03*
X735000D02*
D03*
X865000Y4285000D02*
D03*
D30*
X4099999Y2796450D02*
D03*
X2400000D02*
D03*
X3972999Y2453550D02*
D03*
X2273000D02*
D03*
X2527000Y2796450D02*
D03*
X2273000D02*
D03*
X2527000Y2453550D02*
D03*
X4226999Y2796450D02*
D03*
X3972999D02*
D03*
X4226999Y2453550D02*
D03*
D31*
X6670000Y4250000D02*
D03*
X1145000Y3825000D02*
D03*
X430000Y5450000D02*
D03*
X555000Y4500000D02*
D03*
X745000D02*
D03*
X620000Y5450000D02*
D03*
X955000Y3825000D02*
D03*
X6480000Y4250000D02*
D03*
D32*
X4372000Y725000D02*
D03*
X2378000D02*
D03*
X3998500Y5000000D02*
D03*
X2525000Y725000D02*
D03*
X4225000D02*
D03*
X3851500Y5000000D02*
D03*
X698720Y6090000D02*
D03*
X551720D02*
D03*
X1173500Y4500000D02*
D03*
X1026500D02*
D03*
X7148500Y6075000D02*
D03*
X7001500D02*
D03*
X4576500Y4650000D02*
D03*
X4723500D02*
D03*
D33*
X5950000Y5555000D02*
D03*
X6225000Y6980000D02*
D03*
Y7170000D02*
D03*
X5950000Y5745000D02*
D03*
D34*
X6756400Y4575000D02*
D03*
X6350000D02*
D03*
D35*
X3449999Y5777000D02*
D03*
D36*
X3054999Y5452000D02*
D03*
Y5552000D02*
D03*
Y5652000D02*
D03*
Y5752000D02*
D03*
Y5852000D02*
D03*
Y5902000D02*
D03*
Y5952000D02*
D03*
Y6002000D02*
D03*
Y6052000D02*
D03*
X3844999Y5902000D02*
D03*
Y5852000D02*
D03*
Y5802000D02*
D03*
Y5752000D02*
D03*
Y5702000D02*
D03*
Y5652000D02*
D03*
Y5602000D02*
D03*
Y6102000D02*
D03*
Y6052000D02*
D03*
X3054999Y5502000D02*
D03*
Y5602000D02*
D03*
Y5702000D02*
D03*
Y5802000D02*
D03*
Y6102000D02*
D03*
X3844999Y6002000D02*
D03*
Y5952000D02*
D03*
Y5552000D02*
D03*
Y5502000D02*
D03*
Y5452000D02*
D03*
D37*
X7700495Y6032500D02*
D03*
Y5467500D02*
D03*
D38*
X4507500Y295004D02*
D03*
X3942500D02*
D03*
X2807500D02*
D03*
X2242500D02*
D03*
X6792500Y7700495D02*
D03*
X7357500D02*
D03*
X2292500Y7704995D02*
D03*
X2857499D02*
D03*
X717500Y7704996D02*
D03*
X1282500D02*
D03*
D39*
X1725000Y5670000D02*
D03*
Y5030000D02*
D03*
X1475000D02*
D03*
Y5670000D02*
D03*
D40*
X1380000Y5223000D02*
D03*
Y5477000D02*
D03*
X1820000D02*
D03*
Y5223000D02*
D03*
X1380000Y5350000D02*
D03*
X1820000D02*
D03*
D41*
X6825000Y5259520D02*
D03*
X6660000Y5425000D02*
D03*
X6825000D02*
D03*
X6660000Y5259520D02*
D03*
D42*
X2122340Y5856000D02*
D03*
Y5602000D02*
D03*
X2777660Y5856000D02*
D03*
Y5602000D02*
D03*
Y5348000D02*
D03*
X2122340D02*
D03*
D43*
X1105220Y6444780D02*
D03*
X1055220D02*
D03*
Y6155220D02*
D03*
X1105220D02*
D03*
X1005220Y6444780D02*
D03*
Y6155220D02*
D03*
D44*
X910440Y6350000D02*
D03*
Y6300000D02*
D03*
Y6250000D02*
D03*
X1200000D02*
D03*
Y6300000D02*
D03*
Y6350000D02*
D03*
D45*
X1055220Y6300000D02*
D03*
D46*
X5225000Y6800000D02*
D03*
X5415000D02*
D03*
X6405000Y6050000D02*
D03*
X6595000D02*
D03*
D47*
X2525000Y275000D02*
D03*
X4225000D02*
D03*
X1000000Y7725000D02*
D03*
X2575000Y7725000D02*
D03*
X7075000Y7720500D02*
D03*
D48*
X770000Y5775000D02*
D03*
X1000000D02*
D03*
D49*
X7720500Y5750000D02*
D03*
D50*
X1207500Y4200000D02*
X1620000D01*
X1172000Y4235500D02*
X1207500Y4200000D01*
X1172000Y4235500D02*
Y4498500D01*
X1173500Y4500000D01*
D51*
X3424999Y6312499D02*
X3425000Y6312500D01*
X3424999Y6172000D02*
Y6312499D01*
X3474999Y6399999D02*
X3575000Y6499999D01*
X3474999Y6172000D02*
Y6399999D01*
X6012500Y806139D02*
Y896500D01*
X5997621Y791260D02*
X6012500Y806139D01*
X5836500Y791260D02*
X5997621D01*
X6112500Y688760D02*
Y896500D01*
Y688760D02*
X6172200Y629060D01*
X6062500Y717260D02*
Y896500D01*
X6011500Y666260D02*
X6062500Y717260D01*
X5811500Y589760D02*
Y766260D01*
X5836500Y791260D01*
X6211500Y589760D02*
X6411500D01*
X6173200Y629060D02*
X6211500Y590760D01*
X6011500Y586260D02*
Y666260D01*
X6172200Y629060D02*
X6173200D01*
X6195000Y2649999D02*
Y2707500D01*
X6145001Y2600000D02*
X6195000Y2649999D01*
X5995000Y2600000D02*
X6145001D01*
X5970001Y2575000D02*
X5995000Y2600000D01*
X5970001Y2398500D02*
Y2575000D01*
X6170001Y2395000D02*
Y2475000D01*
X6245000Y2549999D01*
Y2707500D01*
X6295000Y2473501D02*
Y2707500D01*
Y2473501D02*
X6330700Y2437800D01*
X6331700D01*
X6370000Y2399500D01*
Y2398500D02*
X6570001D01*
X3575000Y6499999D02*
Y6635000D01*
D52*
X6570001Y2174100D02*
Y2251500D01*
Y2174100D02*
X6606600Y2137500D01*
X6830000D01*
X5700000Y6675000D02*
Y6851500D01*
X5695000D02*
X5700000D01*
X5695000Y6998500D02*
Y7575000D01*
X5233000Y6808000D02*
Y7517000D01*
X5225000Y6800000D02*
X5233000Y6808000D01*
Y7517000D02*
Y7556000D01*
Y7810000D01*
X4725000Y7556000D02*
Y7810000D01*
X4471000Y7556000D02*
Y7810000D01*
X6411500Y338500D02*
Y442760D01*
Y338500D02*
X6450000Y300000D01*
X4979000Y7404000D02*
Y7552000D01*
X4725000Y7411185D02*
Y7556000D01*
X4471000Y7396000D02*
Y7556000D01*
X4975000D02*
X4979000Y7552000D01*
X4975000Y7556000D02*
Y7806000D01*
X4979000Y7810000D01*
D53*
X5415000Y6800000D02*
Y6976470D01*
X5425000Y6986470D01*
Y7000000D01*
X4723500Y4206500D02*
X4730000Y4200000D01*
X4723500Y4206500D02*
Y4650000D01*
X2707706Y5120000D02*
X2800000D01*
X2975000D01*
X2702706Y5125000D02*
X2707706Y5120000D01*
X2700000Y5125000D02*
X2702706D01*
X6225000Y7170000D02*
X6238600Y7156400D01*
X4400000Y4650000D02*
X4576500D01*
D54*
X2421551Y3310982D02*
Y4596551D01*
X2378448Y3310982D02*
Y4614405D01*
X2364914Y3297449D02*
X2378448Y3310982D01*
X2352448Y3297449D02*
X2364914D01*
X2325000Y3270000D02*
X2352448Y3297449D01*
X3377854Y4663103D02*
X4072854D01*
X4121552Y4614405D01*
Y3310982D02*
Y4614405D01*
X4055000Y4620000D02*
X4078449Y4596551D01*
X3360000Y4620000D02*
X4055000D01*
X4078449Y3310982D02*
Y4596551D01*
X3278449Y4701551D02*
X3360000Y4620000D01*
X2427146Y4663103D02*
X3122146D01*
X2378448Y4614405D02*
X2427146Y4663103D01*
X2421551Y4596551D02*
X2445000Y4620000D01*
X3140000D01*
X3221551Y4701551D01*
X4052449Y3297449D02*
X4064915D01*
X4025000Y3270000D02*
X4052449Y3297449D01*
X4064915D02*
X4078449Y3310982D01*
X4147552Y3297449D02*
X4175000Y3270000D01*
X4121552Y3310982D02*
X4135085Y3297449D01*
X4147552D01*
X3275001Y5382000D02*
X3278449Y5378552D01*
X3321552D02*
X3325000Y5382000D01*
X3278449Y4701551D02*
Y5378552D01*
X3321552Y4719405D02*
X3377854Y4663103D01*
X3321552Y4719405D02*
Y5378552D01*
X3178448Y4719405D02*
Y5378552D01*
X3122146Y4663103D02*
X3178448Y4719405D01*
X3221551Y4701551D02*
Y5378552D01*
X3174999Y5382000D02*
X3178448Y5378552D01*
X3221551D02*
X3224999Y5382000D01*
X2421551Y3310982D02*
X2435085Y3297449D01*
X2447551D02*
X2475000Y3270000D01*
X2435085Y3297449D02*
X2447551D01*
X4078448Y3038491D02*
Y3089018D01*
X4064915Y3102551D02*
X4078448Y3089018D01*
X4025000Y3130000D02*
X4052449Y3102551D01*
X4064915D01*
X4078449Y2957153D02*
Y3038490D01*
X4147552Y3102551D02*
X4175000Y3130000D01*
X4135085Y3102551D02*
X4147552D01*
X4121552Y3089018D02*
X4135085Y3102551D01*
X4121552Y3056345D02*
Y3089018D01*
X4078448Y2933648D02*
Y2957152D01*
X3973000Y2796450D02*
Y2828200D01*
X4078448Y2933648D01*
X4227000Y2796450D02*
Y2828200D01*
X4121552Y2933648D02*
Y2939298D01*
X4121552Y2939299D02*
Y3056344D01*
X4121552Y2933648D02*
X4227000Y2828200D01*
X2421551Y2933648D02*
X2527000Y2828200D01*
X2421552Y2939299D02*
Y3056344D01*
X2421551Y2933648D02*
Y2939298D01*
X2527000Y2796450D02*
Y2828200D01*
X2273000D02*
X2378448Y2933648D01*
X2273000Y2796450D02*
Y2828200D01*
X2378448Y2933648D02*
Y2957152D01*
X2421551Y3056345D02*
Y3089018D01*
X2435085Y3102551D01*
X2447551D01*
X2475000Y3130000D01*
X2378448Y2957153D02*
Y3038490D01*
X2352448Y3102551D02*
X2364914D01*
X2325000Y3130000D02*
X2352448Y3102551D01*
X2364914D02*
X2378448Y3089018D01*
Y3038491D02*
Y3089018D01*
D55*
X4225000Y725000D02*
Y900000D01*
Y275000D02*
Y725000D01*
Y900000D02*
Y1105000D01*
X1000000Y7081400D02*
Y7225000D01*
X1000000Y7225000D02*
Y7725000D01*
Y7225000D02*
X1000000Y7225000D01*
X1005220Y6510000D02*
Y6624780D01*
X1000000Y6630000D02*
X1005220Y6624780D01*
X1000000Y6770000D02*
Y6918600D01*
Y6770000D02*
X1000000Y6770000D01*
X1000000Y6918600D02*
X1000000Y6918600D01*
X1005220Y6092390D02*
Y6092500D01*
X1005000Y6092170D02*
X1005220Y6092390D01*
X1005000Y5780000D02*
Y6092170D01*
X1000000Y5775000D02*
X1005000Y5780000D01*
X1000000Y5490000D02*
Y5775000D01*
X2525000Y1895000D02*
Y2150000D01*
X2525000Y2150000D02*
Y2451550D01*
Y2150000D02*
X2525000Y2150000D01*
X4224999Y1895001D02*
Y2451550D01*
Y1895001D02*
X4225000Y1895000D01*
X4224999Y2451550D02*
X4226999Y2453550D01*
X1820000Y5350000D02*
X2120339D01*
X2122340Y5348000D01*
X698720Y6090000D02*
X1005220D01*
X555220Y6510000D02*
X1005220D01*
X1000000Y5350000D02*
X1380000D01*
D56*
X6812076Y5748500D02*
X6826500D01*
X6810576Y5750000D02*
X6812076Y5748500D01*
X6470000Y5750000D02*
X6810576D01*
X7190236Y5748500D02*
X7191736Y5750000D01*
X6826500Y5748500D02*
X7190236D01*
X7191736Y5750000D02*
X7720500D01*
D57*
X1005220Y6092500D02*
Y6155220D01*
Y6454780D02*
Y6510000D01*
D58*
X1825000Y3325000D02*
D03*
X4825000Y600000D02*
D03*
X275000Y4850000D02*
D03*
X1975000Y7400000D02*
D03*
X1825000Y600000D02*
D03*
X4825000Y3325000D02*
D03*
X7725000Y275000D02*
D03*
X275000D02*
D03*
Y7725000D02*
D03*
X7725000D02*
D03*
D59*
X4217000Y7556000D02*
D03*
Y7810000D02*
D03*
X3963000Y7556000D02*
D03*
X4471000Y7810000D02*
D03*
X4725000D02*
D03*
X4979000D02*
D03*
X5233000D02*
D03*
X4471000Y7556000D02*
D03*
X4725000D02*
D03*
X4979000D02*
D03*
X5233000D02*
D03*
D60*
X3963000Y7810000D02*
D03*
D61*
X7600000Y1254000D02*
D03*
Y1000000D02*
D03*
Y1508000D02*
D03*
Y1762000D02*
D03*
D62*
X1995000Y3325000D02*
D03*
X1825000Y3155000D02*
D03*
X1655000Y3325000D02*
D03*
X1705000Y3445000D02*
D03*
X1945000D02*
D03*
X1825000Y3495000D02*
D03*
X1705000Y3205000D02*
D03*
X1945000D02*
D03*
X3652500Y5172500D02*
D03*
X3660000Y5085000D02*
D03*
X4500000Y455000D02*
D03*
X4995000Y600000D02*
D03*
X4825000Y430000D02*
D03*
X4655000Y600000D02*
D03*
X4705000Y720000D02*
D03*
X4945000D02*
D03*
X4825000Y770000D02*
D03*
X4705000Y480000D02*
D03*
X4945000D02*
D03*
X400000Y7400000D02*
D03*
X275000D02*
D03*
X275016Y7250020D02*
D03*
X445000Y4850000D02*
D03*
X275000Y4680000D02*
D03*
X105000Y4850000D02*
D03*
X155000Y4970000D02*
D03*
X395000D02*
D03*
X275000Y5020000D02*
D03*
X155000Y4730000D02*
D03*
X395000D02*
D03*
X2145000Y7400000D02*
D03*
X1975000Y7230000D02*
D03*
X1805000Y7400000D02*
D03*
X1855000Y7520000D02*
D03*
X2095000D02*
D03*
X1975000Y7570000D02*
D03*
X1855000Y7280000D02*
D03*
X2095000D02*
D03*
X1824999Y925001D02*
D03*
X1995000Y600000D02*
D03*
X1825000Y430000D02*
D03*
X1655000Y600000D02*
D03*
X1705000Y720000D02*
D03*
X1945000D02*
D03*
X1825000Y770000D02*
D03*
X1705000Y480000D02*
D03*
X1945000D02*
D03*
X4995000Y3325000D02*
D03*
X4825000Y3155000D02*
D03*
X4655000Y3325000D02*
D03*
X4705000Y3445000D02*
D03*
X4945000D02*
D03*
X4825000Y3495000D02*
D03*
X4705000Y3205000D02*
D03*
X4945000D02*
D03*
X7540500Y6025000D02*
D03*
X7840500D02*
D03*
X7690500D02*
D03*
Y5925000D02*
D03*
X7840500D02*
D03*
X7540500D02*
D03*
Y5575000D02*
D03*
X7840500D02*
D03*
X7690500D02*
D03*
Y5475000D02*
D03*
X7840500D02*
D03*
X7540500D02*
D03*
X6830000Y2137500D02*
D03*
X3225000Y6300000D02*
D03*
X3752500Y5175000D02*
D03*
X3325000Y6300000D02*
D03*
X2700000Y5125000D02*
D03*
X2949996Y605000D02*
D03*
X3074996D02*
D03*
X3199997D02*
D03*
X3324997D02*
D03*
X3449998D02*
D03*
X3574998D02*
D03*
X3699999D02*
D03*
X3824999D02*
D03*
X1824999Y3050010D02*
D03*
Y2925009D02*
D03*
Y2800009D02*
D03*
Y2675008D02*
D03*
Y2550008D02*
D03*
Y2425007D02*
D03*
Y2300007D02*
D03*
Y2175006D02*
D03*
Y2050006D02*
D03*
Y1925005D02*
D03*
Y1800005D02*
D03*
Y1675004D02*
D03*
Y1550004D02*
D03*
Y1425003D02*
D03*
Y1300002D02*
D03*
Y1175002D02*
D03*
Y1050001D02*
D03*
X2125000Y600000D02*
D03*
X2749994Y3325000D02*
D03*
X2874995D02*
D03*
X2999995D02*
D03*
X3124996D02*
D03*
X3249996D02*
D03*
X3374997D02*
D03*
X3499997D02*
D03*
X3624998D02*
D03*
X3749998D02*
D03*
X4828119Y3076928D02*
D03*
Y2951927D02*
D03*
Y2826927D02*
D03*
Y2701926D02*
D03*
Y2576926D02*
D03*
Y2451925D02*
D03*
Y2326924D02*
D03*
Y2201924D02*
D03*
Y2076923D02*
D03*
Y1951923D02*
D03*
Y1826922D02*
D03*
X4825001Y1700004D02*
D03*
Y1575004D02*
D03*
Y1450003D02*
D03*
Y1325003D02*
D03*
Y1200002D02*
D03*
Y1075002D02*
D03*
Y950001D02*
D03*
X4575001Y3325000D02*
D03*
X4450000D02*
D03*
X4000000Y4550000D02*
D03*
X3850000D02*
D03*
X3700000D02*
D03*
X3550000D02*
D03*
X3400000D02*
D03*
X3250000Y4625000D02*
D03*
X3100000Y4550000D02*
D03*
X2950000D02*
D03*
X2800000D02*
D03*
X2650000D02*
D03*
X3402500Y4742500D02*
D03*
X3550000Y4735000D02*
D03*
X3700000D02*
D03*
X3850000D02*
D03*
X4000000D02*
D03*
X3105000Y5000000D02*
D03*
Y5150000D02*
D03*
X3100000Y4740000D02*
D03*
X3005000Y4735000D02*
D03*
X2880000D02*
D03*
X2755000D02*
D03*
X2630000D02*
D03*
X2505000D02*
D03*
X2380000D02*
D03*
X2300000Y4675000D02*
D03*
X800022Y7400017D02*
D03*
X1250011Y7400026D02*
D03*
X1400012Y7400025D02*
D03*
X1550014Y7400024D02*
D03*
X1700015Y7400023D02*
D03*
X1975011Y7100013D02*
D03*
X1975010Y6950012D02*
D03*
X1975009Y6800011D02*
D03*
X1975008Y6650010D02*
D03*
X1975007Y6500009D02*
D03*
X1975006Y6350007D02*
D03*
X1975005Y6200006D02*
D03*
X1975004Y6050005D02*
D03*
X1975003Y5900004D02*
D03*
X1975002Y5750002D02*
D03*
X1975001Y5600001D02*
D03*
X1975000Y5450000D02*
D03*
X1975001Y5150001D02*
D03*
X1975000Y5000000D02*
D03*
X650021Y7400018D02*
D03*
X500020Y7400019D02*
D03*
X275015Y7100018D02*
D03*
X275014Y6950017D02*
D03*
X275013Y6800016D02*
D03*
X275012Y6650015D02*
D03*
X275011Y6500013D02*
D03*
X275010Y6350012D02*
D03*
X275009Y6200011D02*
D03*
X275008Y6050010D02*
D03*
X275007Y5900009D02*
D03*
X275006Y5750007D02*
D03*
X275005Y5600006D02*
D03*
X275004Y5450005D02*
D03*
X275003Y5300004D02*
D03*
X275002Y5150002D02*
D03*
X560000Y4850000D02*
D03*
X1019996Y4850004D02*
D03*
X1169997Y4850003D02*
D03*
X1319998Y4850002D02*
D03*
X6900000Y3300000D02*
D03*
X6450000Y300000D02*
D03*
X6800000Y1700000D02*
D03*
Y1825000D02*
D03*
Y1950000D02*
D03*
X7035000Y1514000D02*
D03*
X4000000Y4375000D02*
D03*
X4200000D02*
D03*
X4000000Y4250000D02*
D03*
X4200000D02*
D03*
X4000000Y4125000D02*
D03*
X4200000D02*
D03*
X4000000Y4000000D02*
D03*
X4200000D02*
D03*
X4000000Y3875000D02*
D03*
X4200000D02*
D03*
X2300000Y4300000D02*
D03*
Y4175000D02*
D03*
Y4050000D02*
D03*
Y3925000D02*
D03*
X2500000D02*
D03*
Y4050000D02*
D03*
Y4175000D02*
D03*
Y4300000D02*
D03*
X7725000Y105000D02*
D03*
X7895000Y275000D02*
D03*
X7725000Y445000D02*
D03*
X7605000Y395000D02*
D03*
Y155000D02*
D03*
X7555000Y275000D02*
D03*
X7845000Y395000D02*
D03*
Y155000D02*
D03*
X275000Y105000D02*
D03*
X445000Y275000D02*
D03*
X275000Y445000D02*
D03*
X155000Y395000D02*
D03*
Y155000D02*
D03*
X105000Y275000D02*
D03*
X395000Y395000D02*
D03*
Y155000D02*
D03*
X2250000Y650000D02*
D03*
X2375000Y1875000D02*
D03*
X2375001Y1725000D02*
D03*
X2275001Y1625000D02*
D03*
X2272500Y1495000D02*
D03*
X2375001Y1275000D02*
D03*
X2300000Y1375000D02*
D03*
X2375001Y1125000D02*
D03*
X2325000Y1025000D02*
D03*
X2250001Y925000D02*
D03*
Y775000D02*
D03*
X4499999D02*
D03*
Y925000D02*
D03*
X4425000Y1025000D02*
D03*
X4374999Y1125000D02*
D03*
X4425000Y1375000D02*
D03*
X4374999Y1275000D02*
D03*
X4474999Y1475000D02*
D03*
X4474999Y1625000D02*
D03*
X4374999Y1725000D02*
D03*
X4375000Y1875000D02*
D03*
X2665000Y675000D02*
D03*
X2665001Y825000D02*
D03*
X2665001Y975000D02*
D03*
X2665002Y1125001D02*
D03*
X2665002Y1275001D02*
D03*
X2665003Y1425001D02*
D03*
X2665003Y1575001D02*
D03*
X2665004Y1725001D02*
D03*
X2665004Y1875002D02*
D03*
X2385000Y2320000D02*
D03*
X2650001Y2325000D02*
D03*
Y2175000D02*
D03*
X2665005Y2025002D02*
D03*
X2225000Y2320000D02*
D03*
X2225000Y2175000D02*
D03*
Y2025000D02*
D03*
X2375000D02*
D03*
X2625000Y2475000D02*
D03*
X2474999Y2625000D02*
D03*
X2324999D02*
D03*
X2175000Y2625000D02*
D03*
X2625000D02*
D03*
X2400000Y2475000D02*
D03*
X2500000Y3400000D02*
D03*
Y4425000D02*
D03*
Y4550000D02*
D03*
X4140000Y4720000D02*
D03*
X4325001Y3225000D02*
D03*
X4325000Y3400000D02*
D03*
X4200000Y4500000D02*
D03*
X4200000Y4625000D02*
D03*
X4199999Y3400000D02*
D03*
X3999999D02*
D03*
X4375000Y2025000D02*
D03*
X4525000D02*
D03*
Y2175000D02*
D03*
Y2325000D02*
D03*
X4099999Y525004D02*
D03*
Y675003D02*
D03*
Y825003D02*
D03*
Y975003D02*
D03*
Y1125002D02*
D03*
Y1275002D02*
D03*
Y1425002D02*
D03*
Y1575001D02*
D03*
Y1725001D02*
D03*
Y1875001D02*
D03*
Y2025001D02*
D03*
Y2175000D02*
D03*
X755000Y4192500D02*
D03*
X845000D02*
D03*
X3400000Y5300000D02*
D03*
Y5150000D02*
D03*
Y5000000D02*
D03*
X7254000Y7454500D02*
D03*
X6804000D02*
D03*
X6904000D02*
D03*
X6804000Y7604500D02*
D03*
Y7904500D02*
D03*
Y7754500D02*
D03*
X6904000D02*
D03*
Y7904500D02*
D03*
Y7604500D02*
D03*
X7254000D02*
D03*
Y7904500D02*
D03*
Y7754500D02*
D03*
X7354000D02*
D03*
Y7904500D02*
D03*
Y7604500D02*
D03*
Y7454500D02*
D03*
X4099999Y2475000D02*
D03*
X4324999Y2750000D02*
D03*
Y2900000D02*
D03*
Y2625000D02*
D03*
Y3050000D02*
D03*
X3875000Y2625000D02*
D03*
X4024999Y2625000D02*
D03*
X4174999D02*
D03*
X3874999Y2775000D02*
D03*
X3874999Y3325000D02*
D03*
X3874999Y2925000D02*
D03*
Y3075000D02*
D03*
Y3225000D02*
D03*
X2175000D02*
D03*
Y3075000D02*
D03*
Y2925000D02*
D03*
X2175000Y3325000D02*
D03*
X2175000Y2775000D02*
D03*
X4099999Y2325000D02*
D03*
X2700000Y120500D02*
D03*
X2800000Y420500D02*
D03*
X2350000Y120500D02*
D03*
X2799999Y570500D02*
D03*
X2250000Y270500D02*
D03*
X2700000D02*
D03*
X2700000Y570500D02*
D03*
X2350000Y420500D02*
D03*
X2800000Y270500D02*
D03*
X2250000Y120500D02*
D03*
X2350000Y270500D02*
D03*
X2700000Y420500D02*
D03*
X2800000Y120500D02*
D03*
X2250000Y420500D02*
D03*
X2300000Y5975001D02*
D03*
X2450000D02*
D03*
X2300000Y5825001D02*
D03*
X2450000D02*
D03*
Y5675000D02*
D03*
X2300000D02*
D03*
X2295000Y5525000D02*
D03*
X2450000Y5500000D02*
D03*
Y5300000D02*
D03*
X2295000Y5225000D02*
D03*
X2297500Y5377500D02*
D03*
X2625000Y3225000D02*
D03*
Y3075000D02*
D03*
X2625000Y2925000D02*
D03*
Y2775000D02*
D03*
X2300000Y4425000D02*
D03*
Y4550000D02*
D03*
X725220Y5980000D02*
D03*
X575220D02*
D03*
X725000Y7100000D02*
D03*
X800220Y6315000D02*
D03*
X650220Y6215000D02*
D03*
X800220D02*
D03*
X425220Y6140000D02*
D03*
Y6290000D02*
D03*
X662500Y6315000D02*
D03*
X875000Y6950000D02*
D03*
Y7100000D02*
D03*
Y6800000D02*
D03*
X875220Y5980000D02*
D03*
X890000Y5600000D02*
D03*
X1125000Y6800000D02*
D03*
Y6950000D02*
D03*
Y7100000D02*
D03*
X4324999Y2475000D02*
D03*
X4375000Y2325000D02*
D03*
X3950000Y605000D02*
D03*
Y455000D02*
D03*
Y154999D02*
D03*
Y305000D02*
D03*
X4050000D02*
D03*
Y154999D02*
D03*
Y455000D02*
D03*
X4400000D02*
D03*
Y154999D02*
D03*
Y305000D02*
D03*
X4500000D02*
D03*
Y154999D02*
D03*
X4400000Y575000D02*
D03*
X4500000Y650000D02*
D03*
X890000Y5750000D02*
D03*
Y5900000D02*
D03*
X425220Y5980000D02*
D03*
Y6440000D02*
D03*
X725000Y7250000D02*
D03*
X725000Y7850000D02*
D03*
Y7700000D02*
D03*
Y7550000D02*
D03*
X800000Y7850000D02*
D03*
Y7700000D02*
D03*
Y7550000D02*
D03*
X875000D02*
D03*
Y7700000D02*
D03*
Y7850000D02*
D03*
X1275000D02*
D03*
Y7700000D02*
D03*
Y7550000D02*
D03*
X1200000Y7850000D02*
D03*
Y7700000D02*
D03*
X1125000Y7550000D02*
D03*
Y7700000D02*
D03*
Y7850000D02*
D03*
Y7400000D02*
D03*
Y7250000D02*
D03*
X1125220Y6590000D02*
D03*
Y5965000D02*
D03*
X1125000Y5875000D02*
D03*
X2754000Y7404500D02*
D03*
X2304000Y7704500D02*
D03*
Y7554500D02*
D03*
Y7854500D02*
D03*
X2404000D02*
D03*
Y7554500D02*
D03*
Y7704500D02*
D03*
X2754000D02*
D03*
Y7554500D02*
D03*
Y7854500D02*
D03*
X2854000D02*
D03*
Y7554500D02*
D03*
Y7704500D02*
D03*
X2400000Y7400000D02*
D03*
X2300000Y7250000D02*
D03*
X275000Y7555000D02*
D03*
X445000Y7725000D02*
D03*
X275000Y7895000D02*
D03*
X155000Y7845000D02*
D03*
Y7605000D02*
D03*
X105000Y7725000D02*
D03*
X395000Y7845000D02*
D03*
Y7605000D02*
D03*
X7845000D02*
D03*
Y7845000D02*
D03*
X7555000Y7725000D02*
D03*
X7605000Y7605000D02*
D03*
Y7845000D02*
D03*
X7725000Y7895000D02*
D03*
X7895000Y7725000D02*
D03*
X7725000Y7555000D02*
D03*
X1005220Y6350000D02*
D03*
X1095220D02*
D03*
Y6260000D02*
D03*
X800220Y6415000D02*
D03*
X662500D02*
D03*
X875220Y6600000D02*
D03*
X735220D02*
D03*
X575000Y6607500D02*
D03*
X425220Y6600000D02*
D03*
X1005220Y6260000D02*
D03*
X2300000Y7025000D02*
D03*
X2305000Y6830000D02*
D03*
X1769999Y4850001D02*
D03*
X1619999D02*
D03*
X1469999D02*
D03*
X1250000Y4950000D02*
D03*
X1250000Y5075001D02*
D03*
X1849999Y5825000D02*
D03*
X1699999D02*
D03*
X1549999D02*
D03*
X1399999D02*
D03*
X1250000Y5675000D02*
D03*
X1600000Y5700000D02*
D03*
Y5550000D02*
D03*
Y5400000D02*
D03*
Y5250000D02*
D03*
X1675000Y5175000D02*
D03*
Y5325000D02*
D03*
Y5475000D02*
D03*
X1525000Y5175000D02*
D03*
Y5325000D02*
D03*
Y5475000D02*
D03*
X1600000Y5100000D02*
D03*
Y4950000D02*
D03*
X950000Y5225000D02*
D03*
X1100000D02*
D03*
X1250000D02*
D03*
X1920000Y4850000D02*
D03*
X2150000Y5225000D02*
D03*
X2075000Y5450000D02*
D03*
X1250000Y5825000D02*
D03*
Y5525000D02*
D03*
X1175000Y5450000D02*
D03*
X1125000Y5725000D02*
D03*
Y5575000D02*
D03*
X1200220Y6040000D02*
D03*
X1350220D02*
D03*
Y6190000D02*
D03*
Y6340000D02*
D03*
Y6490000D02*
D03*
X1200220Y6490000D02*
D03*
X1200000Y7550000D02*
D03*
X2250000Y570500D02*
D03*
X2300000Y7125000D02*
D03*
X2300000Y3400000D02*
D03*
X2625000Y3325000D02*
D03*
X4302500Y6630000D02*
D03*
D63*
X5950000Y1195000D02*
D03*
X6211500Y242760D02*
D03*
X6011500Y246260D02*
D03*
X5811500Y242760D02*
D03*
X7475000Y2350000D02*
D03*
X7475000Y2150000D02*
D03*
X7675000D02*
D03*
X7875000D02*
D03*
Y2350000D02*
D03*
Y2550000D02*
D03*
Y2750000D02*
D03*
Y2950000D02*
D03*
Y3150000D02*
D03*
X7300000Y125000D02*
D03*
X7100000D02*
D03*
X6900000D02*
D03*
X6700000D02*
D03*
X6500000D02*
D03*
X6300000D02*
D03*
X6100000D02*
D03*
X5900000D02*
D03*
X5700000D02*
D03*
X5500000D02*
D03*
X5900000Y1400000D02*
D03*
Y1550000D02*
D03*
X5275000Y3399998D02*
D03*
X5895000Y3935000D02*
D03*
Y4117500D02*
D03*
X5415000Y7000000D02*
D03*
X5700000Y6675000D02*
D03*
X5450000Y3950000D02*
D03*
X6375000Y3850000D02*
D03*
X5950000Y3499998D02*
D03*
X5750000D02*
D03*
X5550000D02*
D03*
X5350000D02*
D03*
X5225000Y3500000D02*
D03*
X5849999Y3399998D02*
D03*
X5650000D02*
D03*
X5450000D02*
D03*
X5125000D02*
D03*
X5225000Y3299998D02*
D03*
X5125000Y3199998D02*
D03*
X5225000Y3099998D02*
D03*
X5125000Y2999998D02*
D03*
X5225000Y2899998D02*
D03*
X5125000Y2799998D02*
D03*
X5225000Y2699998D02*
D03*
X5125000Y2599998D02*
D03*
X5225000Y2499998D02*
D03*
X5125000Y2399998D02*
D03*
X5225000Y2299998D02*
D03*
X5125000Y2199998D02*
D03*
X5225000Y2099999D02*
D03*
X5125000Y1999999D02*
D03*
X5225000Y1899999D02*
D03*
X5125000Y1799999D02*
D03*
X5225000Y1699999D02*
D03*
X5125000Y1599999D02*
D03*
X5225000Y1499999D02*
D03*
X5125000Y1399999D02*
D03*
X5225000Y1299999D02*
D03*
X5125000Y1199999D02*
D03*
X5225000Y1099999D02*
D03*
X5125000Y999999D02*
D03*
X5225000Y899999D02*
D03*
X5125000Y799999D02*
D03*
X5225000Y700000D02*
D03*
X5125000Y600000D02*
D03*
X5225000Y500000D02*
D03*
X5125000Y400000D02*
D03*
X5225000Y300000D02*
D03*
X5125000Y200000D02*
D03*
X5222500Y110000D02*
D03*
X4400000Y4650000D02*
D03*
X5050000Y5100000D02*
D03*
Y5325000D02*
D03*
X6875000Y5950000D02*
D03*
X7100000D02*
D03*
X6475000Y5275000D02*
D03*
Y5450000D02*
D03*
X6100000Y4925000D02*
D03*
X6275000D02*
D03*
X6450000D02*
D03*
X2800000Y6625000D02*
D03*
X375000Y5650000D02*
D03*
X950000Y3650000D02*
D03*
X700000D02*
D03*
X6330000Y1510000D02*
D03*
X6140000D02*
D03*
X5525000Y1225000D02*
D03*
X5725000Y2825000D02*
D03*
X5525000D02*
D03*
Y1000000D02*
D03*
X5275000Y3950000D02*
D03*
X7075000Y3300000D02*
D03*
X7275000D02*
D03*
X3225000Y5550000D02*
D03*
X3525000D02*
D03*
X3375000D02*
D03*
X3675000D02*
D03*
X3525000Y5725000D02*
D03*
X3375000D02*
D03*
X3225000D02*
D03*
X3675000D02*
D03*
X3375000Y5875000D02*
D03*
X3225000D02*
D03*
X3525000D02*
D03*
X3675000D02*
D03*
X3225000Y6025000D02*
D03*
X3375000D02*
D03*
X3525000D02*
D03*
X4180000Y6923000D02*
D03*
X4030000D02*
D03*
X3880000Y6928000D02*
D03*
X3730000D02*
D03*
X3580000D02*
D03*
X3430000Y6923000D02*
D03*
X3280000D02*
D03*
X3130000D02*
D03*
X2980000D02*
D03*
X385000Y4500000D02*
D03*
X7150000Y4250000D02*
D03*
X4994540Y4325000D02*
D03*
X1142500Y4005000D02*
D03*
X2800000Y6275000D02*
D03*
X6650000Y7305000D02*
D03*
%TF.MD5,78984ade9c5c65569f77ae46bf7a4f8c*%
M02*
