%TF.GenerationSoftware,Altium Limited,Altium Designer,26.9.1 (10)*%
G04 Layer_Color=2752767*
G04 Board_Origin=13779528|11122048*
%FSLAX45Y45*%
%MOMM*%
%TF.SameCoordinates,C0C7667C-18A9-4E34-ADBB-357C6C009FE5*%
%TF.FilePolarity,Positive*%
%TF.FileFunction,Drawing*%
%TF.Part,Single*%
G01*
G75*
%TA.AperFunction,NonConductor*%
%ADD69C,0.12700*%
%ADD125C,0.16933*%
D69*
X1774200Y3274200D02*
X1799600Y3325000D01*
X1774200Y3375800D01*
X1825000Y3350400D01*
X1875800Y3375800D01*
X1850400Y3325000D01*
X1875800Y3274200D01*
X1825000Y3299600D01*
X1774200Y3274200D01*
X4774200Y549200D02*
X4799600Y600000D01*
X4774200Y650800D01*
X4825000Y625400D01*
X4875800Y650800D01*
X4850400Y600000D01*
X4875800Y549200D01*
X4825000Y574600D01*
X4774200Y549200D01*
X224200Y4799200D02*
X249600Y4850000D01*
X224200Y4900800D01*
X275000Y4875400D01*
X325800Y4900800D01*
X300400Y4850000D01*
X325800Y4799200D01*
X275000Y4824600D01*
X224200Y4799200D01*
X1924200Y7349200D02*
X1949600Y7400000D01*
X1924200Y7450800D01*
X1975000Y7425400D01*
X2025800Y7450800D01*
X2000400Y7400000D01*
X2025800Y7349200D01*
X1975000Y7374600D01*
X1924200Y7349200D01*
X1774200Y549200D02*
X1799600Y600000D01*
X1774200Y650800D01*
X1825000Y625400D01*
X1875800Y650800D01*
X1850400Y600000D01*
X1875800Y549200D01*
X1825000Y574600D01*
X1774200Y549200D01*
X4774200Y3274200D02*
X4799600Y3325000D01*
X4774200Y3375800D01*
X4825000Y3350400D01*
X4875800Y3375800D01*
X4850400Y3325000D01*
X4875800Y3274200D01*
X4825000Y3299600D01*
X4774200Y3274200D01*
X7674200Y224200D02*
X7699600Y275000D01*
X7674200Y325800D01*
X7725000Y300400D01*
X7775800Y325800D01*
X7750400Y275000D01*
X7775800Y224200D01*
X7725000Y249600D01*
X7674200Y224200D01*
X224200D02*
X249600Y275000D01*
X224200Y325800D01*
X275000Y300400D01*
X325800Y325800D01*
X300400Y275000D01*
X325800Y224200D01*
X275000Y249600D01*
X224200Y224200D01*
X7600000Y1203200D02*
X7549200Y1304800D01*
X7650800D01*
X7600000Y1203200D01*
Y949200D02*
X7549200Y1050800D01*
X7650800D01*
X7600000Y949200D01*
X224200Y7674200D02*
X249600Y7725000D01*
X224200Y7775800D01*
X275000Y7750400D01*
X325800Y7775800D01*
X300400Y7725000D01*
X325800Y7674200D01*
X275000Y7699600D01*
X224200Y7674200D01*
X7674200D02*
X7699600Y7725000D01*
X7674200Y7775800D01*
X7725000Y7750400D01*
X7775800Y7775800D01*
X7750400Y7725000D01*
X7775800Y7674200D01*
X7725000Y7699600D01*
X7674200Y7674200D01*
X7600000Y1457200D02*
X7549200Y1558800D01*
X7650800D01*
X7600000Y1457200D01*
Y1711200D02*
X7549200Y1812800D01*
X7650800D01*
X7600000Y1711200D01*
X1944200Y3274200D02*
Y3375800D01*
X2045800D01*
Y3274200D01*
X1944200D01*
X1774200Y3104200D02*
Y3205800D01*
X1875800D01*
Y3104200D01*
X1774200D01*
X1604200Y3274200D02*
Y3375800D01*
X1705800D01*
Y3274200D01*
X1604200D01*
X1654200Y3394200D02*
Y3495800D01*
X1755800D01*
Y3394200D01*
X1654200D01*
X1894200D02*
Y3495800D01*
X1995800D01*
Y3394200D01*
X1894200D01*
X1774200Y3444200D02*
Y3545800D01*
X1875800D01*
Y3444200D01*
X1774200D01*
X1654200Y3154200D02*
Y3255800D01*
X1755800D01*
Y3154200D01*
X1654200D01*
X1894200D02*
Y3255800D01*
X1995800D01*
Y3154200D01*
X1894200D01*
X3601700Y5121700D02*
Y5223300D01*
X3703300D01*
Y5121700D01*
X3601700D01*
X3609200Y5034200D02*
Y5135800D01*
X3710800D01*
Y5034200D01*
X3609200D01*
X5950000Y1144200D02*
X5975400Y1169600D01*
X6000800D01*
X5975400Y1195000D01*
X6000800Y1220400D01*
X5975400D01*
X5950000Y1245800D01*
X5924600Y1220400D01*
X5899200D01*
X5924600Y1195000D01*
X5899200Y1169600D01*
X5924600D01*
X5950000Y1144200D01*
X6211500Y191960D02*
X6236900Y217360D01*
X6262300D01*
X6236900Y242760D01*
X6262300Y268160D01*
X6236900D01*
X6211500Y293560D01*
X6186100Y268160D01*
X6160700D01*
X6186100Y242760D01*
X6160700Y217360D01*
X6186100D01*
X6211500Y191960D01*
X6011500Y195460D02*
X6036900Y220860D01*
X6062300D01*
X6036900Y246260D01*
X6062300Y271660D01*
X6036900D01*
X6011500Y297060D01*
X5986100Y271660D01*
X5960700D01*
X5986100Y246260D01*
X5960700Y220860D01*
X5986100D01*
X6011500Y195460D01*
X5811500Y191960D02*
X5836900Y217360D01*
X5862300D01*
X5836900Y242760D01*
X5862300Y268160D01*
X5836900D01*
X5811500Y293560D01*
X5786100Y268160D01*
X5760700D01*
X5786100Y242760D01*
X5760700Y217360D01*
X5786100D01*
X5811500Y191960D01*
X7475000Y2299200D02*
X7500400Y2324600D01*
X7525800D01*
X7500400Y2350000D01*
X7525800Y2375400D01*
X7500400D01*
X7475000Y2400800D01*
X7449600Y2375400D01*
X7424200D01*
X7449600Y2350000D01*
X7424200Y2324600D01*
X7449600D01*
X7475000Y2299200D01*
X7475000Y2099200D02*
X7500400Y2124600D01*
X7525800D01*
X7500400Y2150000D01*
X7525800Y2175400D01*
X7500400D01*
X7475000Y2200800D01*
X7449600Y2175400D01*
X7424200D01*
X7449600Y2150000D01*
X7424200Y2124600D01*
X7449600D01*
X7475000Y2099200D01*
X7675000D02*
X7700400Y2124600D01*
X7725800D01*
X7700400Y2150000D01*
X7725800Y2175400D01*
X7700400D01*
X7675000Y2200800D01*
X7649600Y2175400D01*
X7624200D01*
X7649600Y2150000D01*
X7624200Y2124600D01*
X7649600D01*
X7675000Y2099200D01*
X7875000D02*
X7900400Y2124600D01*
X7925800D01*
X7900400Y2150000D01*
X7925800Y2175400D01*
X7900400D01*
X7875000Y2200800D01*
X7849600Y2175400D01*
X7824200D01*
X7849600Y2150000D01*
X7824200Y2124600D01*
X7849600D01*
X7875000Y2099200D01*
Y2299200D02*
X7900400Y2324600D01*
X7925800D01*
X7900400Y2350000D01*
X7925800Y2375400D01*
X7900400D01*
X7875000Y2400800D01*
X7849600Y2375400D01*
X7824200D01*
X7849600Y2350000D01*
X7824200Y2324600D01*
X7849600D01*
X7875000Y2299200D01*
Y2499200D02*
X7900400Y2524600D01*
X7925800D01*
X7900400Y2550000D01*
X7925800Y2575400D01*
X7900400D01*
X7875000Y2600800D01*
X7849600Y2575400D01*
X7824200D01*
X7849600Y2550000D01*
X7824200Y2524600D01*
X7849600D01*
X7875000Y2499200D01*
Y2699200D02*
X7900400Y2724600D01*
X7925800D01*
X7900400Y2750000D01*
X7925800Y2775400D01*
X7900400D01*
X7875000Y2800800D01*
X7849600Y2775400D01*
X7824200D01*
X7849600Y2750000D01*
X7824200Y2724600D01*
X7849600D01*
X7875000Y2699200D01*
Y2899200D02*
X7900400Y2924600D01*
X7925800D01*
X7900400Y2950000D01*
X7925800Y2975400D01*
X7900400D01*
X7875000Y3000800D01*
X7849600Y2975400D01*
X7824200D01*
X7849600Y2950000D01*
X7824200Y2924600D01*
X7849600D01*
X7875000Y2899200D01*
Y3099200D02*
X7900400Y3124600D01*
X7925800D01*
X7900400Y3150000D01*
X7925800Y3175400D01*
X7900400D01*
X7875000Y3200800D01*
X7849600Y3175400D01*
X7824200D01*
X7849600Y3150000D01*
X7824200Y3124600D01*
X7849600D01*
X7875000Y3099200D01*
X7300000Y74200D02*
X7325400Y99600D01*
X7350800D01*
X7325400Y125000D01*
X7350800Y150400D01*
X7325400D01*
X7300000Y175800D01*
X7274600Y150400D01*
X7249200D01*
X7274600Y125000D01*
X7249200Y99600D01*
X7274600D01*
X7300000Y74200D01*
X7100000D02*
X7125400Y99600D01*
X7150800D01*
X7125400Y125000D01*
X7150800Y150400D01*
X7125400D01*
X7100000Y175800D01*
X7074600Y150400D01*
X7049200D01*
X7074600Y125000D01*
X7049200Y99600D01*
X7074600D01*
X7100000Y74200D01*
X6900000D02*
X6925400Y99600D01*
X6950800D01*
X6925400Y125000D01*
X6950800Y150400D01*
X6925400D01*
X6900000Y175800D01*
X6874600Y150400D01*
X6849200D01*
X6874600Y125000D01*
X6849200Y99600D01*
X6874600D01*
X6900000Y74200D01*
X6700000D02*
X6725400Y99600D01*
X6750800D01*
X6725400Y125000D01*
X6750800Y150400D01*
X6725400D01*
X6700000Y175800D01*
X6674600Y150400D01*
X6649200D01*
X6674600Y125000D01*
X6649200Y99600D01*
X6674600D01*
X6700000Y74200D01*
X6500000D02*
X6525400Y99600D01*
X6550800D01*
X6525400Y125000D01*
X6550800Y150400D01*
X6525400D01*
X6500000Y175800D01*
X6474600Y150400D01*
X6449200D01*
X6474600Y125000D01*
X6449200Y99600D01*
X6474600D01*
X6500000Y74200D01*
X6300000D02*
X6325400Y99600D01*
X6350800D01*
X6325400Y125000D01*
X6350800Y150400D01*
X6325400D01*
X6300000Y175800D01*
X6274600Y150400D01*
X6249200D01*
X6274600Y125000D01*
X6249200Y99600D01*
X6274600D01*
X6300000Y74200D01*
X6100000D02*
X6125400Y99600D01*
X6150800D01*
X6125400Y125000D01*
X6150800Y150400D01*
X6125400D01*
X6100000Y175800D01*
X6074600Y150400D01*
X6049200D01*
X6074600Y125000D01*
X6049200Y99600D01*
X6074600D01*
X6100000Y74200D01*
X5900000D02*
X5925400Y99600D01*
X5950800D01*
X5925400Y125000D01*
X5950800Y150400D01*
X5925400D01*
X5900000Y175800D01*
X5874600Y150400D01*
X5849200D01*
X5874600Y125000D01*
X5849200Y99600D01*
X5874600D01*
X5900000Y74200D01*
X5700000D02*
X5725400Y99600D01*
X5750800D01*
X5725400Y125000D01*
X5750800Y150400D01*
X5725400D01*
X5700000Y175800D01*
X5674600Y150400D01*
X5649200D01*
X5674600Y125000D01*
X5649200Y99600D01*
X5674600D01*
X5700000Y74200D01*
X5500000D02*
X5525400Y99600D01*
X5550800D01*
X5525400Y125000D01*
X5550800Y150400D01*
X5525400D01*
X5500000Y175800D01*
X5474600Y150400D01*
X5449200D01*
X5474600Y125000D01*
X5449200Y99600D01*
X5474600D01*
X5500000Y74200D01*
X5900000Y1349200D02*
X5925400Y1374600D01*
X5950800D01*
X5925400Y1400000D01*
X5950800Y1425400D01*
X5925400D01*
X5900000Y1450800D01*
X5874600Y1425400D01*
X5849200D01*
X5874600Y1400000D01*
X5849200Y1374600D01*
X5874600D01*
X5900000Y1349200D01*
Y1499200D02*
X5925400Y1524600D01*
X5950800D01*
X5925400Y1550000D01*
X5950800Y1575400D01*
X5925400D01*
X5900000Y1600800D01*
X5874600Y1575400D01*
X5849200D01*
X5874600Y1550000D01*
X5849200Y1524600D01*
X5874600D01*
X5900000Y1499200D01*
X4449200Y404200D02*
Y505800D01*
X4550800D01*
Y404200D01*
X4449200D01*
X4944200Y549200D02*
Y650800D01*
X5045800D01*
Y549200D01*
X4944200D01*
X4774200Y379200D02*
Y480800D01*
X4875800D01*
Y379200D01*
X4774200D01*
X4604200Y549200D02*
Y650800D01*
X4705800D01*
Y549200D01*
X4604200D01*
X4654200Y669200D02*
Y770800D01*
X4755800D01*
Y669200D01*
X4654200D01*
X4894200D02*
Y770800D01*
X4995800D01*
Y669200D01*
X4894200D01*
X4774200Y719200D02*
Y820800D01*
X4875800D01*
Y719200D01*
X4774200D01*
X4654200Y429200D02*
Y530800D01*
X4755800D01*
Y429200D01*
X4654200D01*
X4894200D02*
Y530800D01*
X4995800D01*
Y429200D01*
X4894200D01*
X349200Y7349200D02*
Y7450800D01*
X450800D01*
Y7349200D01*
X349200D01*
X224200D02*
Y7450800D01*
X325800D01*
Y7349200D01*
X224200D01*
X224216Y7199220D02*
Y7300820D01*
X325816D01*
Y7199220D01*
X224216D01*
X394200Y4799200D02*
Y4900800D01*
X495800D01*
Y4799200D01*
X394200D01*
X224200Y4629200D02*
Y4730800D01*
X325800D01*
Y4629200D01*
X224200D01*
X54200Y4799200D02*
Y4900800D01*
X155800D01*
Y4799200D01*
X54200D01*
X104200Y4919200D02*
Y5020800D01*
X205800D01*
Y4919200D01*
X104200D01*
X344200D02*
Y5020800D01*
X445800D01*
Y4919200D01*
X344200D01*
X224200Y4969200D02*
Y5070800D01*
X325800D01*
Y4969200D01*
X224200D01*
X104200Y4679200D02*
Y4780800D01*
X205800D01*
Y4679200D01*
X104200D01*
X344200D02*
Y4780800D01*
X445800D01*
Y4679200D01*
X344200D01*
X2094200Y7349200D02*
Y7450800D01*
X2195800D01*
Y7349200D01*
X2094200D01*
X1924200Y7179200D02*
Y7280800D01*
X2025800D01*
Y7179200D01*
X1924200D01*
X1754200Y7349200D02*
Y7450800D01*
X1855800D01*
Y7349200D01*
X1754200D01*
X1804200Y7469200D02*
Y7570800D01*
X1905800D01*
Y7469200D01*
X1804200D01*
X2044200D02*
Y7570800D01*
X2145800D01*
Y7469200D01*
X2044200D01*
X1924200Y7519200D02*
Y7620800D01*
X2025800D01*
Y7519200D01*
X1924200D01*
X1804200Y7229200D02*
Y7330800D01*
X1905800D01*
Y7229200D01*
X1804200D01*
X2044200D02*
Y7330800D01*
X2145800D01*
Y7229200D01*
X2044200D01*
X1774199Y874201D02*
Y975801D01*
X1875799D01*
Y874201D01*
X1774199D01*
X1944200Y549200D02*
Y650800D01*
X2045800D01*
Y549200D01*
X1944200D01*
X1774200Y379200D02*
Y480800D01*
X1875800D01*
Y379200D01*
X1774200D01*
X1604200Y549200D02*
Y650800D01*
X1705800D01*
Y549200D01*
X1604200D01*
X1654200Y669200D02*
Y770800D01*
X1755800D01*
Y669200D01*
X1654200D01*
X1894200D02*
Y770800D01*
X1995800D01*
Y669200D01*
X1894200D01*
X1774200Y719200D02*
Y820800D01*
X1875800D01*
Y719200D01*
X1774200D01*
X1654200Y429200D02*
Y530800D01*
X1755800D01*
Y429200D01*
X1654200D01*
X1894200D02*
Y530800D01*
X1995800D01*
Y429200D01*
X1894200D01*
X4944200Y3274200D02*
Y3375800D01*
X5045800D01*
Y3274200D01*
X4944200D01*
X4774200Y3104200D02*
Y3205800D01*
X4875800D01*
Y3104200D01*
X4774200D01*
X4604200Y3274200D02*
Y3375800D01*
X4705800D01*
Y3274200D01*
X4604200D01*
X4654200Y3394200D02*
Y3495800D01*
X4755800D01*
Y3394200D01*
X4654200D01*
X4894200D02*
Y3495800D01*
X4995800D01*
Y3394200D01*
X4894200D01*
X4774200Y3444200D02*
Y3545800D01*
X4875800D01*
Y3444200D01*
X4774200D01*
X4654200Y3154200D02*
Y3255800D01*
X4755800D01*
Y3154200D01*
X4654200D01*
X4894200D02*
Y3255800D01*
X4995800D01*
Y3154200D01*
X4894200D01*
X5275000Y3349198D02*
X5300400Y3374598D01*
X5325800D01*
X5300400Y3399998D01*
X5325800Y3425398D01*
X5300400D01*
X5275000Y3450798D01*
X5249600Y3425398D01*
X5224200D01*
X5249600Y3399998D01*
X5224200Y3374598D01*
X5249600D01*
X5275000Y3349198D01*
X7489700Y5974200D02*
Y6075800D01*
X7591300D01*
Y5974200D01*
X7489700D01*
X7789700D02*
Y6075800D01*
X7891300D01*
Y5974200D01*
X7789700D01*
X7639700D02*
Y6075800D01*
X7741300D01*
Y5974200D01*
X7639700D01*
Y5874200D02*
Y5975800D01*
X7741300D01*
Y5874200D01*
X7639700D01*
X7789700D02*
Y5975800D01*
X7891300D01*
Y5874200D01*
X7789700D01*
X7489700D02*
Y5975800D01*
X7591300D01*
Y5874200D01*
X7489700D01*
Y5524200D02*
Y5625800D01*
X7591300D01*
Y5524200D01*
X7489700D01*
X7789700D02*
Y5625800D01*
X7891300D01*
Y5524200D01*
X7789700D01*
X7639700D02*
Y5625800D01*
X7741300D01*
Y5524200D01*
X7639700D01*
Y5424200D02*
Y5525800D01*
X7741300D01*
Y5424200D01*
X7639700D01*
X7789700D02*
Y5525800D01*
X7891300D01*
Y5424200D01*
X7789700D01*
X7489700D02*
Y5525800D01*
X7591300D01*
Y5424200D01*
X7489700D01*
X6779200Y2086700D02*
Y2188300D01*
X6880800D01*
Y2086700D01*
X6779200D01*
X5895000Y3884200D02*
X5920400Y3909600D01*
X5945800D01*
X5920400Y3935000D01*
X5945800Y3960400D01*
X5920400D01*
X5895000Y3985800D01*
X5869600Y3960400D01*
X5844200D01*
X5869600Y3935000D01*
X5844200Y3909600D01*
X5869600D01*
X5895000Y3884200D01*
Y4066700D02*
X5920400Y4092100D01*
X5945800D01*
X5920400Y4117500D01*
X5945800Y4142900D01*
X5920400D01*
X5895000Y4168300D01*
X5869600Y4142900D01*
X5844200D01*
X5869600Y4117500D01*
X5844200Y4092100D01*
X5869600D01*
X5895000Y4066700D01*
X3174200Y6249200D02*
Y6350800D01*
X3275800D01*
Y6249200D01*
X3174200D01*
X3701700Y5124200D02*
Y5225800D01*
X3803300D01*
Y5124200D01*
X3701700D01*
X5415000Y6949200D02*
X5440400Y6974600D01*
X5465800D01*
X5440400Y7000000D01*
X5465800Y7025400D01*
X5440400D01*
X5415000Y7050800D01*
X5389600Y7025400D01*
X5364200D01*
X5389600Y7000000D01*
X5364200Y6974600D01*
X5389600D01*
X5415000Y6949200D01*
X3274200Y6249200D02*
Y6350800D01*
X3375800D01*
Y6249200D01*
X3274200D01*
X5700000Y6624200D02*
X5725400Y6649600D01*
X5750800D01*
X5725400Y6675000D01*
X5750800Y6700400D01*
X5725400D01*
X5700000Y6725800D01*
X5674600Y6700400D01*
X5649200D01*
X5674600Y6675000D01*
X5649200Y6649600D01*
X5674600D01*
X5700000Y6624200D01*
X2649200Y5074200D02*
Y5175800D01*
X2750800D01*
Y5074200D01*
X2649200D01*
X5450000Y3899200D02*
X5475400Y3924600D01*
X5500800D01*
X5475400Y3950000D01*
X5500800Y3975400D01*
X5475400D01*
X5450000Y4000800D01*
X5424600Y3975400D01*
X5399200D01*
X5424600Y3950000D01*
X5399200Y3924600D01*
X5424600D01*
X5450000Y3899200D01*
X6375000Y3799200D02*
X6400400Y3824600D01*
X6425800D01*
X6400400Y3850000D01*
X6425800Y3875400D01*
X6400400D01*
X6375000Y3900800D01*
X6349600Y3875400D01*
X6324200D01*
X6349600Y3850000D01*
X6324200Y3824600D01*
X6349600D01*
X6375000Y3799200D01*
X5950000Y3449198D02*
X5975400Y3474598D01*
X6000800D01*
X5975400Y3499998D01*
X6000800Y3525398D01*
X5975400D01*
X5950000Y3550798D01*
X5924600Y3525398D01*
X5899200D01*
X5924600Y3499998D01*
X5899200Y3474598D01*
X5924600D01*
X5950000Y3449198D01*
X5750000D02*
X5775400Y3474598D01*
X5800800D01*
X5775400Y3499998D01*
X5800800Y3525398D01*
X5775400D01*
X5750000Y3550798D01*
X5724600Y3525398D01*
X5699200D01*
X5724600Y3499998D01*
X5699200Y3474598D01*
X5724600D01*
X5750000Y3449198D01*
X5550000D02*
X5575400Y3474598D01*
X5600800D01*
X5575400Y3499998D01*
X5600800Y3525398D01*
X5575400D01*
X5550000Y3550798D01*
X5524600Y3525398D01*
X5499200D01*
X5524600Y3499998D01*
X5499200Y3474598D01*
X5524600D01*
X5550000Y3449198D01*
X5350000D02*
X5375400Y3474598D01*
X5400800D01*
X5375400Y3499998D01*
X5400800Y3525398D01*
X5375400D01*
X5350000Y3550798D01*
X5324600Y3525398D01*
X5299200D01*
X5324600Y3499998D01*
X5299200Y3474598D01*
X5324600D01*
X5350000Y3449198D01*
X5225000Y3449200D02*
X5250400Y3474600D01*
X5275800D01*
X5250400Y3500000D01*
X5275800Y3525400D01*
X5250400D01*
X5225000Y3550800D01*
X5199600Y3525400D01*
X5174200D01*
X5199600Y3500000D01*
X5174200Y3474600D01*
X5199600D01*
X5225000Y3449200D01*
X5849999Y3349198D02*
X5875399Y3374598D01*
X5900799D01*
X5875399Y3399998D01*
X5900799Y3425398D01*
X5875399D01*
X5849999Y3450798D01*
X5824599Y3425398D01*
X5799199D01*
X5824599Y3399998D01*
X5799199Y3374598D01*
X5824599D01*
X5849999Y3349198D01*
X5650000D02*
X5675400Y3374598D01*
X5700800D01*
X5675400Y3399998D01*
X5700800Y3425398D01*
X5675400D01*
X5650000Y3450798D01*
X5624600Y3425398D01*
X5599200D01*
X5624600Y3399998D01*
X5599200Y3374598D01*
X5624600D01*
X5650000Y3349198D01*
X5450000D02*
X5475400Y3374598D01*
X5500800D01*
X5475400Y3399998D01*
X5500800Y3425398D01*
X5475400D01*
X5450000Y3450798D01*
X5424600Y3425398D01*
X5399200D01*
X5424600Y3399998D01*
X5399200Y3374598D01*
X5424600D01*
X5450000Y3349198D01*
X5125000D02*
X5150400Y3374598D01*
X5175800D01*
X5150400Y3399998D01*
X5175800Y3425398D01*
X5150400D01*
X5125000Y3450798D01*
X5099600Y3425398D01*
X5074200D01*
X5099600Y3399998D01*
X5074200Y3374598D01*
X5099600D01*
X5125000Y3349198D01*
X5225000Y3249198D02*
X5250400Y3274598D01*
X5275800D01*
X5250400Y3299998D01*
X5275800Y3325398D01*
X5250400D01*
X5225000Y3350798D01*
X5199600Y3325398D01*
X5174200D01*
X5199600Y3299998D01*
X5174200Y3274598D01*
X5199600D01*
X5225000Y3249198D01*
X5125000Y3149198D02*
X5150400Y3174598D01*
X5175800D01*
X5150400Y3199998D01*
X5175800Y3225398D01*
X5150400D01*
X5125000Y3250798D01*
X5099600Y3225398D01*
X5074200D01*
X5099600Y3199998D01*
X5074200Y3174598D01*
X5099600D01*
X5125000Y3149198D01*
X5225000Y3049198D02*
X5250400Y3074598D01*
X5275800D01*
X5250400Y3099998D01*
X5275800Y3125398D01*
X5250400D01*
X5225000Y3150798D01*
X5199600Y3125398D01*
X5174200D01*
X5199600Y3099998D01*
X5174200Y3074598D01*
X5199600D01*
X5225000Y3049198D01*
X5125000Y2949198D02*
X5150400Y2974598D01*
X5175800D01*
X5150400Y2999998D01*
X5175800Y3025398D01*
X5150400D01*
X5125000Y3050798D01*
X5099600Y3025398D01*
X5074200D01*
X5099600Y2999998D01*
X5074200Y2974598D01*
X5099600D01*
X5125000Y2949198D01*
X5225000Y2849198D02*
X5250400Y2874598D01*
X5275800D01*
X5250400Y2899998D01*
X5275800Y2925398D01*
X5250400D01*
X5225000Y2950798D01*
X5199600Y2925398D01*
X5174200D01*
X5199600Y2899998D01*
X5174200Y2874598D01*
X5199600D01*
X5225000Y2849198D01*
X5125000Y2749198D02*
X5150400Y2774598D01*
X5175800D01*
X5150400Y2799998D01*
X5175800Y2825398D01*
X5150400D01*
X5125000Y2850798D01*
X5099600Y2825398D01*
X5074200D01*
X5099600Y2799998D01*
X5074200Y2774598D01*
X5099600D01*
X5125000Y2749198D01*
X5225000Y2649198D02*
X5250400Y2674598D01*
X5275800D01*
X5250400Y2699998D01*
X5275800Y2725398D01*
X5250400D01*
X5225000Y2750798D01*
X5199600Y2725398D01*
X5174200D01*
X5199600Y2699998D01*
X5174200Y2674598D01*
X5199600D01*
X5225000Y2649198D01*
X5125000Y2549198D02*
X5150400Y2574598D01*
X5175800D01*
X5150400Y2599998D01*
X5175800Y2625398D01*
X5150400D01*
X5125000Y2650798D01*
X5099600Y2625398D01*
X5074200D01*
X5099600Y2599998D01*
X5074200Y2574598D01*
X5099600D01*
X5125000Y2549198D01*
X5225000Y2449198D02*
X5250400Y2474598D01*
X5275800D01*
X5250400Y2499998D01*
X5275800Y2525398D01*
X5250400D01*
X5225000Y2550798D01*
X5199600Y2525398D01*
X5174200D01*
X5199600Y2499998D01*
X5174200Y2474598D01*
X5199600D01*
X5225000Y2449198D01*
X5125000Y2349198D02*
X5150400Y2374598D01*
X5175800D01*
X5150400Y2399998D01*
X5175800Y2425398D01*
X5150400D01*
X5125000Y2450798D01*
X5099600Y2425398D01*
X5074200D01*
X5099600Y2399998D01*
X5074200Y2374598D01*
X5099600D01*
X5125000Y2349198D01*
X5225000Y2249198D02*
X5250400Y2274598D01*
X5275800D01*
X5250400Y2299998D01*
X5275800Y2325398D01*
X5250400D01*
X5225000Y2350798D01*
X5199600Y2325398D01*
X5174200D01*
X5199600Y2299998D01*
X5174200Y2274598D01*
X5199600D01*
X5225000Y2249198D01*
X5125000Y2149198D02*
X5150400Y2174598D01*
X5175800D01*
X5150400Y2199998D01*
X5175800Y2225398D01*
X5150400D01*
X5125000Y2250798D01*
X5099600Y2225398D01*
X5074200D01*
X5099600Y2199998D01*
X5074200Y2174598D01*
X5099600D01*
X5125000Y2149198D01*
X5225000Y2049199D02*
X5250400Y2074599D01*
X5275800D01*
X5250400Y2099999D01*
X5275800Y2125399D01*
X5250400D01*
X5225000Y2150799D01*
X5199600Y2125399D01*
X5174200D01*
X5199600Y2099999D01*
X5174200Y2074599D01*
X5199600D01*
X5225000Y2049199D01*
X5125000Y1949199D02*
X5150400Y1974599D01*
X5175800D01*
X5150400Y1999999D01*
X5175800Y2025399D01*
X5150400D01*
X5125000Y2050799D01*
X5099600Y2025399D01*
X5074200D01*
X5099600Y1999999D01*
X5074200Y1974599D01*
X5099600D01*
X5125000Y1949199D01*
X5225000Y1849199D02*
X5250400Y1874599D01*
X5275800D01*
X5250400Y1899999D01*
X5275800Y1925399D01*
X5250400D01*
X5225000Y1950799D01*
X5199600Y1925399D01*
X5174200D01*
X5199600Y1899999D01*
X5174200Y1874599D01*
X5199600D01*
X5225000Y1849199D01*
X5125000Y1749199D02*
X5150400Y1774599D01*
X5175800D01*
X5150400Y1799999D01*
X5175800Y1825399D01*
X5150400D01*
X5125000Y1850799D01*
X5099600Y1825399D01*
X5074200D01*
X5099600Y1799999D01*
X5074200Y1774599D01*
X5099600D01*
X5125000Y1749199D01*
X5225000Y1649199D02*
X5250400Y1674599D01*
X5275800D01*
X5250400Y1699999D01*
X5275800Y1725399D01*
X5250400D01*
X5225000Y1750799D01*
X5199600Y1725399D01*
X5174200D01*
X5199600Y1699999D01*
X5174200Y1674599D01*
X5199600D01*
X5225000Y1649199D01*
X5125000Y1549199D02*
X5150400Y1574599D01*
X5175800D01*
X5150400Y1599999D01*
X5175800Y1625399D01*
X5150400D01*
X5125000Y1650799D01*
X5099600Y1625399D01*
X5074200D01*
X5099600Y1599999D01*
X5074200Y1574599D01*
X5099600D01*
X5125000Y1549199D01*
X5225000Y1449199D02*
X5250400Y1474599D01*
X5275800D01*
X5250400Y1499999D01*
X5275800Y1525399D01*
X5250400D01*
X5225000Y1550799D01*
X5199600Y1525399D01*
X5174200D01*
X5199600Y1499999D01*
X5174200Y1474599D01*
X5199600D01*
X5225000Y1449199D01*
X5125000Y1349199D02*
X5150400Y1374599D01*
X5175800D01*
X5150400Y1399999D01*
X5175800Y1425399D01*
X5150400D01*
X5125000Y1450799D01*
X5099600Y1425399D01*
X5074200D01*
X5099600Y1399999D01*
X5074200Y1374599D01*
X5099600D01*
X5125000Y1349199D01*
X5225000Y1249199D02*
X5250400Y1274599D01*
X5275800D01*
X5250400Y1299999D01*
X5275800Y1325399D01*
X5250400D01*
X5225000Y1350799D01*
X5199600Y1325399D01*
X5174200D01*
X5199600Y1299999D01*
X5174200Y1274599D01*
X5199600D01*
X5225000Y1249199D01*
X5125000Y1149199D02*
X5150400Y1174599D01*
X5175800D01*
X5150400Y1199999D01*
X5175800Y1225399D01*
X5150400D01*
X5125000Y1250799D01*
X5099600Y1225399D01*
X5074200D01*
X5099600Y1199999D01*
X5074200Y1174599D01*
X5099600D01*
X5125000Y1149199D01*
X5225000Y1049199D02*
X5250400Y1074599D01*
X5275800D01*
X5250400Y1099999D01*
X5275800Y1125399D01*
X5250400D01*
X5225000Y1150799D01*
X5199600Y1125399D01*
X5174200D01*
X5199600Y1099999D01*
X5174200Y1074599D01*
X5199600D01*
X5225000Y1049199D01*
X5125000Y949199D02*
X5150400Y974599D01*
X5175800D01*
X5150400Y999999D01*
X5175800Y1025399D01*
X5150400D01*
X5125000Y1050799D01*
X5099600Y1025399D01*
X5074200D01*
X5099600Y999999D01*
X5074200Y974599D01*
X5099600D01*
X5125000Y949199D01*
X5225000Y849199D02*
X5250400Y874599D01*
X5275800D01*
X5250400Y899999D01*
X5275800Y925399D01*
X5250400D01*
X5225000Y950799D01*
X5199600Y925399D01*
X5174200D01*
X5199600Y899999D01*
X5174200Y874599D01*
X5199600D01*
X5225000Y849199D01*
X5125000Y749199D02*
X5150400Y774599D01*
X5175800D01*
X5150400Y799999D01*
X5175800Y825399D01*
X5150400D01*
X5125000Y850799D01*
X5099600Y825399D01*
X5074200D01*
X5099600Y799999D01*
X5074200Y774599D01*
X5099600D01*
X5125000Y749199D01*
X5225000Y649200D02*
X5250400Y674600D01*
X5275800D01*
X5250400Y700000D01*
X5275800Y725400D01*
X5250400D01*
X5225000Y750800D01*
X5199600Y725400D01*
X5174200D01*
X5199600Y700000D01*
X5174200Y674600D01*
X5199600D01*
X5225000Y649200D01*
X5125000Y549200D02*
X5150400Y574600D01*
X5175800D01*
X5150400Y600000D01*
X5175800Y625400D01*
X5150400D01*
X5125000Y650800D01*
X5099600Y625400D01*
X5074200D01*
X5099600Y600000D01*
X5074200Y574600D01*
X5099600D01*
X5125000Y549200D01*
X5225000Y449200D02*
X5250400Y474600D01*
X5275800D01*
X5250400Y500000D01*
X5275800Y525400D01*
X5250400D01*
X5225000Y550800D01*
X5199600Y525400D01*
X5174200D01*
X5199600Y500000D01*
X5174200Y474600D01*
X5199600D01*
X5225000Y449200D01*
X5125000Y349200D02*
X5150400Y374600D01*
X5175800D01*
X5150400Y400000D01*
X5175800Y425400D01*
X5150400D01*
X5125000Y450800D01*
X5099600Y425400D01*
X5074200D01*
X5099600Y400000D01*
X5074200Y374600D01*
X5099600D01*
X5125000Y349200D01*
X5225000Y249200D02*
X5250400Y274600D01*
X5275800D01*
X5250400Y300000D01*
X5275800Y325400D01*
X5250400D01*
X5225000Y350800D01*
X5199600Y325400D01*
X5174200D01*
X5199600Y300000D01*
X5174200Y274600D01*
X5199600D01*
X5225000Y249200D01*
X5125000Y149200D02*
X5150400Y174600D01*
X5175800D01*
X5150400Y200000D01*
X5175800Y225400D01*
X5150400D01*
X5125000Y250800D01*
X5099600Y225400D01*
X5074200D01*
X5099600Y200000D01*
X5074200Y174600D01*
X5099600D01*
X5125000Y149200D01*
X5222500Y59200D02*
X5247900Y84600D01*
X5273300D01*
X5247900Y110000D01*
X5273300Y135400D01*
X5247900D01*
X5222500Y160800D01*
X5197100Y135400D01*
X5171700D01*
X5197100Y110000D01*
X5171700Y84600D01*
X5197100D01*
X5222500Y59200D01*
X2899196Y554200D02*
Y655800D01*
X3000796D01*
Y554200D01*
X2899196D01*
X3024196D02*
Y655800D01*
X3125796D01*
Y554200D01*
X3024196D01*
X3149197D02*
Y655800D01*
X3250797D01*
Y554200D01*
X3149197D01*
X3274197D02*
Y655800D01*
X3375797D01*
Y554200D01*
X3274197D01*
X3399198D02*
Y655800D01*
X3500798D01*
Y554200D01*
X3399198D01*
X3524198D02*
Y655800D01*
X3625798D01*
Y554200D01*
X3524198D01*
X3649199D02*
Y655800D01*
X3750799D01*
Y554200D01*
X3649199D01*
X3774199D02*
Y655800D01*
X3875799D01*
Y554200D01*
X3774199D01*
X1774199Y2999210D02*
Y3100810D01*
X1875799D01*
Y2999210D01*
X1774199D01*
Y2874209D02*
Y2975809D01*
X1875799D01*
Y2874209D01*
X1774199D01*
Y2749209D02*
Y2850809D01*
X1875799D01*
Y2749209D01*
X1774199D01*
Y2624208D02*
Y2725808D01*
X1875799D01*
Y2624208D01*
X1774199D01*
Y2499208D02*
Y2600808D01*
X1875799D01*
Y2499208D01*
X1774199D01*
Y2374207D02*
Y2475807D01*
X1875799D01*
Y2374207D01*
X1774199D01*
Y2249207D02*
Y2350807D01*
X1875799D01*
Y2249207D01*
X1774199D01*
Y2124206D02*
Y2225806D01*
X1875799D01*
Y2124206D01*
X1774199D01*
Y1999206D02*
Y2100806D01*
X1875799D01*
Y1999206D01*
X1774199D01*
Y1874205D02*
Y1975805D01*
X1875799D01*
Y1874205D01*
X1774199D01*
Y1749205D02*
Y1850805D01*
X1875799D01*
Y1749205D01*
X1774199D01*
Y1624204D02*
Y1725804D01*
X1875799D01*
Y1624204D01*
X1774199D01*
Y1499204D02*
Y1600804D01*
X1875799D01*
Y1499204D01*
X1774199D01*
Y1374203D02*
Y1475803D01*
X1875799D01*
Y1374203D01*
X1774199D01*
Y1249202D02*
Y1350802D01*
X1875799D01*
Y1249202D01*
X1774199D01*
Y1124202D02*
Y1225802D01*
X1875799D01*
Y1124202D01*
X1774199D01*
Y999201D02*
Y1100801D01*
X1875799D01*
Y999201D01*
X1774199D01*
X2074200Y549200D02*
Y650800D01*
X2175800D01*
Y549200D01*
X2074200D01*
X2699194Y3274200D02*
Y3375800D01*
X2800794D01*
Y3274200D01*
X2699194D01*
X2824195D02*
Y3375800D01*
X2925795D01*
Y3274200D01*
X2824195D01*
X2949195D02*
Y3375800D01*
X3050795D01*
Y3274200D01*
X2949195D01*
X3074196D02*
Y3375800D01*
X3175796D01*
Y3274200D01*
X3074196D01*
X3199196D02*
Y3375800D01*
X3300796D01*
Y3274200D01*
X3199196D01*
X3324197D02*
Y3375800D01*
X3425797D01*
Y3274200D01*
X3324197D01*
X3449197D02*
Y3375800D01*
X3550797D01*
Y3274200D01*
X3449197D01*
X3574198D02*
Y3375800D01*
X3675798D01*
Y3274200D01*
X3574198D01*
X3699198D02*
Y3375800D01*
X3800798D01*
Y3274200D01*
X3699198D01*
X4777319Y3026128D02*
Y3127728D01*
X4878919D01*
Y3026128D01*
X4777319D01*
Y2901127D02*
Y3002727D01*
X4878919D01*
Y2901127D01*
X4777319D01*
Y2776127D02*
Y2877727D01*
X4878919D01*
Y2776127D01*
X4777319D01*
Y2651126D02*
Y2752726D01*
X4878919D01*
Y2651126D01*
X4777319D01*
Y2526126D02*
Y2627726D01*
X4878919D01*
Y2526126D01*
X4777319D01*
Y2401125D02*
Y2502725D01*
X4878919D01*
Y2401125D01*
X4777319D01*
Y2276124D02*
Y2377724D01*
X4878919D01*
Y2276124D01*
X4777319D01*
Y2151124D02*
Y2252724D01*
X4878919D01*
Y2151124D01*
X4777319D01*
Y2026123D02*
Y2127723D01*
X4878919D01*
Y2026123D01*
X4777319D01*
Y1901123D02*
Y2002723D01*
X4878919D01*
Y1901123D01*
X4777319D01*
Y1776122D02*
Y1877722D01*
X4878919D01*
Y1776122D01*
X4777319D01*
X4774201Y1649204D02*
Y1750804D01*
X4875801D01*
Y1649204D01*
X4774201D01*
Y1524204D02*
Y1625804D01*
X4875801D01*
Y1524204D01*
X4774201D01*
Y1399203D02*
Y1500803D01*
X4875801D01*
Y1399203D01*
X4774201D01*
Y1274203D02*
Y1375803D01*
X4875801D01*
Y1274203D01*
X4774201D01*
Y1149202D02*
Y1250802D01*
X4875801D01*
Y1149202D01*
X4774201D01*
Y1024202D02*
Y1125802D01*
X4875801D01*
Y1024202D01*
X4774201D01*
Y899201D02*
Y1000801D01*
X4875801D01*
Y899201D01*
X4774201D01*
X4524201Y3274200D02*
Y3375800D01*
X4625801D01*
Y3274200D01*
X4524201D01*
X4399200D02*
Y3375800D01*
X4500800D01*
Y3274200D01*
X4399200D01*
X3949200Y4499200D02*
Y4600800D01*
X4050800D01*
Y4499200D01*
X3949200D01*
X3799200D02*
Y4600800D01*
X3900800D01*
Y4499200D01*
X3799200D01*
X3649200D02*
Y4600800D01*
X3750800D01*
Y4499200D01*
X3649200D01*
X3499200D02*
Y4600800D01*
X3600800D01*
Y4499200D01*
X3499200D01*
X3349200D02*
Y4600800D01*
X3450800D01*
Y4499200D01*
X3349200D01*
X3199200Y4574200D02*
Y4675800D01*
X3300800D01*
Y4574200D01*
X3199200D01*
X3049200Y4499200D02*
Y4600800D01*
X3150800D01*
Y4499200D01*
X3049200D01*
X2899200D02*
Y4600800D01*
X3000800D01*
Y4499200D01*
X2899200D01*
X2749200D02*
Y4600800D01*
X2850800D01*
Y4499200D01*
X2749200D01*
X2599200D02*
Y4600800D01*
X2700800D01*
Y4499200D01*
X2599200D01*
X3351700Y4691700D02*
Y4793300D01*
X3453300D01*
Y4691700D01*
X3351700D01*
X3499200Y4684200D02*
Y4785800D01*
X3600800D01*
Y4684200D01*
X3499200D01*
X3649200D02*
Y4785800D01*
X3750800D01*
Y4684200D01*
X3649200D01*
X3799200D02*
Y4785800D01*
X3900800D01*
Y4684200D01*
X3799200D01*
X3949200D02*
Y4785800D01*
X4050800D01*
Y4684200D01*
X3949200D01*
X3054200Y4949200D02*
Y5050800D01*
X3155800D01*
Y4949200D01*
X3054200D01*
Y5099200D02*
Y5200800D01*
X3155800D01*
Y5099200D01*
X3054200D01*
X3049200Y4689200D02*
Y4790800D01*
X3150800D01*
Y4689200D01*
X3049200D01*
X2954200Y4684200D02*
Y4785800D01*
X3055800D01*
Y4684200D01*
X2954200D01*
X2829200D02*
Y4785800D01*
X2930800D01*
Y4684200D01*
X2829200D01*
X2704200D02*
Y4785800D01*
X2805800D01*
Y4684200D01*
X2704200D01*
X2579200D02*
Y4785800D01*
X2680800D01*
Y4684200D01*
X2579200D01*
X2454200D02*
Y4785800D01*
X2555800D01*
Y4684200D01*
X2454200D01*
X2329200D02*
Y4785800D01*
X2430800D01*
Y4684200D01*
X2329200D01*
X2249200Y4624200D02*
Y4725800D01*
X2350800D01*
Y4624200D01*
X2249200D01*
X749222Y7349217D02*
Y7450817D01*
X850822D01*
Y7349217D01*
X749222D01*
X1199211Y7349226D02*
Y7450826D01*
X1300811D01*
Y7349226D01*
X1199211D01*
X1349212Y7349225D02*
Y7450825D01*
X1450812D01*
Y7349225D01*
X1349212D01*
X1499214Y7349224D02*
Y7450824D01*
X1600814D01*
Y7349224D01*
X1499214D01*
X1649215Y7349223D02*
Y7450823D01*
X1750815D01*
Y7349223D01*
X1649215D01*
X1924211Y7049213D02*
Y7150813D01*
X2025811D01*
Y7049213D01*
X1924211D01*
X1924210Y6899212D02*
Y7000812D01*
X2025810D01*
Y6899212D01*
X1924210D01*
X1924209Y6749211D02*
Y6850811D01*
X2025809D01*
Y6749211D01*
X1924209D01*
X1924208Y6599210D02*
Y6700810D01*
X2025808D01*
Y6599210D01*
X1924208D01*
X1924207Y6449209D02*
Y6550809D01*
X2025807D01*
Y6449209D01*
X1924207D01*
X1924206Y6299207D02*
Y6400807D01*
X2025806D01*
Y6299207D01*
X1924206D01*
X1924205Y6149206D02*
Y6250806D01*
X2025805D01*
Y6149206D01*
X1924205D01*
X1924204Y5999205D02*
Y6100805D01*
X2025804D01*
Y5999205D01*
X1924204D01*
X1924203Y5849204D02*
Y5950804D01*
X2025803D01*
Y5849204D01*
X1924203D01*
X1924202Y5699202D02*
Y5800802D01*
X2025802D01*
Y5699202D01*
X1924202D01*
X1924201Y5549201D02*
Y5650801D01*
X2025801D01*
Y5549201D01*
X1924201D01*
X1924200Y5399200D02*
Y5500800D01*
X2025800D01*
Y5399200D01*
X1924200D01*
X1924201Y5099201D02*
Y5200801D01*
X2025801D01*
Y5099201D01*
X1924201D01*
X1924200Y4949200D02*
Y5050800D01*
X2025800D01*
Y4949200D01*
X1924200D01*
X599221Y7349218D02*
Y7450818D01*
X700821D01*
Y7349218D01*
X599221D01*
X449220Y7349219D02*
Y7450819D01*
X550820D01*
Y7349219D01*
X449220D01*
X224215Y7049218D02*
Y7150818D01*
X325815D01*
Y7049218D01*
X224215D01*
X224214Y6899217D02*
Y7000817D01*
X325814D01*
Y6899217D01*
X224214D01*
X224213Y6749216D02*
Y6850816D01*
X325813D01*
Y6749216D01*
X224213D01*
X224212Y6599215D02*
Y6700815D01*
X325812D01*
Y6599215D01*
X224212D01*
X224211Y6449213D02*
Y6550813D01*
X325811D01*
Y6449213D01*
X224211D01*
X224210Y6299212D02*
Y6400812D01*
X325810D01*
Y6299212D01*
X224210D01*
X224209Y6149211D02*
Y6250811D01*
X325809D01*
Y6149211D01*
X224209D01*
X224208Y5999210D02*
Y6100810D01*
X325808D01*
Y5999210D01*
X224208D01*
X224207Y5849209D02*
Y5950809D01*
X325807D01*
Y5849209D01*
X224207D01*
X224206Y5699207D02*
Y5800807D01*
X325806D01*
Y5699207D01*
X224206D01*
X224205Y5549206D02*
Y5650806D01*
X325805D01*
Y5549206D01*
X224205D01*
X224204Y5399205D02*
Y5500805D01*
X325804D01*
Y5399205D01*
X224204D01*
X224203Y5249204D02*
Y5350804D01*
X325803D01*
Y5249204D01*
X224203D01*
X224202Y5099202D02*
Y5200802D01*
X325802D01*
Y5099202D01*
X224202D01*
X509200Y4799200D02*
Y4900800D01*
X610800D01*
Y4799200D01*
X509200D01*
X969196Y4799204D02*
Y4900804D01*
X1070796D01*
Y4799204D01*
X969196D01*
X1119197Y4799203D02*
Y4900803D01*
X1220797D01*
Y4799203D01*
X1119197D01*
X1269198Y4799202D02*
Y4900802D01*
X1370798D01*
Y4799202D01*
X1269198D01*
X4400000Y4599200D02*
X4425400Y4624600D01*
X4450800D01*
X4425400Y4650000D01*
X4450800Y4675400D01*
X4425400D01*
X4400000Y4700800D01*
X4374600Y4675400D01*
X4349200D01*
X4374600Y4650000D01*
X4349200Y4624600D01*
X4374600D01*
X4400000Y4599200D01*
X5050000Y5049200D02*
X5075400Y5074600D01*
X5100800D01*
X5075400Y5100000D01*
X5100800Y5125400D01*
X5075400D01*
X5050000Y5150800D01*
X5024600Y5125400D01*
X4999200D01*
X5024600Y5100000D01*
X4999200Y5074600D01*
X5024600D01*
X5050000Y5049200D01*
Y5274200D02*
X5075400Y5299600D01*
X5100800D01*
X5075400Y5325000D01*
X5100800Y5350400D01*
X5075400D01*
X5050000Y5375800D01*
X5024600Y5350400D01*
X4999200D01*
X5024600Y5325000D01*
X4999200Y5299600D01*
X5024600D01*
X5050000Y5274200D01*
X6875000Y5899200D02*
X6900400Y5924600D01*
X6925800D01*
X6900400Y5950000D01*
X6925800Y5975400D01*
X6900400D01*
X6875000Y6000800D01*
X6849600Y5975400D01*
X6824200D01*
X6849600Y5950000D01*
X6824200Y5924600D01*
X6849600D01*
X6875000Y5899200D01*
X7100000D02*
X7125400Y5924600D01*
X7150800D01*
X7125400Y5950000D01*
X7150800Y5975400D01*
X7125400D01*
X7100000Y6000800D01*
X7074600Y5975400D01*
X7049200D01*
X7074600Y5950000D01*
X7049200Y5924600D01*
X7074600D01*
X7100000Y5899200D01*
X6475000Y5224200D02*
X6500400Y5249600D01*
X6525800D01*
X6500400Y5275000D01*
X6525800Y5300400D01*
X6500400D01*
X6475000Y5325800D01*
X6449600Y5300400D01*
X6424200D01*
X6449600Y5275000D01*
X6424200Y5249600D01*
X6449600D01*
X6475000Y5224200D01*
Y5399200D02*
X6500400Y5424600D01*
X6525800D01*
X6500400Y5450000D01*
X6525800Y5475400D01*
X6500400D01*
X6475000Y5500800D01*
X6449600Y5475400D01*
X6424200D01*
X6449600Y5450000D01*
X6424200Y5424600D01*
X6449600D01*
X6475000Y5399200D01*
X6100000Y4874200D02*
X6125400Y4899600D01*
X6150800D01*
X6125400Y4925000D01*
X6150800Y4950400D01*
X6125400D01*
X6100000Y4975800D01*
X6074600Y4950400D01*
X6049200D01*
X6074600Y4925000D01*
X6049200Y4899600D01*
X6074600D01*
X6100000Y4874200D01*
X6275000D02*
X6300400Y4899600D01*
X6325800D01*
X6300400Y4925000D01*
X6325800Y4950400D01*
X6300400D01*
X6275000Y4975800D01*
X6249600Y4950400D01*
X6224200D01*
X6249600Y4925000D01*
X6224200Y4899600D01*
X6249600D01*
X6275000Y4874200D01*
X6450000D02*
X6475400Y4899600D01*
X6500800D01*
X6475400Y4925000D01*
X6500800Y4950400D01*
X6475400D01*
X6450000Y4975800D01*
X6424600Y4950400D01*
X6399200D01*
X6424600Y4925000D01*
X6399200Y4899600D01*
X6424600D01*
X6450000Y4874200D01*
X2800000Y6574200D02*
X2825400Y6599600D01*
X2850800D01*
X2825400Y6625000D01*
X2850800Y6650400D01*
X2825400D01*
X2800000Y6675800D01*
X2774600Y6650400D01*
X2749200D01*
X2774600Y6625000D01*
X2749200Y6599600D01*
X2774600D01*
X2800000Y6574200D01*
X375000Y5599200D02*
X400400Y5624600D01*
X425800D01*
X400400Y5650000D01*
X425800Y5675400D01*
X400400D01*
X375000Y5700800D01*
X349600Y5675400D01*
X324200D01*
X349600Y5650000D01*
X324200Y5624600D01*
X349600D01*
X375000Y5599200D01*
X950000Y3599200D02*
X975400Y3624600D01*
X1000800D01*
X975400Y3650000D01*
X1000800Y3675400D01*
X975400D01*
X950000Y3700800D01*
X924600Y3675400D01*
X899200D01*
X924600Y3650000D01*
X899200Y3624600D01*
X924600D01*
X950000Y3599200D01*
X700000D02*
X725400Y3624600D01*
X750800D01*
X725400Y3650000D01*
X750800Y3675400D01*
X725400D01*
X700000Y3700800D01*
X674600Y3675400D01*
X649200D01*
X674600Y3650000D01*
X649200Y3624600D01*
X674600D01*
X700000Y3599200D01*
X6330000Y1459200D02*
X6355400Y1484600D01*
X6380800D01*
X6355400Y1510000D01*
X6380800Y1535400D01*
X6355400D01*
X6330000Y1560800D01*
X6304600Y1535400D01*
X6279200D01*
X6304600Y1510000D01*
X6279200Y1484600D01*
X6304600D01*
X6330000Y1459200D01*
X6140000D02*
X6165400Y1484600D01*
X6190800D01*
X6165400Y1510000D01*
X6190800Y1535400D01*
X6165400D01*
X6140000Y1560800D01*
X6114600Y1535400D01*
X6089200D01*
X6114600Y1510000D01*
X6089200Y1484600D01*
X6114600D01*
X6140000Y1459200D01*
X6849200Y3249200D02*
Y3350800D01*
X6950800D01*
Y3249200D01*
X6849200D01*
X5525000Y1174200D02*
X5550400Y1199600D01*
X5575800D01*
X5550400Y1225000D01*
X5575800Y1250400D01*
X5550400D01*
X5525000Y1275800D01*
X5499600Y1250400D01*
X5474200D01*
X5499600Y1225000D01*
X5474200Y1199600D01*
X5499600D01*
X5525000Y1174200D01*
X5725000Y2774200D02*
X5750400Y2799600D01*
X5775800D01*
X5750400Y2825000D01*
X5775800Y2850400D01*
X5750400D01*
X5725000Y2875800D01*
X5699600Y2850400D01*
X5674200D01*
X5699600Y2825000D01*
X5674200Y2799600D01*
X5699600D01*
X5725000Y2774200D01*
X5525000D02*
X5550400Y2799600D01*
X5575800D01*
X5550400Y2825000D01*
X5575800Y2850400D01*
X5550400D01*
X5525000Y2875800D01*
X5499600Y2850400D01*
X5474200D01*
X5499600Y2825000D01*
X5474200Y2799600D01*
X5499600D01*
X5525000Y2774200D01*
Y949200D02*
X5550400Y974600D01*
X5575800D01*
X5550400Y1000000D01*
X5575800Y1025400D01*
X5550400D01*
X5525000Y1050800D01*
X5499600Y1025400D01*
X5474200D01*
X5499600Y1000000D01*
X5474200Y974600D01*
X5499600D01*
X5525000Y949200D01*
X6399200Y249200D02*
Y350800D01*
X6500800D01*
Y249200D01*
X6399200D01*
X6749200Y1649200D02*
Y1750800D01*
X6850800D01*
Y1649200D01*
X6749200D01*
Y1774200D02*
Y1875800D01*
X6850800D01*
Y1774200D01*
X6749200D01*
Y1899200D02*
Y2000800D01*
X6850800D01*
Y1899200D01*
X6749200D01*
X6984200Y1463200D02*
Y1564800D01*
X7085800D01*
Y1463200D01*
X6984200D01*
X5275000Y3899200D02*
X5300400Y3924600D01*
X5325800D01*
X5300400Y3950000D01*
X5325800Y3975400D01*
X5300400D01*
X5275000Y4000800D01*
X5249600Y3975400D01*
X5224200D01*
X5249600Y3950000D01*
X5224200Y3924600D01*
X5249600D01*
X5275000Y3899200D01*
X7075000Y3249200D02*
X7100400Y3274600D01*
X7125800D01*
X7100400Y3300000D01*
X7125800Y3325400D01*
X7100400D01*
X7075000Y3350800D01*
X7049600Y3325400D01*
X7024200D01*
X7049600Y3300000D01*
X7024200Y3274600D01*
X7049600D01*
X7075000Y3249200D01*
X7275000D02*
X7300400Y3274600D01*
X7325800D01*
X7300400Y3300000D01*
X7325800Y3325400D01*
X7300400D01*
X7275000Y3350800D01*
X7249600Y3325400D01*
X7224200D01*
X7249600Y3300000D01*
X7224200Y3274600D01*
X7249600D01*
X7275000Y3249200D01*
X3225000Y5499200D02*
X3250400Y5524600D01*
X3275800D01*
X3250400Y5550000D01*
X3275800Y5575400D01*
X3250400D01*
X3225000Y5600800D01*
X3199600Y5575400D01*
X3174200D01*
X3199600Y5550000D01*
X3174200Y5524600D01*
X3199600D01*
X3225000Y5499200D01*
X3525000D02*
X3550400Y5524600D01*
X3575800D01*
X3550400Y5550000D01*
X3575800Y5575400D01*
X3550400D01*
X3525000Y5600800D01*
X3499600Y5575400D01*
X3474200D01*
X3499600Y5550000D01*
X3474200Y5524600D01*
X3499600D01*
X3525000Y5499200D01*
X3375000D02*
X3400400Y5524600D01*
X3425800D01*
X3400400Y5550000D01*
X3425800Y5575400D01*
X3400400D01*
X3375000Y5600800D01*
X3349600Y5575400D01*
X3324200D01*
X3349600Y5550000D01*
X3324200Y5524600D01*
X3349600D01*
X3375000Y5499200D01*
X3675000D02*
X3700400Y5524600D01*
X3725800D01*
X3700400Y5550000D01*
X3725800Y5575400D01*
X3700400D01*
X3675000Y5600800D01*
X3649600Y5575400D01*
X3624200D01*
X3649600Y5550000D01*
X3624200Y5524600D01*
X3649600D01*
X3675000Y5499200D01*
X3525000Y5674200D02*
X3550400Y5699600D01*
X3575800D01*
X3550400Y5725000D01*
X3575800Y5750400D01*
X3550400D01*
X3525000Y5775800D01*
X3499600Y5750400D01*
X3474200D01*
X3499600Y5725000D01*
X3474200Y5699600D01*
X3499600D01*
X3525000Y5674200D01*
X3375000D02*
X3400400Y5699600D01*
X3425800D01*
X3400400Y5725000D01*
X3425800Y5750400D01*
X3400400D01*
X3375000Y5775800D01*
X3349600Y5750400D01*
X3324200D01*
X3349600Y5725000D01*
X3324200Y5699600D01*
X3349600D01*
X3375000Y5674200D01*
X3225000D02*
X3250400Y5699600D01*
X3275800D01*
X3250400Y5725000D01*
X3275800Y5750400D01*
X3250400D01*
X3225000Y5775800D01*
X3199600Y5750400D01*
X3174200D01*
X3199600Y5725000D01*
X3174200Y5699600D01*
X3199600D01*
X3225000Y5674200D01*
X3675000D02*
X3700400Y5699600D01*
X3725800D01*
X3700400Y5725000D01*
X3725800Y5750400D01*
X3700400D01*
X3675000Y5775800D01*
X3649600Y5750400D01*
X3624200D01*
X3649600Y5725000D01*
X3624200Y5699600D01*
X3649600D01*
X3675000Y5674200D01*
X3375000Y5824200D02*
X3400400Y5849600D01*
X3425800D01*
X3400400Y5875000D01*
X3425800Y5900400D01*
X3400400D01*
X3375000Y5925800D01*
X3349600Y5900400D01*
X3324200D01*
X3349600Y5875000D01*
X3324200Y5849600D01*
X3349600D01*
X3375000Y5824200D01*
X3225000D02*
X3250400Y5849600D01*
X3275800D01*
X3250400Y5875000D01*
X3275800Y5900400D01*
X3250400D01*
X3225000Y5925800D01*
X3199600Y5900400D01*
X3174200D01*
X3199600Y5875000D01*
X3174200Y5849600D01*
X3199600D01*
X3225000Y5824200D01*
X3525000D02*
X3550400Y5849600D01*
X3575800D01*
X3550400Y5875000D01*
X3575800Y5900400D01*
X3550400D01*
X3525000Y5925800D01*
X3499600Y5900400D01*
X3474200D01*
X3499600Y5875000D01*
X3474200Y5849600D01*
X3499600D01*
X3525000Y5824200D01*
X3675000D02*
X3700400Y5849600D01*
X3725800D01*
X3700400Y5875000D01*
X3725800Y5900400D01*
X3700400D01*
X3675000Y5925800D01*
X3649600Y5900400D01*
X3624200D01*
X3649600Y5875000D01*
X3624200Y5849600D01*
X3649600D01*
X3675000Y5824200D01*
X3225000Y5974200D02*
X3250400Y5999600D01*
X3275800D01*
X3250400Y6025000D01*
X3275800Y6050400D01*
X3250400D01*
X3225000Y6075800D01*
X3199600Y6050400D01*
X3174200D01*
X3199600Y6025000D01*
X3174200Y5999600D01*
X3199600D01*
X3225000Y5974200D01*
X3375000D02*
X3400400Y5999600D01*
X3425800D01*
X3400400Y6025000D01*
X3425800Y6050400D01*
X3400400D01*
X3375000Y6075800D01*
X3349600Y6050400D01*
X3324200D01*
X3349600Y6025000D01*
X3324200Y5999600D01*
X3349600D01*
X3375000Y5974200D01*
X3525000D02*
X3550400Y5999600D01*
X3575800D01*
X3550400Y6025000D01*
X3575800Y6050400D01*
X3550400D01*
X3525000Y6075800D01*
X3499600Y6050400D01*
X3474200D01*
X3499600Y6025000D01*
X3474200Y5999600D01*
X3499600D01*
X3525000Y5974200D01*
X3949200Y4324200D02*
Y4425800D01*
X4050800D01*
Y4324200D01*
X3949200D01*
X4149200D02*
Y4425800D01*
X4250800D01*
Y4324200D01*
X4149200D01*
X3949200Y4199200D02*
Y4300800D01*
X4050800D01*
Y4199200D01*
X3949200D01*
X4149200D02*
Y4300800D01*
X4250800D01*
Y4199200D01*
X4149200D01*
X3949200Y4074200D02*
Y4175800D01*
X4050800D01*
Y4074200D01*
X3949200D01*
X4149200D02*
Y4175800D01*
X4250800D01*
Y4074200D01*
X4149200D01*
X3949200Y3949200D02*
Y4050800D01*
X4050800D01*
Y3949200D01*
X3949200D01*
X4149200D02*
Y4050800D01*
X4250800D01*
Y3949200D01*
X4149200D01*
X3949200Y3824200D02*
Y3925800D01*
X4050800D01*
Y3824200D01*
X3949200D01*
X4149200D02*
Y3925800D01*
X4250800D01*
Y3824200D01*
X4149200D01*
X2249200Y4249200D02*
Y4350800D01*
X2350800D01*
Y4249200D01*
X2249200D01*
Y4124200D02*
Y4225800D01*
X2350800D01*
Y4124200D01*
X2249200D01*
Y3999200D02*
Y4100800D01*
X2350800D01*
Y3999200D01*
X2249200D01*
Y3874200D02*
Y3975800D01*
X2350800D01*
Y3874200D01*
X2249200D01*
X2449200D02*
Y3975800D01*
X2550800D01*
Y3874200D01*
X2449200D01*
Y3999200D02*
Y4100800D01*
X2550800D01*
Y3999200D01*
X2449200D01*
Y4124200D02*
Y4225800D01*
X2550800D01*
Y4124200D01*
X2449200D01*
Y4249200D02*
Y4350800D01*
X2550800D01*
Y4249200D01*
X2449200D01*
X7674200Y54200D02*
Y155800D01*
X7775800D01*
Y54200D01*
X7674200D01*
X7844200Y224200D02*
Y325800D01*
X7945800D01*
Y224200D01*
X7844200D01*
X7674200Y394200D02*
Y495800D01*
X7775800D01*
Y394200D01*
X7674200D01*
X7554200Y344200D02*
Y445800D01*
X7655800D01*
Y344200D01*
X7554200D01*
Y104200D02*
Y205800D01*
X7655800D01*
Y104200D01*
X7554200D01*
X7504200Y224200D02*
Y325800D01*
X7605800D01*
Y224200D01*
X7504200D01*
X7794200Y344200D02*
Y445800D01*
X7895800D01*
Y344200D01*
X7794200D01*
Y104200D02*
Y205800D01*
X7895800D01*
Y104200D01*
X7794200D01*
X224200Y54200D02*
Y155800D01*
X325800D01*
Y54200D01*
X224200D01*
X394200Y224200D02*
Y325800D01*
X495800D01*
Y224200D01*
X394200D01*
X224200Y394200D02*
Y495800D01*
X325800D01*
Y394200D01*
X224200D01*
X104200Y344200D02*
Y445800D01*
X205800D01*
Y344200D01*
X104200D01*
Y104200D02*
Y205800D01*
X205800D01*
Y104200D01*
X104200D01*
X54200Y224200D02*
Y325800D01*
X155800D01*
Y224200D01*
X54200D01*
X344200Y344200D02*
Y445800D01*
X445800D01*
Y344200D01*
X344200D01*
Y104200D02*
Y205800D01*
X445800D01*
Y104200D01*
X344200D01*
X2199200Y599200D02*
Y700800D01*
X2300800D01*
Y599200D01*
X2199200D01*
X2324200Y1824200D02*
Y1925800D01*
X2425800D01*
Y1824200D01*
X2324200D01*
X2324201Y1674200D02*
Y1775800D01*
X2425801D01*
Y1674200D01*
X2324201D01*
X2224201Y1574200D02*
Y1675800D01*
X2325801D01*
Y1574200D01*
X2224201D01*
X2221700Y1444200D02*
Y1545800D01*
X2323300D01*
Y1444200D01*
X2221700D01*
X2324201Y1224200D02*
Y1325800D01*
X2425801D01*
Y1224200D01*
X2324201D01*
X2249200Y1324200D02*
Y1425800D01*
X2350800D01*
Y1324200D01*
X2249200D01*
X2324201Y1074200D02*
Y1175800D01*
X2425801D01*
Y1074200D01*
X2324201D01*
X2274200Y974200D02*
Y1075800D01*
X2375800D01*
Y974200D01*
X2274200D01*
X2199201Y874200D02*
Y975800D01*
X2300801D01*
Y874200D01*
X2199201D01*
Y724200D02*
Y825800D01*
X2300801D01*
Y724200D01*
X2199201D01*
X4449199D02*
Y825800D01*
X4550799D01*
Y724200D01*
X4449199D01*
Y874200D02*
Y975800D01*
X4550799D01*
Y874200D01*
X4449199D01*
X4374200Y974200D02*
Y1075800D01*
X4475800D01*
Y974200D01*
X4374200D01*
X4324199Y1074200D02*
Y1175800D01*
X4425799D01*
Y1074200D01*
X4324199D01*
X4374200Y1324200D02*
Y1425800D01*
X4475800D01*
Y1324200D01*
X4374200D01*
X4324199Y1224200D02*
Y1325800D01*
X4425799D01*
Y1224200D01*
X4324199D01*
X4424199Y1424200D02*
Y1525800D01*
X4525799D01*
Y1424200D01*
X4424199D01*
X4424199Y1574200D02*
Y1675800D01*
X4525799D01*
Y1574200D01*
X4424199D01*
X4324199Y1674200D02*
Y1775800D01*
X4425799D01*
Y1674200D01*
X4324199D01*
X4324200Y1824200D02*
Y1925800D01*
X4425800D01*
Y1824200D01*
X4324200D01*
X2614200Y624200D02*
Y725800D01*
X2715800D01*
Y624200D01*
X2614200D01*
X2614201Y774200D02*
Y875800D01*
X2715801D01*
Y774200D01*
X2614201D01*
X2614201Y924200D02*
Y1025800D01*
X2715801D01*
Y924200D01*
X2614201D01*
X2614202Y1074201D02*
Y1175801D01*
X2715802D01*
Y1074201D01*
X2614202D01*
X2614202Y1224201D02*
Y1325801D01*
X2715802D01*
Y1224201D01*
X2614202D01*
X2614203Y1374201D02*
Y1475801D01*
X2715803D01*
Y1374201D01*
X2614203D01*
X2614203Y1524201D02*
Y1625801D01*
X2715803D01*
Y1524201D01*
X2614203D01*
X2614204Y1674201D02*
Y1775801D01*
X2715804D01*
Y1674201D01*
X2614204D01*
X2614204Y1824202D02*
Y1925802D01*
X2715804D01*
Y1824202D01*
X2614204D01*
X2334200Y2269200D02*
Y2370800D01*
X2435800D01*
Y2269200D01*
X2334200D01*
X2599201Y2274200D02*
Y2375800D01*
X2700801D01*
Y2274200D01*
X2599201D01*
Y2124200D02*
Y2225800D01*
X2700801D01*
Y2124200D01*
X2599201D01*
X2614205Y1974202D02*
Y2075802D01*
X2715805D01*
Y1974202D01*
X2614205D01*
X2174200Y2269200D02*
Y2370800D01*
X2275800D01*
Y2269200D01*
X2174200D01*
X2174200Y2124200D02*
Y2225800D01*
X2275800D01*
Y2124200D01*
X2174200D01*
Y1974200D02*
Y2075800D01*
X2275800D01*
Y1974200D01*
X2174200D01*
X2324200D02*
Y2075800D01*
X2425800D01*
Y1974200D01*
X2324200D01*
X2574200Y2424200D02*
Y2525800D01*
X2675800D01*
Y2424200D01*
X2574200D01*
X2424199Y2574200D02*
Y2675800D01*
X2525799D01*
Y2574200D01*
X2424199D01*
X2274199D02*
Y2675800D01*
X2375799D01*
Y2574200D01*
X2274199D01*
X2124200Y2574200D02*
Y2675800D01*
X2225800D01*
Y2574200D01*
X2124200D01*
X2574200D02*
Y2675800D01*
X2675800D01*
Y2574200D01*
X2574200D01*
X2349200Y2424200D02*
Y2525800D01*
X2450800D01*
Y2424200D01*
X2349200D01*
X2449200Y3349200D02*
Y3450800D01*
X2550800D01*
Y3349200D01*
X2449200D01*
Y4374200D02*
Y4475800D01*
X2550800D01*
Y4374200D01*
X2449200D01*
Y4499200D02*
Y4600800D01*
X2550800D01*
Y4499200D01*
X2449200D01*
X4089200Y4669200D02*
Y4770800D01*
X4190800D01*
Y4669200D01*
X4089200D01*
X4274201Y3174200D02*
Y3275800D01*
X4375801D01*
Y3174200D01*
X4274201D01*
X4274200Y3349200D02*
Y3450800D01*
X4375800D01*
Y3349200D01*
X4274200D01*
X4149200Y4449200D02*
Y4550800D01*
X4250800D01*
Y4449200D01*
X4149200D01*
X4149200Y4574200D02*
Y4675800D01*
X4250800D01*
Y4574200D01*
X4149200D01*
X4149199Y3349200D02*
Y3450800D01*
X4250799D01*
Y3349200D01*
X4149199D01*
X3949199D02*
Y3450800D01*
X4050799D01*
Y3349200D01*
X3949199D01*
X4324200Y1974200D02*
Y2075800D01*
X4425800D01*
Y1974200D01*
X4324200D01*
X4474200D02*
Y2075800D01*
X4575800D01*
Y1974200D01*
X4474200D01*
Y2124200D02*
Y2225800D01*
X4575800D01*
Y2124200D01*
X4474200D01*
Y2274200D02*
Y2375800D01*
X4575800D01*
Y2274200D01*
X4474200D01*
X4049199Y474204D02*
Y575804D01*
X4150799D01*
Y474204D01*
X4049199D01*
Y624203D02*
Y725803D01*
X4150799D01*
Y624203D01*
X4049199D01*
Y774203D02*
Y875803D01*
X4150799D01*
Y774203D01*
X4049199D01*
Y924203D02*
Y1025803D01*
X4150799D01*
Y924203D01*
X4049199D01*
Y1074202D02*
Y1175802D01*
X4150799D01*
Y1074202D01*
X4049199D01*
Y1224202D02*
Y1325802D01*
X4150799D01*
Y1224202D01*
X4049199D01*
Y1374202D02*
Y1475802D01*
X4150799D01*
Y1374202D01*
X4049199D01*
Y1524201D02*
Y1625801D01*
X4150799D01*
Y1524201D01*
X4049199D01*
Y1674201D02*
Y1775801D01*
X4150799D01*
Y1674201D01*
X4049199D01*
Y1824201D02*
Y1925801D01*
X4150799D01*
Y1824201D01*
X4049199D01*
Y1974201D02*
Y2075801D01*
X4150799D01*
Y1974201D01*
X4049199D01*
Y2124200D02*
Y2225800D01*
X4150799D01*
Y2124200D01*
X4049199D01*
X704200Y4141700D02*
Y4243300D01*
X805800D01*
Y4141700D01*
X704200D01*
X794200D02*
Y4243300D01*
X895800D01*
Y4141700D01*
X794200D01*
X4180000Y6872200D02*
X4205400Y6897600D01*
X4230800D01*
X4205400Y6923000D01*
X4230800Y6948400D01*
X4205400D01*
X4180000Y6973800D01*
X4154600Y6948400D01*
X4129200D01*
X4154600Y6923000D01*
X4129200Y6897600D01*
X4154600D01*
X4180000Y6872200D01*
X4030000D02*
X4055400Y6897600D01*
X4080800D01*
X4055400Y6923000D01*
X4080800Y6948400D01*
X4055400D01*
X4030000Y6973800D01*
X4004600Y6948400D01*
X3979200D01*
X4004600Y6923000D01*
X3979200Y6897600D01*
X4004600D01*
X4030000Y6872200D01*
X3880000Y6877200D02*
X3905400Y6902600D01*
X3930800D01*
X3905400Y6928000D01*
X3930800Y6953400D01*
X3905400D01*
X3880000Y6978800D01*
X3854600Y6953400D01*
X3829200D01*
X3854600Y6928000D01*
X3829200Y6902600D01*
X3854600D01*
X3880000Y6877200D01*
X3730000D02*
X3755400Y6902600D01*
X3780800D01*
X3755400Y6928000D01*
X3780800Y6953400D01*
X3755400D01*
X3730000Y6978800D01*
X3704600Y6953400D01*
X3679200D01*
X3704600Y6928000D01*
X3679200Y6902600D01*
X3704600D01*
X3730000Y6877200D01*
X3580000D02*
X3605400Y6902600D01*
X3630800D01*
X3605400Y6928000D01*
X3630800Y6953400D01*
X3605400D01*
X3580000Y6978800D01*
X3554600Y6953400D01*
X3529200D01*
X3554600Y6928000D01*
X3529200Y6902600D01*
X3554600D01*
X3580000Y6877200D01*
X3430000Y6872200D02*
X3455400Y6897600D01*
X3480800D01*
X3455400Y6923000D01*
X3480800Y6948400D01*
X3455400D01*
X3430000Y6973800D01*
X3404600Y6948400D01*
X3379200D01*
X3404600Y6923000D01*
X3379200Y6897600D01*
X3404600D01*
X3430000Y6872200D01*
X3280000D02*
X3305400Y6897600D01*
X3330800D01*
X3305400Y6923000D01*
X3330800Y6948400D01*
X3305400D01*
X3280000Y6973800D01*
X3254600Y6948400D01*
X3229200D01*
X3254600Y6923000D01*
X3229200Y6897600D01*
X3254600D01*
X3280000Y6872200D01*
X3130000D02*
X3155400Y6897600D01*
X3180800D01*
X3155400Y6923000D01*
X3180800Y6948400D01*
X3155400D01*
X3130000Y6973800D01*
X3104600Y6948400D01*
X3079200D01*
X3104600Y6923000D01*
X3079200Y6897600D01*
X3104600D01*
X3130000Y6872200D01*
X2980000D02*
X3005400Y6897600D01*
X3030800D01*
X3005400Y6923000D01*
X3030800Y6948400D01*
X3005400D01*
X2980000Y6973800D01*
X2954600Y6948400D01*
X2929200D01*
X2954600Y6923000D01*
X2929200Y6897600D01*
X2954600D01*
X2980000Y6872200D01*
X3349200Y5249200D02*
Y5350800D01*
X3450800D01*
Y5249200D01*
X3349200D01*
Y5099200D02*
Y5200800D01*
X3450800D01*
Y5099200D01*
X3349200D01*
Y4949200D02*
Y5050800D01*
X3450800D01*
Y4949200D01*
X3349200D01*
X7203200Y7403700D02*
Y7505300D01*
X7304800D01*
Y7403700D01*
X7203200D01*
X6753200D02*
Y7505300D01*
X6854800D01*
Y7403700D01*
X6753200D01*
X6853200D02*
Y7505300D01*
X6954800D01*
Y7403700D01*
X6853200D01*
X6753200Y7553700D02*
Y7655300D01*
X6854800D01*
Y7553700D01*
X6753200D01*
Y7853700D02*
Y7955300D01*
X6854800D01*
Y7853700D01*
X6753200D01*
Y7703700D02*
Y7805300D01*
X6854800D01*
Y7703700D01*
X6753200D01*
X6853200D02*
Y7805300D01*
X6954800D01*
Y7703700D01*
X6853200D01*
Y7853700D02*
Y7955300D01*
X6954800D01*
Y7853700D01*
X6853200D01*
Y7553700D02*
Y7655300D01*
X6954800D01*
Y7553700D01*
X6853200D01*
X7203200D02*
Y7655300D01*
X7304800D01*
Y7553700D01*
X7203200D01*
Y7853700D02*
Y7955300D01*
X7304800D01*
Y7853700D01*
X7203200D01*
Y7703700D02*
Y7805300D01*
X7304800D01*
Y7703700D01*
X7203200D01*
X7303200D02*
Y7805300D01*
X7404800D01*
Y7703700D01*
X7303200D01*
Y7853700D02*
Y7955300D01*
X7404800D01*
Y7853700D01*
X7303200D01*
Y7553700D02*
Y7655300D01*
X7404800D01*
Y7553700D01*
X7303200D01*
Y7403700D02*
Y7505300D01*
X7404800D01*
Y7403700D01*
X7303200D01*
X4049199Y2424200D02*
Y2525800D01*
X4150799D01*
Y2424200D01*
X4049199D01*
X4274199Y2699200D02*
Y2800800D01*
X4375799D01*
Y2699200D01*
X4274199D01*
Y2849200D02*
Y2950800D01*
X4375799D01*
Y2849200D01*
X4274199D01*
Y2574200D02*
Y2675800D01*
X4375799D01*
Y2574200D01*
X4274199D01*
Y2999200D02*
Y3100800D01*
X4375799D01*
Y2999200D01*
X4274199D01*
X3824200Y2574200D02*
Y2675800D01*
X3925800D01*
Y2574200D01*
X3824200D01*
X3974199Y2574200D02*
Y2675800D01*
X4075799D01*
Y2574200D01*
X3974199D01*
X4124199D02*
Y2675800D01*
X4225799D01*
Y2574200D01*
X4124199D01*
X3824199Y2724200D02*
Y2825800D01*
X3925799D01*
Y2724200D01*
X3824199D01*
X3824199Y3274200D02*
Y3375800D01*
X3925799D01*
Y3274200D01*
X3824199D01*
X3824199Y2874200D02*
Y2975800D01*
X3925799D01*
Y2874200D01*
X3824199D01*
Y3024200D02*
Y3125800D01*
X3925799D01*
Y3024200D01*
X3824199D01*
Y3174200D02*
Y3275800D01*
X3925799D01*
Y3174200D01*
X3824199D01*
X2124200D02*
Y3275800D01*
X2225800D01*
Y3174200D01*
X2124200D01*
Y3024200D02*
Y3125800D01*
X2225800D01*
Y3024200D01*
X2124200D01*
Y2874200D02*
Y2975800D01*
X2225800D01*
Y2874200D01*
X2124200D01*
X2124200Y3274200D02*
Y3375800D01*
X2225800D01*
Y3274200D01*
X2124200D01*
X2124200Y2724200D02*
Y2825800D01*
X2225800D01*
Y2724200D01*
X2124200D01*
X4049199Y2274200D02*
Y2375800D01*
X4150799D01*
Y2274200D01*
X4049199D01*
X2649200Y69700D02*
Y171300D01*
X2750800D01*
Y69700D01*
X2649200D01*
X2749200Y369700D02*
Y471300D01*
X2850800D01*
Y369700D01*
X2749200D01*
X2299200Y69700D02*
Y171300D01*
X2400800D01*
Y69700D01*
X2299200D01*
X2749199Y519700D02*
Y621300D01*
X2850799D01*
Y519700D01*
X2749199D01*
X2199200Y219700D02*
Y321300D01*
X2300800D01*
Y219700D01*
X2199200D01*
X2649200D02*
Y321300D01*
X2750800D01*
Y219700D01*
X2649200D01*
X2649200Y519700D02*
Y621300D01*
X2750800D01*
Y519700D01*
X2649200D01*
X2299200Y369700D02*
Y471300D01*
X2400800D01*
Y369700D01*
X2299200D01*
X2749200Y219700D02*
Y321300D01*
X2850800D01*
Y219700D01*
X2749200D01*
X2199200Y69700D02*
Y171300D01*
X2300800D01*
Y69700D01*
X2199200D01*
X2299200Y219700D02*
Y321300D01*
X2400800D01*
Y219700D01*
X2299200D01*
X2649200Y369700D02*
Y471300D01*
X2750800D01*
Y369700D01*
X2649200D01*
X2749200Y69700D02*
Y171300D01*
X2850800D01*
Y69700D01*
X2749200D01*
X2199200Y369700D02*
Y471300D01*
X2300800D01*
Y369700D01*
X2199200D01*
X2249200Y5924201D02*
Y6025801D01*
X2350800D01*
Y5924201D01*
X2249200D01*
X2399200D02*
Y6025801D01*
X2500800D01*
Y5924201D01*
X2399200D01*
X2249200Y5774201D02*
Y5875801D01*
X2350800D01*
Y5774201D01*
X2249200D01*
X2399200D02*
Y5875801D01*
X2500800D01*
Y5774201D01*
X2399200D01*
Y5624200D02*
Y5725800D01*
X2500800D01*
Y5624200D01*
X2399200D01*
X2249200D02*
Y5725800D01*
X2350800D01*
Y5624200D01*
X2249200D01*
X2244200Y5474200D02*
Y5575800D01*
X2345800D01*
Y5474200D01*
X2244200D01*
X2399200Y5449200D02*
Y5550800D01*
X2500800D01*
Y5449200D01*
X2399200D01*
Y5249200D02*
Y5350800D01*
X2500800D01*
Y5249200D01*
X2399200D01*
X2244200Y5174200D02*
Y5275800D01*
X2345800D01*
Y5174200D01*
X2244200D01*
X2246700Y5326700D02*
Y5428300D01*
X2348300D01*
Y5326700D01*
X2246700D01*
X2574200Y3174200D02*
Y3275800D01*
X2675800D01*
Y3174200D01*
X2574200D01*
Y3024200D02*
Y3125800D01*
X2675800D01*
Y3024200D01*
X2574200D01*
X2574200Y2874200D02*
Y2975800D01*
X2675800D01*
Y2874200D01*
X2574200D01*
Y2724200D02*
Y2825800D01*
X2675800D01*
Y2724200D01*
X2574200D01*
X2249200Y4374200D02*
Y4475800D01*
X2350800D01*
Y4374200D01*
X2249200D01*
Y4499200D02*
Y4600800D01*
X2350800D01*
Y4499200D01*
X2249200D01*
X674420Y5929200D02*
Y6030800D01*
X776020D01*
Y5929200D01*
X674420D01*
X524420D02*
Y6030800D01*
X626020D01*
Y5929200D01*
X524420D01*
X674200Y7049200D02*
Y7150800D01*
X775800D01*
Y7049200D01*
X674200D01*
X749420Y6264200D02*
Y6365800D01*
X851020D01*
Y6264200D01*
X749420D01*
X599420Y6164200D02*
Y6265800D01*
X701020D01*
Y6164200D01*
X599420D01*
X749420D02*
Y6265800D01*
X851020D01*
Y6164200D01*
X749420D01*
X374420Y6089200D02*
Y6190800D01*
X476020D01*
Y6089200D01*
X374420D01*
Y6239200D02*
Y6340800D01*
X476020D01*
Y6239200D01*
X374420D01*
X611700Y6264200D02*
Y6365800D01*
X713300D01*
Y6264200D01*
X611700D01*
X824200Y6899200D02*
Y7000800D01*
X925800D01*
Y6899200D01*
X824200D01*
Y7049200D02*
Y7150800D01*
X925800D01*
Y7049200D01*
X824200D01*
Y6749200D02*
Y6850800D01*
X925800D01*
Y6749200D01*
X824200D01*
X824420Y5929200D02*
Y6030800D01*
X926020D01*
Y5929200D01*
X824420D01*
X839200Y5549200D02*
Y5650800D01*
X940800D01*
Y5549200D01*
X839200D01*
X1074200Y6749200D02*
Y6850800D01*
X1175800D01*
Y6749200D01*
X1074200D01*
Y6899200D02*
Y7000800D01*
X1175800D01*
Y6899200D01*
X1074200D01*
Y7049200D02*
Y7150800D01*
X1175800D01*
Y7049200D01*
X1074200D01*
X4274199Y2424200D02*
Y2525800D01*
X4375799D01*
Y2424200D01*
X4274199D01*
X4324200Y2274200D02*
Y2375800D01*
X4425800D01*
Y2274200D01*
X4324200D01*
X3899200Y554200D02*
Y655800D01*
X4000800D01*
Y554200D01*
X3899200D01*
Y404200D02*
Y505800D01*
X4000800D01*
Y404200D01*
X3899200D01*
Y104199D02*
Y205799D01*
X4000800D01*
Y104199D01*
X3899200D01*
Y254200D02*
Y355800D01*
X4000800D01*
Y254200D01*
X3899200D01*
X3999200D02*
Y355800D01*
X4100800D01*
Y254200D01*
X3999200D01*
Y104199D02*
Y205799D01*
X4100800D01*
Y104199D01*
X3999200D01*
Y404200D02*
Y505800D01*
X4100800D01*
Y404200D01*
X3999200D01*
X4349200D02*
Y505800D01*
X4450800D01*
Y404200D01*
X4349200D01*
Y104199D02*
Y205799D01*
X4450800D01*
Y104199D01*
X4349200D01*
Y254200D02*
Y355800D01*
X4450800D01*
Y254200D01*
X4349200D01*
X4449200D02*
Y355800D01*
X4550800D01*
Y254200D01*
X4449200D01*
Y104199D02*
Y205799D01*
X4550800D01*
Y104199D01*
X4449200D01*
X4349200Y524200D02*
Y625800D01*
X4450800D01*
Y524200D01*
X4349200D01*
X4449200Y599200D02*
Y700800D01*
X4550800D01*
Y599200D01*
X4449200D01*
X839200Y5699200D02*
Y5800800D01*
X940800D01*
Y5699200D01*
X839200D01*
Y5849200D02*
Y5950800D01*
X940800D01*
Y5849200D01*
X839200D01*
X374420Y5929200D02*
Y6030800D01*
X476020D01*
Y5929200D01*
X374420D01*
Y6389200D02*
Y6490800D01*
X476020D01*
Y6389200D01*
X374420D01*
X674200Y7199200D02*
Y7300800D01*
X775800D01*
Y7199200D01*
X674200D01*
X674200Y7799200D02*
Y7900800D01*
X775800D01*
Y7799200D01*
X674200D01*
Y7649200D02*
Y7750800D01*
X775800D01*
Y7649200D01*
X674200D01*
Y7499200D02*
Y7600800D01*
X775800D01*
Y7499200D01*
X674200D01*
X749200Y7799200D02*
Y7900800D01*
X850800D01*
Y7799200D01*
X749200D01*
Y7649200D02*
Y7750800D01*
X850800D01*
Y7649200D01*
X749200D01*
Y7499200D02*
Y7600800D01*
X850800D01*
Y7499200D01*
X749200D01*
X824200D02*
Y7600800D01*
X925800D01*
Y7499200D01*
X824200D01*
Y7649200D02*
Y7750800D01*
X925800D01*
Y7649200D01*
X824200D01*
Y7799200D02*
Y7900800D01*
X925800D01*
Y7799200D01*
X824200D01*
X1224200D02*
Y7900800D01*
X1325800D01*
Y7799200D01*
X1224200D01*
Y7649200D02*
Y7750800D01*
X1325800D01*
Y7649200D01*
X1224200D01*
Y7499200D02*
Y7600800D01*
X1325800D01*
Y7499200D01*
X1224200D01*
X1149200Y7799200D02*
Y7900800D01*
X1250800D01*
Y7799200D01*
X1149200D01*
Y7649200D02*
Y7750800D01*
X1250800D01*
Y7649200D01*
X1149200D01*
X1074200Y7499200D02*
Y7600800D01*
X1175800D01*
Y7499200D01*
X1074200D01*
Y7649200D02*
Y7750800D01*
X1175800D01*
Y7649200D01*
X1074200D01*
Y7799200D02*
Y7900800D01*
X1175800D01*
Y7799200D01*
X1074200D01*
Y7349200D02*
Y7450800D01*
X1175800D01*
Y7349200D01*
X1074200D01*
Y7199200D02*
Y7300800D01*
X1175800D01*
Y7199200D01*
X1074200D01*
X1074420Y6539200D02*
Y6640800D01*
X1176020D01*
Y6539200D01*
X1074420D01*
Y5914200D02*
Y6015800D01*
X1176020D01*
Y5914200D01*
X1074420D01*
X1074200Y5824200D02*
Y5925800D01*
X1175800D01*
Y5824200D01*
X1074200D01*
X2703200Y7353700D02*
Y7455300D01*
X2804800D01*
Y7353700D01*
X2703200D01*
X2253200Y7653700D02*
Y7755300D01*
X2354800D01*
Y7653700D01*
X2253200D01*
Y7503700D02*
Y7605300D01*
X2354800D01*
Y7503700D01*
X2253200D01*
Y7803700D02*
Y7905300D01*
X2354800D01*
Y7803700D01*
X2253200D01*
X2353200D02*
Y7905300D01*
X2454800D01*
Y7803700D01*
X2353200D01*
Y7503700D02*
Y7605300D01*
X2454800D01*
Y7503700D01*
X2353200D01*
Y7653700D02*
Y7755300D01*
X2454800D01*
Y7653700D01*
X2353200D01*
X2703200D02*
Y7755300D01*
X2804800D01*
Y7653700D01*
X2703200D01*
Y7503700D02*
Y7605300D01*
X2804800D01*
Y7503700D01*
X2703200D01*
Y7803700D02*
Y7905300D01*
X2804800D01*
Y7803700D01*
X2703200D01*
X2803200D02*
Y7905300D01*
X2904800D01*
Y7803700D01*
X2803200D01*
Y7503700D02*
Y7605300D01*
X2904800D01*
Y7503700D01*
X2803200D01*
Y7653700D02*
Y7755300D01*
X2904800D01*
Y7653700D01*
X2803200D01*
X2349200Y7349200D02*
Y7450800D01*
X2450800D01*
Y7349200D01*
X2349200D01*
X2249200Y7199200D02*
Y7300800D01*
X2350800D01*
Y7199200D01*
X2249200D01*
X224200Y7504200D02*
Y7605800D01*
X325800D01*
Y7504200D01*
X224200D01*
X394200Y7674200D02*
Y7775800D01*
X495800D01*
Y7674200D01*
X394200D01*
X224200Y7844200D02*
Y7945800D01*
X325800D01*
Y7844200D01*
X224200D01*
X104200Y7794200D02*
Y7895800D01*
X205800D01*
Y7794200D01*
X104200D01*
Y7554200D02*
Y7655800D01*
X205800D01*
Y7554200D01*
X104200D01*
X54200Y7674200D02*
Y7775800D01*
X155800D01*
Y7674200D01*
X54200D01*
X344200Y7794200D02*
Y7895800D01*
X445800D01*
Y7794200D01*
X344200D01*
Y7554200D02*
Y7655800D01*
X445800D01*
Y7554200D01*
X344200D01*
X7794200D02*
Y7655800D01*
X7895800D01*
Y7554200D01*
X7794200D01*
Y7794200D02*
Y7895800D01*
X7895800D01*
Y7794200D01*
X7794200D01*
X7504200Y7674200D02*
Y7775800D01*
X7605800D01*
Y7674200D01*
X7504200D01*
X7554200Y7554200D02*
Y7655800D01*
X7655800D01*
Y7554200D01*
X7554200D01*
Y7794200D02*
Y7895800D01*
X7655800D01*
Y7794200D01*
X7554200D01*
X7674200Y7844200D02*
Y7945800D01*
X7775800D01*
Y7844200D01*
X7674200D01*
X7844200Y7674200D02*
Y7775800D01*
X7945800D01*
Y7674200D01*
X7844200D01*
X7674200Y7504200D02*
Y7605800D01*
X7775800D01*
Y7504200D01*
X7674200D01*
X954420Y6299200D02*
Y6400800D01*
X1056020D01*
Y6299200D01*
X954420D01*
X1044420D02*
Y6400800D01*
X1146020D01*
Y6299200D01*
X1044420D01*
Y6209200D02*
Y6310800D01*
X1146020D01*
Y6209200D01*
X1044420D01*
X749420Y6364200D02*
Y6465800D01*
X851020D01*
Y6364200D01*
X749420D01*
X611700D02*
Y6465800D01*
X713300D01*
Y6364200D01*
X611700D01*
X824420Y6549200D02*
Y6650800D01*
X926020D01*
Y6549200D01*
X824420D01*
X684420D02*
Y6650800D01*
X786020D01*
Y6549200D01*
X684420D01*
X524200Y6556700D02*
Y6658300D01*
X625800D01*
Y6556700D01*
X524200D01*
X374420Y6549200D02*
Y6650800D01*
X476020D01*
Y6549200D01*
X374420D01*
X954420Y6209200D02*
Y6310800D01*
X1056020D01*
Y6209200D01*
X954420D01*
X2249200Y6974200D02*
Y7075800D01*
X2350800D01*
Y6974200D01*
X2249200D01*
X2254200Y6779200D02*
Y6880800D01*
X2355800D01*
Y6779200D01*
X2254200D01*
X1719199Y4799201D02*
Y4900801D01*
X1820799D01*
Y4799201D01*
X1719199D01*
X1569199D02*
Y4900801D01*
X1670799D01*
Y4799201D01*
X1569199D01*
X1419199D02*
Y4900801D01*
X1520799D01*
Y4799201D01*
X1419199D01*
X1199200Y4899200D02*
Y5000800D01*
X1300800D01*
Y4899200D01*
X1199200D01*
X1199200Y5024201D02*
Y5125801D01*
X1300800D01*
Y5024201D01*
X1199200D01*
X1799199Y5774200D02*
Y5875800D01*
X1900799D01*
Y5774200D01*
X1799199D01*
X1649199D02*
Y5875800D01*
X1750799D01*
Y5774200D01*
X1649199D01*
X1499199D02*
Y5875800D01*
X1600799D01*
Y5774200D01*
X1499199D01*
X1349199D02*
Y5875800D01*
X1450799D01*
Y5774200D01*
X1349199D01*
X1199200Y5624200D02*
Y5725800D01*
X1300800D01*
Y5624200D01*
X1199200D01*
X1549200Y5649200D02*
Y5750800D01*
X1650800D01*
Y5649200D01*
X1549200D01*
Y5499200D02*
Y5600800D01*
X1650800D01*
Y5499200D01*
X1549200D01*
Y5349200D02*
Y5450800D01*
X1650800D01*
Y5349200D01*
X1549200D01*
Y5199200D02*
Y5300800D01*
X1650800D01*
Y5199200D01*
X1549200D01*
X1624200Y5124200D02*
Y5225800D01*
X1725800D01*
Y5124200D01*
X1624200D01*
Y5274200D02*
Y5375800D01*
X1725800D01*
Y5274200D01*
X1624200D01*
Y5424200D02*
Y5525800D01*
X1725800D01*
Y5424200D01*
X1624200D01*
X1474200Y5124200D02*
Y5225800D01*
X1575800D01*
Y5124200D01*
X1474200D01*
Y5274200D02*
Y5375800D01*
X1575800D01*
Y5274200D01*
X1474200D01*
Y5424200D02*
Y5525800D01*
X1575800D01*
Y5424200D01*
X1474200D01*
X1549200Y5049200D02*
Y5150800D01*
X1650800D01*
Y5049200D01*
X1549200D01*
Y4899200D02*
Y5000800D01*
X1650800D01*
Y4899200D01*
X1549200D01*
X899200Y5174200D02*
Y5275800D01*
X1000800D01*
Y5174200D01*
X899200D01*
X1049200D02*
Y5275800D01*
X1150800D01*
Y5174200D01*
X1049200D01*
X1199200D02*
Y5275800D01*
X1300800D01*
Y5174200D01*
X1199200D01*
X1869200Y4799200D02*
Y4900800D01*
X1970800D01*
Y4799200D01*
X1869200D01*
X2099200Y5174200D02*
Y5275800D01*
X2200800D01*
Y5174200D01*
X2099200D01*
X2024200Y5399200D02*
Y5500800D01*
X2125800D01*
Y5399200D01*
X2024200D01*
X1199200Y5774200D02*
Y5875800D01*
X1300800D01*
Y5774200D01*
X1199200D01*
Y5474200D02*
Y5575800D01*
X1300800D01*
Y5474200D01*
X1199200D01*
X1124200Y5399200D02*
Y5500800D01*
X1225800D01*
Y5399200D01*
X1124200D01*
X1074200Y5674200D02*
Y5775800D01*
X1175800D01*
Y5674200D01*
X1074200D01*
Y5524200D02*
Y5625800D01*
X1175800D01*
Y5524200D01*
X1074200D01*
X1149420Y5989200D02*
Y6090800D01*
X1251020D01*
Y5989200D01*
X1149420D01*
X1299420D02*
Y6090800D01*
X1401020D01*
Y5989200D01*
X1299420D01*
Y6139200D02*
Y6240800D01*
X1401020D01*
Y6139200D01*
X1299420D01*
Y6289200D02*
Y6390800D01*
X1401020D01*
Y6289200D01*
X1299420D01*
Y6439200D02*
Y6540800D01*
X1401020D01*
Y6439200D01*
X1299420D01*
X1149420Y6439200D02*
Y6540800D01*
X1251020D01*
Y6439200D01*
X1149420D01*
X1149200Y7499200D02*
Y7600800D01*
X1250800D01*
Y7499200D01*
X1149200D01*
X2199200Y519700D02*
Y621300D01*
X2300800D01*
Y519700D01*
X2199200D01*
X2249200Y7074200D02*
Y7175800D01*
X2350800D01*
Y7074200D01*
X2249200D01*
X385000Y4449200D02*
X410400Y4474600D01*
X435800D01*
X410400Y4500000D01*
X435800Y4525400D01*
X410400D01*
X385000Y4550800D01*
X359600Y4525400D01*
X334200D01*
X359600Y4500000D01*
X334200Y4474600D01*
X359600D01*
X385000Y4449200D01*
X7150000Y4199200D02*
X7175400Y4224600D01*
X7200800D01*
X7175400Y4250000D01*
X7200800Y4275400D01*
X7175400D01*
X7150000Y4300800D01*
X7124600Y4275400D01*
X7099200D01*
X7124600Y4250000D01*
X7099200Y4224600D01*
X7124600D01*
X7150000Y4199200D01*
X4994540Y4274200D02*
X5019940Y4299600D01*
X5045340D01*
X5019940Y4325000D01*
X5045340Y4350400D01*
X5019940D01*
X4994540Y4375800D01*
X4969140Y4350400D01*
X4943740D01*
X4969140Y4325000D01*
X4943740Y4299600D01*
X4969140D01*
X4994540Y4274200D01*
X1142500Y3954200D02*
X1167900Y3979600D01*
X1193300D01*
X1167900Y4005000D01*
X1193300Y4030400D01*
X1167900D01*
X1142500Y4055800D01*
X1117100Y4030400D01*
X1091700D01*
X1117100Y4005000D01*
X1091700Y3979600D01*
X1117100D01*
X1142500Y3954200D01*
X2249200Y3349200D02*
Y3450800D01*
X2350800D01*
Y3349200D01*
X2249200D01*
X2574200Y3274200D02*
Y3375800D01*
X2675800D01*
Y3274200D01*
X2574200D01*
X2800000Y6224200D02*
X2825400Y6249600D01*
X2850800D01*
X2825400Y6275000D01*
X2850800Y6300400D01*
X2825400D01*
X2800000Y6325800D01*
X2774600Y6300400D01*
X2749200D01*
X2774600Y6275000D01*
X2749200Y6249600D01*
X2774600D01*
X2800000Y6224200D01*
X6650000Y7254200D02*
X6675400Y7279600D01*
X6700800D01*
X6675400Y7305000D01*
X6700800Y7330400D01*
X6675400D01*
X6650000Y7355800D01*
X6624600Y7330400D01*
X6599200D01*
X6624600Y7305000D01*
X6599200Y7279600D01*
X6624600D01*
X6650000Y7254200D01*
X4251700Y6579200D02*
Y6680800D01*
X4353300D01*
Y6579200D01*
X4251700D01*
D125*
X4267800Y7556000D02*
G03*
X4267800Y7556000I-50800J0D01*
G01*
Y7810000D02*
G03*
X4267800Y7810000I-50800J0D01*
G01*
X4013800D02*
G03*
X4013800Y7810000I-50800J0D01*
G01*
Y7556000D02*
G03*
X4013800Y7556000I-50800J0D01*
G01*
X4521800Y7810000D02*
G03*
X4521800Y7810000I-50800J0D01*
G01*
X4775800D02*
G03*
X4775800Y7810000I-50800J0D01*
G01*
X5029800D02*
G03*
X5029800Y7810000I-50800J0D01*
G01*
X5283800D02*
G03*
X5283800Y7810000I-50800J0D01*
G01*
X4521800Y7556000D02*
G03*
X4521800Y7556000I-50800J0D01*
G01*
X4775800D02*
G03*
X4775800Y7556000I-50800J0D01*
G01*
X5029800D02*
G03*
X5029800Y7556000I-50800J0D01*
G01*
X5283800D02*
G03*
X5283800Y7556000I-50800J0D01*
G01*
%TF.MD5,6f6ccd07aaf5737513d501ac688d92dc*%
M02*
