%TF.GenerationSoftware,Altium Limited,Altium Designer,26.9.1 (10)*%
G04 Layer_Physical_Order=2*
G04 Layer_Color=36540*
G04 Board_Origin=13779528|11122048*
%FSLAX45Y45*%
%MOMM*%
%TF.SameCoordinates,C0C7667C-18A9-4E34-ADBB-357C6C009FE5*%
%TF.FilePolarity,Positive*%
%TF.FileFunction,Copper,L2,Inr,Signal*%
%TF.Part,Single*%
G01*
G75*
%TA.AperFunction,ComponentPad*%
%ADD58C,4.00000*%
%ADD59C,1.20000*%
%ADD61C,1.95000*%
%TA.AperFunction,ViaPad*%
%ADD62C,0.60000*%
%ADD63C,1.00000*%
G36*
X7942628Y3350000D02*
X7375000D01*
Y3311858D01*
X7350400Y3309927D01*
X7349211Y3314363D01*
X7345262Y3329103D01*
X7335335Y3346297D01*
X7321297Y3360335D01*
X7304103Y3370262D01*
X7284927Y3375400D01*
X7265073D01*
X7245897Y3370262D01*
X7228703Y3360335D01*
X7214665Y3346297D01*
X7204738Y3329103D01*
X7199600Y3309927D01*
Y3290073D01*
X7204738Y3270897D01*
X7214665Y3253703D01*
X7228703Y3239665D01*
X7245897Y3229738D01*
X7265073Y3224600D01*
X7284927D01*
X7304103Y3229738D01*
X7321297Y3239665D01*
X7335335Y3253703D01*
X7345262Y3270897D01*
X7349211Y3285637D01*
X7350400Y3290073D01*
X7375000Y3288142D01*
Y3200000D01*
X7942628D01*
Y57372D01*
X5425000Y57372D01*
Y988142D01*
X5449600Y990073D01*
X5450789Y985637D01*
X5454738Y970897D01*
X5464665Y953703D01*
X5478704Y939665D01*
X5495897Y929738D01*
X5515074Y924600D01*
X5534927D01*
X5554103Y929738D01*
X5571297Y939665D01*
X5585335Y953703D01*
X5595262Y970897D01*
X5600400Y990073D01*
Y1009927D01*
X5595262Y1029103D01*
X5585335Y1046297D01*
X5571297Y1060335D01*
X5554103Y1070262D01*
X5534927Y1075400D01*
X5515074D01*
X5495897Y1070262D01*
X5478704Y1060335D01*
X5464665Y1046297D01*
X5454738Y1029103D01*
X5450789Y1014363D01*
X5449600Y1009927D01*
X5425000Y1011858D01*
Y1213142D01*
X5449600Y1215073D01*
X5450789Y1210637D01*
X5454738Y1195897D01*
X5464665Y1178704D01*
X5478704Y1164665D01*
X5495897Y1154738D01*
X5515074Y1149600D01*
X5534927D01*
X5554103Y1154738D01*
X5571297Y1164665D01*
X5585335Y1178704D01*
X5595262Y1195897D01*
X5600400Y1215074D01*
Y1234927D01*
X5595262Y1254103D01*
X5585335Y1271297D01*
X5571297Y1285335D01*
X5554103Y1295262D01*
X5534927Y1300400D01*
X5515074D01*
X5495897Y1295262D01*
X5478704Y1285335D01*
X5464665Y1271297D01*
X5454738Y1254103D01*
X5450789Y1239363D01*
X5449600Y1234927D01*
X5425000Y1236858D01*
Y2813142D01*
X5449600Y2815073D01*
X5450789Y2810637D01*
X5454738Y2795897D01*
X5464665Y2778703D01*
X5478704Y2764665D01*
X5495897Y2754738D01*
X5515074Y2749600D01*
X5534927D01*
X5554103Y2754738D01*
X5571297Y2764665D01*
X5585335Y2778703D01*
X5595262Y2795897D01*
X5600400Y2815073D01*
Y2834927D01*
X5595262Y2854103D01*
X5585335Y2871297D01*
X5571297Y2885335D01*
X5554103Y2895262D01*
X5534927Y2900400D01*
X5515074D01*
X5495897Y2895262D01*
X5478704Y2885335D01*
X5464665Y2871297D01*
X5454738Y2854103D01*
X5450789Y2839363D01*
X5449600Y2834927D01*
X5425000Y2836858D01*
Y3200000D01*
X6075000D01*
Y3350000D01*
X5275000D01*
Y57372D01*
X57372Y57371D01*
Y7942627D01*
X7942628Y7942628D01*
Y3350000D01*
D02*
G37*
%LPC*%
G36*
X4242000Y7896476D02*
Y7835000D01*
X4303476D01*
X4300866Y7844738D01*
X4289017Y7865261D01*
X4272261Y7882018D01*
X4251738Y7893866D01*
X4242000Y7896476D01*
D02*
G37*
G36*
X4192000D02*
X4182261Y7893866D01*
X4161739Y7882018D01*
X4144982Y7865261D01*
X4133133Y7844738D01*
X4130524Y7835000D01*
X4192000D01*
Y7896476D01*
D02*
G37*
G36*
X5244243Y7895400D02*
X5221757D01*
X5200037Y7889580D01*
X5180563Y7878337D01*
X5164663Y7862437D01*
X5153420Y7842963D01*
X5147600Y7821243D01*
Y7798757D01*
X5153420Y7777037D01*
X5164663Y7757563D01*
X5180563Y7741663D01*
X5200037Y7730420D01*
X5221757Y7724600D01*
X5244243D01*
X5265963Y7730420D01*
X5285436Y7741663D01*
X5301337Y7757563D01*
X5312580Y7777037D01*
X5318400Y7798757D01*
Y7821243D01*
X5312580Y7842963D01*
X5301337Y7862437D01*
X5285436Y7878337D01*
X5265963Y7889580D01*
X5244243Y7895400D01*
D02*
G37*
G36*
X4990243D02*
X4967757D01*
X4946037Y7889580D01*
X4926563Y7878337D01*
X4910663Y7862437D01*
X4899420Y7842963D01*
X4893600Y7821243D01*
Y7798757D01*
X4899420Y7777037D01*
X4910663Y7757563D01*
X4926563Y7741663D01*
X4946037Y7730420D01*
X4967757Y7724600D01*
X4990243D01*
X5011963Y7730420D01*
X5031436Y7741663D01*
X5047337Y7757563D01*
X5058580Y7777037D01*
X5064400Y7798757D01*
Y7821243D01*
X5058580Y7842963D01*
X5047337Y7862437D01*
X5031436Y7878337D01*
X5011963Y7889580D01*
X4990243Y7895400D01*
D02*
G37*
G36*
X4736243D02*
X4713757D01*
X4692037Y7889580D01*
X4672563Y7878337D01*
X4656663Y7862437D01*
X4645420Y7842963D01*
X4639600Y7821243D01*
Y7798757D01*
X4645420Y7777037D01*
X4656663Y7757563D01*
X4672563Y7741663D01*
X4692037Y7730420D01*
X4713757Y7724600D01*
X4736243D01*
X4757963Y7730420D01*
X4777436Y7741663D01*
X4793337Y7757563D01*
X4804580Y7777037D01*
X4810400Y7798757D01*
Y7821243D01*
X4804580Y7842963D01*
X4793337Y7862437D01*
X4777436Y7878337D01*
X4757963Y7889580D01*
X4736243Y7895400D01*
D02*
G37*
G36*
X4482243D02*
X4459757D01*
X4438037Y7889580D01*
X4418563Y7878337D01*
X4402663Y7862437D01*
X4391420Y7842963D01*
X4385600Y7821243D01*
Y7798757D01*
X4391420Y7777037D01*
X4402663Y7757563D01*
X4418563Y7741663D01*
X4438037Y7730420D01*
X4459757Y7724600D01*
X4482243D01*
X4503963Y7730420D01*
X4523436Y7741663D01*
X4539337Y7757563D01*
X4550580Y7777037D01*
X4556400Y7798757D01*
Y7821243D01*
X4550580Y7842963D01*
X4539337Y7862437D01*
X4523436Y7878337D01*
X4503963Y7889580D01*
X4482243Y7895400D01*
D02*
G37*
G36*
X3974243D02*
X3951757D01*
X3930037Y7889580D01*
X3910563Y7878337D01*
X3894663Y7862437D01*
X3883420Y7842963D01*
X3877600Y7821243D01*
Y7798757D01*
X3883420Y7777037D01*
X3894663Y7757563D01*
X3910563Y7741663D01*
X3930037Y7730420D01*
X3951757Y7724600D01*
X3974243D01*
X3995963Y7730420D01*
X4015436Y7741663D01*
X4031337Y7757563D01*
X4042580Y7777037D01*
X4048400Y7798757D01*
Y7821243D01*
X4042580Y7842963D01*
X4031337Y7862437D01*
X4015436Y7878337D01*
X3995963Y7889580D01*
X3974243Y7895400D01*
D02*
G37*
G36*
X4303476Y7785000D02*
X4242000D01*
Y7723524D01*
X4251738Y7726133D01*
X4272261Y7737982D01*
X4289017Y7754739D01*
X4300866Y7775261D01*
X4303476Y7785000D01*
D02*
G37*
G36*
X4192000D02*
X4130524D01*
X4133133Y7775261D01*
X4144982Y7754739D01*
X4161739Y7737982D01*
X4182261Y7726133D01*
X4192000Y7723524D01*
Y7785000D01*
D02*
G37*
G36*
X4242000Y7642476D02*
Y7581000D01*
X4303476D01*
X4300866Y7590738D01*
X4289017Y7611261D01*
X4272261Y7628018D01*
X4251738Y7639866D01*
X4242000Y7642476D01*
D02*
G37*
G36*
X4192000D02*
X4182261Y7639866D01*
X4161739Y7628018D01*
X4144982Y7611261D01*
X4133133Y7590738D01*
X4130524Y7581000D01*
X4192000D01*
Y7642476D01*
D02*
G37*
G36*
X5244243Y7641400D02*
X5221757D01*
X5200037Y7635580D01*
X5180563Y7624337D01*
X5164663Y7608437D01*
X5153420Y7588963D01*
X5147600Y7567243D01*
Y7544757D01*
X5153420Y7523037D01*
X5164663Y7503563D01*
X5180563Y7487663D01*
X5200037Y7476420D01*
X5221757Y7470600D01*
X5244243D01*
X5265963Y7476420D01*
X5285436Y7487663D01*
X5301337Y7503563D01*
X5312580Y7523037D01*
X5318400Y7544757D01*
Y7567243D01*
X5312580Y7588963D01*
X5301337Y7608437D01*
X5285436Y7624337D01*
X5265963Y7635580D01*
X5244243Y7641400D01*
D02*
G37*
G36*
X4990243D02*
X4967757D01*
X4946037Y7635580D01*
X4926563Y7624337D01*
X4910663Y7608437D01*
X4899420Y7588963D01*
X4893600Y7567243D01*
Y7544757D01*
X4899420Y7523037D01*
X4910663Y7503563D01*
X4926563Y7487663D01*
X4946037Y7476420D01*
X4967757Y7470600D01*
X4990243D01*
X5011963Y7476420D01*
X5031436Y7487663D01*
X5047337Y7503563D01*
X5058580Y7523037D01*
X5064400Y7544757D01*
Y7567243D01*
X5058580Y7588963D01*
X5047337Y7608437D01*
X5031436Y7624337D01*
X5011963Y7635580D01*
X4990243Y7641400D01*
D02*
G37*
G36*
X4736243D02*
X4713757D01*
X4692037Y7635580D01*
X4672563Y7624337D01*
X4656663Y7608437D01*
X4645420Y7588963D01*
X4639600Y7567243D01*
Y7544757D01*
X4645420Y7523037D01*
X4656663Y7503563D01*
X4672563Y7487663D01*
X4692037Y7476420D01*
X4713757Y7470600D01*
X4736243D01*
X4757963Y7476420D01*
X4777436Y7487663D01*
X4793337Y7503563D01*
X4804580Y7523037D01*
X4810400Y7544757D01*
Y7567243D01*
X4804580Y7588963D01*
X4793337Y7608437D01*
X4777436Y7624337D01*
X4757963Y7635580D01*
X4736243Y7641400D01*
D02*
G37*
G36*
X4482243D02*
X4459757D01*
X4438037Y7635580D01*
X4418563Y7624337D01*
X4402663Y7608437D01*
X4391420Y7588963D01*
X4385600Y7567243D01*
Y7544757D01*
X4391420Y7523037D01*
X4402663Y7503563D01*
X4418563Y7487663D01*
X4438037Y7476420D01*
X4459757Y7470600D01*
X4482243D01*
X4503963Y7476420D01*
X4523436Y7487663D01*
X4539337Y7503563D01*
X4550580Y7523037D01*
X4556400Y7544757D01*
Y7567243D01*
X4550580Y7588963D01*
X4539337Y7608437D01*
X4523436Y7624337D01*
X4503963Y7635580D01*
X4482243Y7641400D01*
D02*
G37*
G36*
X3974243D02*
X3951757D01*
X3930037Y7635580D01*
X3910563Y7624337D01*
X3894663Y7608437D01*
X3883420Y7588963D01*
X3877600Y7567243D01*
Y7544757D01*
X3883420Y7523037D01*
X3894663Y7503563D01*
X3910563Y7487663D01*
X3930037Y7476420D01*
X3951757Y7470600D01*
X3974243D01*
X3995963Y7476420D01*
X4015436Y7487663D01*
X4031337Y7503563D01*
X4042580Y7523037D01*
X4048400Y7544757D01*
Y7567243D01*
X4042580Y7588963D01*
X4031337Y7608437D01*
X4015436Y7624337D01*
X3995963Y7635580D01*
X3974243Y7641400D01*
D02*
G37*
G36*
X4303476Y7531000D02*
X4242000D01*
Y7469524D01*
X4251738Y7472133D01*
X4272261Y7483982D01*
X4289017Y7500739D01*
X4300866Y7521261D01*
X4303476Y7531000D01*
D02*
G37*
G36*
X4192000D02*
X4130524D01*
X4133133Y7521261D01*
X4144982Y7500739D01*
X4161739Y7483982D01*
X4182261Y7472133D01*
X4192000Y7469524D01*
Y7531000D01*
D02*
G37*
G36*
X6659926Y7380400D02*
X6640073D01*
X6620897Y7375262D01*
X6603703Y7365335D01*
X6589665Y7351297D01*
X6579738Y7334103D01*
X6574600Y7314927D01*
Y7295074D01*
X6579738Y7275897D01*
X6589665Y7258704D01*
X6603703Y7244665D01*
X6620897Y7234738D01*
X6640073Y7229600D01*
X6659926D01*
X6679103Y7234738D01*
X6696296Y7244665D01*
X6710335Y7258704D01*
X6720262Y7275897D01*
X6725400Y7295074D01*
Y7314927D01*
X6720262Y7334103D01*
X6710335Y7351297D01*
X6696296Y7365335D01*
X6679103Y7375262D01*
X6659926Y7380400D01*
D02*
G37*
G36*
X5424927Y7075400D02*
X5405074D01*
X5385897Y7070262D01*
X5368704Y7060335D01*
X5354665Y7046297D01*
X5344738Y7029103D01*
X5339600Y7009927D01*
Y6990073D01*
X5344738Y6970897D01*
X5354665Y6953703D01*
X5368704Y6939665D01*
X5385897Y6929738D01*
X5405074Y6924600D01*
X5424927D01*
X5444103Y6929738D01*
X5461297Y6939665D01*
X5475335Y6953703D01*
X5485262Y6970897D01*
X5490400Y6990073D01*
Y7009927D01*
X5485262Y7029103D01*
X5475335Y7046297D01*
X5461297Y7060335D01*
X5444103Y7070262D01*
X5424927Y7075400D01*
D02*
G37*
G36*
X5709927Y6750400D02*
X5690073D01*
X5670897Y6745262D01*
X5653703Y6735335D01*
X5639665Y6721297D01*
X5629738Y6704103D01*
X5624600Y6684927D01*
Y6665074D01*
X5629738Y6645897D01*
X5639665Y6628704D01*
X5653703Y6614665D01*
X5670897Y6604738D01*
X5690073Y6599600D01*
X5709927D01*
X5729103Y6604738D01*
X5746297Y6614665D01*
X5760335Y6628704D01*
X5770262Y6645897D01*
X5775400Y6665074D01*
Y6684927D01*
X5770262Y6704103D01*
X5760335Y6721297D01*
X5746297Y6735335D01*
X5729103Y6745262D01*
X5709927Y6750400D01*
D02*
G37*
G36*
X4313520Y6685400D02*
X4291480D01*
X4271118Y6676966D01*
X4255534Y6661381D01*
X4247100Y6641020D01*
Y6618980D01*
X4255534Y6598619D01*
X4271118Y6583034D01*
X4291480Y6574600D01*
X4313520D01*
X4333881Y6583034D01*
X4349466Y6598619D01*
X4357900Y6618980D01*
Y6641020D01*
X4349466Y6661381D01*
X4333881Y6676966D01*
X4313520Y6685400D01*
D02*
G37*
G36*
X2809927Y6700400D02*
X2790073D01*
X2770897Y6695262D01*
X2753703Y6685335D01*
X2739665Y6671297D01*
X2729738Y6654103D01*
X2724600Y6634927D01*
Y6615073D01*
X2729738Y6595897D01*
X2739665Y6578703D01*
X2753703Y6564665D01*
X2770897Y6554738D01*
X2790073Y6549600D01*
X2809927D01*
X2829103Y6554738D01*
X2846297Y6564665D01*
X2860335Y6578703D01*
X2870262Y6595897D01*
X2875400Y6615073D01*
Y6634927D01*
X2870262Y6654103D01*
X2860335Y6671297D01*
X2846297Y6685335D01*
X2829103Y6695262D01*
X2809927Y6700400D01*
D02*
G37*
G36*
X3336020Y6355400D02*
X3313980D01*
X3293619Y6346966D01*
X3291593Y6344941D01*
X3275000Y6333478D01*
X3258406Y6344941D01*
X3256381Y6346966D01*
X3236020Y6355400D01*
X3213980D01*
X3193618Y6346966D01*
X3178034Y6331382D01*
X3169600Y6311020D01*
Y6288980D01*
X3178034Y6268619D01*
X3193618Y6253034D01*
X3213980Y6244600D01*
X3236020D01*
X3256381Y6253034D01*
X3258406Y6255059D01*
X3275000Y6266522D01*
X3291593Y6255059D01*
X3293619Y6253034D01*
X3313980Y6244600D01*
X3336020D01*
X3356381Y6253034D01*
X3371966Y6268619D01*
X3380400Y6288980D01*
Y6311020D01*
X3371966Y6331382D01*
X3356381Y6346966D01*
X3336020Y6355400D01*
D02*
G37*
G36*
X2809927Y6350400D02*
X2790073D01*
X2770897Y6345262D01*
X2753703Y6335335D01*
X2739665Y6321296D01*
X2729738Y6304103D01*
X2724600Y6284926D01*
Y6265073D01*
X2729738Y6245897D01*
X2739665Y6228703D01*
X2753703Y6214665D01*
X2770897Y6204738D01*
X2790073Y6199600D01*
X2809927D01*
X2829103Y6204738D01*
X2846297Y6214665D01*
X2860335Y6228703D01*
X2870262Y6245897D01*
X2875400Y6265073D01*
Y6284926D01*
X2870262Y6304103D01*
X2860335Y6321296D01*
X2846297Y6335335D01*
X2829103Y6345262D01*
X2809927Y6350400D01*
D02*
G37*
G36*
X7109927Y6025400D02*
X7090073D01*
X7070897Y6020262D01*
X7053703Y6010335D01*
X7039665Y5996297D01*
X7029738Y5979103D01*
X7024600Y5959927D01*
Y5940073D01*
X7029738Y5920897D01*
X7039665Y5903703D01*
X7053703Y5889665D01*
X7070897Y5879738D01*
X7090073Y5874600D01*
X7109927D01*
X7129103Y5879738D01*
X7146297Y5889665D01*
X7160335Y5903703D01*
X7170262Y5920897D01*
X7175400Y5940073D01*
Y5959927D01*
X7170262Y5979103D01*
X7160335Y5996297D01*
X7146297Y6010335D01*
X7129103Y6020262D01*
X7109927Y6025400D01*
D02*
G37*
G36*
X6884927D02*
X6865073D01*
X6845897Y6020262D01*
X6828703Y6010335D01*
X6814665Y5996297D01*
X6804738Y5979103D01*
X6799600Y5959927D01*
Y5940073D01*
X6804738Y5920897D01*
X6814665Y5903703D01*
X6828703Y5889665D01*
X6845897Y5879738D01*
X6865073Y5874600D01*
X6884927D01*
X6904103Y5879738D01*
X6921297Y5889665D01*
X6935335Y5903703D01*
X6945262Y5920897D01*
X6950400Y5940073D01*
Y5959927D01*
X6945262Y5979103D01*
X6935335Y5996297D01*
X6921297Y6010335D01*
X6904103Y6020262D01*
X6884927Y6025400D01*
D02*
G37*
G36*
X5059927Y5400400D02*
X5040073D01*
X5020897Y5395262D01*
X5003703Y5385335D01*
X4989665Y5371297D01*
X4979738Y5354103D01*
X4974600Y5334927D01*
Y5315073D01*
X4979738Y5295897D01*
X4989665Y5278703D01*
X5003703Y5264665D01*
X5020897Y5254738D01*
X5040073Y5249600D01*
X5059927D01*
X5079103Y5254738D01*
X5096297Y5264665D01*
X5110335Y5278703D01*
X5120262Y5295897D01*
X5125400Y5315073D01*
Y5334927D01*
X5120262Y5354103D01*
X5110335Y5371297D01*
X5096297Y5385335D01*
X5079103Y5395262D01*
X5059927Y5400400D01*
D02*
G37*
G36*
X3763520Y5230400D02*
X3741480D01*
X3721119Y5221966D01*
X3717843Y5218691D01*
X3703821Y5207391D01*
X3684656Y5218691D01*
X3683881Y5219466D01*
X3663520Y5227900D01*
X3641480D01*
X3621118Y5219466D01*
X3605534Y5203881D01*
X3597100Y5183520D01*
Y5161480D01*
X3605534Y5141118D01*
X3621118Y5125534D01*
X3621296Y5124643D01*
X3613034Y5116381D01*
X3604600Y5096020D01*
Y5073980D01*
X3613034Y5053619D01*
X3628619Y5038034D01*
X3648980Y5029600D01*
X3671020D01*
X3691381Y5038034D01*
X3706966Y5053619D01*
X3715400Y5073980D01*
Y5096020D01*
X3711955Y5104337D01*
X3731395Y5123777D01*
X3741480Y5119600D01*
X3763520D01*
X3783881Y5128034D01*
X3799466Y5143619D01*
X3807900Y5163980D01*
Y5186020D01*
X3799466Y5206382D01*
X3783881Y5221966D01*
X3763520Y5230400D01*
D02*
G37*
G36*
X6484927Y5525400D02*
X6465073D01*
X6445897Y5520262D01*
X6428703Y5510335D01*
X6414665Y5496297D01*
X6404738Y5479103D01*
X6399600Y5459927D01*
Y5440073D01*
X6404738Y5420897D01*
X6414665Y5403703D01*
X6428703Y5389665D01*
X6445897Y5379738D01*
X6460081Y5375938D01*
X6465073Y5374600D01*
Y5350400D01*
X6460081Y5349062D01*
X6445897Y5345262D01*
X6428703Y5335335D01*
X6414665Y5321297D01*
X6404738Y5304103D01*
X6399600Y5284927D01*
Y5265074D01*
X6404738Y5245897D01*
X6414665Y5228704D01*
X6428703Y5214665D01*
X6445897Y5204738D01*
X6465073Y5199600D01*
X6484927D01*
X6504103Y5204738D01*
X6521297Y5214665D01*
X6535335Y5228704D01*
X6545262Y5245897D01*
X6550400Y5265074D01*
Y5284927D01*
X6545262Y5304103D01*
X6535335Y5321297D01*
X6521297Y5335335D01*
X6504103Y5345262D01*
X6489919Y5349062D01*
X6484927Y5350400D01*
Y5374600D01*
X6489919Y5375938D01*
X6504103Y5379738D01*
X6521297Y5389665D01*
X6535335Y5403703D01*
X6545262Y5420897D01*
X6550400Y5440073D01*
Y5459927D01*
X6545262Y5479103D01*
X6535335Y5496297D01*
X6521297Y5510335D01*
X6504103Y5520262D01*
X6484927Y5525400D01*
D02*
G37*
G36*
X2711020Y5180400D02*
X2688980D01*
X2668618Y5171966D01*
X2653034Y5156381D01*
X2644600Y5136020D01*
Y5113980D01*
X2653034Y5093618D01*
X2668618Y5078034D01*
X2688980Y5069600D01*
X2711020D01*
X2731381Y5078034D01*
X2746966Y5093618D01*
X2755400Y5113980D01*
Y5136020D01*
X2746966Y5156381D01*
X2731381Y5171966D01*
X2711020Y5180400D01*
D02*
G37*
G36*
X5059927Y5175400D02*
X5040073D01*
X5020897Y5170262D01*
X5003703Y5160335D01*
X4989665Y5146297D01*
X4979738Y5129103D01*
X4974600Y5109927D01*
Y5090073D01*
X4979738Y5070897D01*
X4989665Y5053703D01*
X5003703Y5039665D01*
X5020897Y5029738D01*
X5040073Y5024600D01*
X5059927D01*
X5079103Y5029738D01*
X5096297Y5039665D01*
X5110335Y5053703D01*
X5120262Y5070897D01*
X5125400Y5090073D01*
Y5109927D01*
X5120262Y5129103D01*
X5110335Y5146297D01*
X5096297Y5160335D01*
X5079103Y5170262D01*
X5059927Y5175400D01*
D02*
G37*
G36*
X6459927Y5000400D02*
X6440073D01*
X6420897Y4995262D01*
X6403703Y4985335D01*
X6389665Y4971297D01*
X6379738Y4954103D01*
X6375938Y4939919D01*
X6374600Y4934927D01*
X6350400D01*
X6349062Y4939919D01*
X6345262Y4954103D01*
X6335335Y4971297D01*
X6321296Y4985335D01*
X6304103Y4995262D01*
X6284926Y5000400D01*
X6265073D01*
X6245897Y4995262D01*
X6228703Y4985335D01*
X6214665Y4971297D01*
X6204738Y4954103D01*
X6200938Y4939919D01*
X6199600Y4934927D01*
X6175400D01*
X6174062Y4939919D01*
X6170262Y4954103D01*
X6160335Y4971297D01*
X6146297Y4985335D01*
X6129103Y4995262D01*
X6109927Y5000400D01*
X6090073D01*
X6070897Y4995262D01*
X6053703Y4985335D01*
X6039665Y4971297D01*
X6029738Y4954103D01*
X6024600Y4934927D01*
Y4915073D01*
X6029738Y4895897D01*
X6039665Y4878703D01*
X6053703Y4864665D01*
X6070897Y4854738D01*
X6090073Y4849600D01*
X6109927D01*
X6129103Y4854738D01*
X6146297Y4864665D01*
X6160335Y4878703D01*
X6170262Y4895897D01*
X6174062Y4910081D01*
X6175400Y4915073D01*
X6199600D01*
X6200938Y4910081D01*
X6204738Y4895897D01*
X6214665Y4878703D01*
X6228703Y4864665D01*
X6245897Y4854738D01*
X6265073Y4849600D01*
X6284926D01*
X6304103Y4854738D01*
X6321296Y4864665D01*
X6335335Y4878703D01*
X6345262Y4895897D01*
X6349062Y4910081D01*
X6350400Y4915073D01*
X6374600D01*
X6375938Y4910081D01*
X6379738Y4895897D01*
X6389665Y4878703D01*
X6403703Y4864665D01*
X6420897Y4854738D01*
X6440073Y4849600D01*
X6459927D01*
X6479103Y4854738D01*
X6496297Y4864665D01*
X6510335Y4878703D01*
X6520262Y4895897D01*
X6525400Y4915073D01*
Y4934927D01*
X6520262Y4954103D01*
X6510335Y4971297D01*
X6496297Y4985335D01*
X6479103Y4995262D01*
X6459927Y5000400D01*
D02*
G37*
G36*
X4409926Y4725400D02*
X4390073D01*
X4370897Y4720262D01*
X4353703Y4710335D01*
X4339665Y4696297D01*
X4329738Y4679103D01*
X4324600Y4659927D01*
Y4640074D01*
X4329738Y4620897D01*
X4339665Y4603704D01*
X4353703Y4589665D01*
X4370897Y4579738D01*
X4390073Y4574600D01*
X4409926D01*
X4429103Y4579738D01*
X4446296Y4589665D01*
X4460335Y4603704D01*
X4470262Y4620897D01*
X4475400Y4640074D01*
Y4659927D01*
X4470262Y4679103D01*
X4460335Y4696297D01*
X4446296Y4710335D01*
X4429103Y4720262D01*
X4409926Y4725400D01*
D02*
G37*
G36*
X5459927Y4025400D02*
X5440073D01*
X5420897Y4020262D01*
X5403703Y4010335D01*
X5389665Y3996297D01*
X5379738Y3979103D01*
X5375938Y3964919D01*
X5374600Y3959927D01*
X5350400D01*
X5349062Y3964919D01*
X5345262Y3979103D01*
X5335335Y3996297D01*
X5321297Y4010335D01*
X5304103Y4020262D01*
X5284927Y4025400D01*
X5265074D01*
X5245897Y4020262D01*
X5228704Y4010335D01*
X5214665Y3996297D01*
X5204738Y3979103D01*
X5199600Y3959927D01*
Y3940073D01*
X5204738Y3920897D01*
X5214665Y3903703D01*
X5228704Y3889665D01*
X5245897Y3879738D01*
X5265074Y3874600D01*
X5284927D01*
X5304103Y3879738D01*
X5321297Y3889665D01*
X5335335Y3903703D01*
X5345262Y3920897D01*
X5349062Y3935081D01*
X5350400Y3940073D01*
X5374600D01*
X5375938Y3935081D01*
X5379738Y3920897D01*
X5389665Y3903703D01*
X5403703Y3889665D01*
X5420897Y3879738D01*
X5440073Y3874600D01*
X5459927D01*
X5479103Y3879738D01*
X5496297Y3889665D01*
X5510335Y3903703D01*
X5520262Y3920897D01*
X5525400Y3940073D01*
Y3959927D01*
X5520262Y3979103D01*
X5510335Y3996297D01*
X5496297Y4010335D01*
X5479103Y4020262D01*
X5459927Y4025400D01*
D02*
G37*
G36*
X6384927Y3925400D02*
X6365073D01*
X6345897Y3920262D01*
X6328703Y3910335D01*
X6314665Y3896296D01*
X6304738Y3879103D01*
X6299600Y3859926D01*
Y3840073D01*
X6304738Y3820897D01*
X6314665Y3803703D01*
X6328703Y3789665D01*
X6345897Y3779738D01*
X6365073Y3774600D01*
X6384927D01*
X6404103Y3779738D01*
X6421297Y3789665D01*
X6435335Y3803703D01*
X6445262Y3820897D01*
X6450400Y3840073D01*
Y3859926D01*
X6445262Y3879103D01*
X6435335Y3896296D01*
X6421297Y3910335D01*
X6404103Y3920262D01*
X6384927Y3925400D01*
D02*
G37*
G36*
X959926Y3725400D02*
X940073D01*
X920897Y3720262D01*
X903703Y3710335D01*
X889665Y3696297D01*
X879738Y3679103D01*
X874600Y3659927D01*
Y3640073D01*
X879738Y3620897D01*
X889665Y3603703D01*
X903703Y3589665D01*
X920897Y3579738D01*
X940073Y3574600D01*
X959926D01*
X979103Y3579738D01*
X996296Y3589665D01*
X1010335Y3603703D01*
X1020262Y3620897D01*
X1025400Y3640073D01*
Y3659927D01*
X1020262Y3679103D01*
X1010335Y3696297D01*
X996296Y3710335D01*
X979103Y3720262D01*
X959926Y3725400D01*
D02*
G37*
G36*
X709927D02*
X690074D01*
X670897Y3720262D01*
X653704Y3710335D01*
X639665Y3696297D01*
X629738Y3679103D01*
X624600Y3659927D01*
Y3640073D01*
X629738Y3620897D01*
X639665Y3603703D01*
X653704Y3589665D01*
X670897Y3579738D01*
X690074Y3574600D01*
X709927D01*
X729103Y3579738D01*
X746297Y3589665D01*
X760335Y3603703D01*
X770262Y3620897D01*
X775400Y3640073D01*
Y3659927D01*
X770262Y3679103D01*
X760335Y3696297D01*
X746297Y3710335D01*
X729103Y3720262D01*
X709927Y3725400D01*
D02*
G37*
G36*
X6911020Y3355400D02*
X6888980D01*
X6868618Y3346966D01*
X6853034Y3331381D01*
X6844600Y3311020D01*
Y3288980D01*
X6853034Y3268619D01*
X6868618Y3253034D01*
X6888980Y3244600D01*
X6911020D01*
X6931381Y3253034D01*
X6946966Y3268619D01*
X6955400Y3288980D01*
Y3311020D01*
X6946966Y3331381D01*
X6931381Y3346966D01*
X6911020Y3355400D01*
D02*
G37*
G36*
X7084927Y3375400D02*
X7065073D01*
X7045897Y3370262D01*
X7028703Y3360335D01*
X7014665Y3346297D01*
X7004738Y3329103D01*
X6999600Y3309927D01*
Y3290073D01*
X7004738Y3270897D01*
X7014665Y3253703D01*
X7028703Y3239665D01*
X7045897Y3229738D01*
X7065073Y3224600D01*
X7084927D01*
X7104103Y3229738D01*
X7121297Y3239665D01*
X7135335Y3253703D01*
X7145262Y3270897D01*
X7150400Y3290073D01*
Y3309927D01*
X7145262Y3329103D01*
X7135335Y3346297D01*
X7121297Y3360335D01*
X7104103Y3370262D01*
X7084927Y3375400D01*
D02*
G37*
G36*
X5734927Y2900400D02*
X5715073D01*
X5695897Y2895262D01*
X5678703Y2885335D01*
X5664665Y2871297D01*
X5654738Y2854103D01*
X5649600Y2834927D01*
Y2815073D01*
X5654738Y2795897D01*
X5664665Y2778703D01*
X5678703Y2764665D01*
X5695897Y2754738D01*
X5715073Y2749600D01*
X5734927D01*
X5754103Y2754738D01*
X5771297Y2764665D01*
X5785335Y2778703D01*
X5795262Y2795897D01*
X5800400Y2815073D01*
Y2834927D01*
X5795262Y2854103D01*
X5785335Y2871297D01*
X5771297Y2885335D01*
X5754103Y2895262D01*
X5734927Y2900400D01*
D02*
G37*
G36*
X6841020Y2192900D02*
X6818980D01*
X6798619Y2184466D01*
X6783034Y2168881D01*
X6774600Y2148520D01*
Y2126480D01*
X6783034Y2106118D01*
X6798619Y2090534D01*
X6818980Y2082100D01*
X6841020D01*
X6861382Y2090534D01*
X6876966Y2106118D01*
X6885400Y2126480D01*
Y2148520D01*
X6876966Y2168881D01*
X6861382Y2184466D01*
X6841020Y2192900D01*
D02*
G37*
G36*
X6811020Y2005400D02*
X6788980D01*
X6768619Y1996966D01*
X6753034Y1981381D01*
X6744600Y1961020D01*
Y1938980D01*
X6753034Y1918618D01*
X6768619Y1903034D01*
X6772935Y1901246D01*
Y1873753D01*
X6768619Y1871966D01*
X6753034Y1856381D01*
X6744600Y1836020D01*
Y1813980D01*
X6753034Y1793618D01*
X6768619Y1778034D01*
X6772935Y1776246D01*
Y1748753D01*
X6768619Y1746966D01*
X6753034Y1731381D01*
X6744600Y1711020D01*
Y1688980D01*
X6753034Y1668618D01*
X6768619Y1653034D01*
X6788980Y1644600D01*
X6811020D01*
X6831382Y1653034D01*
X6846966Y1668618D01*
X6855400Y1688980D01*
Y1711020D01*
X6846966Y1731381D01*
X6831382Y1746966D01*
X6827066Y1748753D01*
Y1776246D01*
X6831382Y1778034D01*
X6846966Y1793618D01*
X6855400Y1813980D01*
Y1836020D01*
X6846966Y1856381D01*
X6831382Y1871966D01*
X6827066Y1873753D01*
Y1901246D01*
X6831382Y1903034D01*
X6846966Y1918618D01*
X6855400Y1938980D01*
Y1961020D01*
X6846966Y1981381D01*
X6831382Y1996966D01*
X6811020Y2005400D01*
D02*
G37*
G36*
X7046020Y1569400D02*
X7023980D01*
X7003618Y1560966D01*
X6988034Y1545381D01*
X6979600Y1525020D01*
Y1502980D01*
X6988034Y1482618D01*
X7003618Y1467034D01*
X7023980Y1458600D01*
X7046020D01*
X7066381Y1467034D01*
X7081966Y1482618D01*
X7090400Y1502980D01*
Y1525020D01*
X7081966Y1545381D01*
X7066381Y1560966D01*
X7046020Y1569400D01*
D02*
G37*
G36*
X6339927Y1585400D02*
X6320073D01*
X6300897Y1580262D01*
X6283703Y1570335D01*
X6269665Y1556297D01*
X6259738Y1539103D01*
X6254600Y1519927D01*
Y1500073D01*
X6259738Y1480897D01*
X6269665Y1463703D01*
X6283703Y1449665D01*
X6300897Y1439738D01*
X6320073Y1434600D01*
X6339927D01*
X6359103Y1439738D01*
X6376297Y1449665D01*
X6390335Y1463703D01*
X6400262Y1480897D01*
X6405400Y1500073D01*
Y1519927D01*
X6400262Y1539103D01*
X6390335Y1556297D01*
X6376297Y1570335D01*
X6359103Y1580262D01*
X6339927Y1585400D01*
D02*
G37*
G36*
X6149926D02*
X6130073D01*
X6110897Y1580262D01*
X6093703Y1570335D01*
X6079665Y1556297D01*
X6069738Y1539103D01*
X6064600Y1519927D01*
Y1500073D01*
X6069738Y1480897D01*
X6079665Y1463703D01*
X6093703Y1449665D01*
X6110897Y1439738D01*
X6130073Y1434600D01*
X6149926D01*
X6169103Y1439738D01*
X6186296Y1449665D01*
X6200335Y1463703D01*
X6210262Y1480897D01*
X6215400Y1500073D01*
Y1519927D01*
X6210262Y1539103D01*
X6200335Y1556297D01*
X6186296Y1570335D01*
X6169103Y1580262D01*
X6149926Y1585400D01*
D02*
G37*
G36*
X7616180Y1884900D02*
X7583820D01*
X7552562Y1876525D01*
X7524538Y1860345D01*
X7501656Y1837462D01*
X7485476Y1809438D01*
X7477100Y1778180D01*
Y1745820D01*
X7485476Y1714562D01*
X7501656Y1686538D01*
X7524538Y1663656D01*
X7550971Y1648394D01*
X7552562Y1640102D01*
Y1629898D01*
X7550971Y1621606D01*
X7524538Y1606345D01*
X7501656Y1583462D01*
X7485476Y1555438D01*
X7477100Y1524180D01*
Y1491820D01*
X7485476Y1460562D01*
X7501656Y1432538D01*
X7524538Y1409656D01*
X7545338Y1397647D01*
X7547610Y1387290D01*
X7547110Y1375840D01*
X7545171Y1369568D01*
X7521713Y1356025D01*
X7497975Y1332287D01*
X7481189Y1303213D01*
X7474701Y1279000D01*
X7600000D01*
X7725299D01*
X7718811Y1303213D01*
X7702025Y1332287D01*
X7678287Y1356025D01*
X7654829Y1369568D01*
X7652890Y1375840D01*
X7652390Y1387290D01*
X7654662Y1397647D01*
X7675462Y1409656D01*
X7698345Y1432538D01*
X7714525Y1460562D01*
X7722900Y1491820D01*
Y1524180D01*
X7714525Y1555438D01*
X7698345Y1583462D01*
X7675462Y1606345D01*
X7649029Y1621606D01*
X7647438Y1629898D01*
Y1640102D01*
X7649029Y1648394D01*
X7675462Y1663656D01*
X7698345Y1686538D01*
X7714525Y1714562D01*
X7722900Y1745820D01*
Y1778180D01*
X7714525Y1809438D01*
X7698345Y1837462D01*
X7675462Y1860345D01*
X7647438Y1876525D01*
X7616180Y1884900D01*
D02*
G37*
G36*
X7725299Y1229000D02*
X7600000D01*
X7474701D01*
X7481189Y1204787D01*
X7497975Y1175713D01*
X7521713Y1151975D01*
X7540504Y1141126D01*
Y1112874D01*
X7521713Y1102025D01*
X7497975Y1078287D01*
X7481189Y1049213D01*
X7474701Y1025000D01*
X7600000D01*
X7725299D01*
X7718811Y1049213D01*
X7702025Y1078287D01*
X7678287Y1102025D01*
X7659496Y1112874D01*
Y1141126D01*
X7678287Y1151975D01*
X7702025Y1175713D01*
X7718811Y1204787D01*
X7725299Y1229000D01*
D02*
G37*
G36*
Y975000D02*
X7625000D01*
Y874701D01*
X7649213Y881189D01*
X7678287Y897975D01*
X7702025Y921713D01*
X7718811Y950787D01*
X7725299Y975000D01*
D02*
G37*
G36*
X7575000D02*
X7474701D01*
X7481189Y950787D01*
X7497975Y921713D01*
X7521713Y897975D01*
X7550787Y881189D01*
X7575000Y874701D01*
Y975000D01*
D02*
G37*
G36*
X6461020Y355400D02*
X6438980D01*
X6418619Y346966D01*
X6403034Y331381D01*
X6394600Y311020D01*
Y288980D01*
X6403034Y268618D01*
X6418619Y253034D01*
X6438980Y244600D01*
X6461020D01*
X6481382Y253034D01*
X6496966Y268618D01*
X6505400Y288980D01*
Y311020D01*
X6496966Y331381D01*
X6481382Y346966D01*
X6461020Y355400D01*
D02*
G37*
%LPD*%
D58*
X1825000Y3325000D02*
D03*
X4825000Y600000D02*
D03*
X275000Y4850000D02*
D03*
X1975000Y7400000D02*
D03*
X1825000Y600000D02*
D03*
X4825000Y3325000D02*
D03*
X7725000Y275000D02*
D03*
X275000D02*
D03*
Y7725000D02*
D03*
X7725000D02*
D03*
D59*
X4217000Y7556000D02*
D03*
Y7810000D02*
D03*
X3963000D02*
D03*
Y7556000D02*
D03*
X4471000Y7810000D02*
D03*
X4725000D02*
D03*
X4979000D02*
D03*
X5233000D02*
D03*
X4471000Y7556000D02*
D03*
X4725000D02*
D03*
X4979000D02*
D03*
X5233000D02*
D03*
D61*
X7600000Y1254000D02*
D03*
Y1000000D02*
D03*
Y1508000D02*
D03*
Y1762000D02*
D03*
D62*
X1995000Y3325000D02*
D03*
X1825000Y3155000D02*
D03*
X1655000Y3325000D02*
D03*
X1705000Y3445000D02*
D03*
X1945000D02*
D03*
X1825000Y3495000D02*
D03*
X1705000Y3205000D02*
D03*
X1945000D02*
D03*
X3652500Y5172500D02*
D03*
X3660000Y5085000D02*
D03*
X4500000Y455000D02*
D03*
X4995000Y600000D02*
D03*
X4825000Y430000D02*
D03*
X4655000Y600000D02*
D03*
X4705000Y720000D02*
D03*
X4945000D02*
D03*
X4825000Y770000D02*
D03*
X4705000Y480000D02*
D03*
X4945000D02*
D03*
X400000Y7400000D02*
D03*
X275000D02*
D03*
X275016Y7250020D02*
D03*
X445000Y4850000D02*
D03*
X275000Y4680000D02*
D03*
X105000Y4850000D02*
D03*
X155000Y4970000D02*
D03*
X395000D02*
D03*
X275000Y5020000D02*
D03*
X155000Y4730000D02*
D03*
X395000D02*
D03*
X2145000Y7400000D02*
D03*
X1975000Y7230000D02*
D03*
X1805000Y7400000D02*
D03*
X1855000Y7520000D02*
D03*
X2095000D02*
D03*
X1975000Y7570000D02*
D03*
X1855000Y7280000D02*
D03*
X2095000D02*
D03*
X1824999Y925001D02*
D03*
X1995000Y600000D02*
D03*
X1825000Y430000D02*
D03*
X1655000Y600000D02*
D03*
X1705000Y720000D02*
D03*
X1945000D02*
D03*
X1825000Y770000D02*
D03*
X1705000Y480000D02*
D03*
X1945000D02*
D03*
X4995000Y3325000D02*
D03*
X4825000Y3155000D02*
D03*
X4655000Y3325000D02*
D03*
X4705000Y3445000D02*
D03*
X4945000D02*
D03*
X4825000Y3495000D02*
D03*
X4705000Y3205000D02*
D03*
X4945000D02*
D03*
X7540500Y6025000D02*
D03*
X7840500D02*
D03*
X7690500D02*
D03*
Y5925000D02*
D03*
X7840500D02*
D03*
X7540500D02*
D03*
Y5575000D02*
D03*
X7840500D02*
D03*
X7690500D02*
D03*
Y5475000D02*
D03*
X7840500D02*
D03*
X7540500D02*
D03*
X6830000Y2137500D02*
D03*
X3225000Y6300000D02*
D03*
X3752500Y5175000D02*
D03*
X3325000Y6300000D02*
D03*
X2700000Y5125000D02*
D03*
X2949996Y605000D02*
D03*
X3074996D02*
D03*
X3199997D02*
D03*
X3324997D02*
D03*
X3449998D02*
D03*
X3574998D02*
D03*
X3699999D02*
D03*
X3824999D02*
D03*
X1824999Y3050010D02*
D03*
Y2925009D02*
D03*
Y2800009D02*
D03*
Y2675008D02*
D03*
Y2550008D02*
D03*
Y2425007D02*
D03*
Y2300007D02*
D03*
Y2175006D02*
D03*
Y2050006D02*
D03*
Y1925005D02*
D03*
Y1800005D02*
D03*
Y1675004D02*
D03*
Y1550004D02*
D03*
Y1425003D02*
D03*
Y1300002D02*
D03*
Y1175002D02*
D03*
Y1050001D02*
D03*
X2125000Y600000D02*
D03*
X2749994Y3325000D02*
D03*
X2874995D02*
D03*
X2999995D02*
D03*
X3124996D02*
D03*
X3249996D02*
D03*
X3374997D02*
D03*
X3499997D02*
D03*
X3624998D02*
D03*
X3749998D02*
D03*
X4828119Y3076928D02*
D03*
Y2951927D02*
D03*
Y2826927D02*
D03*
Y2701926D02*
D03*
Y2576926D02*
D03*
Y2451925D02*
D03*
Y2326924D02*
D03*
Y2201924D02*
D03*
Y2076923D02*
D03*
Y1951923D02*
D03*
Y1826922D02*
D03*
X4825001Y1700004D02*
D03*
Y1575004D02*
D03*
Y1450003D02*
D03*
Y1325003D02*
D03*
Y1200002D02*
D03*
Y1075002D02*
D03*
Y950001D02*
D03*
X4575001Y3325000D02*
D03*
X4450000D02*
D03*
X4000000Y4550000D02*
D03*
X3850000D02*
D03*
X3700000D02*
D03*
X3550000D02*
D03*
X3400000D02*
D03*
X3250000Y4625000D02*
D03*
X3100000Y4550000D02*
D03*
X2950000D02*
D03*
X2800000D02*
D03*
X2650000D02*
D03*
X3402500Y4742500D02*
D03*
X3550000Y4735000D02*
D03*
X3700000D02*
D03*
X3850000D02*
D03*
X4000000D02*
D03*
X3105000Y5000000D02*
D03*
Y5150000D02*
D03*
X3100000Y4740000D02*
D03*
X3005000Y4735000D02*
D03*
X2880000D02*
D03*
X2755000D02*
D03*
X2630000D02*
D03*
X2505000D02*
D03*
X2380000D02*
D03*
X2300000Y4675000D02*
D03*
X800022Y7400017D02*
D03*
X1250011Y7400026D02*
D03*
X1400012Y7400025D02*
D03*
X1550014Y7400024D02*
D03*
X1700015Y7400023D02*
D03*
X1975011Y7100013D02*
D03*
X1975010Y6950012D02*
D03*
X1975009Y6800011D02*
D03*
X1975008Y6650010D02*
D03*
X1975007Y6500009D02*
D03*
X1975006Y6350007D02*
D03*
X1975005Y6200006D02*
D03*
X1975004Y6050005D02*
D03*
X1975003Y5900004D02*
D03*
X1975002Y5750002D02*
D03*
X1975001Y5600001D02*
D03*
X1975000Y5450000D02*
D03*
X1975001Y5150001D02*
D03*
X1975000Y5000000D02*
D03*
X650021Y7400018D02*
D03*
X500020Y7400019D02*
D03*
X275015Y7100018D02*
D03*
X275014Y6950017D02*
D03*
X275013Y6800016D02*
D03*
X275012Y6650015D02*
D03*
X275011Y6500013D02*
D03*
X275010Y6350012D02*
D03*
X275009Y6200011D02*
D03*
X275008Y6050010D02*
D03*
X275007Y5900009D02*
D03*
X275006Y5750007D02*
D03*
X275005Y5600006D02*
D03*
X275004Y5450005D02*
D03*
X275003Y5300004D02*
D03*
X275002Y5150002D02*
D03*
X560000Y4850000D02*
D03*
X1019996Y4850004D02*
D03*
X1169997Y4850003D02*
D03*
X1319998Y4850002D02*
D03*
X6900000Y3300000D02*
D03*
X6450000Y300000D02*
D03*
X6800000Y1700000D02*
D03*
Y1825000D02*
D03*
Y1950000D02*
D03*
X7035000Y1514000D02*
D03*
X4000000Y4375000D02*
D03*
X4200000D02*
D03*
X4000000Y4250000D02*
D03*
X4200000D02*
D03*
X4000000Y4125000D02*
D03*
X4200000D02*
D03*
X4000000Y4000000D02*
D03*
X4200000D02*
D03*
X4000000Y3875000D02*
D03*
X4200000D02*
D03*
X2300000Y4300000D02*
D03*
Y4175000D02*
D03*
Y4050000D02*
D03*
Y3925000D02*
D03*
X2500000D02*
D03*
Y4050000D02*
D03*
Y4175000D02*
D03*
Y4300000D02*
D03*
X7725000Y105000D02*
D03*
X7895000Y275000D02*
D03*
X7725000Y445000D02*
D03*
X7605000Y395000D02*
D03*
Y155000D02*
D03*
X7555000Y275000D02*
D03*
X7845000Y395000D02*
D03*
Y155000D02*
D03*
X275000Y105000D02*
D03*
X445000Y275000D02*
D03*
X275000Y445000D02*
D03*
X155000Y395000D02*
D03*
Y155000D02*
D03*
X105000Y275000D02*
D03*
X395000Y395000D02*
D03*
Y155000D02*
D03*
X2250000Y650000D02*
D03*
X2375000Y1875000D02*
D03*
X2375001Y1725000D02*
D03*
X2275001Y1625000D02*
D03*
X2272500Y1495000D02*
D03*
X2375001Y1275000D02*
D03*
X2300000Y1375000D02*
D03*
X2375001Y1125000D02*
D03*
X2325000Y1025000D02*
D03*
X2250001Y925000D02*
D03*
Y775000D02*
D03*
X4499999D02*
D03*
Y925000D02*
D03*
X4425000Y1025000D02*
D03*
X4374999Y1125000D02*
D03*
X4425000Y1375000D02*
D03*
X4374999Y1275000D02*
D03*
X4474999Y1475000D02*
D03*
X4474999Y1625000D02*
D03*
X4374999Y1725000D02*
D03*
X4375000Y1875000D02*
D03*
X2665000Y675000D02*
D03*
X2665001Y825000D02*
D03*
X2665001Y975000D02*
D03*
X2665002Y1125001D02*
D03*
X2665002Y1275001D02*
D03*
X2665003Y1425001D02*
D03*
X2665003Y1575001D02*
D03*
X2665004Y1725001D02*
D03*
X2665004Y1875002D02*
D03*
X2385000Y2320000D02*
D03*
X2650001Y2325000D02*
D03*
Y2175000D02*
D03*
X2665005Y2025002D02*
D03*
X2225000Y2320000D02*
D03*
X2225000Y2175000D02*
D03*
Y2025000D02*
D03*
X2375000D02*
D03*
X2625000Y2475000D02*
D03*
X2474999Y2625000D02*
D03*
X2324999D02*
D03*
X2175000Y2625000D02*
D03*
X2625000D02*
D03*
X2400000Y2475000D02*
D03*
X2500000Y3400000D02*
D03*
Y4425000D02*
D03*
Y4550000D02*
D03*
X4140000Y4720000D02*
D03*
X4325001Y3225000D02*
D03*
X4325000Y3400000D02*
D03*
X4200000Y4500000D02*
D03*
X4200000Y4625000D02*
D03*
X4199999Y3400000D02*
D03*
X3999999D02*
D03*
X4375000Y2025000D02*
D03*
X4525000D02*
D03*
Y2175000D02*
D03*
Y2325000D02*
D03*
X4099999Y525004D02*
D03*
Y675003D02*
D03*
Y825003D02*
D03*
Y975003D02*
D03*
Y1125002D02*
D03*
Y1275002D02*
D03*
Y1425002D02*
D03*
Y1575001D02*
D03*
Y1725001D02*
D03*
Y1875001D02*
D03*
Y2025001D02*
D03*
Y2175000D02*
D03*
X755000Y4192500D02*
D03*
X845000D02*
D03*
X3400000Y5300000D02*
D03*
Y5150000D02*
D03*
Y5000000D02*
D03*
X7254000Y7454500D02*
D03*
X6804000D02*
D03*
X6904000D02*
D03*
X6804000Y7604500D02*
D03*
Y7904500D02*
D03*
Y7754500D02*
D03*
X6904000D02*
D03*
Y7904500D02*
D03*
Y7604500D02*
D03*
X7254000D02*
D03*
Y7904500D02*
D03*
Y7754500D02*
D03*
X7354000D02*
D03*
Y7904500D02*
D03*
Y7604500D02*
D03*
Y7454500D02*
D03*
X4099999Y2475000D02*
D03*
X4324999Y2750000D02*
D03*
Y2900000D02*
D03*
Y2625000D02*
D03*
Y3050000D02*
D03*
X3875000Y2625000D02*
D03*
X4024999Y2625000D02*
D03*
X4174999D02*
D03*
X3874999Y2775000D02*
D03*
X3874999Y3325000D02*
D03*
X3874999Y2925000D02*
D03*
Y3075000D02*
D03*
Y3225000D02*
D03*
X2175000D02*
D03*
Y3075000D02*
D03*
Y2925000D02*
D03*
X2175000Y3325000D02*
D03*
X2175000Y2775000D02*
D03*
X4099999Y2325000D02*
D03*
X2700000Y120500D02*
D03*
X2800000Y420500D02*
D03*
X2350000Y120500D02*
D03*
X2799999Y570500D02*
D03*
X2250000Y270500D02*
D03*
X2700000D02*
D03*
X2700000Y570500D02*
D03*
X2350000Y420500D02*
D03*
X2800000Y270500D02*
D03*
X2250000Y120500D02*
D03*
X2350000Y270500D02*
D03*
X2700000Y420500D02*
D03*
X2800000Y120500D02*
D03*
X2250000Y420500D02*
D03*
X2300000Y5975001D02*
D03*
X2450000D02*
D03*
X2300000Y5825001D02*
D03*
X2450000D02*
D03*
Y5675000D02*
D03*
X2300000D02*
D03*
X2295000Y5525000D02*
D03*
X2450000Y5500000D02*
D03*
Y5300000D02*
D03*
X2295000Y5225000D02*
D03*
X2297500Y5377500D02*
D03*
X2625000Y3225000D02*
D03*
Y3075000D02*
D03*
X2625000Y2925000D02*
D03*
Y2775000D02*
D03*
X2300000Y4425000D02*
D03*
Y4550000D02*
D03*
X725220Y5980000D02*
D03*
X575220D02*
D03*
X725000Y7100000D02*
D03*
X800220Y6315000D02*
D03*
X650220Y6215000D02*
D03*
X800220D02*
D03*
X425220Y6140000D02*
D03*
Y6290000D02*
D03*
X662500Y6315000D02*
D03*
X875000Y6950000D02*
D03*
Y7100000D02*
D03*
Y6800000D02*
D03*
X875220Y5980000D02*
D03*
X890000Y5600000D02*
D03*
X1125000Y6800000D02*
D03*
Y6950000D02*
D03*
Y7100000D02*
D03*
X4324999Y2475000D02*
D03*
X4375000Y2325000D02*
D03*
X3950000Y605000D02*
D03*
Y455000D02*
D03*
Y154999D02*
D03*
Y305000D02*
D03*
X4050000D02*
D03*
Y154999D02*
D03*
Y455000D02*
D03*
X4400000D02*
D03*
Y154999D02*
D03*
Y305000D02*
D03*
X4500000D02*
D03*
Y154999D02*
D03*
X4400000Y575000D02*
D03*
X4500000Y650000D02*
D03*
X890000Y5750000D02*
D03*
Y5900000D02*
D03*
X425220Y5980000D02*
D03*
Y6440000D02*
D03*
X725000Y7250000D02*
D03*
X725000Y7850000D02*
D03*
Y7700000D02*
D03*
Y7550000D02*
D03*
X800000Y7850000D02*
D03*
Y7700000D02*
D03*
Y7550000D02*
D03*
X875000D02*
D03*
Y7700000D02*
D03*
Y7850000D02*
D03*
X1275000D02*
D03*
Y7700000D02*
D03*
Y7550000D02*
D03*
X1200000Y7850000D02*
D03*
Y7700000D02*
D03*
X1125000Y7550000D02*
D03*
Y7700000D02*
D03*
Y7850000D02*
D03*
Y7400000D02*
D03*
Y7250000D02*
D03*
X1125220Y6590000D02*
D03*
Y5965000D02*
D03*
X1125000Y5875000D02*
D03*
X2754000Y7404500D02*
D03*
X2304000Y7704500D02*
D03*
Y7554500D02*
D03*
Y7854500D02*
D03*
X2404000D02*
D03*
Y7554500D02*
D03*
Y7704500D02*
D03*
X2754000D02*
D03*
Y7554500D02*
D03*
Y7854500D02*
D03*
X2854000D02*
D03*
Y7554500D02*
D03*
Y7704500D02*
D03*
X2400000Y7400000D02*
D03*
X2300000Y7250000D02*
D03*
X275000Y7555000D02*
D03*
X445000Y7725000D02*
D03*
X275000Y7895000D02*
D03*
X155000Y7845000D02*
D03*
Y7605000D02*
D03*
X105000Y7725000D02*
D03*
X395000Y7845000D02*
D03*
Y7605000D02*
D03*
X7845000D02*
D03*
Y7845000D02*
D03*
X7555000Y7725000D02*
D03*
X7605000Y7605000D02*
D03*
Y7845000D02*
D03*
X7725000Y7895000D02*
D03*
X7895000Y7725000D02*
D03*
X7725000Y7555000D02*
D03*
X1005220Y6350000D02*
D03*
X1095220D02*
D03*
Y6260000D02*
D03*
X800220Y6415000D02*
D03*
X662500D02*
D03*
X875220Y6600000D02*
D03*
X735220D02*
D03*
X575000Y6607500D02*
D03*
X425220Y6600000D02*
D03*
X1005220Y6260000D02*
D03*
X2300000Y7025000D02*
D03*
X2305000Y6830000D02*
D03*
X1769999Y4850001D02*
D03*
X1619999D02*
D03*
X1469999D02*
D03*
X1250000Y4950000D02*
D03*
X1250000Y5075001D02*
D03*
X1849999Y5825000D02*
D03*
X1699999D02*
D03*
X1549999D02*
D03*
X1399999D02*
D03*
X1250000Y5675000D02*
D03*
X1600000Y5700000D02*
D03*
Y5550000D02*
D03*
Y5400000D02*
D03*
Y5250000D02*
D03*
X1675000Y5175000D02*
D03*
Y5325000D02*
D03*
Y5475000D02*
D03*
X1525000Y5175000D02*
D03*
Y5325000D02*
D03*
Y5475000D02*
D03*
X1600000Y5100000D02*
D03*
Y4950000D02*
D03*
X950000Y5225000D02*
D03*
X1100000D02*
D03*
X1250000D02*
D03*
X1920000Y4850000D02*
D03*
X2150000Y5225000D02*
D03*
X2075000Y5450000D02*
D03*
X1250000Y5825000D02*
D03*
Y5525000D02*
D03*
X1175000Y5450000D02*
D03*
X1125000Y5725000D02*
D03*
Y5575000D02*
D03*
X1200220Y6040000D02*
D03*
X1350220D02*
D03*
Y6190000D02*
D03*
Y6340000D02*
D03*
Y6490000D02*
D03*
X1200220Y6490000D02*
D03*
X1200000Y7550000D02*
D03*
X2250000Y570500D02*
D03*
X2300000Y7125000D02*
D03*
X2300000Y3400000D02*
D03*
X2625000Y3325000D02*
D03*
X4302500Y6630000D02*
D03*
D63*
X5950000Y1195000D02*
D03*
X6211500Y242760D02*
D03*
X6011500Y246260D02*
D03*
X5811500Y242760D02*
D03*
X7475000Y2350000D02*
D03*
X7475000Y2150000D02*
D03*
X7675000D02*
D03*
X7875000D02*
D03*
Y2350000D02*
D03*
Y2550000D02*
D03*
Y2750000D02*
D03*
Y2950000D02*
D03*
Y3150000D02*
D03*
X7300000Y125000D02*
D03*
X7100000D02*
D03*
X6900000D02*
D03*
X6700000D02*
D03*
X6500000D02*
D03*
X6300000D02*
D03*
X6100000D02*
D03*
X5900000D02*
D03*
X5700000D02*
D03*
X5500000D02*
D03*
X5900000Y1400000D02*
D03*
Y1550000D02*
D03*
X5275000Y3399998D02*
D03*
X5895000Y3935000D02*
D03*
Y4117500D02*
D03*
X5415000Y7000000D02*
D03*
X5700000Y6675000D02*
D03*
X5450000Y3950000D02*
D03*
X6375000Y3850000D02*
D03*
X5950000Y3499998D02*
D03*
X5750000D02*
D03*
X5550000D02*
D03*
X5350000D02*
D03*
X5225000Y3500000D02*
D03*
X5849999Y3399998D02*
D03*
X5650000D02*
D03*
X5450000D02*
D03*
X5125000D02*
D03*
X5225000Y3299998D02*
D03*
X5125000Y3199998D02*
D03*
X5225000Y3099998D02*
D03*
X5125000Y2999998D02*
D03*
X5225000Y2899998D02*
D03*
X5125000Y2799998D02*
D03*
X5225000Y2699998D02*
D03*
X5125000Y2599998D02*
D03*
X5225000Y2499998D02*
D03*
X5125000Y2399998D02*
D03*
X5225000Y2299998D02*
D03*
X5125000Y2199998D02*
D03*
X5225000Y2099999D02*
D03*
X5125000Y1999999D02*
D03*
X5225000Y1899999D02*
D03*
X5125000Y1799999D02*
D03*
X5225000Y1699999D02*
D03*
X5125000Y1599999D02*
D03*
X5225000Y1499999D02*
D03*
X5125000Y1399999D02*
D03*
X5225000Y1299999D02*
D03*
X5125000Y1199999D02*
D03*
X5225000Y1099999D02*
D03*
X5125000Y999999D02*
D03*
X5225000Y899999D02*
D03*
X5125000Y799999D02*
D03*
X5225000Y700000D02*
D03*
X5125000Y600000D02*
D03*
X5225000Y500000D02*
D03*
X5125000Y400000D02*
D03*
X5225000Y300000D02*
D03*
X5125000Y200000D02*
D03*
X5222500Y110000D02*
D03*
X4400000Y4650000D02*
D03*
X5050000Y5100000D02*
D03*
Y5325000D02*
D03*
X6875000Y5950000D02*
D03*
X7100000D02*
D03*
X6475000Y5275000D02*
D03*
Y5450000D02*
D03*
X6100000Y4925000D02*
D03*
X6275000D02*
D03*
X6450000D02*
D03*
X2800000Y6625000D02*
D03*
X375000Y5650000D02*
D03*
X950000Y3650000D02*
D03*
X700000D02*
D03*
X6330000Y1510000D02*
D03*
X6140000D02*
D03*
X5525000Y1225000D02*
D03*
X5725000Y2825000D02*
D03*
X5525000D02*
D03*
Y1000000D02*
D03*
X5275000Y3950000D02*
D03*
X7075000Y3300000D02*
D03*
X7275000D02*
D03*
X3225000Y5550000D02*
D03*
X3525000D02*
D03*
X3375000D02*
D03*
X3675000D02*
D03*
X3525000Y5725000D02*
D03*
X3375000D02*
D03*
X3225000D02*
D03*
X3675000D02*
D03*
X3375000Y5875000D02*
D03*
X3225000D02*
D03*
X3525000D02*
D03*
X3675000D02*
D03*
X3225000Y6025000D02*
D03*
X3375000D02*
D03*
X3525000D02*
D03*
X4180000Y6923000D02*
D03*
X4030000D02*
D03*
X3880000Y6928000D02*
D03*
X3730000D02*
D03*
X3580000D02*
D03*
X3430000Y6923000D02*
D03*
X3280000D02*
D03*
X3130000D02*
D03*
X2980000D02*
D03*
X385000Y4500000D02*
D03*
X7150000Y4250000D02*
D03*
X4994540Y4325000D02*
D03*
X1142500Y4005000D02*
D03*
X2800000Y6275000D02*
D03*
X6650000Y7305000D02*
D03*
%TF.MD5,3d55b2194663ebcaff3d594565833200*%
M02*
